%TF.GenerationSoftware,KiCad,Pcbnew,7.0.1*%
%TF.CreationDate,2023-06-14T21:40:42+02:00*%
%TF.ProjectId,6510_board,36353130-5f62-46f6-9172-642e6b696361,rev?*%
%TF.SameCoordinates,Original*%
%TF.FileFunction,Legend,Top*%
%TF.FilePolarity,Positive*%
%FSLAX46Y46*%
G04 Gerber Fmt 4.6, Leading zero omitted, Abs format (unit mm)*
G04 Created by KiCad (PCBNEW 7.0.1) date 2023-06-14 21:40:42*
%MOMM*%
%LPD*%
G01*
G04 APERTURE LIST*
%ADD10C,0.300000*%
%ADD11C,0.150000*%
%ADD12C,0.120000*%
%ADD13C,0.010000*%
G04 APERTURE END LIST*
D10*
X70479047Y-83887438D02*
X69952380Y-83135057D01*
X69576190Y-83887438D02*
X69576190Y-82307438D01*
X69576190Y-82307438D02*
X70178095Y-82307438D01*
X70178095Y-82307438D02*
X70328571Y-82382676D01*
X70328571Y-82382676D02*
X70403809Y-82457914D01*
X70403809Y-82457914D02*
X70479047Y-82608390D01*
X70479047Y-82608390D02*
X70479047Y-82834104D01*
X70479047Y-82834104D02*
X70403809Y-82984580D01*
X70403809Y-82984580D02*
X70328571Y-83059819D01*
X70328571Y-83059819D02*
X70178095Y-83135057D01*
X70178095Y-83135057D02*
X69576190Y-83135057D01*
X71080952Y-83812200D02*
X71306666Y-83887438D01*
X71306666Y-83887438D02*
X71682857Y-83887438D01*
X71682857Y-83887438D02*
X71833333Y-83812200D01*
X71833333Y-83812200D02*
X71908571Y-83736961D01*
X71908571Y-83736961D02*
X71983809Y-83586485D01*
X71983809Y-83586485D02*
X71983809Y-83436009D01*
X71983809Y-83436009D02*
X71908571Y-83285533D01*
X71908571Y-83285533D02*
X71833333Y-83210295D01*
X71833333Y-83210295D02*
X71682857Y-83135057D01*
X71682857Y-83135057D02*
X71381904Y-83059819D01*
X71381904Y-83059819D02*
X71231428Y-82984580D01*
X71231428Y-82984580D02*
X71156190Y-82909342D01*
X71156190Y-82909342D02*
X71080952Y-82758866D01*
X71080952Y-82758866D02*
X71080952Y-82608390D01*
X71080952Y-82608390D02*
X71156190Y-82457914D01*
X71156190Y-82457914D02*
X71231428Y-82382676D01*
X71231428Y-82382676D02*
X71381904Y-82307438D01*
X71381904Y-82307438D02*
X71758095Y-82307438D01*
X71758095Y-82307438D02*
X71983809Y-82382676D01*
X72435238Y-82307438D02*
X73338095Y-82307438D01*
X72886666Y-83887438D02*
X72886666Y-82307438D01*
X70629523Y-84867038D02*
X69425714Y-86447038D01*
X69877142Y-86447038D02*
X69726666Y-86371800D01*
X69726666Y-86371800D02*
X69576190Y-86221323D01*
X69576190Y-86221323D02*
X69500952Y-85920371D01*
X69500952Y-85920371D02*
X69500952Y-85393704D01*
X69500952Y-85393704D02*
X69576190Y-85092752D01*
X69576190Y-85092752D02*
X69726666Y-84942276D01*
X69726666Y-84942276D02*
X69877142Y-84867038D01*
X69877142Y-84867038D02*
X70178095Y-84867038D01*
X70178095Y-84867038D02*
X70328571Y-84942276D01*
X70328571Y-84942276D02*
X70479047Y-85092752D01*
X70479047Y-85092752D02*
X70554285Y-85393704D01*
X70554285Y-85393704D02*
X70554285Y-85920371D01*
X70554285Y-85920371D02*
X70479047Y-86221323D01*
X70479047Y-86221323D02*
X70328571Y-86371800D01*
X70328571Y-86371800D02*
X70178095Y-86447038D01*
X70178095Y-86447038D02*
X69877142Y-86447038D01*
X71156190Y-85017514D02*
X71231428Y-84942276D01*
X71231428Y-84942276D02*
X71381904Y-84867038D01*
X71381904Y-84867038D02*
X71758095Y-84867038D01*
X71758095Y-84867038D02*
X71908571Y-84942276D01*
X71908571Y-84942276D02*
X71983809Y-85017514D01*
X71983809Y-85017514D02*
X72059047Y-85167990D01*
X72059047Y-85167990D02*
X72059047Y-85318466D01*
X72059047Y-85318466D02*
X71983809Y-85544180D01*
X71983809Y-85544180D02*
X71080952Y-86447038D01*
X71080952Y-86447038D02*
X72059047Y-86447038D01*
X70479047Y-89006638D02*
X69952380Y-88254257D01*
X69576190Y-89006638D02*
X69576190Y-87426638D01*
X69576190Y-87426638D02*
X70178095Y-87426638D01*
X70178095Y-87426638D02*
X70328571Y-87501876D01*
X70328571Y-87501876D02*
X70403809Y-87577114D01*
X70403809Y-87577114D02*
X70479047Y-87727590D01*
X70479047Y-87727590D02*
X70479047Y-87953304D01*
X70479047Y-87953304D02*
X70403809Y-88103780D01*
X70403809Y-88103780D02*
X70328571Y-88179019D01*
X70328571Y-88179019D02*
X70178095Y-88254257D01*
X70178095Y-88254257D02*
X69576190Y-88254257D01*
X72284761Y-87351400D02*
X70930476Y-89382828D01*
X72660952Y-87426638D02*
X73037142Y-89006638D01*
X73037142Y-89006638D02*
X73338095Y-87878066D01*
X73338095Y-87878066D02*
X73639047Y-89006638D01*
X73639047Y-89006638D02*
X74015238Y-87426638D01*
X45429523Y-81988238D02*
X44225714Y-83568238D01*
X44677142Y-83568238D02*
X44526666Y-83493000D01*
X44526666Y-83493000D02*
X44376190Y-83342523D01*
X44376190Y-83342523D02*
X44300952Y-83041571D01*
X44300952Y-83041571D02*
X44300952Y-82514904D01*
X44300952Y-82514904D02*
X44376190Y-82213952D01*
X44376190Y-82213952D02*
X44526666Y-82063476D01*
X44526666Y-82063476D02*
X44677142Y-81988238D01*
X44677142Y-81988238D02*
X44978095Y-81988238D01*
X44978095Y-81988238D02*
X45128571Y-82063476D01*
X45128571Y-82063476D02*
X45279047Y-82213952D01*
X45279047Y-82213952D02*
X45354285Y-82514904D01*
X45354285Y-82514904D02*
X45354285Y-83041571D01*
X45354285Y-83041571D02*
X45279047Y-83342523D01*
X45279047Y-83342523D02*
X45128571Y-83493000D01*
X45128571Y-83493000D02*
X44978095Y-83568238D01*
X44978095Y-83568238D02*
X44677142Y-83568238D01*
X46332380Y-81988238D02*
X46482857Y-81988238D01*
X46482857Y-81988238D02*
X46633333Y-82063476D01*
X46633333Y-82063476D02*
X46708571Y-82138714D01*
X46708571Y-82138714D02*
X46783809Y-82289190D01*
X46783809Y-82289190D02*
X46859047Y-82590142D01*
X46859047Y-82590142D02*
X46859047Y-82966333D01*
X46859047Y-82966333D02*
X46783809Y-83267285D01*
X46783809Y-83267285D02*
X46708571Y-83417761D01*
X46708571Y-83417761D02*
X46633333Y-83493000D01*
X46633333Y-83493000D02*
X46482857Y-83568238D01*
X46482857Y-83568238D02*
X46332380Y-83568238D01*
X46332380Y-83568238D02*
X46181904Y-83493000D01*
X46181904Y-83493000D02*
X46106666Y-83417761D01*
X46106666Y-83417761D02*
X46031428Y-83267285D01*
X46031428Y-83267285D02*
X45956190Y-82966333D01*
X45956190Y-82966333D02*
X45956190Y-82590142D01*
X45956190Y-82590142D02*
X46031428Y-82289190D01*
X46031428Y-82289190D02*
X46106666Y-82138714D01*
X46106666Y-82138714D02*
X46181904Y-82063476D01*
X46181904Y-82063476D02*
X46332380Y-81988238D01*
X45279047Y-86127838D02*
X44752380Y-85375457D01*
X44376190Y-86127838D02*
X44376190Y-84547838D01*
X44376190Y-84547838D02*
X44978095Y-84547838D01*
X44978095Y-84547838D02*
X45128571Y-84623076D01*
X45128571Y-84623076D02*
X45203809Y-84698314D01*
X45203809Y-84698314D02*
X45279047Y-84848790D01*
X45279047Y-84848790D02*
X45279047Y-85074504D01*
X45279047Y-85074504D02*
X45203809Y-85224980D01*
X45203809Y-85224980D02*
X45128571Y-85300219D01*
X45128571Y-85300219D02*
X44978095Y-85375457D01*
X44978095Y-85375457D02*
X44376190Y-85375457D01*
X45956190Y-86127838D02*
X45956190Y-84547838D01*
X45956190Y-84547838D02*
X46332380Y-84547838D01*
X46332380Y-84547838D02*
X46558095Y-84623076D01*
X46558095Y-84623076D02*
X46708571Y-84773552D01*
X46708571Y-84773552D02*
X46783809Y-84924028D01*
X46783809Y-84924028D02*
X46859047Y-85224980D01*
X46859047Y-85224980D02*
X46859047Y-85450695D01*
X46859047Y-85450695D02*
X46783809Y-85751647D01*
X46783809Y-85751647D02*
X46708571Y-85902123D01*
X46708571Y-85902123D02*
X46558095Y-86052600D01*
X46558095Y-86052600D02*
X46332380Y-86127838D01*
X46332380Y-86127838D02*
X45956190Y-86127838D01*
X47837142Y-85375457D02*
X47837142Y-86127838D01*
X47310476Y-84547838D02*
X47837142Y-85375457D01*
X47837142Y-85375457D02*
X48363809Y-84547838D01*
X44376190Y-88687438D02*
X44376190Y-87107438D01*
X46031428Y-88687438D02*
X45504761Y-87935057D01*
X45128571Y-88687438D02*
X45128571Y-87107438D01*
X45128571Y-87107438D02*
X45730476Y-87107438D01*
X45730476Y-87107438D02*
X45880952Y-87182676D01*
X45880952Y-87182676D02*
X45956190Y-87257914D01*
X45956190Y-87257914D02*
X46031428Y-87408390D01*
X46031428Y-87408390D02*
X46031428Y-87634104D01*
X46031428Y-87634104D02*
X45956190Y-87784580D01*
X45956190Y-87784580D02*
X45880952Y-87859819D01*
X45880952Y-87859819D02*
X45730476Y-87935057D01*
X45730476Y-87935057D02*
X45128571Y-87935057D01*
X47761904Y-88837914D02*
X47611428Y-88762676D01*
X47611428Y-88762676D02*
X47460952Y-88612200D01*
X47460952Y-88612200D02*
X47235238Y-88386485D01*
X47235238Y-88386485D02*
X47084761Y-88311247D01*
X47084761Y-88311247D02*
X46934285Y-88311247D01*
X47009523Y-88687438D02*
X46859047Y-88612200D01*
X46859047Y-88612200D02*
X46708571Y-88461723D01*
X46708571Y-88461723D02*
X46633333Y-88160771D01*
X46633333Y-88160771D02*
X46633333Y-87634104D01*
X46633333Y-87634104D02*
X46708571Y-87333152D01*
X46708571Y-87333152D02*
X46859047Y-87182676D01*
X46859047Y-87182676D02*
X47009523Y-87107438D01*
X47009523Y-87107438D02*
X47310476Y-87107438D01*
X47310476Y-87107438D02*
X47460952Y-87182676D01*
X47460952Y-87182676D02*
X47611428Y-87333152D01*
X47611428Y-87333152D02*
X47686666Y-87634104D01*
X47686666Y-87634104D02*
X47686666Y-88160771D01*
X47686666Y-88160771D02*
X47611428Y-88461723D01*
X47611428Y-88461723D02*
X47460952Y-88612200D01*
X47460952Y-88612200D02*
X47310476Y-88687438D01*
X47310476Y-88687438D02*
X47009523Y-88687438D01*
X44376190Y-91247038D02*
X44376190Y-89667038D01*
X44376190Y-89667038D02*
X45279047Y-91247038D01*
X45279047Y-91247038D02*
X45279047Y-89667038D01*
X46031428Y-91247038D02*
X46031428Y-89667038D01*
X46031428Y-89667038D02*
X46558095Y-90795609D01*
X46558095Y-90795609D02*
X47084761Y-89667038D01*
X47084761Y-89667038D02*
X47084761Y-91247038D01*
X47837142Y-91247038D02*
X47837142Y-89667038D01*
X44300952Y-93355209D02*
X45053333Y-93355209D01*
X44150476Y-93806638D02*
X44677142Y-92226638D01*
X44677142Y-92226638D02*
X45203809Y-93806638D01*
X45730476Y-92979019D02*
X46257143Y-92979019D01*
X46482857Y-93806638D02*
X45730476Y-93806638D01*
X45730476Y-93806638D02*
X45730476Y-92226638D01*
X45730476Y-92226638D02*
X46482857Y-92226638D01*
X48062857Y-93656161D02*
X47987619Y-93731400D01*
X47987619Y-93731400D02*
X47761905Y-93806638D01*
X47761905Y-93806638D02*
X47611429Y-93806638D01*
X47611429Y-93806638D02*
X47385714Y-93731400D01*
X47385714Y-93731400D02*
X47235238Y-93580923D01*
X47235238Y-93580923D02*
X47160000Y-93430447D01*
X47160000Y-93430447D02*
X47084762Y-93129495D01*
X47084762Y-93129495D02*
X47084762Y-92903780D01*
X47084762Y-92903780D02*
X47160000Y-92602828D01*
X47160000Y-92602828D02*
X47235238Y-92452352D01*
X47235238Y-92452352D02*
X47385714Y-92301876D01*
X47385714Y-92301876D02*
X47611429Y-92226638D01*
X47611429Y-92226638D02*
X47761905Y-92226638D01*
X47761905Y-92226638D02*
X47987619Y-92301876D01*
X47987619Y-92301876D02*
X48062857Y-92377114D01*
X69576190Y-91212638D02*
X69576190Y-89632638D01*
X69576190Y-89632638D02*
X69952380Y-89632638D01*
X69952380Y-89632638D02*
X70178095Y-89707876D01*
X70178095Y-89707876D02*
X70328571Y-89858352D01*
X70328571Y-89858352D02*
X70403809Y-90008828D01*
X70403809Y-90008828D02*
X70479047Y-90309780D01*
X70479047Y-90309780D02*
X70479047Y-90535495D01*
X70479047Y-90535495D02*
X70403809Y-90836447D01*
X70403809Y-90836447D02*
X70328571Y-90986923D01*
X70328571Y-90986923D02*
X70178095Y-91137400D01*
X70178095Y-91137400D02*
X69952380Y-91212638D01*
X69952380Y-91212638D02*
X69576190Y-91212638D01*
X71457142Y-89632638D02*
X71607619Y-89632638D01*
X71607619Y-89632638D02*
X71758095Y-89707876D01*
X71758095Y-89707876D02*
X71833333Y-89783114D01*
X71833333Y-89783114D02*
X71908571Y-89933590D01*
X71908571Y-89933590D02*
X71983809Y-90234542D01*
X71983809Y-90234542D02*
X71983809Y-90610733D01*
X71983809Y-90610733D02*
X71908571Y-90911685D01*
X71908571Y-90911685D02*
X71833333Y-91062161D01*
X71833333Y-91062161D02*
X71758095Y-91137400D01*
X71758095Y-91137400D02*
X71607619Y-91212638D01*
X71607619Y-91212638D02*
X71457142Y-91212638D01*
X71457142Y-91212638D02*
X71306666Y-91137400D01*
X71306666Y-91137400D02*
X71231428Y-91062161D01*
X71231428Y-91062161D02*
X71156190Y-90911685D01*
X71156190Y-90911685D02*
X71080952Y-90610733D01*
X71080952Y-90610733D02*
X71080952Y-90234542D01*
X71080952Y-90234542D02*
X71156190Y-89933590D01*
X71156190Y-89933590D02*
X71231428Y-89783114D01*
X71231428Y-89783114D02*
X71306666Y-89707876D01*
X71306666Y-89707876D02*
X71457142Y-89632638D01*
X69576190Y-93772238D02*
X69576190Y-92192238D01*
X69576190Y-92192238D02*
X69952380Y-92192238D01*
X69952380Y-92192238D02*
X70178095Y-92267476D01*
X70178095Y-92267476D02*
X70328571Y-92417952D01*
X70328571Y-92417952D02*
X70403809Y-92568428D01*
X70403809Y-92568428D02*
X70479047Y-92869380D01*
X70479047Y-92869380D02*
X70479047Y-93095095D01*
X70479047Y-93095095D02*
X70403809Y-93396047D01*
X70403809Y-93396047D02*
X70328571Y-93546523D01*
X70328571Y-93546523D02*
X70178095Y-93697000D01*
X70178095Y-93697000D02*
X69952380Y-93772238D01*
X69952380Y-93772238D02*
X69576190Y-93772238D01*
X71983809Y-93772238D02*
X71080952Y-93772238D01*
X71532380Y-93772238D02*
X71532380Y-92192238D01*
X71532380Y-92192238D02*
X71381904Y-92417952D01*
X71381904Y-92417952D02*
X71231428Y-92568428D01*
X71231428Y-92568428D02*
X71080952Y-92643666D01*
X69576190Y-96331838D02*
X69576190Y-94751838D01*
X69576190Y-94751838D02*
X69952380Y-94751838D01*
X69952380Y-94751838D02*
X70178095Y-94827076D01*
X70178095Y-94827076D02*
X70328571Y-94977552D01*
X70328571Y-94977552D02*
X70403809Y-95128028D01*
X70403809Y-95128028D02*
X70479047Y-95428980D01*
X70479047Y-95428980D02*
X70479047Y-95654695D01*
X70479047Y-95654695D02*
X70403809Y-95955647D01*
X70403809Y-95955647D02*
X70328571Y-96106123D01*
X70328571Y-96106123D02*
X70178095Y-96256600D01*
X70178095Y-96256600D02*
X69952380Y-96331838D01*
X69952380Y-96331838D02*
X69576190Y-96331838D01*
X71080952Y-94902314D02*
X71156190Y-94827076D01*
X71156190Y-94827076D02*
X71306666Y-94751838D01*
X71306666Y-94751838D02*
X71682857Y-94751838D01*
X71682857Y-94751838D02*
X71833333Y-94827076D01*
X71833333Y-94827076D02*
X71908571Y-94902314D01*
X71908571Y-94902314D02*
X71983809Y-95052790D01*
X71983809Y-95052790D02*
X71983809Y-95203266D01*
X71983809Y-95203266D02*
X71908571Y-95428980D01*
X71908571Y-95428980D02*
X71005714Y-96331838D01*
X71005714Y-96331838D02*
X71983809Y-96331838D01*
X69576190Y-98891438D02*
X69576190Y-97311438D01*
X69576190Y-97311438D02*
X69952380Y-97311438D01*
X69952380Y-97311438D02*
X70178095Y-97386676D01*
X70178095Y-97386676D02*
X70328571Y-97537152D01*
X70328571Y-97537152D02*
X70403809Y-97687628D01*
X70403809Y-97687628D02*
X70479047Y-97988580D01*
X70479047Y-97988580D02*
X70479047Y-98214295D01*
X70479047Y-98214295D02*
X70403809Y-98515247D01*
X70403809Y-98515247D02*
X70328571Y-98665723D01*
X70328571Y-98665723D02*
X70178095Y-98816200D01*
X70178095Y-98816200D02*
X69952380Y-98891438D01*
X69952380Y-98891438D02*
X69576190Y-98891438D01*
X71005714Y-97311438D02*
X71983809Y-97311438D01*
X71983809Y-97311438D02*
X71457142Y-97913342D01*
X71457142Y-97913342D02*
X71682857Y-97913342D01*
X71682857Y-97913342D02*
X71833333Y-97988580D01*
X71833333Y-97988580D02*
X71908571Y-98063819D01*
X71908571Y-98063819D02*
X71983809Y-98214295D01*
X71983809Y-98214295D02*
X71983809Y-98590485D01*
X71983809Y-98590485D02*
X71908571Y-98740961D01*
X71908571Y-98740961D02*
X71833333Y-98816200D01*
X71833333Y-98816200D02*
X71682857Y-98891438D01*
X71682857Y-98891438D02*
X71231428Y-98891438D01*
X71231428Y-98891438D02*
X71080952Y-98816200D01*
X71080952Y-98816200D02*
X71005714Y-98740961D01*
X69576190Y-101451038D02*
X69576190Y-99871038D01*
X69576190Y-99871038D02*
X69952380Y-99871038D01*
X69952380Y-99871038D02*
X70178095Y-99946276D01*
X70178095Y-99946276D02*
X70328571Y-100096752D01*
X70328571Y-100096752D02*
X70403809Y-100247228D01*
X70403809Y-100247228D02*
X70479047Y-100548180D01*
X70479047Y-100548180D02*
X70479047Y-100773895D01*
X70479047Y-100773895D02*
X70403809Y-101074847D01*
X70403809Y-101074847D02*
X70328571Y-101225323D01*
X70328571Y-101225323D02*
X70178095Y-101375800D01*
X70178095Y-101375800D02*
X69952380Y-101451038D01*
X69952380Y-101451038D02*
X69576190Y-101451038D01*
X71833333Y-100397704D02*
X71833333Y-101451038D01*
X71457142Y-99795800D02*
X71080952Y-100924371D01*
X71080952Y-100924371D02*
X72059047Y-100924371D01*
X69576190Y-104010638D02*
X69576190Y-102430638D01*
X69576190Y-102430638D02*
X69952380Y-102430638D01*
X69952380Y-102430638D02*
X70178095Y-102505876D01*
X70178095Y-102505876D02*
X70328571Y-102656352D01*
X70328571Y-102656352D02*
X70403809Y-102806828D01*
X70403809Y-102806828D02*
X70479047Y-103107780D01*
X70479047Y-103107780D02*
X70479047Y-103333495D01*
X70479047Y-103333495D02*
X70403809Y-103634447D01*
X70403809Y-103634447D02*
X70328571Y-103784923D01*
X70328571Y-103784923D02*
X70178095Y-103935400D01*
X70178095Y-103935400D02*
X69952380Y-104010638D01*
X69952380Y-104010638D02*
X69576190Y-104010638D01*
X71908571Y-102430638D02*
X71156190Y-102430638D01*
X71156190Y-102430638D02*
X71080952Y-103183019D01*
X71080952Y-103183019D02*
X71156190Y-103107780D01*
X71156190Y-103107780D02*
X71306666Y-103032542D01*
X71306666Y-103032542D02*
X71682857Y-103032542D01*
X71682857Y-103032542D02*
X71833333Y-103107780D01*
X71833333Y-103107780D02*
X71908571Y-103183019D01*
X71908571Y-103183019D02*
X71983809Y-103333495D01*
X71983809Y-103333495D02*
X71983809Y-103709685D01*
X71983809Y-103709685D02*
X71908571Y-103860161D01*
X71908571Y-103860161D02*
X71833333Y-103935400D01*
X71833333Y-103935400D02*
X71682857Y-104010638D01*
X71682857Y-104010638D02*
X71306666Y-104010638D01*
X71306666Y-104010638D02*
X71156190Y-103935400D01*
X71156190Y-103935400D02*
X71080952Y-103860161D01*
X69576190Y-106570238D02*
X69576190Y-104990238D01*
X69576190Y-104990238D02*
X69952380Y-104990238D01*
X69952380Y-104990238D02*
X70178095Y-105065476D01*
X70178095Y-105065476D02*
X70328571Y-105215952D01*
X70328571Y-105215952D02*
X70403809Y-105366428D01*
X70403809Y-105366428D02*
X70479047Y-105667380D01*
X70479047Y-105667380D02*
X70479047Y-105893095D01*
X70479047Y-105893095D02*
X70403809Y-106194047D01*
X70403809Y-106194047D02*
X70328571Y-106344523D01*
X70328571Y-106344523D02*
X70178095Y-106495000D01*
X70178095Y-106495000D02*
X69952380Y-106570238D01*
X69952380Y-106570238D02*
X69576190Y-106570238D01*
X71833333Y-104990238D02*
X71532380Y-104990238D01*
X71532380Y-104990238D02*
X71381904Y-105065476D01*
X71381904Y-105065476D02*
X71306666Y-105140714D01*
X71306666Y-105140714D02*
X71156190Y-105366428D01*
X71156190Y-105366428D02*
X71080952Y-105667380D01*
X71080952Y-105667380D02*
X71080952Y-106269285D01*
X71080952Y-106269285D02*
X71156190Y-106419761D01*
X71156190Y-106419761D02*
X71231428Y-106495000D01*
X71231428Y-106495000D02*
X71381904Y-106570238D01*
X71381904Y-106570238D02*
X71682857Y-106570238D01*
X71682857Y-106570238D02*
X71833333Y-106495000D01*
X71833333Y-106495000D02*
X71908571Y-106419761D01*
X71908571Y-106419761D02*
X71983809Y-106269285D01*
X71983809Y-106269285D02*
X71983809Y-105893095D01*
X71983809Y-105893095D02*
X71908571Y-105742619D01*
X71908571Y-105742619D02*
X71833333Y-105667380D01*
X71833333Y-105667380D02*
X71682857Y-105592142D01*
X71682857Y-105592142D02*
X71381904Y-105592142D01*
X71381904Y-105592142D02*
X71231428Y-105667380D01*
X71231428Y-105667380D02*
X71156190Y-105742619D01*
X71156190Y-105742619D02*
X71080952Y-105893095D01*
X69576190Y-109129838D02*
X69576190Y-107549838D01*
X69576190Y-107549838D02*
X69952380Y-107549838D01*
X69952380Y-107549838D02*
X70178095Y-107625076D01*
X70178095Y-107625076D02*
X70328571Y-107775552D01*
X70328571Y-107775552D02*
X70403809Y-107926028D01*
X70403809Y-107926028D02*
X70479047Y-108226980D01*
X70479047Y-108226980D02*
X70479047Y-108452695D01*
X70479047Y-108452695D02*
X70403809Y-108753647D01*
X70403809Y-108753647D02*
X70328571Y-108904123D01*
X70328571Y-108904123D02*
X70178095Y-109054600D01*
X70178095Y-109054600D02*
X69952380Y-109129838D01*
X69952380Y-109129838D02*
X69576190Y-109129838D01*
X71005714Y-107549838D02*
X72059047Y-107549838D01*
X72059047Y-107549838D02*
X71381904Y-109129838D01*
X69576190Y-111689438D02*
X69576190Y-110109438D01*
X69576190Y-110109438D02*
X70178095Y-110109438D01*
X70178095Y-110109438D02*
X70328571Y-110184676D01*
X70328571Y-110184676D02*
X70403809Y-110259914D01*
X70403809Y-110259914D02*
X70479047Y-110410390D01*
X70479047Y-110410390D02*
X70479047Y-110636104D01*
X70479047Y-110636104D02*
X70403809Y-110786580D01*
X70403809Y-110786580D02*
X70328571Y-110861819D01*
X70328571Y-110861819D02*
X70178095Y-110937057D01*
X70178095Y-110937057D02*
X69576190Y-110937057D01*
X71457142Y-110109438D02*
X71607619Y-110109438D01*
X71607619Y-110109438D02*
X71758095Y-110184676D01*
X71758095Y-110184676D02*
X71833333Y-110259914D01*
X71833333Y-110259914D02*
X71908571Y-110410390D01*
X71908571Y-110410390D02*
X71983809Y-110711342D01*
X71983809Y-110711342D02*
X71983809Y-111087533D01*
X71983809Y-111087533D02*
X71908571Y-111388485D01*
X71908571Y-111388485D02*
X71833333Y-111538961D01*
X71833333Y-111538961D02*
X71758095Y-111614200D01*
X71758095Y-111614200D02*
X71607619Y-111689438D01*
X71607619Y-111689438D02*
X71457142Y-111689438D01*
X71457142Y-111689438D02*
X71306666Y-111614200D01*
X71306666Y-111614200D02*
X71231428Y-111538961D01*
X71231428Y-111538961D02*
X71156190Y-111388485D01*
X71156190Y-111388485D02*
X71080952Y-111087533D01*
X71080952Y-111087533D02*
X71080952Y-110711342D01*
X71080952Y-110711342D02*
X71156190Y-110410390D01*
X71156190Y-110410390D02*
X71231428Y-110259914D01*
X71231428Y-110259914D02*
X71306666Y-110184676D01*
X71306666Y-110184676D02*
X71457142Y-110109438D01*
X69576190Y-114249038D02*
X69576190Y-112669038D01*
X69576190Y-112669038D02*
X70178095Y-112669038D01*
X70178095Y-112669038D02*
X70328571Y-112744276D01*
X70328571Y-112744276D02*
X70403809Y-112819514D01*
X70403809Y-112819514D02*
X70479047Y-112969990D01*
X70479047Y-112969990D02*
X70479047Y-113195704D01*
X70479047Y-113195704D02*
X70403809Y-113346180D01*
X70403809Y-113346180D02*
X70328571Y-113421419D01*
X70328571Y-113421419D02*
X70178095Y-113496657D01*
X70178095Y-113496657D02*
X69576190Y-113496657D01*
X71983809Y-114249038D02*
X71080952Y-114249038D01*
X71532380Y-114249038D02*
X71532380Y-112669038D01*
X71532380Y-112669038D02*
X71381904Y-112894752D01*
X71381904Y-112894752D02*
X71231428Y-113045228D01*
X71231428Y-113045228D02*
X71080952Y-113120466D01*
X69576190Y-116808638D02*
X69576190Y-115228638D01*
X69576190Y-115228638D02*
X70178095Y-115228638D01*
X70178095Y-115228638D02*
X70328571Y-115303876D01*
X70328571Y-115303876D02*
X70403809Y-115379114D01*
X70403809Y-115379114D02*
X70479047Y-115529590D01*
X70479047Y-115529590D02*
X70479047Y-115755304D01*
X70479047Y-115755304D02*
X70403809Y-115905780D01*
X70403809Y-115905780D02*
X70328571Y-115981019D01*
X70328571Y-115981019D02*
X70178095Y-116056257D01*
X70178095Y-116056257D02*
X69576190Y-116056257D01*
X71080952Y-115379114D02*
X71156190Y-115303876D01*
X71156190Y-115303876D02*
X71306666Y-115228638D01*
X71306666Y-115228638D02*
X71682857Y-115228638D01*
X71682857Y-115228638D02*
X71833333Y-115303876D01*
X71833333Y-115303876D02*
X71908571Y-115379114D01*
X71908571Y-115379114D02*
X71983809Y-115529590D01*
X71983809Y-115529590D02*
X71983809Y-115680066D01*
X71983809Y-115680066D02*
X71908571Y-115905780D01*
X71908571Y-115905780D02*
X71005714Y-116808638D01*
X71005714Y-116808638D02*
X71983809Y-116808638D01*
X69576190Y-119368238D02*
X69576190Y-117788238D01*
X69576190Y-117788238D02*
X70178095Y-117788238D01*
X70178095Y-117788238D02*
X70328571Y-117863476D01*
X70328571Y-117863476D02*
X70403809Y-117938714D01*
X70403809Y-117938714D02*
X70479047Y-118089190D01*
X70479047Y-118089190D02*
X70479047Y-118314904D01*
X70479047Y-118314904D02*
X70403809Y-118465380D01*
X70403809Y-118465380D02*
X70328571Y-118540619D01*
X70328571Y-118540619D02*
X70178095Y-118615857D01*
X70178095Y-118615857D02*
X69576190Y-118615857D01*
X71005714Y-117788238D02*
X71983809Y-117788238D01*
X71983809Y-117788238D02*
X71457142Y-118390142D01*
X71457142Y-118390142D02*
X71682857Y-118390142D01*
X71682857Y-118390142D02*
X71833333Y-118465380D01*
X71833333Y-118465380D02*
X71908571Y-118540619D01*
X71908571Y-118540619D02*
X71983809Y-118691095D01*
X71983809Y-118691095D02*
X71983809Y-119067285D01*
X71983809Y-119067285D02*
X71908571Y-119217761D01*
X71908571Y-119217761D02*
X71833333Y-119293000D01*
X71833333Y-119293000D02*
X71682857Y-119368238D01*
X71682857Y-119368238D02*
X71231428Y-119368238D01*
X71231428Y-119368238D02*
X71080952Y-119293000D01*
X71080952Y-119293000D02*
X71005714Y-119217761D01*
X69576190Y-121927838D02*
X69576190Y-120347838D01*
X69576190Y-120347838D02*
X70178095Y-120347838D01*
X70178095Y-120347838D02*
X70328571Y-120423076D01*
X70328571Y-120423076D02*
X70403809Y-120498314D01*
X70403809Y-120498314D02*
X70479047Y-120648790D01*
X70479047Y-120648790D02*
X70479047Y-120874504D01*
X70479047Y-120874504D02*
X70403809Y-121024980D01*
X70403809Y-121024980D02*
X70328571Y-121100219D01*
X70328571Y-121100219D02*
X70178095Y-121175457D01*
X70178095Y-121175457D02*
X69576190Y-121175457D01*
X71833333Y-120874504D02*
X71833333Y-121927838D01*
X71457142Y-120272600D02*
X71080952Y-121401171D01*
X71080952Y-121401171D02*
X72059047Y-121401171D01*
X69576190Y-124487438D02*
X69576190Y-122907438D01*
X69576190Y-122907438D02*
X70178095Y-122907438D01*
X70178095Y-122907438D02*
X70328571Y-122982676D01*
X70328571Y-122982676D02*
X70403809Y-123057914D01*
X70403809Y-123057914D02*
X70479047Y-123208390D01*
X70479047Y-123208390D02*
X70479047Y-123434104D01*
X70479047Y-123434104D02*
X70403809Y-123584580D01*
X70403809Y-123584580D02*
X70328571Y-123659819D01*
X70328571Y-123659819D02*
X70178095Y-123735057D01*
X70178095Y-123735057D02*
X69576190Y-123735057D01*
X71908571Y-122907438D02*
X71156190Y-122907438D01*
X71156190Y-122907438D02*
X71080952Y-123659819D01*
X71080952Y-123659819D02*
X71156190Y-123584580D01*
X71156190Y-123584580D02*
X71306666Y-123509342D01*
X71306666Y-123509342D02*
X71682857Y-123509342D01*
X71682857Y-123509342D02*
X71833333Y-123584580D01*
X71833333Y-123584580D02*
X71908571Y-123659819D01*
X71908571Y-123659819D02*
X71983809Y-123810295D01*
X71983809Y-123810295D02*
X71983809Y-124186485D01*
X71983809Y-124186485D02*
X71908571Y-124336961D01*
X71908571Y-124336961D02*
X71833333Y-124412200D01*
X71833333Y-124412200D02*
X71682857Y-124487438D01*
X71682857Y-124487438D02*
X71306666Y-124487438D01*
X71306666Y-124487438D02*
X71156190Y-124412200D01*
X71156190Y-124412200D02*
X71080952Y-124336961D01*
X69500952Y-126595609D02*
X70253333Y-126595609D01*
X69350476Y-127047038D02*
X69877142Y-125467038D01*
X69877142Y-125467038D02*
X70403809Y-127047038D01*
X71758095Y-127047038D02*
X70855238Y-127047038D01*
X71306666Y-127047038D02*
X71306666Y-125467038D01*
X71306666Y-125467038D02*
X71156190Y-125692752D01*
X71156190Y-125692752D02*
X71005714Y-125843228D01*
X71005714Y-125843228D02*
X70855238Y-125918466D01*
X73187619Y-125467038D02*
X72435238Y-125467038D01*
X72435238Y-125467038D02*
X72360000Y-126219419D01*
X72360000Y-126219419D02*
X72435238Y-126144180D01*
X72435238Y-126144180D02*
X72585714Y-126068942D01*
X72585714Y-126068942D02*
X72961905Y-126068942D01*
X72961905Y-126068942D02*
X73112381Y-126144180D01*
X73112381Y-126144180D02*
X73187619Y-126219419D01*
X73187619Y-126219419D02*
X73262857Y-126369895D01*
X73262857Y-126369895D02*
X73262857Y-126746085D01*
X73262857Y-126746085D02*
X73187619Y-126896561D01*
X73187619Y-126896561D02*
X73112381Y-126971800D01*
X73112381Y-126971800D02*
X72961905Y-127047038D01*
X72961905Y-127047038D02*
X72585714Y-127047038D01*
X72585714Y-127047038D02*
X72435238Y-126971800D01*
X72435238Y-126971800D02*
X72360000Y-126896561D01*
X69500952Y-129155209D02*
X70253333Y-129155209D01*
X69350476Y-129606638D02*
X69877142Y-128026638D01*
X69877142Y-128026638D02*
X70403809Y-129606638D01*
X71758095Y-129606638D02*
X70855238Y-129606638D01*
X71306666Y-129606638D02*
X71306666Y-128026638D01*
X71306666Y-128026638D02*
X71156190Y-128252352D01*
X71156190Y-128252352D02*
X71005714Y-128402828D01*
X71005714Y-128402828D02*
X70855238Y-128478066D01*
X73112381Y-128553304D02*
X73112381Y-129606638D01*
X72736190Y-127951400D02*
X72360000Y-129079971D01*
X72360000Y-129079971D02*
X73338095Y-129079971D01*
X44300952Y-98080409D02*
X45053333Y-98080409D01*
X44150476Y-98531838D02*
X44677142Y-96951838D01*
X44677142Y-96951838D02*
X45203809Y-98531838D01*
X46031428Y-96951838D02*
X46181905Y-96951838D01*
X46181905Y-96951838D02*
X46332381Y-97027076D01*
X46332381Y-97027076D02*
X46407619Y-97102314D01*
X46407619Y-97102314D02*
X46482857Y-97252790D01*
X46482857Y-97252790D02*
X46558095Y-97553742D01*
X46558095Y-97553742D02*
X46558095Y-97929933D01*
X46558095Y-97929933D02*
X46482857Y-98230885D01*
X46482857Y-98230885D02*
X46407619Y-98381361D01*
X46407619Y-98381361D02*
X46332381Y-98456600D01*
X46332381Y-98456600D02*
X46181905Y-98531838D01*
X46181905Y-98531838D02*
X46031428Y-98531838D01*
X46031428Y-98531838D02*
X45880952Y-98456600D01*
X45880952Y-98456600D02*
X45805714Y-98381361D01*
X45805714Y-98381361D02*
X45730476Y-98230885D01*
X45730476Y-98230885D02*
X45655238Y-97929933D01*
X45655238Y-97929933D02*
X45655238Y-97553742D01*
X45655238Y-97553742D02*
X45730476Y-97252790D01*
X45730476Y-97252790D02*
X45805714Y-97102314D01*
X45805714Y-97102314D02*
X45880952Y-97027076D01*
X45880952Y-97027076D02*
X46031428Y-96951838D01*
X44300952Y-100640009D02*
X45053333Y-100640009D01*
X44150476Y-101091438D02*
X44677142Y-99511438D01*
X44677142Y-99511438D02*
X45203809Y-101091438D01*
X46558095Y-101091438D02*
X45655238Y-101091438D01*
X46106666Y-101091438D02*
X46106666Y-99511438D01*
X46106666Y-99511438D02*
X45956190Y-99737152D01*
X45956190Y-99737152D02*
X45805714Y-99887628D01*
X45805714Y-99887628D02*
X45655238Y-99962866D01*
X44300952Y-103199609D02*
X45053333Y-103199609D01*
X44150476Y-103651038D02*
X44677142Y-102071038D01*
X44677142Y-102071038D02*
X45203809Y-103651038D01*
X45655238Y-102221514D02*
X45730476Y-102146276D01*
X45730476Y-102146276D02*
X45880952Y-102071038D01*
X45880952Y-102071038D02*
X46257143Y-102071038D01*
X46257143Y-102071038D02*
X46407619Y-102146276D01*
X46407619Y-102146276D02*
X46482857Y-102221514D01*
X46482857Y-102221514D02*
X46558095Y-102371990D01*
X46558095Y-102371990D02*
X46558095Y-102522466D01*
X46558095Y-102522466D02*
X46482857Y-102748180D01*
X46482857Y-102748180D02*
X45580000Y-103651038D01*
X45580000Y-103651038D02*
X46558095Y-103651038D01*
X44300952Y-105759209D02*
X45053333Y-105759209D01*
X44150476Y-106210638D02*
X44677142Y-104630638D01*
X44677142Y-104630638D02*
X45203809Y-106210638D01*
X45580000Y-104630638D02*
X46558095Y-104630638D01*
X46558095Y-104630638D02*
X46031428Y-105232542D01*
X46031428Y-105232542D02*
X46257143Y-105232542D01*
X46257143Y-105232542D02*
X46407619Y-105307780D01*
X46407619Y-105307780D02*
X46482857Y-105383019D01*
X46482857Y-105383019D02*
X46558095Y-105533495D01*
X46558095Y-105533495D02*
X46558095Y-105909685D01*
X46558095Y-105909685D02*
X46482857Y-106060161D01*
X46482857Y-106060161D02*
X46407619Y-106135400D01*
X46407619Y-106135400D02*
X46257143Y-106210638D01*
X46257143Y-106210638D02*
X45805714Y-106210638D01*
X45805714Y-106210638D02*
X45655238Y-106135400D01*
X45655238Y-106135400D02*
X45580000Y-106060161D01*
X44300952Y-108318809D02*
X45053333Y-108318809D01*
X44150476Y-108770238D02*
X44677142Y-107190238D01*
X44677142Y-107190238D02*
X45203809Y-108770238D01*
X46407619Y-107716904D02*
X46407619Y-108770238D01*
X46031428Y-107115000D02*
X45655238Y-108243571D01*
X45655238Y-108243571D02*
X46633333Y-108243571D01*
X44300952Y-110878409D02*
X45053333Y-110878409D01*
X44150476Y-111329838D02*
X44677142Y-109749838D01*
X44677142Y-109749838D02*
X45203809Y-111329838D01*
X46482857Y-109749838D02*
X45730476Y-109749838D01*
X45730476Y-109749838D02*
X45655238Y-110502219D01*
X45655238Y-110502219D02*
X45730476Y-110426980D01*
X45730476Y-110426980D02*
X45880952Y-110351742D01*
X45880952Y-110351742D02*
X46257143Y-110351742D01*
X46257143Y-110351742D02*
X46407619Y-110426980D01*
X46407619Y-110426980D02*
X46482857Y-110502219D01*
X46482857Y-110502219D02*
X46558095Y-110652695D01*
X46558095Y-110652695D02*
X46558095Y-111028885D01*
X46558095Y-111028885D02*
X46482857Y-111179361D01*
X46482857Y-111179361D02*
X46407619Y-111254600D01*
X46407619Y-111254600D02*
X46257143Y-111329838D01*
X46257143Y-111329838D02*
X45880952Y-111329838D01*
X45880952Y-111329838D02*
X45730476Y-111254600D01*
X45730476Y-111254600D02*
X45655238Y-111179361D01*
X44300952Y-113438009D02*
X45053333Y-113438009D01*
X44150476Y-113889438D02*
X44677142Y-112309438D01*
X44677142Y-112309438D02*
X45203809Y-113889438D01*
X46407619Y-112309438D02*
X46106666Y-112309438D01*
X46106666Y-112309438D02*
X45956190Y-112384676D01*
X45956190Y-112384676D02*
X45880952Y-112459914D01*
X45880952Y-112459914D02*
X45730476Y-112685628D01*
X45730476Y-112685628D02*
X45655238Y-112986580D01*
X45655238Y-112986580D02*
X45655238Y-113588485D01*
X45655238Y-113588485D02*
X45730476Y-113738961D01*
X45730476Y-113738961D02*
X45805714Y-113814200D01*
X45805714Y-113814200D02*
X45956190Y-113889438D01*
X45956190Y-113889438D02*
X46257143Y-113889438D01*
X46257143Y-113889438D02*
X46407619Y-113814200D01*
X46407619Y-113814200D02*
X46482857Y-113738961D01*
X46482857Y-113738961D02*
X46558095Y-113588485D01*
X46558095Y-113588485D02*
X46558095Y-113212295D01*
X46558095Y-113212295D02*
X46482857Y-113061819D01*
X46482857Y-113061819D02*
X46407619Y-112986580D01*
X46407619Y-112986580D02*
X46257143Y-112911342D01*
X46257143Y-112911342D02*
X45956190Y-112911342D01*
X45956190Y-112911342D02*
X45805714Y-112986580D01*
X45805714Y-112986580D02*
X45730476Y-113061819D01*
X45730476Y-113061819D02*
X45655238Y-113212295D01*
X44300952Y-115997609D02*
X45053333Y-115997609D01*
X44150476Y-116449038D02*
X44677142Y-114869038D01*
X44677142Y-114869038D02*
X45203809Y-116449038D01*
X45580000Y-114869038D02*
X46633333Y-114869038D01*
X46633333Y-114869038D02*
X45956190Y-116449038D01*
X44300952Y-118557209D02*
X45053333Y-118557209D01*
X44150476Y-119008638D02*
X44677142Y-117428638D01*
X44677142Y-117428638D02*
X45203809Y-119008638D01*
X45956190Y-118105780D02*
X45805714Y-118030542D01*
X45805714Y-118030542D02*
X45730476Y-117955304D01*
X45730476Y-117955304D02*
X45655238Y-117804828D01*
X45655238Y-117804828D02*
X45655238Y-117729590D01*
X45655238Y-117729590D02*
X45730476Y-117579114D01*
X45730476Y-117579114D02*
X45805714Y-117503876D01*
X45805714Y-117503876D02*
X45956190Y-117428638D01*
X45956190Y-117428638D02*
X46257143Y-117428638D01*
X46257143Y-117428638D02*
X46407619Y-117503876D01*
X46407619Y-117503876D02*
X46482857Y-117579114D01*
X46482857Y-117579114D02*
X46558095Y-117729590D01*
X46558095Y-117729590D02*
X46558095Y-117804828D01*
X46558095Y-117804828D02*
X46482857Y-117955304D01*
X46482857Y-117955304D02*
X46407619Y-118030542D01*
X46407619Y-118030542D02*
X46257143Y-118105780D01*
X46257143Y-118105780D02*
X45956190Y-118105780D01*
X45956190Y-118105780D02*
X45805714Y-118181019D01*
X45805714Y-118181019D02*
X45730476Y-118256257D01*
X45730476Y-118256257D02*
X45655238Y-118406733D01*
X45655238Y-118406733D02*
X45655238Y-118707685D01*
X45655238Y-118707685D02*
X45730476Y-118858161D01*
X45730476Y-118858161D02*
X45805714Y-118933400D01*
X45805714Y-118933400D02*
X45956190Y-119008638D01*
X45956190Y-119008638D02*
X46257143Y-119008638D01*
X46257143Y-119008638D02*
X46407619Y-118933400D01*
X46407619Y-118933400D02*
X46482857Y-118858161D01*
X46482857Y-118858161D02*
X46558095Y-118707685D01*
X46558095Y-118707685D02*
X46558095Y-118406733D01*
X46558095Y-118406733D02*
X46482857Y-118256257D01*
X46482857Y-118256257D02*
X46407619Y-118181019D01*
X46407619Y-118181019D02*
X46257143Y-118105780D01*
X44300952Y-121116809D02*
X45053333Y-121116809D01*
X44150476Y-121568238D02*
X44677142Y-119988238D01*
X44677142Y-119988238D02*
X45203809Y-121568238D01*
X45805714Y-121568238D02*
X46106666Y-121568238D01*
X46106666Y-121568238D02*
X46257143Y-121493000D01*
X46257143Y-121493000D02*
X46332381Y-121417761D01*
X46332381Y-121417761D02*
X46482857Y-121192047D01*
X46482857Y-121192047D02*
X46558095Y-120891095D01*
X46558095Y-120891095D02*
X46558095Y-120289190D01*
X46558095Y-120289190D02*
X46482857Y-120138714D01*
X46482857Y-120138714D02*
X46407619Y-120063476D01*
X46407619Y-120063476D02*
X46257143Y-119988238D01*
X46257143Y-119988238D02*
X45956190Y-119988238D01*
X45956190Y-119988238D02*
X45805714Y-120063476D01*
X45805714Y-120063476D02*
X45730476Y-120138714D01*
X45730476Y-120138714D02*
X45655238Y-120289190D01*
X45655238Y-120289190D02*
X45655238Y-120665380D01*
X45655238Y-120665380D02*
X45730476Y-120815857D01*
X45730476Y-120815857D02*
X45805714Y-120891095D01*
X45805714Y-120891095D02*
X45956190Y-120966333D01*
X45956190Y-120966333D02*
X46257143Y-120966333D01*
X46257143Y-120966333D02*
X46407619Y-120891095D01*
X46407619Y-120891095D02*
X46482857Y-120815857D01*
X46482857Y-120815857D02*
X46558095Y-120665380D01*
X44300952Y-123676409D02*
X45053333Y-123676409D01*
X44150476Y-124127838D02*
X44677142Y-122547838D01*
X44677142Y-122547838D02*
X45203809Y-124127838D01*
X46558095Y-124127838D02*
X45655238Y-124127838D01*
X46106666Y-124127838D02*
X46106666Y-122547838D01*
X46106666Y-122547838D02*
X45956190Y-122773552D01*
X45956190Y-122773552D02*
X45805714Y-122924028D01*
X45805714Y-122924028D02*
X45655238Y-122999266D01*
X47536190Y-122547838D02*
X47686667Y-122547838D01*
X47686667Y-122547838D02*
X47837143Y-122623076D01*
X47837143Y-122623076D02*
X47912381Y-122698314D01*
X47912381Y-122698314D02*
X47987619Y-122848790D01*
X47987619Y-122848790D02*
X48062857Y-123149742D01*
X48062857Y-123149742D02*
X48062857Y-123525933D01*
X48062857Y-123525933D02*
X47987619Y-123826885D01*
X47987619Y-123826885D02*
X47912381Y-123977361D01*
X47912381Y-123977361D02*
X47837143Y-124052600D01*
X47837143Y-124052600D02*
X47686667Y-124127838D01*
X47686667Y-124127838D02*
X47536190Y-124127838D01*
X47536190Y-124127838D02*
X47385714Y-124052600D01*
X47385714Y-124052600D02*
X47310476Y-123977361D01*
X47310476Y-123977361D02*
X47235238Y-123826885D01*
X47235238Y-123826885D02*
X47160000Y-123525933D01*
X47160000Y-123525933D02*
X47160000Y-123149742D01*
X47160000Y-123149742D02*
X47235238Y-122848790D01*
X47235238Y-122848790D02*
X47310476Y-122698314D01*
X47310476Y-122698314D02*
X47385714Y-122623076D01*
X47385714Y-122623076D02*
X47536190Y-122547838D01*
X44300952Y-126236009D02*
X45053333Y-126236009D01*
X44150476Y-126687438D02*
X44677142Y-125107438D01*
X44677142Y-125107438D02*
X45203809Y-126687438D01*
X46558095Y-126687438D02*
X45655238Y-126687438D01*
X46106666Y-126687438D02*
X46106666Y-125107438D01*
X46106666Y-125107438D02*
X45956190Y-125333152D01*
X45956190Y-125333152D02*
X45805714Y-125483628D01*
X45805714Y-125483628D02*
X45655238Y-125558866D01*
X48062857Y-126687438D02*
X47160000Y-126687438D01*
X47611428Y-126687438D02*
X47611428Y-125107438D01*
X47611428Y-125107438D02*
X47460952Y-125333152D01*
X47460952Y-125333152D02*
X47310476Y-125483628D01*
X47310476Y-125483628D02*
X47160000Y-125558866D01*
X44300952Y-128795609D02*
X45053333Y-128795609D01*
X44150476Y-129247038D02*
X44677142Y-127667038D01*
X44677142Y-127667038D02*
X45203809Y-129247038D01*
X46558095Y-129247038D02*
X45655238Y-129247038D01*
X46106666Y-129247038D02*
X46106666Y-127667038D01*
X46106666Y-127667038D02*
X45956190Y-127892752D01*
X45956190Y-127892752D02*
X45805714Y-128043228D01*
X45805714Y-128043228D02*
X45655238Y-128118466D01*
X47160000Y-127817514D02*
X47235238Y-127742276D01*
X47235238Y-127742276D02*
X47385714Y-127667038D01*
X47385714Y-127667038D02*
X47761905Y-127667038D01*
X47761905Y-127667038D02*
X47912381Y-127742276D01*
X47912381Y-127742276D02*
X47987619Y-127817514D01*
X47987619Y-127817514D02*
X48062857Y-127967990D01*
X48062857Y-127967990D02*
X48062857Y-128118466D01*
X48062857Y-128118466D02*
X47987619Y-128344180D01*
X47987619Y-128344180D02*
X47084762Y-129247038D01*
X47084762Y-129247038D02*
X48062857Y-129247038D01*
X44300952Y-131355209D02*
X45053333Y-131355209D01*
X44150476Y-131806638D02*
X44677142Y-130226638D01*
X44677142Y-130226638D02*
X45203809Y-131806638D01*
X46558095Y-131806638D02*
X45655238Y-131806638D01*
X46106666Y-131806638D02*
X46106666Y-130226638D01*
X46106666Y-130226638D02*
X45956190Y-130452352D01*
X45956190Y-130452352D02*
X45805714Y-130602828D01*
X45805714Y-130602828D02*
X45655238Y-130678066D01*
X47084762Y-130226638D02*
X48062857Y-130226638D01*
X48062857Y-130226638D02*
X47536190Y-130828542D01*
X47536190Y-130828542D02*
X47761905Y-130828542D01*
X47761905Y-130828542D02*
X47912381Y-130903780D01*
X47912381Y-130903780D02*
X47987619Y-130979019D01*
X47987619Y-130979019D02*
X48062857Y-131129495D01*
X48062857Y-131129495D02*
X48062857Y-131505685D01*
X48062857Y-131505685D02*
X47987619Y-131656161D01*
X47987619Y-131656161D02*
X47912381Y-131731400D01*
X47912381Y-131731400D02*
X47761905Y-131806638D01*
X47761905Y-131806638D02*
X47310476Y-131806638D01*
X47310476Y-131806638D02*
X47160000Y-131731400D01*
X47160000Y-131731400D02*
X47084762Y-131656161D01*
X69757142Y-77386428D02*
X69757142Y-75886428D01*
X69757142Y-75886428D02*
X70257142Y-76957857D01*
X70257142Y-76957857D02*
X70757142Y-75886428D01*
X70757142Y-75886428D02*
X70757142Y-77386428D01*
X71757143Y-75886428D02*
X72042857Y-75886428D01*
X72042857Y-75886428D02*
X72185714Y-75957857D01*
X72185714Y-75957857D02*
X72328571Y-76100714D01*
X72328571Y-76100714D02*
X72400000Y-76386428D01*
X72400000Y-76386428D02*
X72400000Y-76886428D01*
X72400000Y-76886428D02*
X72328571Y-77172142D01*
X72328571Y-77172142D02*
X72185714Y-77315000D01*
X72185714Y-77315000D02*
X72042857Y-77386428D01*
X72042857Y-77386428D02*
X71757143Y-77386428D01*
X71757143Y-77386428D02*
X71614286Y-77315000D01*
X71614286Y-77315000D02*
X71471428Y-77172142D01*
X71471428Y-77172142D02*
X71400000Y-76886428D01*
X71400000Y-76886428D02*
X71400000Y-76386428D01*
X71400000Y-76386428D02*
X71471428Y-76100714D01*
X71471428Y-76100714D02*
X71614286Y-75957857D01*
X71614286Y-75957857D02*
X71757143Y-75886428D01*
X72971429Y-77315000D02*
X73185715Y-77386428D01*
X73185715Y-77386428D02*
X73542857Y-77386428D01*
X73542857Y-77386428D02*
X73685715Y-77315000D01*
X73685715Y-77315000D02*
X73757143Y-77243571D01*
X73757143Y-77243571D02*
X73828572Y-77100714D01*
X73828572Y-77100714D02*
X73828572Y-76957857D01*
X73828572Y-76957857D02*
X73757143Y-76815000D01*
X73757143Y-76815000D02*
X73685715Y-76743571D01*
X73685715Y-76743571D02*
X73542857Y-76672142D01*
X73542857Y-76672142D02*
X73257143Y-76600714D01*
X73257143Y-76600714D02*
X73114286Y-76529285D01*
X73114286Y-76529285D02*
X73042857Y-76457857D01*
X73042857Y-76457857D02*
X72971429Y-76315000D01*
X72971429Y-76315000D02*
X72971429Y-76172142D01*
X72971429Y-76172142D02*
X73042857Y-76029285D01*
X73042857Y-76029285D02*
X73114286Y-75957857D01*
X73114286Y-75957857D02*
X73257143Y-75886428D01*
X73257143Y-75886428D02*
X73614286Y-75886428D01*
X73614286Y-75886428D02*
X73828572Y-75957857D01*
X75114286Y-75886428D02*
X74828571Y-75886428D01*
X74828571Y-75886428D02*
X74685714Y-75957857D01*
X74685714Y-75957857D02*
X74614286Y-76029285D01*
X74614286Y-76029285D02*
X74471428Y-76243571D01*
X74471428Y-76243571D02*
X74400000Y-76529285D01*
X74400000Y-76529285D02*
X74400000Y-77100714D01*
X74400000Y-77100714D02*
X74471428Y-77243571D01*
X74471428Y-77243571D02*
X74542857Y-77315000D01*
X74542857Y-77315000D02*
X74685714Y-77386428D01*
X74685714Y-77386428D02*
X74971428Y-77386428D01*
X74971428Y-77386428D02*
X75114286Y-77315000D01*
X75114286Y-77315000D02*
X75185714Y-77243571D01*
X75185714Y-77243571D02*
X75257143Y-77100714D01*
X75257143Y-77100714D02*
X75257143Y-76743571D01*
X75257143Y-76743571D02*
X75185714Y-76600714D01*
X75185714Y-76600714D02*
X75114286Y-76529285D01*
X75114286Y-76529285D02*
X74971428Y-76457857D01*
X74971428Y-76457857D02*
X74685714Y-76457857D01*
X74685714Y-76457857D02*
X74542857Y-76529285D01*
X74542857Y-76529285D02*
X74471428Y-76600714D01*
X74471428Y-76600714D02*
X74400000Y-76743571D01*
X76614285Y-75886428D02*
X75899999Y-75886428D01*
X75899999Y-75886428D02*
X75828571Y-76600714D01*
X75828571Y-76600714D02*
X75899999Y-76529285D01*
X75899999Y-76529285D02*
X76042857Y-76457857D01*
X76042857Y-76457857D02*
X76399999Y-76457857D01*
X76399999Y-76457857D02*
X76542857Y-76529285D01*
X76542857Y-76529285D02*
X76614285Y-76600714D01*
X76614285Y-76600714D02*
X76685714Y-76743571D01*
X76685714Y-76743571D02*
X76685714Y-77100714D01*
X76685714Y-77100714D02*
X76614285Y-77243571D01*
X76614285Y-77243571D02*
X76542857Y-77315000D01*
X76542857Y-77315000D02*
X76399999Y-77386428D01*
X76399999Y-77386428D02*
X76042857Y-77386428D01*
X76042857Y-77386428D02*
X75899999Y-77315000D01*
X75899999Y-77315000D02*
X75828571Y-77243571D01*
X78114285Y-77386428D02*
X77257142Y-77386428D01*
X77685713Y-77386428D02*
X77685713Y-75886428D01*
X77685713Y-75886428D02*
X77542856Y-76100714D01*
X77542856Y-76100714D02*
X77399999Y-76243571D01*
X77399999Y-76243571D02*
X77257142Y-76315000D01*
X79042856Y-75886428D02*
X79185713Y-75886428D01*
X79185713Y-75886428D02*
X79328570Y-75957857D01*
X79328570Y-75957857D02*
X79399999Y-76029285D01*
X79399999Y-76029285D02*
X79471427Y-76172142D01*
X79471427Y-76172142D02*
X79542856Y-76457857D01*
X79542856Y-76457857D02*
X79542856Y-76815000D01*
X79542856Y-76815000D02*
X79471427Y-77100714D01*
X79471427Y-77100714D02*
X79399999Y-77243571D01*
X79399999Y-77243571D02*
X79328570Y-77315000D01*
X79328570Y-77315000D02*
X79185713Y-77386428D01*
X79185713Y-77386428D02*
X79042856Y-77386428D01*
X79042856Y-77386428D02*
X78899999Y-77315000D01*
X78899999Y-77315000D02*
X78828570Y-77243571D01*
X78828570Y-77243571D02*
X78757141Y-77100714D01*
X78757141Y-77100714D02*
X78685713Y-76815000D01*
X78685713Y-76815000D02*
X78685713Y-76457857D01*
X78685713Y-76457857D02*
X78757141Y-76172142D01*
X78757141Y-76172142D02*
X78828570Y-76029285D01*
X78828570Y-76029285D02*
X78899999Y-75957857D01*
X78899999Y-75957857D02*
X79042856Y-75886428D01*
X69685714Y-79387857D02*
X70400000Y-79387857D01*
X69542857Y-79816428D02*
X70042857Y-78316428D01*
X70042857Y-78316428D02*
X70542857Y-79816428D01*
X71042856Y-78816428D02*
X71042856Y-79816428D01*
X71042856Y-78959285D02*
X71114285Y-78887857D01*
X71114285Y-78887857D02*
X71257142Y-78816428D01*
X71257142Y-78816428D02*
X71471428Y-78816428D01*
X71471428Y-78816428D02*
X71614285Y-78887857D01*
X71614285Y-78887857D02*
X71685714Y-79030714D01*
X71685714Y-79030714D02*
X71685714Y-79816428D01*
X73042857Y-79816428D02*
X73042857Y-79030714D01*
X73042857Y-79030714D02*
X72971428Y-78887857D01*
X72971428Y-78887857D02*
X72828571Y-78816428D01*
X72828571Y-78816428D02*
X72542857Y-78816428D01*
X72542857Y-78816428D02*
X72399999Y-78887857D01*
X73042857Y-79745000D02*
X72899999Y-79816428D01*
X72899999Y-79816428D02*
X72542857Y-79816428D01*
X72542857Y-79816428D02*
X72399999Y-79745000D01*
X72399999Y-79745000D02*
X72328571Y-79602142D01*
X72328571Y-79602142D02*
X72328571Y-79459285D01*
X72328571Y-79459285D02*
X72399999Y-79316428D01*
X72399999Y-79316428D02*
X72542857Y-79245000D01*
X72542857Y-79245000D02*
X72899999Y-79245000D01*
X72899999Y-79245000D02*
X73042857Y-79173571D01*
X73971428Y-79816428D02*
X73828571Y-79745000D01*
X73828571Y-79745000D02*
X73757142Y-79602142D01*
X73757142Y-79602142D02*
X73757142Y-78316428D01*
X74399999Y-78816428D02*
X74757142Y-79816428D01*
X75114285Y-78816428D02*
X74757142Y-79816428D01*
X74757142Y-79816428D02*
X74614285Y-80173571D01*
X74614285Y-80173571D02*
X74542856Y-80245000D01*
X74542856Y-80245000D02*
X74399999Y-80316428D01*
X75542856Y-78816428D02*
X76328571Y-78816428D01*
X76328571Y-78816428D02*
X75542856Y-79816428D01*
X75542856Y-79816428D02*
X76328571Y-79816428D01*
X77471428Y-79745000D02*
X77328571Y-79816428D01*
X77328571Y-79816428D02*
X77042857Y-79816428D01*
X77042857Y-79816428D02*
X76899999Y-79745000D01*
X76899999Y-79745000D02*
X76828571Y-79602142D01*
X76828571Y-79602142D02*
X76828571Y-79030714D01*
X76828571Y-79030714D02*
X76899999Y-78887857D01*
X76899999Y-78887857D02*
X77042857Y-78816428D01*
X77042857Y-78816428D02*
X77328571Y-78816428D01*
X77328571Y-78816428D02*
X77471428Y-78887857D01*
X77471428Y-78887857D02*
X77542857Y-79030714D01*
X77542857Y-79030714D02*
X77542857Y-79173571D01*
X77542857Y-79173571D02*
X76828571Y-79316428D01*
X78185713Y-79816428D02*
X78185713Y-78816428D01*
X78185713Y-79102142D02*
X78257142Y-78959285D01*
X78257142Y-78959285D02*
X78328571Y-78887857D01*
X78328571Y-78887857D02*
X78471428Y-78816428D01*
X78471428Y-78816428D02*
X78614285Y-78816428D01*
X80257141Y-79816428D02*
X80257141Y-78316428D01*
X80257141Y-78887857D02*
X80399999Y-78816428D01*
X80399999Y-78816428D02*
X80685713Y-78816428D01*
X80685713Y-78816428D02*
X80828570Y-78887857D01*
X80828570Y-78887857D02*
X80899999Y-78959285D01*
X80899999Y-78959285D02*
X80971427Y-79102142D01*
X80971427Y-79102142D02*
X80971427Y-79530714D01*
X80971427Y-79530714D02*
X80899999Y-79673571D01*
X80899999Y-79673571D02*
X80828570Y-79745000D01*
X80828570Y-79745000D02*
X80685713Y-79816428D01*
X80685713Y-79816428D02*
X80399999Y-79816428D01*
X80399999Y-79816428D02*
X80257141Y-79745000D01*
X81828570Y-79816428D02*
X81685713Y-79745000D01*
X81685713Y-79745000D02*
X81614284Y-79673571D01*
X81614284Y-79673571D02*
X81542856Y-79530714D01*
X81542856Y-79530714D02*
X81542856Y-79102142D01*
X81542856Y-79102142D02*
X81614284Y-78959285D01*
X81614284Y-78959285D02*
X81685713Y-78887857D01*
X81685713Y-78887857D02*
X81828570Y-78816428D01*
X81828570Y-78816428D02*
X82042856Y-78816428D01*
X82042856Y-78816428D02*
X82185713Y-78887857D01*
X82185713Y-78887857D02*
X82257142Y-78959285D01*
X82257142Y-78959285D02*
X82328570Y-79102142D01*
X82328570Y-79102142D02*
X82328570Y-79530714D01*
X82328570Y-79530714D02*
X82257142Y-79673571D01*
X82257142Y-79673571D02*
X82185713Y-79745000D01*
X82185713Y-79745000D02*
X82042856Y-79816428D01*
X82042856Y-79816428D02*
X81828570Y-79816428D01*
X83614285Y-79816428D02*
X83614285Y-79030714D01*
X83614285Y-79030714D02*
X83542856Y-78887857D01*
X83542856Y-78887857D02*
X83399999Y-78816428D01*
X83399999Y-78816428D02*
X83114285Y-78816428D01*
X83114285Y-78816428D02*
X82971427Y-78887857D01*
X83614285Y-79745000D02*
X83471427Y-79816428D01*
X83471427Y-79816428D02*
X83114285Y-79816428D01*
X83114285Y-79816428D02*
X82971427Y-79745000D01*
X82971427Y-79745000D02*
X82899999Y-79602142D01*
X82899999Y-79602142D02*
X82899999Y-79459285D01*
X82899999Y-79459285D02*
X82971427Y-79316428D01*
X82971427Y-79316428D02*
X83114285Y-79245000D01*
X83114285Y-79245000D02*
X83471427Y-79245000D01*
X83471427Y-79245000D02*
X83614285Y-79173571D01*
X84328570Y-79816428D02*
X84328570Y-78816428D01*
X84328570Y-79102142D02*
X84399999Y-78959285D01*
X84399999Y-78959285D02*
X84471428Y-78887857D01*
X84471428Y-78887857D02*
X84614285Y-78816428D01*
X84614285Y-78816428D02*
X84757142Y-78816428D01*
X85899999Y-79816428D02*
X85899999Y-78316428D01*
X85899999Y-79745000D02*
X85757141Y-79816428D01*
X85757141Y-79816428D02*
X85471427Y-79816428D01*
X85471427Y-79816428D02*
X85328570Y-79745000D01*
X85328570Y-79745000D02*
X85257141Y-79673571D01*
X85257141Y-79673571D02*
X85185713Y-79530714D01*
X85185713Y-79530714D02*
X85185713Y-79102142D01*
X85185713Y-79102142D02*
X85257141Y-78959285D01*
X85257141Y-78959285D02*
X85328570Y-78887857D01*
X85328570Y-78887857D02*
X85471427Y-78816428D01*
X85471427Y-78816428D02*
X85757141Y-78816428D01*
X85757141Y-78816428D02*
X85899999Y-78887857D01*
D11*
%TO.C,J6*%
X40396666Y-109992619D02*
X40396666Y-110706904D01*
X40396666Y-110706904D02*
X40349047Y-110849761D01*
X40349047Y-110849761D02*
X40253809Y-110945000D01*
X40253809Y-110945000D02*
X40110952Y-110992619D01*
X40110952Y-110992619D02*
X40015714Y-110992619D01*
X41301428Y-109992619D02*
X41110952Y-109992619D01*
X41110952Y-109992619D02*
X41015714Y-110040238D01*
X41015714Y-110040238D02*
X40968095Y-110087857D01*
X40968095Y-110087857D02*
X40872857Y-110230714D01*
X40872857Y-110230714D02*
X40825238Y-110421190D01*
X40825238Y-110421190D02*
X40825238Y-110802142D01*
X40825238Y-110802142D02*
X40872857Y-110897380D01*
X40872857Y-110897380D02*
X40920476Y-110945000D01*
X40920476Y-110945000D02*
X41015714Y-110992619D01*
X41015714Y-110992619D02*
X41206190Y-110992619D01*
X41206190Y-110992619D02*
X41301428Y-110945000D01*
X41301428Y-110945000D02*
X41349047Y-110897380D01*
X41349047Y-110897380D02*
X41396666Y-110802142D01*
X41396666Y-110802142D02*
X41396666Y-110564047D01*
X41396666Y-110564047D02*
X41349047Y-110468809D01*
X41349047Y-110468809D02*
X41301428Y-110421190D01*
X41301428Y-110421190D02*
X41206190Y-110373571D01*
X41206190Y-110373571D02*
X41015714Y-110373571D01*
X41015714Y-110373571D02*
X40920476Y-110421190D01*
X40920476Y-110421190D02*
X40872857Y-110468809D01*
X40872857Y-110468809D02*
X40825238Y-110564047D01*
%TO.C,J16*%
X84720476Y-125732619D02*
X84720476Y-126446904D01*
X84720476Y-126446904D02*
X84672857Y-126589761D01*
X84672857Y-126589761D02*
X84577619Y-126685000D01*
X84577619Y-126685000D02*
X84434762Y-126732619D01*
X84434762Y-126732619D02*
X84339524Y-126732619D01*
X85720476Y-126732619D02*
X85149048Y-126732619D01*
X85434762Y-126732619D02*
X85434762Y-125732619D01*
X85434762Y-125732619D02*
X85339524Y-125875476D01*
X85339524Y-125875476D02*
X85244286Y-125970714D01*
X85244286Y-125970714D02*
X85149048Y-126018333D01*
X86577619Y-125732619D02*
X86387143Y-125732619D01*
X86387143Y-125732619D02*
X86291905Y-125780238D01*
X86291905Y-125780238D02*
X86244286Y-125827857D01*
X86244286Y-125827857D02*
X86149048Y-125970714D01*
X86149048Y-125970714D02*
X86101429Y-126161190D01*
X86101429Y-126161190D02*
X86101429Y-126542142D01*
X86101429Y-126542142D02*
X86149048Y-126637380D01*
X86149048Y-126637380D02*
X86196667Y-126685000D01*
X86196667Y-126685000D02*
X86291905Y-126732619D01*
X86291905Y-126732619D02*
X86482381Y-126732619D01*
X86482381Y-126732619D02*
X86577619Y-126685000D01*
X86577619Y-126685000D02*
X86625238Y-126637380D01*
X86625238Y-126637380D02*
X86672857Y-126542142D01*
X86672857Y-126542142D02*
X86672857Y-126304047D01*
X86672857Y-126304047D02*
X86625238Y-126208809D01*
X86625238Y-126208809D02*
X86577619Y-126161190D01*
X86577619Y-126161190D02*
X86482381Y-126113571D01*
X86482381Y-126113571D02*
X86291905Y-126113571D01*
X86291905Y-126113571D02*
X86196667Y-126161190D01*
X86196667Y-126161190D02*
X86149048Y-126208809D01*
X86149048Y-126208809D02*
X86101429Y-126304047D01*
%TO.C,J14*%
X77520476Y-123132619D02*
X77520476Y-123846904D01*
X77520476Y-123846904D02*
X77472857Y-123989761D01*
X77472857Y-123989761D02*
X77377619Y-124085000D01*
X77377619Y-124085000D02*
X77234762Y-124132619D01*
X77234762Y-124132619D02*
X77139524Y-124132619D01*
X78520476Y-124132619D02*
X77949048Y-124132619D01*
X78234762Y-124132619D02*
X78234762Y-123132619D01*
X78234762Y-123132619D02*
X78139524Y-123275476D01*
X78139524Y-123275476D02*
X78044286Y-123370714D01*
X78044286Y-123370714D02*
X77949048Y-123418333D01*
X79377619Y-123465952D02*
X79377619Y-124132619D01*
X79139524Y-123085000D02*
X78901429Y-123799285D01*
X78901429Y-123799285D02*
X79520476Y-123799285D01*
%TO.C,J25*%
X39920476Y-84592619D02*
X39920476Y-85306904D01*
X39920476Y-85306904D02*
X39872857Y-85449761D01*
X39872857Y-85449761D02*
X39777619Y-85545000D01*
X39777619Y-85545000D02*
X39634762Y-85592619D01*
X39634762Y-85592619D02*
X39539524Y-85592619D01*
X40349048Y-84687857D02*
X40396667Y-84640238D01*
X40396667Y-84640238D02*
X40491905Y-84592619D01*
X40491905Y-84592619D02*
X40730000Y-84592619D01*
X40730000Y-84592619D02*
X40825238Y-84640238D01*
X40825238Y-84640238D02*
X40872857Y-84687857D01*
X40872857Y-84687857D02*
X40920476Y-84783095D01*
X40920476Y-84783095D02*
X40920476Y-84878333D01*
X40920476Y-84878333D02*
X40872857Y-85021190D01*
X40872857Y-85021190D02*
X40301429Y-85592619D01*
X40301429Y-85592619D02*
X40920476Y-85592619D01*
X41825238Y-84592619D02*
X41349048Y-84592619D01*
X41349048Y-84592619D02*
X41301429Y-85068809D01*
X41301429Y-85068809D02*
X41349048Y-85021190D01*
X41349048Y-85021190D02*
X41444286Y-84973571D01*
X41444286Y-84973571D02*
X41682381Y-84973571D01*
X41682381Y-84973571D02*
X41777619Y-85021190D01*
X41777619Y-85021190D02*
X41825238Y-85068809D01*
X41825238Y-85068809D02*
X41872857Y-85164047D01*
X41872857Y-85164047D02*
X41872857Y-85402142D01*
X41872857Y-85402142D02*
X41825238Y-85497380D01*
X41825238Y-85497380D02*
X41777619Y-85545000D01*
X41777619Y-85545000D02*
X41682381Y-85592619D01*
X41682381Y-85592619D02*
X41444286Y-85592619D01*
X41444286Y-85592619D02*
X41349048Y-85545000D01*
X41349048Y-85545000D02*
X41301429Y-85497380D01*
%TO.C,J35*%
X84785476Y-120732619D02*
X84785476Y-121446904D01*
X84785476Y-121446904D02*
X84737857Y-121589761D01*
X84737857Y-121589761D02*
X84642619Y-121685000D01*
X84642619Y-121685000D02*
X84499762Y-121732619D01*
X84499762Y-121732619D02*
X84404524Y-121732619D01*
X85166429Y-120732619D02*
X85785476Y-120732619D01*
X85785476Y-120732619D02*
X85452143Y-121113571D01*
X85452143Y-121113571D02*
X85595000Y-121113571D01*
X85595000Y-121113571D02*
X85690238Y-121161190D01*
X85690238Y-121161190D02*
X85737857Y-121208809D01*
X85737857Y-121208809D02*
X85785476Y-121304047D01*
X85785476Y-121304047D02*
X85785476Y-121542142D01*
X85785476Y-121542142D02*
X85737857Y-121637380D01*
X85737857Y-121637380D02*
X85690238Y-121685000D01*
X85690238Y-121685000D02*
X85595000Y-121732619D01*
X85595000Y-121732619D02*
X85309286Y-121732619D01*
X85309286Y-121732619D02*
X85214048Y-121685000D01*
X85214048Y-121685000D02*
X85166429Y-121637380D01*
X86690238Y-120732619D02*
X86214048Y-120732619D01*
X86214048Y-120732619D02*
X86166429Y-121208809D01*
X86166429Y-121208809D02*
X86214048Y-121161190D01*
X86214048Y-121161190D02*
X86309286Y-121113571D01*
X86309286Y-121113571D02*
X86547381Y-121113571D01*
X86547381Y-121113571D02*
X86642619Y-121161190D01*
X86642619Y-121161190D02*
X86690238Y-121208809D01*
X86690238Y-121208809D02*
X86737857Y-121304047D01*
X86737857Y-121304047D02*
X86737857Y-121542142D01*
X86737857Y-121542142D02*
X86690238Y-121637380D01*
X86690238Y-121637380D02*
X86642619Y-121685000D01*
X86642619Y-121685000D02*
X86547381Y-121732619D01*
X86547381Y-121732619D02*
X86309286Y-121732619D01*
X86309286Y-121732619D02*
X86214048Y-121685000D01*
X86214048Y-121685000D02*
X86166429Y-121637380D01*
%TO.C,J29*%
X39920476Y-89792619D02*
X39920476Y-90506904D01*
X39920476Y-90506904D02*
X39872857Y-90649761D01*
X39872857Y-90649761D02*
X39777619Y-90745000D01*
X39777619Y-90745000D02*
X39634762Y-90792619D01*
X39634762Y-90792619D02*
X39539524Y-90792619D01*
X40349048Y-89887857D02*
X40396667Y-89840238D01*
X40396667Y-89840238D02*
X40491905Y-89792619D01*
X40491905Y-89792619D02*
X40730000Y-89792619D01*
X40730000Y-89792619D02*
X40825238Y-89840238D01*
X40825238Y-89840238D02*
X40872857Y-89887857D01*
X40872857Y-89887857D02*
X40920476Y-89983095D01*
X40920476Y-89983095D02*
X40920476Y-90078333D01*
X40920476Y-90078333D02*
X40872857Y-90221190D01*
X40872857Y-90221190D02*
X40301429Y-90792619D01*
X40301429Y-90792619D02*
X40920476Y-90792619D01*
X41396667Y-90792619D02*
X41587143Y-90792619D01*
X41587143Y-90792619D02*
X41682381Y-90745000D01*
X41682381Y-90745000D02*
X41730000Y-90697380D01*
X41730000Y-90697380D02*
X41825238Y-90554523D01*
X41825238Y-90554523D02*
X41872857Y-90364047D01*
X41872857Y-90364047D02*
X41872857Y-89983095D01*
X41872857Y-89983095D02*
X41825238Y-89887857D01*
X41825238Y-89887857D02*
X41777619Y-89840238D01*
X41777619Y-89840238D02*
X41682381Y-89792619D01*
X41682381Y-89792619D02*
X41491905Y-89792619D01*
X41491905Y-89792619D02*
X41396667Y-89840238D01*
X41396667Y-89840238D02*
X41349048Y-89887857D01*
X41349048Y-89887857D02*
X41301429Y-89983095D01*
X41301429Y-89983095D02*
X41301429Y-90221190D01*
X41301429Y-90221190D02*
X41349048Y-90316428D01*
X41349048Y-90316428D02*
X41396667Y-90364047D01*
X41396667Y-90364047D02*
X41491905Y-90411666D01*
X41491905Y-90411666D02*
X41682381Y-90411666D01*
X41682381Y-90411666D02*
X41777619Y-90364047D01*
X41777619Y-90364047D02*
X41825238Y-90316428D01*
X41825238Y-90316428D02*
X41872857Y-90221190D01*
%TO.C,J5*%
X33396666Y-112792619D02*
X33396666Y-113506904D01*
X33396666Y-113506904D02*
X33349047Y-113649761D01*
X33349047Y-113649761D02*
X33253809Y-113745000D01*
X33253809Y-113745000D02*
X33110952Y-113792619D01*
X33110952Y-113792619D02*
X33015714Y-113792619D01*
X34349047Y-112792619D02*
X33872857Y-112792619D01*
X33872857Y-112792619D02*
X33825238Y-113268809D01*
X33825238Y-113268809D02*
X33872857Y-113221190D01*
X33872857Y-113221190D02*
X33968095Y-113173571D01*
X33968095Y-113173571D02*
X34206190Y-113173571D01*
X34206190Y-113173571D02*
X34301428Y-113221190D01*
X34301428Y-113221190D02*
X34349047Y-113268809D01*
X34349047Y-113268809D02*
X34396666Y-113364047D01*
X34396666Y-113364047D02*
X34396666Y-113602142D01*
X34396666Y-113602142D02*
X34349047Y-113697380D01*
X34349047Y-113697380D02*
X34301428Y-113745000D01*
X34301428Y-113745000D02*
X34206190Y-113792619D01*
X34206190Y-113792619D02*
X33968095Y-113792619D01*
X33968095Y-113792619D02*
X33872857Y-113745000D01*
X33872857Y-113745000D02*
X33825238Y-113697380D01*
%TO.C,J22*%
X77720476Y-97732619D02*
X77720476Y-98446904D01*
X77720476Y-98446904D02*
X77672857Y-98589761D01*
X77672857Y-98589761D02*
X77577619Y-98685000D01*
X77577619Y-98685000D02*
X77434762Y-98732619D01*
X77434762Y-98732619D02*
X77339524Y-98732619D01*
X78149048Y-97827857D02*
X78196667Y-97780238D01*
X78196667Y-97780238D02*
X78291905Y-97732619D01*
X78291905Y-97732619D02*
X78530000Y-97732619D01*
X78530000Y-97732619D02*
X78625238Y-97780238D01*
X78625238Y-97780238D02*
X78672857Y-97827857D01*
X78672857Y-97827857D02*
X78720476Y-97923095D01*
X78720476Y-97923095D02*
X78720476Y-98018333D01*
X78720476Y-98018333D02*
X78672857Y-98161190D01*
X78672857Y-98161190D02*
X78101429Y-98732619D01*
X78101429Y-98732619D02*
X78720476Y-98732619D01*
X79101429Y-97827857D02*
X79149048Y-97780238D01*
X79149048Y-97780238D02*
X79244286Y-97732619D01*
X79244286Y-97732619D02*
X79482381Y-97732619D01*
X79482381Y-97732619D02*
X79577619Y-97780238D01*
X79577619Y-97780238D02*
X79625238Y-97827857D01*
X79625238Y-97827857D02*
X79672857Y-97923095D01*
X79672857Y-97923095D02*
X79672857Y-98018333D01*
X79672857Y-98018333D02*
X79625238Y-98161190D01*
X79625238Y-98161190D02*
X79053810Y-98732619D01*
X79053810Y-98732619D02*
X79672857Y-98732619D01*
%TO.C,J36*%
X77720476Y-113132619D02*
X77720476Y-113846904D01*
X77720476Y-113846904D02*
X77672857Y-113989761D01*
X77672857Y-113989761D02*
X77577619Y-114085000D01*
X77577619Y-114085000D02*
X77434762Y-114132619D01*
X77434762Y-114132619D02*
X77339524Y-114132619D01*
X78101429Y-113132619D02*
X78720476Y-113132619D01*
X78720476Y-113132619D02*
X78387143Y-113513571D01*
X78387143Y-113513571D02*
X78530000Y-113513571D01*
X78530000Y-113513571D02*
X78625238Y-113561190D01*
X78625238Y-113561190D02*
X78672857Y-113608809D01*
X78672857Y-113608809D02*
X78720476Y-113704047D01*
X78720476Y-113704047D02*
X78720476Y-113942142D01*
X78720476Y-113942142D02*
X78672857Y-114037380D01*
X78672857Y-114037380D02*
X78625238Y-114085000D01*
X78625238Y-114085000D02*
X78530000Y-114132619D01*
X78530000Y-114132619D02*
X78244286Y-114132619D01*
X78244286Y-114132619D02*
X78149048Y-114085000D01*
X78149048Y-114085000D02*
X78101429Y-114037380D01*
X79577619Y-113132619D02*
X79387143Y-113132619D01*
X79387143Y-113132619D02*
X79291905Y-113180238D01*
X79291905Y-113180238D02*
X79244286Y-113227857D01*
X79244286Y-113227857D02*
X79149048Y-113370714D01*
X79149048Y-113370714D02*
X79101429Y-113561190D01*
X79101429Y-113561190D02*
X79101429Y-113942142D01*
X79101429Y-113942142D02*
X79149048Y-114037380D01*
X79149048Y-114037380D02*
X79196667Y-114085000D01*
X79196667Y-114085000D02*
X79291905Y-114132619D01*
X79291905Y-114132619D02*
X79482381Y-114132619D01*
X79482381Y-114132619D02*
X79577619Y-114085000D01*
X79577619Y-114085000D02*
X79625238Y-114037380D01*
X79625238Y-114037380D02*
X79672857Y-113942142D01*
X79672857Y-113942142D02*
X79672857Y-113704047D01*
X79672857Y-113704047D02*
X79625238Y-113608809D01*
X79625238Y-113608809D02*
X79577619Y-113561190D01*
X79577619Y-113561190D02*
X79482381Y-113513571D01*
X79482381Y-113513571D02*
X79291905Y-113513571D01*
X79291905Y-113513571D02*
X79196667Y-113561190D01*
X79196667Y-113561190D02*
X79149048Y-113608809D01*
X79149048Y-113608809D02*
X79101429Y-113704047D01*
%TO.C,J37*%
X77720476Y-107932619D02*
X77720476Y-108646904D01*
X77720476Y-108646904D02*
X77672857Y-108789761D01*
X77672857Y-108789761D02*
X77577619Y-108885000D01*
X77577619Y-108885000D02*
X77434762Y-108932619D01*
X77434762Y-108932619D02*
X77339524Y-108932619D01*
X78101429Y-107932619D02*
X78720476Y-107932619D01*
X78720476Y-107932619D02*
X78387143Y-108313571D01*
X78387143Y-108313571D02*
X78530000Y-108313571D01*
X78530000Y-108313571D02*
X78625238Y-108361190D01*
X78625238Y-108361190D02*
X78672857Y-108408809D01*
X78672857Y-108408809D02*
X78720476Y-108504047D01*
X78720476Y-108504047D02*
X78720476Y-108742142D01*
X78720476Y-108742142D02*
X78672857Y-108837380D01*
X78672857Y-108837380D02*
X78625238Y-108885000D01*
X78625238Y-108885000D02*
X78530000Y-108932619D01*
X78530000Y-108932619D02*
X78244286Y-108932619D01*
X78244286Y-108932619D02*
X78149048Y-108885000D01*
X78149048Y-108885000D02*
X78101429Y-108837380D01*
X79053810Y-107932619D02*
X79720476Y-107932619D01*
X79720476Y-107932619D02*
X79291905Y-108932619D01*
%TO.C,U1*%
X56368095Y-79982619D02*
X56368095Y-80792142D01*
X56368095Y-80792142D02*
X56415714Y-80887380D01*
X56415714Y-80887380D02*
X56463333Y-80935000D01*
X56463333Y-80935000D02*
X56558571Y-80982619D01*
X56558571Y-80982619D02*
X56749047Y-80982619D01*
X56749047Y-80982619D02*
X56844285Y-80935000D01*
X56844285Y-80935000D02*
X56891904Y-80887380D01*
X56891904Y-80887380D02*
X56939523Y-80792142D01*
X56939523Y-80792142D02*
X56939523Y-79982619D01*
X57939523Y-80982619D02*
X57368095Y-80982619D01*
X57653809Y-80982619D02*
X57653809Y-79982619D01*
X57653809Y-79982619D02*
X57558571Y-80125476D01*
X57558571Y-80125476D02*
X57463333Y-80220714D01*
X57463333Y-80220714D02*
X57368095Y-80268333D01*
%TO.C,J20*%
X84720476Y-105732619D02*
X84720476Y-106446904D01*
X84720476Y-106446904D02*
X84672857Y-106589761D01*
X84672857Y-106589761D02*
X84577619Y-106685000D01*
X84577619Y-106685000D02*
X84434762Y-106732619D01*
X84434762Y-106732619D02*
X84339524Y-106732619D01*
X85149048Y-105827857D02*
X85196667Y-105780238D01*
X85196667Y-105780238D02*
X85291905Y-105732619D01*
X85291905Y-105732619D02*
X85530000Y-105732619D01*
X85530000Y-105732619D02*
X85625238Y-105780238D01*
X85625238Y-105780238D02*
X85672857Y-105827857D01*
X85672857Y-105827857D02*
X85720476Y-105923095D01*
X85720476Y-105923095D02*
X85720476Y-106018333D01*
X85720476Y-106018333D02*
X85672857Y-106161190D01*
X85672857Y-106161190D02*
X85101429Y-106732619D01*
X85101429Y-106732619D02*
X85720476Y-106732619D01*
X86339524Y-105732619D02*
X86434762Y-105732619D01*
X86434762Y-105732619D02*
X86530000Y-105780238D01*
X86530000Y-105780238D02*
X86577619Y-105827857D01*
X86577619Y-105827857D02*
X86625238Y-105923095D01*
X86625238Y-105923095D02*
X86672857Y-106113571D01*
X86672857Y-106113571D02*
X86672857Y-106351666D01*
X86672857Y-106351666D02*
X86625238Y-106542142D01*
X86625238Y-106542142D02*
X86577619Y-106637380D01*
X86577619Y-106637380D02*
X86530000Y-106685000D01*
X86530000Y-106685000D02*
X86434762Y-106732619D01*
X86434762Y-106732619D02*
X86339524Y-106732619D01*
X86339524Y-106732619D02*
X86244286Y-106685000D01*
X86244286Y-106685000D02*
X86196667Y-106637380D01*
X86196667Y-106637380D02*
X86149048Y-106542142D01*
X86149048Y-106542142D02*
X86101429Y-106351666D01*
X86101429Y-106351666D02*
X86101429Y-106113571D01*
X86101429Y-106113571D02*
X86149048Y-105923095D01*
X86149048Y-105923095D02*
X86196667Y-105827857D01*
X86196667Y-105827857D02*
X86244286Y-105780238D01*
X86244286Y-105780238D02*
X86339524Y-105732619D01*
%TO.C,U2*%
X58933095Y-79982619D02*
X58933095Y-80792142D01*
X58933095Y-80792142D02*
X58980714Y-80887380D01*
X58980714Y-80887380D02*
X59028333Y-80935000D01*
X59028333Y-80935000D02*
X59123571Y-80982619D01*
X59123571Y-80982619D02*
X59314047Y-80982619D01*
X59314047Y-80982619D02*
X59409285Y-80935000D01*
X59409285Y-80935000D02*
X59456904Y-80887380D01*
X59456904Y-80887380D02*
X59504523Y-80792142D01*
X59504523Y-80792142D02*
X59504523Y-79982619D01*
X59933095Y-80077857D02*
X59980714Y-80030238D01*
X59980714Y-80030238D02*
X60075952Y-79982619D01*
X60075952Y-79982619D02*
X60314047Y-79982619D01*
X60314047Y-79982619D02*
X60409285Y-80030238D01*
X60409285Y-80030238D02*
X60456904Y-80077857D01*
X60456904Y-80077857D02*
X60504523Y-80173095D01*
X60504523Y-80173095D02*
X60504523Y-80268333D01*
X60504523Y-80268333D02*
X60456904Y-80411190D01*
X60456904Y-80411190D02*
X59885476Y-80982619D01*
X59885476Y-80982619D02*
X60504523Y-80982619D01*
%TO.C,J18*%
X84920476Y-100132619D02*
X84920476Y-100846904D01*
X84920476Y-100846904D02*
X84872857Y-100989761D01*
X84872857Y-100989761D02*
X84777619Y-101085000D01*
X84777619Y-101085000D02*
X84634762Y-101132619D01*
X84634762Y-101132619D02*
X84539524Y-101132619D01*
X85920476Y-101132619D02*
X85349048Y-101132619D01*
X85634762Y-101132619D02*
X85634762Y-100132619D01*
X85634762Y-100132619D02*
X85539524Y-100275476D01*
X85539524Y-100275476D02*
X85444286Y-100370714D01*
X85444286Y-100370714D02*
X85349048Y-100418333D01*
X86491905Y-100561190D02*
X86396667Y-100513571D01*
X86396667Y-100513571D02*
X86349048Y-100465952D01*
X86349048Y-100465952D02*
X86301429Y-100370714D01*
X86301429Y-100370714D02*
X86301429Y-100323095D01*
X86301429Y-100323095D02*
X86349048Y-100227857D01*
X86349048Y-100227857D02*
X86396667Y-100180238D01*
X86396667Y-100180238D02*
X86491905Y-100132619D01*
X86491905Y-100132619D02*
X86682381Y-100132619D01*
X86682381Y-100132619D02*
X86777619Y-100180238D01*
X86777619Y-100180238D02*
X86825238Y-100227857D01*
X86825238Y-100227857D02*
X86872857Y-100323095D01*
X86872857Y-100323095D02*
X86872857Y-100370714D01*
X86872857Y-100370714D02*
X86825238Y-100465952D01*
X86825238Y-100465952D02*
X86777619Y-100513571D01*
X86777619Y-100513571D02*
X86682381Y-100561190D01*
X86682381Y-100561190D02*
X86491905Y-100561190D01*
X86491905Y-100561190D02*
X86396667Y-100608809D01*
X86396667Y-100608809D02*
X86349048Y-100656428D01*
X86349048Y-100656428D02*
X86301429Y-100751666D01*
X86301429Y-100751666D02*
X86301429Y-100942142D01*
X86301429Y-100942142D02*
X86349048Y-101037380D01*
X86349048Y-101037380D02*
X86396667Y-101085000D01*
X86396667Y-101085000D02*
X86491905Y-101132619D01*
X86491905Y-101132619D02*
X86682381Y-101132619D01*
X86682381Y-101132619D02*
X86777619Y-101085000D01*
X86777619Y-101085000D02*
X86825238Y-101037380D01*
X86825238Y-101037380D02*
X86872857Y-100942142D01*
X86872857Y-100942142D02*
X86872857Y-100751666D01*
X86872857Y-100751666D02*
X86825238Y-100656428D01*
X86825238Y-100656428D02*
X86777619Y-100608809D01*
X86777619Y-100608809D02*
X86682381Y-100561190D01*
%TO.C,J34*%
X84720476Y-110532619D02*
X84720476Y-111246904D01*
X84720476Y-111246904D02*
X84672857Y-111389761D01*
X84672857Y-111389761D02*
X84577619Y-111485000D01*
X84577619Y-111485000D02*
X84434762Y-111532619D01*
X84434762Y-111532619D02*
X84339524Y-111532619D01*
X85101429Y-110532619D02*
X85720476Y-110532619D01*
X85720476Y-110532619D02*
X85387143Y-110913571D01*
X85387143Y-110913571D02*
X85530000Y-110913571D01*
X85530000Y-110913571D02*
X85625238Y-110961190D01*
X85625238Y-110961190D02*
X85672857Y-111008809D01*
X85672857Y-111008809D02*
X85720476Y-111104047D01*
X85720476Y-111104047D02*
X85720476Y-111342142D01*
X85720476Y-111342142D02*
X85672857Y-111437380D01*
X85672857Y-111437380D02*
X85625238Y-111485000D01*
X85625238Y-111485000D02*
X85530000Y-111532619D01*
X85530000Y-111532619D02*
X85244286Y-111532619D01*
X85244286Y-111532619D02*
X85149048Y-111485000D01*
X85149048Y-111485000D02*
X85101429Y-111437380D01*
X86577619Y-110865952D02*
X86577619Y-111532619D01*
X86339524Y-110485000D02*
X86101429Y-111199285D01*
X86101429Y-111199285D02*
X86720476Y-111199285D01*
%TO.C,J33*%
X84720476Y-115532619D02*
X84720476Y-116246904D01*
X84720476Y-116246904D02*
X84672857Y-116389761D01*
X84672857Y-116389761D02*
X84577619Y-116485000D01*
X84577619Y-116485000D02*
X84434762Y-116532619D01*
X84434762Y-116532619D02*
X84339524Y-116532619D01*
X85101429Y-115532619D02*
X85720476Y-115532619D01*
X85720476Y-115532619D02*
X85387143Y-115913571D01*
X85387143Y-115913571D02*
X85530000Y-115913571D01*
X85530000Y-115913571D02*
X85625238Y-115961190D01*
X85625238Y-115961190D02*
X85672857Y-116008809D01*
X85672857Y-116008809D02*
X85720476Y-116104047D01*
X85720476Y-116104047D02*
X85720476Y-116342142D01*
X85720476Y-116342142D02*
X85672857Y-116437380D01*
X85672857Y-116437380D02*
X85625238Y-116485000D01*
X85625238Y-116485000D02*
X85530000Y-116532619D01*
X85530000Y-116532619D02*
X85244286Y-116532619D01*
X85244286Y-116532619D02*
X85149048Y-116485000D01*
X85149048Y-116485000D02*
X85101429Y-116437380D01*
X86053810Y-115532619D02*
X86672857Y-115532619D01*
X86672857Y-115532619D02*
X86339524Y-115913571D01*
X86339524Y-115913571D02*
X86482381Y-115913571D01*
X86482381Y-115913571D02*
X86577619Y-115961190D01*
X86577619Y-115961190D02*
X86625238Y-116008809D01*
X86625238Y-116008809D02*
X86672857Y-116104047D01*
X86672857Y-116104047D02*
X86672857Y-116342142D01*
X86672857Y-116342142D02*
X86625238Y-116437380D01*
X86625238Y-116437380D02*
X86577619Y-116485000D01*
X86577619Y-116485000D02*
X86482381Y-116532619D01*
X86482381Y-116532619D02*
X86196667Y-116532619D01*
X86196667Y-116532619D02*
X86101429Y-116485000D01*
X86101429Y-116485000D02*
X86053810Y-116437380D01*
%TO.C,J31*%
X84860476Y-85132619D02*
X84860476Y-85846904D01*
X84860476Y-85846904D02*
X84812857Y-85989761D01*
X84812857Y-85989761D02*
X84717619Y-86085000D01*
X84717619Y-86085000D02*
X84574762Y-86132619D01*
X84574762Y-86132619D02*
X84479524Y-86132619D01*
X85241429Y-85132619D02*
X85860476Y-85132619D01*
X85860476Y-85132619D02*
X85527143Y-85513571D01*
X85527143Y-85513571D02*
X85670000Y-85513571D01*
X85670000Y-85513571D02*
X85765238Y-85561190D01*
X85765238Y-85561190D02*
X85812857Y-85608809D01*
X85812857Y-85608809D02*
X85860476Y-85704047D01*
X85860476Y-85704047D02*
X85860476Y-85942142D01*
X85860476Y-85942142D02*
X85812857Y-86037380D01*
X85812857Y-86037380D02*
X85765238Y-86085000D01*
X85765238Y-86085000D02*
X85670000Y-86132619D01*
X85670000Y-86132619D02*
X85384286Y-86132619D01*
X85384286Y-86132619D02*
X85289048Y-86085000D01*
X85289048Y-86085000D02*
X85241429Y-86037380D01*
X86812857Y-86132619D02*
X86241429Y-86132619D01*
X86527143Y-86132619D02*
X86527143Y-85132619D01*
X86527143Y-85132619D02*
X86431905Y-85275476D01*
X86431905Y-85275476D02*
X86336667Y-85370714D01*
X86336667Y-85370714D02*
X86241429Y-85418333D01*
%TO.C,J9*%
X33396666Y-127792619D02*
X33396666Y-128506904D01*
X33396666Y-128506904D02*
X33349047Y-128649761D01*
X33349047Y-128649761D02*
X33253809Y-128745000D01*
X33253809Y-128745000D02*
X33110952Y-128792619D01*
X33110952Y-128792619D02*
X33015714Y-128792619D01*
X33920476Y-128792619D02*
X34110952Y-128792619D01*
X34110952Y-128792619D02*
X34206190Y-128745000D01*
X34206190Y-128745000D02*
X34253809Y-128697380D01*
X34253809Y-128697380D02*
X34349047Y-128554523D01*
X34349047Y-128554523D02*
X34396666Y-128364047D01*
X34396666Y-128364047D02*
X34396666Y-127983095D01*
X34396666Y-127983095D02*
X34349047Y-127887857D01*
X34349047Y-127887857D02*
X34301428Y-127840238D01*
X34301428Y-127840238D02*
X34206190Y-127792619D01*
X34206190Y-127792619D02*
X34015714Y-127792619D01*
X34015714Y-127792619D02*
X33920476Y-127840238D01*
X33920476Y-127840238D02*
X33872857Y-127887857D01*
X33872857Y-127887857D02*
X33825238Y-127983095D01*
X33825238Y-127983095D02*
X33825238Y-128221190D01*
X33825238Y-128221190D02*
X33872857Y-128316428D01*
X33872857Y-128316428D02*
X33920476Y-128364047D01*
X33920476Y-128364047D02*
X34015714Y-128411666D01*
X34015714Y-128411666D02*
X34206190Y-128411666D01*
X34206190Y-128411666D02*
X34301428Y-128364047D01*
X34301428Y-128364047D02*
X34349047Y-128316428D01*
X34349047Y-128316428D02*
X34396666Y-128221190D01*
%TO.C,J17*%
X84860476Y-90132619D02*
X84860476Y-90846904D01*
X84860476Y-90846904D02*
X84812857Y-90989761D01*
X84812857Y-90989761D02*
X84717619Y-91085000D01*
X84717619Y-91085000D02*
X84574762Y-91132619D01*
X84574762Y-91132619D02*
X84479524Y-91132619D01*
X85860476Y-91132619D02*
X85289048Y-91132619D01*
X85574762Y-91132619D02*
X85574762Y-90132619D01*
X85574762Y-90132619D02*
X85479524Y-90275476D01*
X85479524Y-90275476D02*
X85384286Y-90370714D01*
X85384286Y-90370714D02*
X85289048Y-90418333D01*
X86193810Y-90132619D02*
X86860476Y-90132619D01*
X86860476Y-90132619D02*
X86431905Y-91132619D01*
%TO.C,J23*%
X77720476Y-92732619D02*
X77720476Y-93446904D01*
X77720476Y-93446904D02*
X77672857Y-93589761D01*
X77672857Y-93589761D02*
X77577619Y-93685000D01*
X77577619Y-93685000D02*
X77434762Y-93732619D01*
X77434762Y-93732619D02*
X77339524Y-93732619D01*
X78149048Y-92827857D02*
X78196667Y-92780238D01*
X78196667Y-92780238D02*
X78291905Y-92732619D01*
X78291905Y-92732619D02*
X78530000Y-92732619D01*
X78530000Y-92732619D02*
X78625238Y-92780238D01*
X78625238Y-92780238D02*
X78672857Y-92827857D01*
X78672857Y-92827857D02*
X78720476Y-92923095D01*
X78720476Y-92923095D02*
X78720476Y-93018333D01*
X78720476Y-93018333D02*
X78672857Y-93161190D01*
X78672857Y-93161190D02*
X78101429Y-93732619D01*
X78101429Y-93732619D02*
X78720476Y-93732619D01*
X79053810Y-92732619D02*
X79672857Y-92732619D01*
X79672857Y-92732619D02*
X79339524Y-93113571D01*
X79339524Y-93113571D02*
X79482381Y-93113571D01*
X79482381Y-93113571D02*
X79577619Y-93161190D01*
X79577619Y-93161190D02*
X79625238Y-93208809D01*
X79625238Y-93208809D02*
X79672857Y-93304047D01*
X79672857Y-93304047D02*
X79672857Y-93542142D01*
X79672857Y-93542142D02*
X79625238Y-93637380D01*
X79625238Y-93637380D02*
X79577619Y-93685000D01*
X79577619Y-93685000D02*
X79482381Y-93732619D01*
X79482381Y-93732619D02*
X79196667Y-93732619D01*
X79196667Y-93732619D02*
X79101429Y-93685000D01*
X79101429Y-93685000D02*
X79053810Y-93637380D01*
%TO.C,J8*%
X33396666Y-117192619D02*
X33396666Y-117906904D01*
X33396666Y-117906904D02*
X33349047Y-118049761D01*
X33349047Y-118049761D02*
X33253809Y-118145000D01*
X33253809Y-118145000D02*
X33110952Y-118192619D01*
X33110952Y-118192619D02*
X33015714Y-118192619D01*
X34015714Y-117621190D02*
X33920476Y-117573571D01*
X33920476Y-117573571D02*
X33872857Y-117525952D01*
X33872857Y-117525952D02*
X33825238Y-117430714D01*
X33825238Y-117430714D02*
X33825238Y-117383095D01*
X33825238Y-117383095D02*
X33872857Y-117287857D01*
X33872857Y-117287857D02*
X33920476Y-117240238D01*
X33920476Y-117240238D02*
X34015714Y-117192619D01*
X34015714Y-117192619D02*
X34206190Y-117192619D01*
X34206190Y-117192619D02*
X34301428Y-117240238D01*
X34301428Y-117240238D02*
X34349047Y-117287857D01*
X34349047Y-117287857D02*
X34396666Y-117383095D01*
X34396666Y-117383095D02*
X34396666Y-117430714D01*
X34396666Y-117430714D02*
X34349047Y-117525952D01*
X34349047Y-117525952D02*
X34301428Y-117573571D01*
X34301428Y-117573571D02*
X34206190Y-117621190D01*
X34206190Y-117621190D02*
X34015714Y-117621190D01*
X34015714Y-117621190D02*
X33920476Y-117668809D01*
X33920476Y-117668809D02*
X33872857Y-117716428D01*
X33872857Y-117716428D02*
X33825238Y-117811666D01*
X33825238Y-117811666D02*
X33825238Y-118002142D01*
X33825238Y-118002142D02*
X33872857Y-118097380D01*
X33872857Y-118097380D02*
X33920476Y-118145000D01*
X33920476Y-118145000D02*
X34015714Y-118192619D01*
X34015714Y-118192619D02*
X34206190Y-118192619D01*
X34206190Y-118192619D02*
X34301428Y-118145000D01*
X34301428Y-118145000D02*
X34349047Y-118097380D01*
X34349047Y-118097380D02*
X34396666Y-118002142D01*
X34396666Y-118002142D02*
X34396666Y-117811666D01*
X34396666Y-117811666D02*
X34349047Y-117716428D01*
X34349047Y-117716428D02*
X34301428Y-117668809D01*
X34301428Y-117668809D02*
X34206190Y-117621190D01*
%TO.C,J28*%
X39920476Y-94792619D02*
X39920476Y-95506904D01*
X39920476Y-95506904D02*
X39872857Y-95649761D01*
X39872857Y-95649761D02*
X39777619Y-95745000D01*
X39777619Y-95745000D02*
X39634762Y-95792619D01*
X39634762Y-95792619D02*
X39539524Y-95792619D01*
X40349048Y-94887857D02*
X40396667Y-94840238D01*
X40396667Y-94840238D02*
X40491905Y-94792619D01*
X40491905Y-94792619D02*
X40730000Y-94792619D01*
X40730000Y-94792619D02*
X40825238Y-94840238D01*
X40825238Y-94840238D02*
X40872857Y-94887857D01*
X40872857Y-94887857D02*
X40920476Y-94983095D01*
X40920476Y-94983095D02*
X40920476Y-95078333D01*
X40920476Y-95078333D02*
X40872857Y-95221190D01*
X40872857Y-95221190D02*
X40301429Y-95792619D01*
X40301429Y-95792619D02*
X40920476Y-95792619D01*
X41491905Y-95221190D02*
X41396667Y-95173571D01*
X41396667Y-95173571D02*
X41349048Y-95125952D01*
X41349048Y-95125952D02*
X41301429Y-95030714D01*
X41301429Y-95030714D02*
X41301429Y-94983095D01*
X41301429Y-94983095D02*
X41349048Y-94887857D01*
X41349048Y-94887857D02*
X41396667Y-94840238D01*
X41396667Y-94840238D02*
X41491905Y-94792619D01*
X41491905Y-94792619D02*
X41682381Y-94792619D01*
X41682381Y-94792619D02*
X41777619Y-94840238D01*
X41777619Y-94840238D02*
X41825238Y-94887857D01*
X41825238Y-94887857D02*
X41872857Y-94983095D01*
X41872857Y-94983095D02*
X41872857Y-95030714D01*
X41872857Y-95030714D02*
X41825238Y-95125952D01*
X41825238Y-95125952D02*
X41777619Y-95173571D01*
X41777619Y-95173571D02*
X41682381Y-95221190D01*
X41682381Y-95221190D02*
X41491905Y-95221190D01*
X41491905Y-95221190D02*
X41396667Y-95268809D01*
X41396667Y-95268809D02*
X41349048Y-95316428D01*
X41349048Y-95316428D02*
X41301429Y-95411666D01*
X41301429Y-95411666D02*
X41301429Y-95602142D01*
X41301429Y-95602142D02*
X41349048Y-95697380D01*
X41349048Y-95697380D02*
X41396667Y-95745000D01*
X41396667Y-95745000D02*
X41491905Y-95792619D01*
X41491905Y-95792619D02*
X41682381Y-95792619D01*
X41682381Y-95792619D02*
X41777619Y-95745000D01*
X41777619Y-95745000D02*
X41825238Y-95697380D01*
X41825238Y-95697380D02*
X41872857Y-95602142D01*
X41872857Y-95602142D02*
X41872857Y-95411666D01*
X41872857Y-95411666D02*
X41825238Y-95316428D01*
X41825238Y-95316428D02*
X41777619Y-95268809D01*
X41777619Y-95268809D02*
X41682381Y-95221190D01*
%TO.C,R1*%
X54153333Y-75492619D02*
X53820000Y-75016428D01*
X53581905Y-75492619D02*
X53581905Y-74492619D01*
X53581905Y-74492619D02*
X53962857Y-74492619D01*
X53962857Y-74492619D02*
X54058095Y-74540238D01*
X54058095Y-74540238D02*
X54105714Y-74587857D01*
X54105714Y-74587857D02*
X54153333Y-74683095D01*
X54153333Y-74683095D02*
X54153333Y-74825952D01*
X54153333Y-74825952D02*
X54105714Y-74921190D01*
X54105714Y-74921190D02*
X54058095Y-74968809D01*
X54058095Y-74968809D02*
X53962857Y-75016428D01*
X53962857Y-75016428D02*
X53581905Y-75016428D01*
X55105714Y-75492619D02*
X54534286Y-75492619D01*
X54820000Y-75492619D02*
X54820000Y-74492619D01*
X54820000Y-74492619D02*
X54724762Y-74635476D01*
X54724762Y-74635476D02*
X54629524Y-74730714D01*
X54629524Y-74730714D02*
X54534286Y-74778333D01*
%TO.C,J3*%
X33396666Y-107592619D02*
X33396666Y-108306904D01*
X33396666Y-108306904D02*
X33349047Y-108449761D01*
X33349047Y-108449761D02*
X33253809Y-108545000D01*
X33253809Y-108545000D02*
X33110952Y-108592619D01*
X33110952Y-108592619D02*
X33015714Y-108592619D01*
X33777619Y-107592619D02*
X34396666Y-107592619D01*
X34396666Y-107592619D02*
X34063333Y-107973571D01*
X34063333Y-107973571D02*
X34206190Y-107973571D01*
X34206190Y-107973571D02*
X34301428Y-108021190D01*
X34301428Y-108021190D02*
X34349047Y-108068809D01*
X34349047Y-108068809D02*
X34396666Y-108164047D01*
X34396666Y-108164047D02*
X34396666Y-108402142D01*
X34396666Y-108402142D02*
X34349047Y-108497380D01*
X34349047Y-108497380D02*
X34301428Y-108545000D01*
X34301428Y-108545000D02*
X34206190Y-108592619D01*
X34206190Y-108592619D02*
X33920476Y-108592619D01*
X33920476Y-108592619D02*
X33825238Y-108545000D01*
X33825238Y-108545000D02*
X33777619Y-108497380D01*
%TO.C,J27*%
X84860476Y-80132619D02*
X84860476Y-80846904D01*
X84860476Y-80846904D02*
X84812857Y-80989761D01*
X84812857Y-80989761D02*
X84717619Y-81085000D01*
X84717619Y-81085000D02*
X84574762Y-81132619D01*
X84574762Y-81132619D02*
X84479524Y-81132619D01*
X85289048Y-80227857D02*
X85336667Y-80180238D01*
X85336667Y-80180238D02*
X85431905Y-80132619D01*
X85431905Y-80132619D02*
X85670000Y-80132619D01*
X85670000Y-80132619D02*
X85765238Y-80180238D01*
X85765238Y-80180238D02*
X85812857Y-80227857D01*
X85812857Y-80227857D02*
X85860476Y-80323095D01*
X85860476Y-80323095D02*
X85860476Y-80418333D01*
X85860476Y-80418333D02*
X85812857Y-80561190D01*
X85812857Y-80561190D02*
X85241429Y-81132619D01*
X85241429Y-81132619D02*
X85860476Y-81132619D01*
X86193810Y-80132619D02*
X86860476Y-80132619D01*
X86860476Y-80132619D02*
X86431905Y-81132619D01*
%TO.C,J7*%
X33396666Y-122792619D02*
X33396666Y-123506904D01*
X33396666Y-123506904D02*
X33349047Y-123649761D01*
X33349047Y-123649761D02*
X33253809Y-123745000D01*
X33253809Y-123745000D02*
X33110952Y-123792619D01*
X33110952Y-123792619D02*
X33015714Y-123792619D01*
X33777619Y-122792619D02*
X34444285Y-122792619D01*
X34444285Y-122792619D02*
X34015714Y-123792619D01*
%TO.C,J1*%
X40396666Y-99792619D02*
X40396666Y-100506904D01*
X40396666Y-100506904D02*
X40349047Y-100649761D01*
X40349047Y-100649761D02*
X40253809Y-100745000D01*
X40253809Y-100745000D02*
X40110952Y-100792619D01*
X40110952Y-100792619D02*
X40015714Y-100792619D01*
X41396666Y-100792619D02*
X40825238Y-100792619D01*
X41110952Y-100792619D02*
X41110952Y-99792619D01*
X41110952Y-99792619D02*
X41015714Y-99935476D01*
X41015714Y-99935476D02*
X40920476Y-100030714D01*
X40920476Y-100030714D02*
X40825238Y-100078333D01*
%TO.C,J12*%
X39460476Y-125192619D02*
X39460476Y-125906904D01*
X39460476Y-125906904D02*
X39412857Y-126049761D01*
X39412857Y-126049761D02*
X39317619Y-126145000D01*
X39317619Y-126145000D02*
X39174762Y-126192619D01*
X39174762Y-126192619D02*
X39079524Y-126192619D01*
X40460476Y-126192619D02*
X39889048Y-126192619D01*
X40174762Y-126192619D02*
X40174762Y-125192619D01*
X40174762Y-125192619D02*
X40079524Y-125335476D01*
X40079524Y-125335476D02*
X39984286Y-125430714D01*
X39984286Y-125430714D02*
X39889048Y-125478333D01*
X40841429Y-125287857D02*
X40889048Y-125240238D01*
X40889048Y-125240238D02*
X40984286Y-125192619D01*
X40984286Y-125192619D02*
X41222381Y-125192619D01*
X41222381Y-125192619D02*
X41317619Y-125240238D01*
X41317619Y-125240238D02*
X41365238Y-125287857D01*
X41365238Y-125287857D02*
X41412857Y-125383095D01*
X41412857Y-125383095D02*
X41412857Y-125478333D01*
X41412857Y-125478333D02*
X41365238Y-125621190D01*
X41365238Y-125621190D02*
X40793810Y-126192619D01*
X40793810Y-126192619D02*
X41412857Y-126192619D01*
%TO.C,J19*%
X84860476Y-95132619D02*
X84860476Y-95846904D01*
X84860476Y-95846904D02*
X84812857Y-95989761D01*
X84812857Y-95989761D02*
X84717619Y-96085000D01*
X84717619Y-96085000D02*
X84574762Y-96132619D01*
X84574762Y-96132619D02*
X84479524Y-96132619D01*
X85860476Y-96132619D02*
X85289048Y-96132619D01*
X85574762Y-96132619D02*
X85574762Y-95132619D01*
X85574762Y-95132619D02*
X85479524Y-95275476D01*
X85479524Y-95275476D02*
X85384286Y-95370714D01*
X85384286Y-95370714D02*
X85289048Y-95418333D01*
X86336667Y-96132619D02*
X86527143Y-96132619D01*
X86527143Y-96132619D02*
X86622381Y-96085000D01*
X86622381Y-96085000D02*
X86670000Y-96037380D01*
X86670000Y-96037380D02*
X86765238Y-95894523D01*
X86765238Y-95894523D02*
X86812857Y-95704047D01*
X86812857Y-95704047D02*
X86812857Y-95323095D01*
X86812857Y-95323095D02*
X86765238Y-95227857D01*
X86765238Y-95227857D02*
X86717619Y-95180238D01*
X86717619Y-95180238D02*
X86622381Y-95132619D01*
X86622381Y-95132619D02*
X86431905Y-95132619D01*
X86431905Y-95132619D02*
X86336667Y-95180238D01*
X86336667Y-95180238D02*
X86289048Y-95227857D01*
X86289048Y-95227857D02*
X86241429Y-95323095D01*
X86241429Y-95323095D02*
X86241429Y-95561190D01*
X86241429Y-95561190D02*
X86289048Y-95656428D01*
X86289048Y-95656428D02*
X86336667Y-95704047D01*
X86336667Y-95704047D02*
X86431905Y-95751666D01*
X86431905Y-95751666D02*
X86622381Y-95751666D01*
X86622381Y-95751666D02*
X86717619Y-95704047D01*
X86717619Y-95704047D02*
X86765238Y-95656428D01*
X86765238Y-95656428D02*
X86812857Y-95561190D01*
%TO.C,D1*%
X62811905Y-74902619D02*
X62811905Y-73902619D01*
X62811905Y-73902619D02*
X63050000Y-73902619D01*
X63050000Y-73902619D02*
X63192857Y-73950238D01*
X63192857Y-73950238D02*
X63288095Y-74045476D01*
X63288095Y-74045476D02*
X63335714Y-74140714D01*
X63335714Y-74140714D02*
X63383333Y-74331190D01*
X63383333Y-74331190D02*
X63383333Y-74474047D01*
X63383333Y-74474047D02*
X63335714Y-74664523D01*
X63335714Y-74664523D02*
X63288095Y-74759761D01*
X63288095Y-74759761D02*
X63192857Y-74855000D01*
X63192857Y-74855000D02*
X63050000Y-74902619D01*
X63050000Y-74902619D02*
X62811905Y-74902619D01*
X64335714Y-74902619D02*
X63764286Y-74902619D01*
X64050000Y-74902619D02*
X64050000Y-73902619D01*
X64050000Y-73902619D02*
X63954762Y-74045476D01*
X63954762Y-74045476D02*
X63859524Y-74140714D01*
X63859524Y-74140714D02*
X63764286Y-74188333D01*
%TO.C,J4*%
X40396666Y-104992619D02*
X40396666Y-105706904D01*
X40396666Y-105706904D02*
X40349047Y-105849761D01*
X40349047Y-105849761D02*
X40253809Y-105945000D01*
X40253809Y-105945000D02*
X40110952Y-105992619D01*
X40110952Y-105992619D02*
X40015714Y-105992619D01*
X41301428Y-105325952D02*
X41301428Y-105992619D01*
X41063333Y-104945000D02*
X40825238Y-105659285D01*
X40825238Y-105659285D02*
X41444285Y-105659285D01*
%TO.C,J11*%
X39460476Y-115192619D02*
X39460476Y-115906904D01*
X39460476Y-115906904D02*
X39412857Y-116049761D01*
X39412857Y-116049761D02*
X39317619Y-116145000D01*
X39317619Y-116145000D02*
X39174762Y-116192619D01*
X39174762Y-116192619D02*
X39079524Y-116192619D01*
X40460476Y-116192619D02*
X39889048Y-116192619D01*
X40174762Y-116192619D02*
X40174762Y-115192619D01*
X40174762Y-115192619D02*
X40079524Y-115335476D01*
X40079524Y-115335476D02*
X39984286Y-115430714D01*
X39984286Y-115430714D02*
X39889048Y-115478333D01*
X41412857Y-116192619D02*
X40841429Y-116192619D01*
X41127143Y-116192619D02*
X41127143Y-115192619D01*
X41127143Y-115192619D02*
X41031905Y-115335476D01*
X41031905Y-115335476D02*
X40936667Y-115430714D01*
X40936667Y-115430714D02*
X40841429Y-115478333D01*
%TO.C,J15*%
X39520476Y-130392619D02*
X39520476Y-131106904D01*
X39520476Y-131106904D02*
X39472857Y-131249761D01*
X39472857Y-131249761D02*
X39377619Y-131345000D01*
X39377619Y-131345000D02*
X39234762Y-131392619D01*
X39234762Y-131392619D02*
X39139524Y-131392619D01*
X40520476Y-131392619D02*
X39949048Y-131392619D01*
X40234762Y-131392619D02*
X40234762Y-130392619D01*
X40234762Y-130392619D02*
X40139524Y-130535476D01*
X40139524Y-130535476D02*
X40044286Y-130630714D01*
X40044286Y-130630714D02*
X39949048Y-130678333D01*
X41425238Y-130392619D02*
X40949048Y-130392619D01*
X40949048Y-130392619D02*
X40901429Y-130868809D01*
X40901429Y-130868809D02*
X40949048Y-130821190D01*
X40949048Y-130821190D02*
X41044286Y-130773571D01*
X41044286Y-130773571D02*
X41282381Y-130773571D01*
X41282381Y-130773571D02*
X41377619Y-130821190D01*
X41377619Y-130821190D02*
X41425238Y-130868809D01*
X41425238Y-130868809D02*
X41472857Y-130964047D01*
X41472857Y-130964047D02*
X41472857Y-131202142D01*
X41472857Y-131202142D02*
X41425238Y-131297380D01*
X41425238Y-131297380D02*
X41377619Y-131345000D01*
X41377619Y-131345000D02*
X41282381Y-131392619D01*
X41282381Y-131392619D02*
X41044286Y-131392619D01*
X41044286Y-131392619D02*
X40949048Y-131345000D01*
X40949048Y-131345000D02*
X40901429Y-131297380D01*
%TO.C,J10*%
X39460476Y-120192619D02*
X39460476Y-120906904D01*
X39460476Y-120906904D02*
X39412857Y-121049761D01*
X39412857Y-121049761D02*
X39317619Y-121145000D01*
X39317619Y-121145000D02*
X39174762Y-121192619D01*
X39174762Y-121192619D02*
X39079524Y-121192619D01*
X40460476Y-121192619D02*
X39889048Y-121192619D01*
X40174762Y-121192619D02*
X40174762Y-120192619D01*
X40174762Y-120192619D02*
X40079524Y-120335476D01*
X40079524Y-120335476D02*
X39984286Y-120430714D01*
X39984286Y-120430714D02*
X39889048Y-120478333D01*
X41079524Y-120192619D02*
X41174762Y-120192619D01*
X41174762Y-120192619D02*
X41270000Y-120240238D01*
X41270000Y-120240238D02*
X41317619Y-120287857D01*
X41317619Y-120287857D02*
X41365238Y-120383095D01*
X41365238Y-120383095D02*
X41412857Y-120573571D01*
X41412857Y-120573571D02*
X41412857Y-120811666D01*
X41412857Y-120811666D02*
X41365238Y-121002142D01*
X41365238Y-121002142D02*
X41317619Y-121097380D01*
X41317619Y-121097380D02*
X41270000Y-121145000D01*
X41270000Y-121145000D02*
X41174762Y-121192619D01*
X41174762Y-121192619D02*
X41079524Y-121192619D01*
X41079524Y-121192619D02*
X40984286Y-121145000D01*
X40984286Y-121145000D02*
X40936667Y-121097380D01*
X40936667Y-121097380D02*
X40889048Y-121002142D01*
X40889048Y-121002142D02*
X40841429Y-120811666D01*
X40841429Y-120811666D02*
X40841429Y-120573571D01*
X40841429Y-120573571D02*
X40889048Y-120383095D01*
X40889048Y-120383095D02*
X40936667Y-120287857D01*
X40936667Y-120287857D02*
X40984286Y-120240238D01*
X40984286Y-120240238D02*
X41079524Y-120192619D01*
%TO.C,J24*%
X77920476Y-102732619D02*
X77920476Y-103446904D01*
X77920476Y-103446904D02*
X77872857Y-103589761D01*
X77872857Y-103589761D02*
X77777619Y-103685000D01*
X77777619Y-103685000D02*
X77634762Y-103732619D01*
X77634762Y-103732619D02*
X77539524Y-103732619D01*
X78349048Y-102827857D02*
X78396667Y-102780238D01*
X78396667Y-102780238D02*
X78491905Y-102732619D01*
X78491905Y-102732619D02*
X78730000Y-102732619D01*
X78730000Y-102732619D02*
X78825238Y-102780238D01*
X78825238Y-102780238D02*
X78872857Y-102827857D01*
X78872857Y-102827857D02*
X78920476Y-102923095D01*
X78920476Y-102923095D02*
X78920476Y-103018333D01*
X78920476Y-103018333D02*
X78872857Y-103161190D01*
X78872857Y-103161190D02*
X78301429Y-103732619D01*
X78301429Y-103732619D02*
X78920476Y-103732619D01*
X79777619Y-103065952D02*
X79777619Y-103732619D01*
X79539524Y-102685000D02*
X79301429Y-103399285D01*
X79301429Y-103399285D02*
X79920476Y-103399285D01*
%TO.C,J32*%
X32920476Y-87192619D02*
X32920476Y-87906904D01*
X32920476Y-87906904D02*
X32872857Y-88049761D01*
X32872857Y-88049761D02*
X32777619Y-88145000D01*
X32777619Y-88145000D02*
X32634762Y-88192619D01*
X32634762Y-88192619D02*
X32539524Y-88192619D01*
X33301429Y-87192619D02*
X33920476Y-87192619D01*
X33920476Y-87192619D02*
X33587143Y-87573571D01*
X33587143Y-87573571D02*
X33730000Y-87573571D01*
X33730000Y-87573571D02*
X33825238Y-87621190D01*
X33825238Y-87621190D02*
X33872857Y-87668809D01*
X33872857Y-87668809D02*
X33920476Y-87764047D01*
X33920476Y-87764047D02*
X33920476Y-88002142D01*
X33920476Y-88002142D02*
X33872857Y-88097380D01*
X33872857Y-88097380D02*
X33825238Y-88145000D01*
X33825238Y-88145000D02*
X33730000Y-88192619D01*
X33730000Y-88192619D02*
X33444286Y-88192619D01*
X33444286Y-88192619D02*
X33349048Y-88145000D01*
X33349048Y-88145000D02*
X33301429Y-88097380D01*
X34301429Y-87287857D02*
X34349048Y-87240238D01*
X34349048Y-87240238D02*
X34444286Y-87192619D01*
X34444286Y-87192619D02*
X34682381Y-87192619D01*
X34682381Y-87192619D02*
X34777619Y-87240238D01*
X34777619Y-87240238D02*
X34825238Y-87287857D01*
X34825238Y-87287857D02*
X34872857Y-87383095D01*
X34872857Y-87383095D02*
X34872857Y-87478333D01*
X34872857Y-87478333D02*
X34825238Y-87621190D01*
X34825238Y-87621190D02*
X34253810Y-88192619D01*
X34253810Y-88192619D02*
X34872857Y-88192619D01*
%TO.C,J13*%
X32860476Y-132792619D02*
X32860476Y-133506904D01*
X32860476Y-133506904D02*
X32812857Y-133649761D01*
X32812857Y-133649761D02*
X32717619Y-133745000D01*
X32717619Y-133745000D02*
X32574762Y-133792619D01*
X32574762Y-133792619D02*
X32479524Y-133792619D01*
X33860476Y-133792619D02*
X33289048Y-133792619D01*
X33574762Y-133792619D02*
X33574762Y-132792619D01*
X33574762Y-132792619D02*
X33479524Y-132935476D01*
X33479524Y-132935476D02*
X33384286Y-133030714D01*
X33384286Y-133030714D02*
X33289048Y-133078333D01*
X34193810Y-132792619D02*
X34812857Y-132792619D01*
X34812857Y-132792619D02*
X34479524Y-133173571D01*
X34479524Y-133173571D02*
X34622381Y-133173571D01*
X34622381Y-133173571D02*
X34717619Y-133221190D01*
X34717619Y-133221190D02*
X34765238Y-133268809D01*
X34765238Y-133268809D02*
X34812857Y-133364047D01*
X34812857Y-133364047D02*
X34812857Y-133602142D01*
X34812857Y-133602142D02*
X34765238Y-133697380D01*
X34765238Y-133697380D02*
X34717619Y-133745000D01*
X34717619Y-133745000D02*
X34622381Y-133792619D01*
X34622381Y-133792619D02*
X34336667Y-133792619D01*
X34336667Y-133792619D02*
X34241429Y-133745000D01*
X34241429Y-133745000D02*
X34193810Y-133697380D01*
%TO.C,J2*%
X33996666Y-102392619D02*
X33996666Y-103106904D01*
X33996666Y-103106904D02*
X33949047Y-103249761D01*
X33949047Y-103249761D02*
X33853809Y-103345000D01*
X33853809Y-103345000D02*
X33710952Y-103392619D01*
X33710952Y-103392619D02*
X33615714Y-103392619D01*
X34425238Y-102487857D02*
X34472857Y-102440238D01*
X34472857Y-102440238D02*
X34568095Y-102392619D01*
X34568095Y-102392619D02*
X34806190Y-102392619D01*
X34806190Y-102392619D02*
X34901428Y-102440238D01*
X34901428Y-102440238D02*
X34949047Y-102487857D01*
X34949047Y-102487857D02*
X34996666Y-102583095D01*
X34996666Y-102583095D02*
X34996666Y-102678333D01*
X34996666Y-102678333D02*
X34949047Y-102821190D01*
X34949047Y-102821190D02*
X34377619Y-103392619D01*
X34377619Y-103392619D02*
X34996666Y-103392619D01*
%TO.C,J21*%
X77720476Y-87732619D02*
X77720476Y-88446904D01*
X77720476Y-88446904D02*
X77672857Y-88589761D01*
X77672857Y-88589761D02*
X77577619Y-88685000D01*
X77577619Y-88685000D02*
X77434762Y-88732619D01*
X77434762Y-88732619D02*
X77339524Y-88732619D01*
X78149048Y-87827857D02*
X78196667Y-87780238D01*
X78196667Y-87780238D02*
X78291905Y-87732619D01*
X78291905Y-87732619D02*
X78530000Y-87732619D01*
X78530000Y-87732619D02*
X78625238Y-87780238D01*
X78625238Y-87780238D02*
X78672857Y-87827857D01*
X78672857Y-87827857D02*
X78720476Y-87923095D01*
X78720476Y-87923095D02*
X78720476Y-88018333D01*
X78720476Y-88018333D02*
X78672857Y-88161190D01*
X78672857Y-88161190D02*
X78101429Y-88732619D01*
X78101429Y-88732619D02*
X78720476Y-88732619D01*
X79672857Y-88732619D02*
X79101429Y-88732619D01*
X79387143Y-88732619D02*
X79387143Y-87732619D01*
X79387143Y-87732619D02*
X79291905Y-87875476D01*
X79291905Y-87875476D02*
X79196667Y-87970714D01*
X79196667Y-87970714D02*
X79101429Y-88018333D01*
%TO.C,J26*%
X77720476Y-82532619D02*
X77720476Y-83246904D01*
X77720476Y-83246904D02*
X77672857Y-83389761D01*
X77672857Y-83389761D02*
X77577619Y-83485000D01*
X77577619Y-83485000D02*
X77434762Y-83532619D01*
X77434762Y-83532619D02*
X77339524Y-83532619D01*
X78149048Y-82627857D02*
X78196667Y-82580238D01*
X78196667Y-82580238D02*
X78291905Y-82532619D01*
X78291905Y-82532619D02*
X78530000Y-82532619D01*
X78530000Y-82532619D02*
X78625238Y-82580238D01*
X78625238Y-82580238D02*
X78672857Y-82627857D01*
X78672857Y-82627857D02*
X78720476Y-82723095D01*
X78720476Y-82723095D02*
X78720476Y-82818333D01*
X78720476Y-82818333D02*
X78672857Y-82961190D01*
X78672857Y-82961190D02*
X78101429Y-83532619D01*
X78101429Y-83532619D02*
X78720476Y-83532619D01*
X79577619Y-82532619D02*
X79387143Y-82532619D01*
X79387143Y-82532619D02*
X79291905Y-82580238D01*
X79291905Y-82580238D02*
X79244286Y-82627857D01*
X79244286Y-82627857D02*
X79149048Y-82770714D01*
X79149048Y-82770714D02*
X79101429Y-82961190D01*
X79101429Y-82961190D02*
X79101429Y-83342142D01*
X79101429Y-83342142D02*
X79149048Y-83437380D01*
X79149048Y-83437380D02*
X79196667Y-83485000D01*
X79196667Y-83485000D02*
X79291905Y-83532619D01*
X79291905Y-83532619D02*
X79482381Y-83532619D01*
X79482381Y-83532619D02*
X79577619Y-83485000D01*
X79577619Y-83485000D02*
X79625238Y-83437380D01*
X79625238Y-83437380D02*
X79672857Y-83342142D01*
X79672857Y-83342142D02*
X79672857Y-83104047D01*
X79672857Y-83104047D02*
X79625238Y-83008809D01*
X79625238Y-83008809D02*
X79577619Y-82961190D01*
X79577619Y-82961190D02*
X79482381Y-82913571D01*
X79482381Y-82913571D02*
X79291905Y-82913571D01*
X79291905Y-82913571D02*
X79196667Y-82961190D01*
X79196667Y-82961190D02*
X79149048Y-83008809D01*
X79149048Y-83008809D02*
X79101429Y-83104047D01*
%TO.C,J30*%
X32920476Y-92392619D02*
X32920476Y-93106904D01*
X32920476Y-93106904D02*
X32872857Y-93249761D01*
X32872857Y-93249761D02*
X32777619Y-93345000D01*
X32777619Y-93345000D02*
X32634762Y-93392619D01*
X32634762Y-93392619D02*
X32539524Y-93392619D01*
X33301429Y-92392619D02*
X33920476Y-92392619D01*
X33920476Y-92392619D02*
X33587143Y-92773571D01*
X33587143Y-92773571D02*
X33730000Y-92773571D01*
X33730000Y-92773571D02*
X33825238Y-92821190D01*
X33825238Y-92821190D02*
X33872857Y-92868809D01*
X33872857Y-92868809D02*
X33920476Y-92964047D01*
X33920476Y-92964047D02*
X33920476Y-93202142D01*
X33920476Y-93202142D02*
X33872857Y-93297380D01*
X33872857Y-93297380D02*
X33825238Y-93345000D01*
X33825238Y-93345000D02*
X33730000Y-93392619D01*
X33730000Y-93392619D02*
X33444286Y-93392619D01*
X33444286Y-93392619D02*
X33349048Y-93345000D01*
X33349048Y-93345000D02*
X33301429Y-93297380D01*
X34539524Y-92392619D02*
X34634762Y-92392619D01*
X34634762Y-92392619D02*
X34730000Y-92440238D01*
X34730000Y-92440238D02*
X34777619Y-92487857D01*
X34777619Y-92487857D02*
X34825238Y-92583095D01*
X34825238Y-92583095D02*
X34872857Y-92773571D01*
X34872857Y-92773571D02*
X34872857Y-93011666D01*
X34872857Y-93011666D02*
X34825238Y-93202142D01*
X34825238Y-93202142D02*
X34777619Y-93297380D01*
X34777619Y-93297380D02*
X34730000Y-93345000D01*
X34730000Y-93345000D02*
X34634762Y-93392619D01*
X34634762Y-93392619D02*
X34539524Y-93392619D01*
X34539524Y-93392619D02*
X34444286Y-93345000D01*
X34444286Y-93345000D02*
X34396667Y-93297380D01*
X34396667Y-93297380D02*
X34349048Y-93202142D01*
X34349048Y-93202142D02*
X34301429Y-93011666D01*
X34301429Y-93011666D02*
X34301429Y-92773571D01*
X34301429Y-92773571D02*
X34349048Y-92583095D01*
X34349048Y-92583095D02*
X34396667Y-92487857D01*
X34396667Y-92487857D02*
X34444286Y-92440238D01*
X34444286Y-92440238D02*
X34539524Y-92392619D01*
%TO.C,J38*%
X77520476Y-118132619D02*
X77520476Y-118846904D01*
X77520476Y-118846904D02*
X77472857Y-118989761D01*
X77472857Y-118989761D02*
X77377619Y-119085000D01*
X77377619Y-119085000D02*
X77234762Y-119132619D01*
X77234762Y-119132619D02*
X77139524Y-119132619D01*
X77901429Y-118132619D02*
X78520476Y-118132619D01*
X78520476Y-118132619D02*
X78187143Y-118513571D01*
X78187143Y-118513571D02*
X78330000Y-118513571D01*
X78330000Y-118513571D02*
X78425238Y-118561190D01*
X78425238Y-118561190D02*
X78472857Y-118608809D01*
X78472857Y-118608809D02*
X78520476Y-118704047D01*
X78520476Y-118704047D02*
X78520476Y-118942142D01*
X78520476Y-118942142D02*
X78472857Y-119037380D01*
X78472857Y-119037380D02*
X78425238Y-119085000D01*
X78425238Y-119085000D02*
X78330000Y-119132619D01*
X78330000Y-119132619D02*
X78044286Y-119132619D01*
X78044286Y-119132619D02*
X77949048Y-119085000D01*
X77949048Y-119085000D02*
X77901429Y-119037380D01*
X79091905Y-118561190D02*
X78996667Y-118513571D01*
X78996667Y-118513571D02*
X78949048Y-118465952D01*
X78949048Y-118465952D02*
X78901429Y-118370714D01*
X78901429Y-118370714D02*
X78901429Y-118323095D01*
X78901429Y-118323095D02*
X78949048Y-118227857D01*
X78949048Y-118227857D02*
X78996667Y-118180238D01*
X78996667Y-118180238D02*
X79091905Y-118132619D01*
X79091905Y-118132619D02*
X79282381Y-118132619D01*
X79282381Y-118132619D02*
X79377619Y-118180238D01*
X79377619Y-118180238D02*
X79425238Y-118227857D01*
X79425238Y-118227857D02*
X79472857Y-118323095D01*
X79472857Y-118323095D02*
X79472857Y-118370714D01*
X79472857Y-118370714D02*
X79425238Y-118465952D01*
X79425238Y-118465952D02*
X79377619Y-118513571D01*
X79377619Y-118513571D02*
X79282381Y-118561190D01*
X79282381Y-118561190D02*
X79091905Y-118561190D01*
X79091905Y-118561190D02*
X78996667Y-118608809D01*
X78996667Y-118608809D02*
X78949048Y-118656428D01*
X78949048Y-118656428D02*
X78901429Y-118751666D01*
X78901429Y-118751666D02*
X78901429Y-118942142D01*
X78901429Y-118942142D02*
X78949048Y-119037380D01*
X78949048Y-119037380D02*
X78996667Y-119085000D01*
X78996667Y-119085000D02*
X79091905Y-119132619D01*
X79091905Y-119132619D02*
X79282381Y-119132619D01*
X79282381Y-119132619D02*
X79377619Y-119085000D01*
X79377619Y-119085000D02*
X79425238Y-119037380D01*
X79425238Y-119037380D02*
X79472857Y-118942142D01*
X79472857Y-118942142D02*
X79472857Y-118751666D01*
X79472857Y-118751666D02*
X79425238Y-118656428D01*
X79425238Y-118656428D02*
X79377619Y-118608809D01*
X79377619Y-118608809D02*
X79282381Y-118561190D01*
D12*
%TO.C,J6*%
X43330000Y-109530000D02*
X42000000Y-109530000D01*
X43330000Y-108200000D02*
X43330000Y-109530000D01*
X43330000Y-106930000D02*
X43330000Y-106870000D01*
X43330000Y-106930000D02*
X40730000Y-106930000D01*
X43330000Y-106870000D02*
X38130000Y-106870000D01*
X40730000Y-109530000D02*
X38130000Y-109530000D01*
X40730000Y-106930000D02*
X40730000Y-109530000D01*
X38130000Y-109530000D02*
X38130000Y-106870000D01*
%TO.C,J16*%
X82930000Y-127270000D02*
X84260000Y-127270000D01*
X82930000Y-128600000D02*
X82930000Y-127270000D01*
X82930000Y-129870000D02*
X82930000Y-129930000D01*
X82930000Y-129870000D02*
X85530000Y-129870000D01*
X82930000Y-129930000D02*
X88130000Y-129930000D01*
X85530000Y-127270000D02*
X88130000Y-127270000D01*
X85530000Y-129870000D02*
X85530000Y-127270000D01*
X88130000Y-127270000D02*
X88130000Y-129930000D01*
%TO.C,J14*%
X75730000Y-124670000D02*
X77060000Y-124670000D01*
X75730000Y-126000000D02*
X75730000Y-124670000D01*
X75730000Y-127270000D02*
X75730000Y-127330000D01*
X75730000Y-127270000D02*
X78330000Y-127270000D01*
X75730000Y-127330000D02*
X80930000Y-127330000D01*
X78330000Y-124670000D02*
X80930000Y-124670000D01*
X78330000Y-127270000D02*
X78330000Y-124670000D01*
X80930000Y-124670000D02*
X80930000Y-127330000D01*
%TO.C,G\u002A\u002A\u002A*%
D13*
X32287928Y-76170781D02*
X32269323Y-76184466D01*
X32241724Y-76202430D01*
X32239094Y-76204060D01*
X32163740Y-76258510D01*
X32088944Y-76327023D01*
X32019313Y-76404550D01*
X31959456Y-76486041D01*
X31920371Y-76553326D01*
X31903864Y-76585113D01*
X31890638Y-76608753D01*
X31883095Y-76619996D01*
X31882453Y-76620385D01*
X31881059Y-76611859D01*
X31882764Y-76590687D01*
X31883713Y-76583750D01*
X31901049Y-76521026D01*
X31934183Y-76453814D01*
X31981073Y-76385592D01*
X32036936Y-76322580D01*
X32073586Y-76287581D01*
X32110387Y-76255484D01*
X32142436Y-76230413D01*
X32160478Y-76218663D01*
X32195042Y-76200925D01*
X32230302Y-76184756D01*
X32261619Y-76172051D01*
X32284357Y-76164705D01*
X32293637Y-76164227D01*
X32287928Y-76170781D01*
G36*
X32287928Y-76170781D02*
G01*
X32269323Y-76184466D01*
X32241724Y-76202430D01*
X32239094Y-76204060D01*
X32163740Y-76258510D01*
X32088944Y-76327023D01*
X32019313Y-76404550D01*
X31959456Y-76486041D01*
X31920371Y-76553326D01*
X31903864Y-76585113D01*
X31890638Y-76608753D01*
X31883095Y-76619996D01*
X31882453Y-76620385D01*
X31881059Y-76611859D01*
X31882764Y-76590687D01*
X31883713Y-76583750D01*
X31901049Y-76521026D01*
X31934183Y-76453814D01*
X31981073Y-76385592D01*
X32036936Y-76322580D01*
X32073586Y-76287581D01*
X32110387Y-76255484D01*
X32142436Y-76230413D01*
X32160478Y-76218663D01*
X32195042Y-76200925D01*
X32230302Y-76184756D01*
X32261619Y-76172051D01*
X32284357Y-76164705D01*
X32293637Y-76164227D01*
X32287928Y-76170781D01*
G37*
X32144725Y-77266076D02*
X32152032Y-77268527D01*
X32142391Y-77272901D01*
X32115448Y-77279265D01*
X32070853Y-77287685D01*
X32008253Y-77298227D01*
X31927296Y-77310959D01*
X31827632Y-77325946D01*
X31715884Y-77342251D01*
X31626524Y-77355146D01*
X31542309Y-77367307D01*
X31465391Y-77378424D01*
X31397920Y-77388184D01*
X31342047Y-77396278D01*
X31299923Y-77402394D01*
X31273699Y-77406220D01*
X31266500Y-77407286D01*
X31248454Y-77407366D01*
X31229171Y-77400340D01*
X31204092Y-77383920D01*
X31176134Y-77361946D01*
X31147678Y-77337719D01*
X31126295Y-77317558D01*
X31115640Y-77304974D01*
X31115077Y-77303314D01*
X31115487Y-77297740D01*
X31119127Y-77295756D01*
X31129607Y-77298286D01*
X31150540Y-77306258D01*
X31185537Y-77320597D01*
X31190539Y-77322660D01*
X31258919Y-77350857D01*
X31673017Y-77308331D01*
X31762159Y-77299249D01*
X31846299Y-77290815D01*
X31923222Y-77283241D01*
X31990715Y-77276739D01*
X32046562Y-77271520D01*
X32088549Y-77267798D01*
X32114460Y-77265782D01*
X32120819Y-77265480D01*
X32144725Y-77266076D01*
G36*
X32144725Y-77266076D02*
G01*
X32152032Y-77268527D01*
X32142391Y-77272901D01*
X32115448Y-77279265D01*
X32070853Y-77287685D01*
X32008253Y-77298227D01*
X31927296Y-77310959D01*
X31827632Y-77325946D01*
X31715884Y-77342251D01*
X31626524Y-77355146D01*
X31542309Y-77367307D01*
X31465391Y-77378424D01*
X31397920Y-77388184D01*
X31342047Y-77396278D01*
X31299923Y-77402394D01*
X31273699Y-77406220D01*
X31266500Y-77407286D01*
X31248454Y-77407366D01*
X31229171Y-77400340D01*
X31204092Y-77383920D01*
X31176134Y-77361946D01*
X31147678Y-77337719D01*
X31126295Y-77317558D01*
X31115640Y-77304974D01*
X31115077Y-77303314D01*
X31115487Y-77297740D01*
X31119127Y-77295756D01*
X31129607Y-77298286D01*
X31150540Y-77306258D01*
X31185537Y-77320597D01*
X31190539Y-77322660D01*
X31258919Y-77350857D01*
X31673017Y-77308331D01*
X31762159Y-77299249D01*
X31846299Y-77290815D01*
X31923222Y-77283241D01*
X31990715Y-77276739D01*
X32046562Y-77271520D01*
X32088549Y-77267798D01*
X32114460Y-77265782D01*
X32120819Y-77265480D01*
X32144725Y-77266076D01*
G37*
X32081612Y-76527306D02*
X32117879Y-76527306D01*
X32118430Y-76539686D01*
X32131059Y-76541656D01*
X32151735Y-76533864D01*
X32175038Y-76518111D01*
X32193156Y-76502632D01*
X32196989Y-76495749D01*
X32187523Y-76493870D01*
X32181723Y-76493736D01*
X32149512Y-76499607D01*
X32125176Y-76515723D01*
X32117879Y-76527306D01*
X32081612Y-76527306D01*
X32085464Y-76520728D01*
X32106475Y-76494572D01*
X32124122Y-76479189D01*
X32144593Y-76470843D01*
X32178141Y-76462306D01*
X32218384Y-76455132D01*
X32228954Y-76453706D01*
X32267266Y-76448461D01*
X32298023Y-76443430D01*
X32316139Y-76439474D01*
X32318481Y-76438549D01*
X32326106Y-76440669D01*
X32326461Y-76443304D01*
X32318413Y-76453798D01*
X32307691Y-76458949D01*
X32291812Y-76468045D01*
X32266499Y-76486840D01*
X32236586Y-76511683D01*
X32229168Y-76518223D01*
X32199338Y-76543115D01*
X32173235Y-76561830D01*
X32155456Y-76571155D01*
X32152688Y-76571646D01*
X32132123Y-76573273D01*
X32103607Y-76577119D01*
X32099327Y-76577809D01*
X32074201Y-76580065D01*
X32063703Y-76575166D01*
X32062729Y-76570375D01*
X32069250Y-76548418D01*
X32081612Y-76527306D01*
G36*
X32081612Y-76527306D02*
G01*
X32117879Y-76527306D01*
X32118430Y-76539686D01*
X32131059Y-76541656D01*
X32151735Y-76533864D01*
X32175038Y-76518111D01*
X32193156Y-76502632D01*
X32196989Y-76495749D01*
X32187523Y-76493870D01*
X32181723Y-76493736D01*
X32149512Y-76499607D01*
X32125176Y-76515723D01*
X32117879Y-76527306D01*
X32081612Y-76527306D01*
X32085464Y-76520728D01*
X32106475Y-76494572D01*
X32124122Y-76479189D01*
X32144593Y-76470843D01*
X32178141Y-76462306D01*
X32218384Y-76455132D01*
X32228954Y-76453706D01*
X32267266Y-76448461D01*
X32298023Y-76443430D01*
X32316139Y-76439474D01*
X32318481Y-76438549D01*
X32326106Y-76440669D01*
X32326461Y-76443304D01*
X32318413Y-76453798D01*
X32307691Y-76458949D01*
X32291812Y-76468045D01*
X32266499Y-76486840D01*
X32236586Y-76511683D01*
X32229168Y-76518223D01*
X32199338Y-76543115D01*
X32173235Y-76561830D01*
X32155456Y-76571155D01*
X32152688Y-76571646D01*
X32132123Y-76573273D01*
X32103607Y-76577119D01*
X32099327Y-76577809D01*
X32074201Y-76580065D01*
X32063703Y-76575166D01*
X32062729Y-76570375D01*
X32069250Y-76548418D01*
X32081612Y-76527306D01*
G37*
X31885972Y-76674006D02*
X31884879Y-76680083D01*
X31875331Y-76687277D01*
X31850113Y-76701831D01*
X31811203Y-76722722D01*
X31760578Y-76748926D01*
X31700218Y-76779421D01*
X31632099Y-76813183D01*
X31558201Y-76849190D01*
X31553900Y-76851267D01*
X31227423Y-77008881D01*
X31159038Y-77136557D01*
X31134673Y-77181744D01*
X31113440Y-77220552D01*
X31097088Y-77249830D01*
X31087363Y-77266427D01*
X31085613Y-77268921D01*
X31077617Y-77263856D01*
X31059368Y-77246661D01*
X31033459Y-77219928D01*
X31002479Y-77186252D01*
X30997690Y-77180913D01*
X30966150Y-77145292D01*
X30939681Y-77114744D01*
X30920862Y-77092290D01*
X30912268Y-77080952D01*
X30912050Y-77080491D01*
X30920286Y-77075419D01*
X30944968Y-77063682D01*
X30984448Y-77045990D01*
X31037079Y-77023049D01*
X31101213Y-76995570D01*
X31175203Y-76964261D01*
X31257400Y-76929831D01*
X31346158Y-76892988D01*
X31390742Y-76874599D01*
X31482458Y-76836823D01*
X31568768Y-76801223D01*
X31647976Y-76768502D01*
X31718385Y-76739364D01*
X31778297Y-76714513D01*
X31826017Y-76694651D01*
X31859846Y-76680482D01*
X31878089Y-76672710D01*
X31880786Y-76671472D01*
X31885972Y-76674006D01*
G36*
X31885972Y-76674006D02*
G01*
X31884879Y-76680083D01*
X31875331Y-76687277D01*
X31850113Y-76701831D01*
X31811203Y-76722722D01*
X31760578Y-76748926D01*
X31700218Y-76779421D01*
X31632099Y-76813183D01*
X31558201Y-76849190D01*
X31553900Y-76851267D01*
X31227423Y-77008881D01*
X31159038Y-77136557D01*
X31134673Y-77181744D01*
X31113440Y-77220552D01*
X31097088Y-77249830D01*
X31087363Y-77266427D01*
X31085613Y-77268921D01*
X31077617Y-77263856D01*
X31059368Y-77246661D01*
X31033459Y-77219928D01*
X31002479Y-77186252D01*
X30997690Y-77180913D01*
X30966150Y-77145292D01*
X30939681Y-77114744D01*
X30920862Y-77092290D01*
X30912268Y-77080952D01*
X30912050Y-77080491D01*
X30920286Y-77075419D01*
X30944968Y-77063682D01*
X30984448Y-77045990D01*
X31037079Y-77023049D01*
X31101213Y-76995570D01*
X31175203Y-76964261D01*
X31257400Y-76929831D01*
X31346158Y-76892988D01*
X31390742Y-76874599D01*
X31482458Y-76836823D01*
X31568768Y-76801223D01*
X31647976Y-76768502D01*
X31718385Y-76739364D01*
X31778297Y-76714513D01*
X31826017Y-76694651D01*
X31859846Y-76680482D01*
X31878089Y-76672710D01*
X31880786Y-76671472D01*
X31885972Y-76674006D01*
G37*
X33420268Y-79325989D02*
X33447116Y-79331737D01*
X33486066Y-79341897D01*
X33534019Y-79355493D01*
X33587877Y-79371550D01*
X33644543Y-79389094D01*
X33700917Y-79407148D01*
X33753903Y-79424738D01*
X33800402Y-79440889D01*
X33837315Y-79454624D01*
X33861545Y-79464970D01*
X33870000Y-79470861D01*
X33866705Y-79475141D01*
X33855380Y-79478089D01*
X33833864Y-79479770D01*
X33799996Y-79480248D01*
X33751613Y-79479589D01*
X33686556Y-79477858D01*
X33662404Y-79477105D01*
X33454807Y-79470476D01*
X33260008Y-79791680D01*
X33204806Y-79882692D01*
X33158864Y-79958343D01*
X33121301Y-80019975D01*
X33091237Y-80068928D01*
X33067793Y-80106543D01*
X33050088Y-80134162D01*
X33037243Y-80153125D01*
X33028378Y-80164774D01*
X33022612Y-80170450D01*
X33019066Y-80171494D01*
X33016860Y-80169246D01*
X33015113Y-80165049D01*
X33015079Y-80164960D01*
X33018247Y-80154135D01*
X33028911Y-80127847D01*
X33046074Y-80088224D01*
X33068737Y-80037398D01*
X33095900Y-79977499D01*
X33126565Y-79910657D01*
X33159732Y-79839003D01*
X33194404Y-79764667D01*
X33229581Y-79689779D01*
X33264264Y-79616470D01*
X33297455Y-79546870D01*
X33328154Y-79483110D01*
X33355363Y-79427319D01*
X33378083Y-79381628D01*
X33395314Y-79348168D01*
X33406059Y-79329069D01*
X33408619Y-79325628D01*
X33420268Y-79325989D01*
G36*
X33420268Y-79325989D02*
G01*
X33447116Y-79331737D01*
X33486066Y-79341897D01*
X33534019Y-79355493D01*
X33587877Y-79371550D01*
X33644543Y-79389094D01*
X33700917Y-79407148D01*
X33753903Y-79424738D01*
X33800402Y-79440889D01*
X33837315Y-79454624D01*
X33861545Y-79464970D01*
X33870000Y-79470861D01*
X33866705Y-79475141D01*
X33855380Y-79478089D01*
X33833864Y-79479770D01*
X33799996Y-79480248D01*
X33751613Y-79479589D01*
X33686556Y-79477858D01*
X33662404Y-79477105D01*
X33454807Y-79470476D01*
X33260008Y-79791680D01*
X33204806Y-79882692D01*
X33158864Y-79958343D01*
X33121301Y-80019975D01*
X33091237Y-80068928D01*
X33067793Y-80106543D01*
X33050088Y-80134162D01*
X33037243Y-80153125D01*
X33028378Y-80164774D01*
X33022612Y-80170450D01*
X33019066Y-80171494D01*
X33016860Y-80169246D01*
X33015113Y-80165049D01*
X33015079Y-80164960D01*
X33018247Y-80154135D01*
X33028911Y-80127847D01*
X33046074Y-80088224D01*
X33068737Y-80037398D01*
X33095900Y-79977499D01*
X33126565Y-79910657D01*
X33159732Y-79839003D01*
X33194404Y-79764667D01*
X33229581Y-79689779D01*
X33264264Y-79616470D01*
X33297455Y-79546870D01*
X33328154Y-79483110D01*
X33355363Y-79427319D01*
X33378083Y-79381628D01*
X33395314Y-79348168D01*
X33406059Y-79329069D01*
X33408619Y-79325628D01*
X33420268Y-79325989D01*
G37*
X33548084Y-76544839D02*
X33561573Y-76562062D01*
X33581258Y-76595535D01*
X33607599Y-76645934D01*
X33630035Y-76691212D01*
X33651783Y-76734725D01*
X33681334Y-76792286D01*
X33717070Y-76860827D01*
X33757373Y-76937278D01*
X33800626Y-77018570D01*
X33845212Y-77101633D01*
X33886505Y-77177873D01*
X33929189Y-77256717D01*
X33970593Y-77333964D01*
X34009377Y-77407057D01*
X34044200Y-77473441D01*
X34073722Y-77530558D01*
X34096603Y-77575853D01*
X34111501Y-77606769D01*
X34112226Y-77608362D01*
X34154182Y-77701172D01*
X34062684Y-77958831D01*
X34031009Y-78046700D01*
X34004817Y-78116379D01*
X33983880Y-78168363D01*
X33967972Y-78203146D01*
X33956866Y-78221223D01*
X33950336Y-78223090D01*
X33948154Y-78209242D01*
X33948154Y-78208804D01*
X33951480Y-78191442D01*
X33960018Y-78163396D01*
X33967391Y-78142812D01*
X33991588Y-78067263D01*
X34006966Y-77988992D01*
X34014209Y-77902889D01*
X34014006Y-77803846D01*
X34013780Y-77797577D01*
X34009787Y-77729200D01*
X34002650Y-77664170D01*
X33991608Y-77600230D01*
X33975897Y-77535127D01*
X33954758Y-77466606D01*
X33927427Y-77392412D01*
X33893144Y-77310290D01*
X33851146Y-77217986D01*
X33800671Y-77113244D01*
X33744792Y-77001385D01*
X33687223Y-76886741D01*
X33638980Y-76788906D01*
X33600087Y-76707932D01*
X33570567Y-76643868D01*
X33550444Y-76596767D01*
X33539741Y-76566678D01*
X33537846Y-76556447D01*
X33540328Y-76543192D01*
X33548084Y-76544839D01*
G36*
X33548084Y-76544839D02*
G01*
X33561573Y-76562062D01*
X33581258Y-76595535D01*
X33607599Y-76645934D01*
X33630035Y-76691212D01*
X33651783Y-76734725D01*
X33681334Y-76792286D01*
X33717070Y-76860827D01*
X33757373Y-76937278D01*
X33800626Y-77018570D01*
X33845212Y-77101633D01*
X33886505Y-77177873D01*
X33929189Y-77256717D01*
X33970593Y-77333964D01*
X34009377Y-77407057D01*
X34044200Y-77473441D01*
X34073722Y-77530558D01*
X34096603Y-77575853D01*
X34111501Y-77606769D01*
X34112226Y-77608362D01*
X34154182Y-77701172D01*
X34062684Y-77958831D01*
X34031009Y-78046700D01*
X34004817Y-78116379D01*
X33983880Y-78168363D01*
X33967972Y-78203146D01*
X33956866Y-78221223D01*
X33950336Y-78223090D01*
X33948154Y-78209242D01*
X33948154Y-78208804D01*
X33951480Y-78191442D01*
X33960018Y-78163396D01*
X33967391Y-78142812D01*
X33991588Y-78067263D01*
X34006966Y-77988992D01*
X34014209Y-77902889D01*
X34014006Y-77803846D01*
X34013780Y-77797577D01*
X34009787Y-77729200D01*
X34002650Y-77664170D01*
X33991608Y-77600230D01*
X33975897Y-77535127D01*
X33954758Y-77466606D01*
X33927427Y-77392412D01*
X33893144Y-77310290D01*
X33851146Y-77217986D01*
X33800671Y-77113244D01*
X33744792Y-77001385D01*
X33687223Y-76886741D01*
X33638980Y-76788906D01*
X33600087Y-76707932D01*
X33570567Y-76643868D01*
X33550444Y-76596767D01*
X33539741Y-76566678D01*
X33537846Y-76556447D01*
X33540328Y-76543192D01*
X33548084Y-76544839D01*
G37*
X32018932Y-75677491D02*
X32046869Y-75685664D01*
X32087780Y-75698717D01*
X32138960Y-75715772D01*
X32197708Y-75735954D01*
X32238538Y-75750286D01*
X32313152Y-75777014D01*
X32369390Y-75797920D01*
X32407480Y-75813143D01*
X32427653Y-75822823D01*
X32430140Y-75827099D01*
X32415169Y-75826111D01*
X32382971Y-75819998D01*
X32336231Y-75809474D01*
X32283391Y-75797222D01*
X32248420Y-75789739D01*
X32230191Y-75787225D01*
X32227576Y-75789883D01*
X32239445Y-75797914D01*
X32264673Y-75811518D01*
X32280057Y-75819499D01*
X32313989Y-75837697D01*
X32340056Y-75852943D01*
X32354282Y-75862855D01*
X32355769Y-75864851D01*
X32346754Y-75866934D01*
X32322583Y-75867338D01*
X32287564Y-75866066D01*
X32266764Y-75864762D01*
X32177760Y-75858444D01*
X32244784Y-75921493D01*
X32272529Y-75948493D01*
X32292541Y-75969739D01*
X32302234Y-75982381D01*
X32302038Y-75984650D01*
X32290918Y-75979557D01*
X32266568Y-75965426D01*
X32231993Y-75944091D01*
X32190195Y-75917391D01*
X32162948Y-75899591D01*
X32118999Y-75870356D01*
X32081439Y-75844815D01*
X32053031Y-75824892D01*
X32036536Y-75812509D01*
X32033505Y-75809468D01*
X32042112Y-75807182D01*
X32063990Y-75807158D01*
X32076363Y-75807932D01*
X32112052Y-75809940D01*
X32132263Y-75807974D01*
X32136934Y-75800405D01*
X32126004Y-75785604D01*
X32099412Y-75761941D01*
X32073847Y-75741154D01*
X32042484Y-75714942D01*
X32019349Y-75693484D01*
X32007057Y-75679353D01*
X32006670Y-75675075D01*
X32018932Y-75677491D01*
G36*
X32018932Y-75677491D02*
G01*
X32046869Y-75685664D01*
X32087780Y-75698717D01*
X32138960Y-75715772D01*
X32197708Y-75735954D01*
X32238538Y-75750286D01*
X32313152Y-75777014D01*
X32369390Y-75797920D01*
X32407480Y-75813143D01*
X32427653Y-75822823D01*
X32430140Y-75827099D01*
X32415169Y-75826111D01*
X32382971Y-75819998D01*
X32336231Y-75809474D01*
X32283391Y-75797222D01*
X32248420Y-75789739D01*
X32230191Y-75787225D01*
X32227576Y-75789883D01*
X32239445Y-75797914D01*
X32264673Y-75811518D01*
X32280057Y-75819499D01*
X32313989Y-75837697D01*
X32340056Y-75852943D01*
X32354282Y-75862855D01*
X32355769Y-75864851D01*
X32346754Y-75866934D01*
X32322583Y-75867338D01*
X32287564Y-75866066D01*
X32266764Y-75864762D01*
X32177760Y-75858444D01*
X32244784Y-75921493D01*
X32272529Y-75948493D01*
X32292541Y-75969739D01*
X32302234Y-75982381D01*
X32302038Y-75984650D01*
X32290918Y-75979557D01*
X32266568Y-75965426D01*
X32231993Y-75944091D01*
X32190195Y-75917391D01*
X32162948Y-75899591D01*
X32118999Y-75870356D01*
X32081439Y-75844815D01*
X32053031Y-75824892D01*
X32036536Y-75812509D01*
X32033505Y-75809468D01*
X32042112Y-75807182D01*
X32063990Y-75807158D01*
X32076363Y-75807932D01*
X32112052Y-75809940D01*
X32132263Y-75807974D01*
X32136934Y-75800405D01*
X32126004Y-75785604D01*
X32099412Y-75761941D01*
X32073847Y-75741154D01*
X32042484Y-75714942D01*
X32019349Y-75693484D01*
X32007057Y-75679353D01*
X32006670Y-75675075D01*
X32018932Y-75677491D01*
G37*
X31744354Y-75384173D02*
X31770899Y-75390034D01*
X31809046Y-75400499D01*
X31855417Y-75414529D01*
X31906631Y-75431087D01*
X31959309Y-75449136D01*
X32010071Y-75467639D01*
X32028500Y-75474708D01*
X32182411Y-75540839D01*
X32318353Y-75612320D01*
X32437294Y-75689697D01*
X32507192Y-75744464D01*
X32535295Y-75768168D01*
X32557193Y-75786508D01*
X32568994Y-75796229D01*
X32569878Y-75796909D01*
X32569878Y-75803730D01*
X32559900Y-75801608D01*
X32535380Y-75793034D01*
X32499720Y-75779285D01*
X32456322Y-75761639D01*
X32443692Y-75756360D01*
X32389652Y-75733645D01*
X32324590Y-75706297D01*
X32255497Y-75677254D01*
X32189363Y-75649455D01*
X32167548Y-75640285D01*
X32093956Y-75610104D01*
X32027418Y-75584282D01*
X31969968Y-75563510D01*
X31923640Y-75548479D01*
X31890471Y-75539880D01*
X31872495Y-75538404D01*
X31870412Y-75539408D01*
X31872327Y-75549589D01*
X31880384Y-75575834D01*
X31893816Y-75615931D01*
X31911857Y-75667665D01*
X31933742Y-75728826D01*
X31958703Y-75797200D01*
X31974164Y-75838955D01*
X32000662Y-75910692D01*
X32024656Y-75976667D01*
X32045355Y-76034632D01*
X32061973Y-76082335D01*
X32073719Y-76117529D01*
X32079805Y-76137963D01*
X32080443Y-76142133D01*
X32075728Y-76136256D01*
X32064104Y-76114847D01*
X32046697Y-76080183D01*
X32024630Y-76034543D01*
X31999030Y-75980206D01*
X31977704Y-75934061D01*
X31944165Y-75860956D01*
X31907940Y-75782081D01*
X31871578Y-75702982D01*
X31837629Y-75629202D01*
X31808641Y-75566286D01*
X31802594Y-75553175D01*
X31779011Y-75501142D01*
X31759057Y-75455323D01*
X31743918Y-75418596D01*
X31734780Y-75393836D01*
X31732792Y-75383951D01*
X31744354Y-75384173D01*
G36*
X31744354Y-75384173D02*
G01*
X31770899Y-75390034D01*
X31809046Y-75400499D01*
X31855417Y-75414529D01*
X31906631Y-75431087D01*
X31959309Y-75449136D01*
X32010071Y-75467639D01*
X32028500Y-75474708D01*
X32182411Y-75540839D01*
X32318353Y-75612320D01*
X32437294Y-75689697D01*
X32507192Y-75744464D01*
X32535295Y-75768168D01*
X32557193Y-75786508D01*
X32568994Y-75796229D01*
X32569878Y-75796909D01*
X32569878Y-75803730D01*
X32559900Y-75801608D01*
X32535380Y-75793034D01*
X32499720Y-75779285D01*
X32456322Y-75761639D01*
X32443692Y-75756360D01*
X32389652Y-75733645D01*
X32324590Y-75706297D01*
X32255497Y-75677254D01*
X32189363Y-75649455D01*
X32167548Y-75640285D01*
X32093956Y-75610104D01*
X32027418Y-75584282D01*
X31969968Y-75563510D01*
X31923640Y-75548479D01*
X31890471Y-75539880D01*
X31872495Y-75538404D01*
X31870412Y-75539408D01*
X31872327Y-75549589D01*
X31880384Y-75575834D01*
X31893816Y-75615931D01*
X31911857Y-75667665D01*
X31933742Y-75728826D01*
X31958703Y-75797200D01*
X31974164Y-75838955D01*
X32000662Y-75910692D01*
X32024656Y-75976667D01*
X32045355Y-76034632D01*
X32061973Y-76082335D01*
X32073719Y-76117529D01*
X32079805Y-76137963D01*
X32080443Y-76142133D01*
X32075728Y-76136256D01*
X32064104Y-76114847D01*
X32046697Y-76080183D01*
X32024630Y-76034543D01*
X31999030Y-75980206D01*
X31977704Y-75934061D01*
X31944165Y-75860956D01*
X31907940Y-75782081D01*
X31871578Y-75702982D01*
X31837629Y-75629202D01*
X31808641Y-75566286D01*
X31802594Y-75553175D01*
X31779011Y-75501142D01*
X31759057Y-75455323D01*
X31743918Y-75418596D01*
X31734780Y-75393836D01*
X31732792Y-75383951D01*
X31744354Y-75384173D01*
G37*
X33107194Y-74917048D02*
X33134203Y-74933864D01*
X33167433Y-74958188D01*
X33202964Y-74986990D01*
X33236877Y-75017240D01*
X33265252Y-75045908D01*
X33265478Y-75046158D01*
X33328461Y-75125994D01*
X33383005Y-75217023D01*
X33429314Y-75320128D01*
X33467590Y-75436189D01*
X33498038Y-75566089D01*
X33520861Y-75710707D01*
X33536262Y-75870927D01*
X33544445Y-76047628D01*
X33545613Y-76241692D01*
X33545396Y-76258923D01*
X33544425Y-76321393D01*
X33543378Y-76376108D01*
X33542321Y-76420471D01*
X33541320Y-76451888D01*
X33540442Y-76467763D01*
X33540043Y-76468962D01*
X33538251Y-76456728D01*
X33534547Y-76428096D01*
X33529305Y-76386074D01*
X33522899Y-76333668D01*
X33515703Y-76273885D01*
X33513336Y-76254039D01*
X33492481Y-76085715D01*
X33472068Y-75935607D01*
X33451826Y-75802403D01*
X33431482Y-75684794D01*
X33410767Y-75581469D01*
X33389407Y-75491119D01*
X33367131Y-75412431D01*
X33343669Y-75344098D01*
X33318748Y-75284807D01*
X33307870Y-75262462D01*
X33268103Y-75196222D01*
X33225537Y-75148041D01*
X33180709Y-75118363D01*
X33134155Y-75107631D01*
X33121338Y-75108042D01*
X33087005Y-75111039D01*
X32941255Y-75448077D01*
X32907986Y-75524999D01*
X32876845Y-75596987D01*
X32848757Y-75661900D01*
X32824650Y-75717594D01*
X32805452Y-75761928D01*
X32792090Y-75792759D01*
X32785490Y-75807945D01*
X32785309Y-75808359D01*
X32776309Y-75823976D01*
X32770516Y-75827004D01*
X32772635Y-75817109D01*
X32780533Y-75790623D01*
X32793596Y-75749419D01*
X32811209Y-75695370D01*
X32832759Y-75630346D01*
X32857629Y-75556222D01*
X32885206Y-75474868D01*
X32908025Y-75408107D01*
X32945228Y-75299669D01*
X32976631Y-75208261D01*
X33002767Y-75132427D01*
X33024168Y-75070714D01*
X33041367Y-75021667D01*
X33054898Y-74983833D01*
X33065293Y-74955756D01*
X33073087Y-74935983D01*
X33078811Y-74923059D01*
X33082999Y-74915531D01*
X33086183Y-74911943D01*
X33088898Y-74910842D01*
X33090325Y-74910770D01*
X33107194Y-74917048D01*
G36*
X33107194Y-74917048D02*
G01*
X33134203Y-74933864D01*
X33167433Y-74958188D01*
X33202964Y-74986990D01*
X33236877Y-75017240D01*
X33265252Y-75045908D01*
X33265478Y-75046158D01*
X33328461Y-75125994D01*
X33383005Y-75217023D01*
X33429314Y-75320128D01*
X33467590Y-75436189D01*
X33498038Y-75566089D01*
X33520861Y-75710707D01*
X33536262Y-75870927D01*
X33544445Y-76047628D01*
X33545613Y-76241692D01*
X33545396Y-76258923D01*
X33544425Y-76321393D01*
X33543378Y-76376108D01*
X33542321Y-76420471D01*
X33541320Y-76451888D01*
X33540442Y-76467763D01*
X33540043Y-76468962D01*
X33538251Y-76456728D01*
X33534547Y-76428096D01*
X33529305Y-76386074D01*
X33522899Y-76333668D01*
X33515703Y-76273885D01*
X33513336Y-76254039D01*
X33492481Y-76085715D01*
X33472068Y-75935607D01*
X33451826Y-75802403D01*
X33431482Y-75684794D01*
X33410767Y-75581469D01*
X33389407Y-75491119D01*
X33367131Y-75412431D01*
X33343669Y-75344098D01*
X33318748Y-75284807D01*
X33307870Y-75262462D01*
X33268103Y-75196222D01*
X33225537Y-75148041D01*
X33180709Y-75118363D01*
X33134155Y-75107631D01*
X33121338Y-75108042D01*
X33087005Y-75111039D01*
X32941255Y-75448077D01*
X32907986Y-75524999D01*
X32876845Y-75596987D01*
X32848757Y-75661900D01*
X32824650Y-75717594D01*
X32805452Y-75761928D01*
X32792090Y-75792759D01*
X32785490Y-75807945D01*
X32785309Y-75808359D01*
X32776309Y-75823976D01*
X32770516Y-75827004D01*
X32772635Y-75817109D01*
X32780533Y-75790623D01*
X32793596Y-75749419D01*
X32811209Y-75695370D01*
X32832759Y-75630346D01*
X32857629Y-75556222D01*
X32885206Y-75474868D01*
X32908025Y-75408107D01*
X32945228Y-75299669D01*
X32976631Y-75208261D01*
X33002767Y-75132427D01*
X33024168Y-75070714D01*
X33041367Y-75021667D01*
X33054898Y-74983833D01*
X33065293Y-74955756D01*
X33073087Y-74935983D01*
X33078811Y-74923059D01*
X33082999Y-74915531D01*
X33086183Y-74911943D01*
X33088898Y-74910842D01*
X33090325Y-74910770D01*
X33107194Y-74917048D01*
G37*
X32194793Y-77377313D02*
X32213273Y-77393168D01*
X32238206Y-77418084D01*
X32266743Y-77448944D01*
X32296035Y-77482629D01*
X32323232Y-77516020D01*
X32345484Y-77545998D01*
X32351922Y-77555646D01*
X32404093Y-77645931D01*
X32447269Y-77740541D01*
X32481649Y-77841080D01*
X32507431Y-77949151D01*
X32524814Y-78066359D01*
X32533996Y-78194308D01*
X32535175Y-78334602D01*
X32528550Y-78488846D01*
X32514320Y-78658644D01*
X32502100Y-78769616D01*
X32495324Y-78825769D01*
X32486645Y-78896289D01*
X32476690Y-78976169D01*
X32466085Y-79060402D01*
X32455454Y-79143981D01*
X32449097Y-79193501D01*
X32430717Y-79343367D01*
X32416443Y-79476798D01*
X32406093Y-79596420D01*
X32399488Y-79704859D01*
X32396445Y-79804742D01*
X32396784Y-79898697D01*
X32397892Y-79937039D01*
X32409472Y-80097468D01*
X32432396Y-80243411D01*
X32467297Y-80376721D01*
X32514808Y-80499253D01*
X32575563Y-80612863D01*
X32650196Y-80719405D01*
X32675835Y-80750798D01*
X32696925Y-80776996D01*
X32711083Y-80796984D01*
X32715411Y-80806646D01*
X32715300Y-80806802D01*
X32707199Y-80801991D01*
X32688320Y-80785744D01*
X32661508Y-80760630D01*
X32630646Y-80730267D01*
X32528582Y-80615798D01*
X32444090Y-80494550D01*
X32376206Y-80364718D01*
X32323972Y-80224494D01*
X32290018Y-80090242D01*
X32284117Y-80057070D01*
X32279653Y-80020938D01*
X32276457Y-79978649D01*
X32274358Y-79927009D01*
X32273185Y-79862821D01*
X32272770Y-79782892D01*
X32272762Y-79766077D01*
X32272830Y-79707355D01*
X32273162Y-79656165D01*
X32273978Y-79610083D01*
X32275499Y-79566689D01*
X32277943Y-79523559D01*
X32281530Y-79478273D01*
X32286481Y-79428407D01*
X32293014Y-79371541D01*
X32301350Y-79305251D01*
X32311708Y-79227117D01*
X32324309Y-79134715D01*
X32339371Y-79025624D01*
X32341001Y-79013846D01*
X32356709Y-78899201D01*
X32369708Y-78801153D01*
X32380243Y-78716986D01*
X32388559Y-78643982D01*
X32394904Y-78579425D01*
X32399523Y-78520598D01*
X32402662Y-78464785D01*
X32404567Y-78409269D01*
X32405484Y-78351334D01*
X32405671Y-78299576D01*
X32400206Y-78127759D01*
X32383498Y-77969247D01*
X32354871Y-77820910D01*
X32313650Y-77679618D01*
X32259157Y-77542241D01*
X32227811Y-77476216D01*
X32208921Y-77436877D01*
X32194640Y-77404129D01*
X32186515Y-77381735D01*
X32185617Y-77373639D01*
X32194793Y-77377313D01*
G36*
X32194793Y-77377313D02*
G01*
X32213273Y-77393168D01*
X32238206Y-77418084D01*
X32266743Y-77448944D01*
X32296035Y-77482629D01*
X32323232Y-77516020D01*
X32345484Y-77545998D01*
X32351922Y-77555646D01*
X32404093Y-77645931D01*
X32447269Y-77740541D01*
X32481649Y-77841080D01*
X32507431Y-77949151D01*
X32524814Y-78066359D01*
X32533996Y-78194308D01*
X32535175Y-78334602D01*
X32528550Y-78488846D01*
X32514320Y-78658644D01*
X32502100Y-78769616D01*
X32495324Y-78825769D01*
X32486645Y-78896289D01*
X32476690Y-78976169D01*
X32466085Y-79060402D01*
X32455454Y-79143981D01*
X32449097Y-79193501D01*
X32430717Y-79343367D01*
X32416443Y-79476798D01*
X32406093Y-79596420D01*
X32399488Y-79704859D01*
X32396445Y-79804742D01*
X32396784Y-79898697D01*
X32397892Y-79937039D01*
X32409472Y-80097468D01*
X32432396Y-80243411D01*
X32467297Y-80376721D01*
X32514808Y-80499253D01*
X32575563Y-80612863D01*
X32650196Y-80719405D01*
X32675835Y-80750798D01*
X32696925Y-80776996D01*
X32711083Y-80796984D01*
X32715411Y-80806646D01*
X32715300Y-80806802D01*
X32707199Y-80801991D01*
X32688320Y-80785744D01*
X32661508Y-80760630D01*
X32630646Y-80730267D01*
X32528582Y-80615798D01*
X32444090Y-80494550D01*
X32376206Y-80364718D01*
X32323972Y-80224494D01*
X32290018Y-80090242D01*
X32284117Y-80057070D01*
X32279653Y-80020938D01*
X32276457Y-79978649D01*
X32274358Y-79927009D01*
X32273185Y-79862821D01*
X32272770Y-79782892D01*
X32272762Y-79766077D01*
X32272830Y-79707355D01*
X32273162Y-79656165D01*
X32273978Y-79610083D01*
X32275499Y-79566689D01*
X32277943Y-79523559D01*
X32281530Y-79478273D01*
X32286481Y-79428407D01*
X32293014Y-79371541D01*
X32301350Y-79305251D01*
X32311708Y-79227117D01*
X32324309Y-79134715D01*
X32339371Y-79025624D01*
X32341001Y-79013846D01*
X32356709Y-78899201D01*
X32369708Y-78801153D01*
X32380243Y-78716986D01*
X32388559Y-78643982D01*
X32394904Y-78579425D01*
X32399523Y-78520598D01*
X32402662Y-78464785D01*
X32404567Y-78409269D01*
X32405484Y-78351334D01*
X32405671Y-78299576D01*
X32400206Y-78127759D01*
X32383498Y-77969247D01*
X32354871Y-77820910D01*
X32313650Y-77679618D01*
X32259157Y-77542241D01*
X32227811Y-77476216D01*
X32208921Y-77436877D01*
X32194640Y-77404129D01*
X32186515Y-77381735D01*
X32185617Y-77373639D01*
X32194793Y-77377313D01*
G37*
X33122860Y-75260478D02*
X33121822Y-75269789D01*
X33115641Y-75299439D01*
X33108128Y-75339156D01*
X33099934Y-75385014D01*
X33091713Y-75433083D01*
X33084115Y-75479437D01*
X33077792Y-75520148D01*
X33073396Y-75551287D01*
X33071578Y-75568928D01*
X33071781Y-75571423D01*
X33079441Y-75566197D01*
X33097167Y-75548816D01*
X33122338Y-75521983D01*
X33152334Y-75488401D01*
X33153086Y-75487541D01*
X33193186Y-75442834D01*
X33221746Y-75413727D01*
X33238872Y-75400130D01*
X33244670Y-75401953D01*
X33242385Y-75411443D01*
X33222067Y-75467949D01*
X33202464Y-75524382D01*
X33184565Y-75577680D01*
X33169359Y-75624781D01*
X33157836Y-75662621D01*
X33150983Y-75688139D01*
X33149750Y-75698238D01*
X33160787Y-75697927D01*
X33186539Y-75692892D01*
X33223004Y-75684016D01*
X33260470Y-75673816D01*
X33302850Y-75662193D01*
X33337815Y-75653418D01*
X33361429Y-75648425D01*
X33369691Y-75647897D01*
X33364890Y-75656028D01*
X33349675Y-75676241D01*
X33326337Y-75705774D01*
X33297167Y-75741865D01*
X33264454Y-75781750D01*
X33230489Y-75822669D01*
X33197563Y-75861858D01*
X33167967Y-75896556D01*
X33143990Y-75924000D01*
X33127923Y-75941428D01*
X33122245Y-75946308D01*
X33117769Y-75941908D01*
X33120890Y-75931450D01*
X33129311Y-75906727D01*
X33141620Y-75871820D01*
X33151754Y-75843623D01*
X33167688Y-75799454D01*
X33176109Y-75771589D01*
X33175582Y-75757761D01*
X33164672Y-75755708D01*
X33141944Y-75763162D01*
X33109249Y-75776517D01*
X33085497Y-75785452D01*
X33069929Y-75789892D01*
X33068704Y-75790000D01*
X33067320Y-75781366D01*
X33070569Y-75758517D01*
X33077751Y-75726039D01*
X33079499Y-75719173D01*
X33088353Y-75684803D01*
X33094924Y-75658767D01*
X33097981Y-75645944D01*
X33098063Y-75645435D01*
X33090934Y-75648798D01*
X33072392Y-75660540D01*
X33054951Y-75672300D01*
X33029895Y-75688906D01*
X33011819Y-75699715D01*
X33006292Y-75702077D01*
X33004180Y-75693391D01*
X33004817Y-75671272D01*
X33006321Y-75655673D01*
X33011730Y-75609270D01*
X32969500Y-75674784D01*
X32945062Y-75710904D01*
X32927781Y-75732733D01*
X32918434Y-75739663D01*
X32917796Y-75731085D01*
X32925391Y-75709404D01*
X32932771Y-75691407D01*
X32946317Y-75658348D01*
X32964792Y-75613245D01*
X32986960Y-75559116D01*
X33011585Y-75498982D01*
X33025428Y-75465173D01*
X33050217Y-75405288D01*
X33072820Y-75351936D01*
X33092131Y-75307624D01*
X33107047Y-75274857D01*
X33116464Y-75256141D01*
X33119067Y-75252693D01*
X33122860Y-75260478D01*
G36*
X33122860Y-75260478D02*
G01*
X33121822Y-75269789D01*
X33115641Y-75299439D01*
X33108128Y-75339156D01*
X33099934Y-75385014D01*
X33091713Y-75433083D01*
X33084115Y-75479437D01*
X33077792Y-75520148D01*
X33073396Y-75551287D01*
X33071578Y-75568928D01*
X33071781Y-75571423D01*
X33079441Y-75566197D01*
X33097167Y-75548816D01*
X33122338Y-75521983D01*
X33152334Y-75488401D01*
X33153086Y-75487541D01*
X33193186Y-75442834D01*
X33221746Y-75413727D01*
X33238872Y-75400130D01*
X33244670Y-75401953D01*
X33242385Y-75411443D01*
X33222067Y-75467949D01*
X33202464Y-75524382D01*
X33184565Y-75577680D01*
X33169359Y-75624781D01*
X33157836Y-75662621D01*
X33150983Y-75688139D01*
X33149750Y-75698238D01*
X33160787Y-75697927D01*
X33186539Y-75692892D01*
X33223004Y-75684016D01*
X33260470Y-75673816D01*
X33302850Y-75662193D01*
X33337815Y-75653418D01*
X33361429Y-75648425D01*
X33369691Y-75647897D01*
X33364890Y-75656028D01*
X33349675Y-75676241D01*
X33326337Y-75705774D01*
X33297167Y-75741865D01*
X33264454Y-75781750D01*
X33230489Y-75822669D01*
X33197563Y-75861858D01*
X33167967Y-75896556D01*
X33143990Y-75924000D01*
X33127923Y-75941428D01*
X33122245Y-75946308D01*
X33117769Y-75941908D01*
X33120890Y-75931450D01*
X33129311Y-75906727D01*
X33141620Y-75871820D01*
X33151754Y-75843623D01*
X33167688Y-75799454D01*
X33176109Y-75771589D01*
X33175582Y-75757761D01*
X33164672Y-75755708D01*
X33141944Y-75763162D01*
X33109249Y-75776517D01*
X33085497Y-75785452D01*
X33069929Y-75789892D01*
X33068704Y-75790000D01*
X33067320Y-75781366D01*
X33070569Y-75758517D01*
X33077751Y-75726039D01*
X33079499Y-75719173D01*
X33088353Y-75684803D01*
X33094924Y-75658767D01*
X33097981Y-75645944D01*
X33098063Y-75645435D01*
X33090934Y-75648798D01*
X33072392Y-75660540D01*
X33054951Y-75672300D01*
X33029895Y-75688906D01*
X33011819Y-75699715D01*
X33006292Y-75702077D01*
X33004180Y-75693391D01*
X33004817Y-75671272D01*
X33006321Y-75655673D01*
X33011730Y-75609270D01*
X32969500Y-75674784D01*
X32945062Y-75710904D01*
X32927781Y-75732733D01*
X32918434Y-75739663D01*
X32917796Y-75731085D01*
X32925391Y-75709404D01*
X32932771Y-75691407D01*
X32946317Y-75658348D01*
X32964792Y-75613245D01*
X32986960Y-75559116D01*
X33011585Y-75498982D01*
X33025428Y-75465173D01*
X33050217Y-75405288D01*
X33072820Y-75351936D01*
X33092131Y-75307624D01*
X33107047Y-75274857D01*
X33116464Y-75256141D01*
X33119067Y-75252693D01*
X33122860Y-75260478D01*
G37*
X33991220Y-78374045D02*
X34017721Y-78381306D01*
X34055780Y-78394246D01*
X34102278Y-78411667D01*
X34154097Y-78432374D01*
X34208119Y-78455169D01*
X34261225Y-78478857D01*
X34294961Y-78494737D01*
X34475032Y-78592436D01*
X34646172Y-78707070D01*
X34807543Y-78837789D01*
X34958308Y-78983744D01*
X35097628Y-79144087D01*
X35224665Y-79317967D01*
X35338582Y-79504537D01*
X35392729Y-79607032D01*
X35461357Y-79758332D01*
X35522754Y-79922727D01*
X35575110Y-80094540D01*
X35616616Y-80268095D01*
X35634933Y-80366885D01*
X35642654Y-80427909D01*
X35648386Y-80502280D01*
X35652133Y-80585800D01*
X35653895Y-80674274D01*
X35653674Y-80763506D01*
X35651472Y-80849298D01*
X35647290Y-80927456D01*
X35641131Y-80993782D01*
X35634668Y-81036077D01*
X35593351Y-81206831D01*
X35539356Y-81362938D01*
X35472787Y-81504292D01*
X35393744Y-81630789D01*
X35302329Y-81742323D01*
X35198643Y-81838789D01*
X35082788Y-81920082D01*
X34954864Y-81986096D01*
X34814973Y-82036726D01*
X34663217Y-82071867D01*
X34632000Y-82076944D01*
X34563061Y-82084501D01*
X34480406Y-82088914D01*
X34389590Y-82090237D01*
X34296173Y-82088525D01*
X34205712Y-82083833D01*
X34123764Y-82076213D01*
X34089807Y-82071643D01*
X34029397Y-82061532D01*
X33962146Y-82048780D01*
X33898115Y-82035354D01*
X33865115Y-82027717D01*
X33823030Y-82016816D01*
X33773024Y-82002819D01*
X33718210Y-81986717D01*
X33661702Y-81969499D01*
X33606613Y-81952154D01*
X33556056Y-81935673D01*
X33513145Y-81921044D01*
X33480992Y-81909258D01*
X33462712Y-81901303D01*
X33459692Y-81898846D01*
X33461238Y-81896762D01*
X33467677Y-81896222D01*
X33481708Y-81897600D01*
X33506035Y-81901269D01*
X33543356Y-81907603D01*
X33596374Y-81916976D01*
X33616000Y-81920483D01*
X33778846Y-81941831D01*
X33944352Y-81948700D01*
X34109418Y-81941456D01*
X34270946Y-81920468D01*
X34425837Y-81886101D01*
X34570992Y-81838723D01*
X34670065Y-81795626D01*
X34803713Y-81720500D01*
X34928228Y-81630842D01*
X35041511Y-81528681D01*
X35141469Y-81416043D01*
X35226006Y-81294958D01*
X35270917Y-81214226D01*
X35325825Y-81084435D01*
X35366072Y-80943979D01*
X35391452Y-80795339D01*
X35401757Y-80640997D01*
X35396779Y-80483435D01*
X35376312Y-80325135D01*
X35353942Y-80220346D01*
X35298682Y-80036047D01*
X35224425Y-79850613D01*
X35131631Y-79664681D01*
X35020760Y-79478890D01*
X34892271Y-79293876D01*
X34746626Y-79110277D01*
X34584285Y-78928729D01*
X34405708Y-78749871D01*
X34211355Y-78574339D01*
X34094692Y-78476832D01*
X34054966Y-78444528D01*
X34020848Y-78416782D01*
X33995100Y-78395844D01*
X33980489Y-78383961D01*
X33978275Y-78382161D01*
X33979219Y-78373837D01*
X33979393Y-78373658D01*
X33991220Y-78374045D01*
G36*
X33991220Y-78374045D02*
G01*
X34017721Y-78381306D01*
X34055780Y-78394246D01*
X34102278Y-78411667D01*
X34154097Y-78432374D01*
X34208119Y-78455169D01*
X34261225Y-78478857D01*
X34294961Y-78494737D01*
X34475032Y-78592436D01*
X34646172Y-78707070D01*
X34807543Y-78837789D01*
X34958308Y-78983744D01*
X35097628Y-79144087D01*
X35224665Y-79317967D01*
X35338582Y-79504537D01*
X35392729Y-79607032D01*
X35461357Y-79758332D01*
X35522754Y-79922727D01*
X35575110Y-80094540D01*
X35616616Y-80268095D01*
X35634933Y-80366885D01*
X35642654Y-80427909D01*
X35648386Y-80502280D01*
X35652133Y-80585800D01*
X35653895Y-80674274D01*
X35653674Y-80763506D01*
X35651472Y-80849298D01*
X35647290Y-80927456D01*
X35641131Y-80993782D01*
X35634668Y-81036077D01*
X35593351Y-81206831D01*
X35539356Y-81362938D01*
X35472787Y-81504292D01*
X35393744Y-81630789D01*
X35302329Y-81742323D01*
X35198643Y-81838789D01*
X35082788Y-81920082D01*
X34954864Y-81986096D01*
X34814973Y-82036726D01*
X34663217Y-82071867D01*
X34632000Y-82076944D01*
X34563061Y-82084501D01*
X34480406Y-82088914D01*
X34389590Y-82090237D01*
X34296173Y-82088525D01*
X34205712Y-82083833D01*
X34123764Y-82076213D01*
X34089807Y-82071643D01*
X34029397Y-82061532D01*
X33962146Y-82048780D01*
X33898115Y-82035354D01*
X33865115Y-82027717D01*
X33823030Y-82016816D01*
X33773024Y-82002819D01*
X33718210Y-81986717D01*
X33661702Y-81969499D01*
X33606613Y-81952154D01*
X33556056Y-81935673D01*
X33513145Y-81921044D01*
X33480992Y-81909258D01*
X33462712Y-81901303D01*
X33459692Y-81898846D01*
X33461238Y-81896762D01*
X33467677Y-81896222D01*
X33481708Y-81897600D01*
X33506035Y-81901269D01*
X33543356Y-81907603D01*
X33596374Y-81916976D01*
X33616000Y-81920483D01*
X33778846Y-81941831D01*
X33944352Y-81948700D01*
X34109418Y-81941456D01*
X34270946Y-81920468D01*
X34425837Y-81886101D01*
X34570992Y-81838723D01*
X34670065Y-81795626D01*
X34803713Y-81720500D01*
X34928228Y-81630842D01*
X35041511Y-81528681D01*
X35141469Y-81416043D01*
X35226006Y-81294958D01*
X35270917Y-81214226D01*
X35325825Y-81084435D01*
X35366072Y-80943979D01*
X35391452Y-80795339D01*
X35401757Y-80640997D01*
X35396779Y-80483435D01*
X35376312Y-80325135D01*
X35353942Y-80220346D01*
X35298682Y-80036047D01*
X35224425Y-79850613D01*
X35131631Y-79664681D01*
X35020760Y-79478890D01*
X34892271Y-79293876D01*
X34746626Y-79110277D01*
X34584285Y-78928729D01*
X34405708Y-78749871D01*
X34211355Y-78574339D01*
X34094692Y-78476832D01*
X34054966Y-78444528D01*
X34020848Y-78416782D01*
X33995100Y-78395844D01*
X33980489Y-78383961D01*
X33978275Y-78382161D01*
X33979219Y-78373837D01*
X33979393Y-78373658D01*
X33991220Y-78374045D01*
G37*
X32644254Y-80835365D02*
X32802909Y-80863957D01*
X32962978Y-80908157D01*
X33074911Y-80948337D01*
X33112757Y-80964062D01*
X33157598Y-80983980D01*
X33206530Y-81006648D01*
X33256646Y-81030623D01*
X33305041Y-81054463D01*
X33348808Y-81076723D01*
X33385041Y-81095963D01*
X33410836Y-81110738D01*
X33423285Y-81119606D01*
X33423499Y-81121411D01*
X33410406Y-81119801D01*
X33383201Y-81112693D01*
X33346123Y-81101288D01*
X33311699Y-81089703D01*
X33260334Y-81072711D01*
X33198345Y-81053590D01*
X33134084Y-81034855D01*
X33083577Y-81021024D01*
X32892517Y-80977714D01*
X32711552Y-80951048D01*
X32540450Y-80941080D01*
X32378985Y-80947864D01*
X32226926Y-80971454D01*
X32084045Y-81011906D01*
X31950113Y-81069272D01*
X31824901Y-81143608D01*
X31708180Y-81234967D01*
X31599722Y-81343405D01*
X31567491Y-81380798D01*
X31518232Y-81442338D01*
X31470495Y-81507191D01*
X31423652Y-81576631D01*
X31377077Y-81651930D01*
X31330142Y-81734360D01*
X31282221Y-81825194D01*
X31232687Y-81925705D01*
X31180912Y-82037165D01*
X31126269Y-82160848D01*
X31068131Y-82298025D01*
X31005871Y-82449970D01*
X30938862Y-82617955D01*
X30866478Y-82803252D01*
X30866069Y-82804308D01*
X30798877Y-82976237D01*
X30737102Y-83130789D01*
X30680132Y-83269174D01*
X30627358Y-83392601D01*
X30578170Y-83502281D01*
X30531958Y-83599421D01*
X30488112Y-83685232D01*
X30446022Y-83760924D01*
X30405078Y-83827705D01*
X30364670Y-83886785D01*
X30324188Y-83939374D01*
X30283022Y-83986682D01*
X30255191Y-84015589D01*
X30214366Y-84052883D01*
X30170861Y-84086796D01*
X30128609Y-84114758D01*
X30091543Y-84134201D01*
X30063598Y-84142554D01*
X30060615Y-84142693D01*
X30050633Y-84149453D01*
X30050231Y-84152019D01*
X30059908Y-84161571D01*
X30088857Y-84168754D01*
X30136954Y-84173554D01*
X30204074Y-84175957D01*
X30260269Y-84176215D01*
X30318932Y-84175480D01*
X30363680Y-84173479D01*
X30400130Y-84169523D01*
X30433896Y-84162927D01*
X30470596Y-84153003D01*
X30484702Y-84148760D01*
X30581581Y-84113768D01*
X30682484Y-84066550D01*
X30788107Y-84006576D01*
X30899143Y-83933312D01*
X31016286Y-83846228D01*
X31140231Y-83744790D01*
X31271673Y-83628466D01*
X31411305Y-83496725D01*
X31559823Y-83349035D01*
X31651314Y-83254808D01*
X31732579Y-83171444D01*
X31815568Y-83088747D01*
X31897959Y-83008889D01*
X31977434Y-82934042D01*
X32051671Y-82866379D01*
X32118352Y-82808071D01*
X32175156Y-82761291D01*
X32193566Y-82747067D01*
X32289573Y-82681239D01*
X32379428Y-82633259D01*
X32462898Y-82603208D01*
X32539746Y-82591165D01*
X32609738Y-82597209D01*
X32624423Y-82601042D01*
X32663500Y-82612591D01*
X32601527Y-82620035D01*
X32545278Y-82629397D01*
X32490202Y-82644359D01*
X32435131Y-82665855D01*
X32378897Y-82694818D01*
X32320331Y-82732182D01*
X32258267Y-82778880D01*
X32191534Y-82835846D01*
X32118966Y-82904013D01*
X32039394Y-82984314D01*
X31951650Y-83077684D01*
X31854565Y-83185055D01*
X31759688Y-83292770D01*
X31635664Y-83433139D01*
X31521447Y-83558469D01*
X31415824Y-83669850D01*
X31317579Y-83768376D01*
X31225498Y-83855138D01*
X31138365Y-83931229D01*
X31054968Y-83997741D01*
X30974090Y-84055766D01*
X30894517Y-84106397D01*
X30815035Y-84150725D01*
X30793104Y-84161920D01*
X30674136Y-84216138D01*
X30561539Y-84255624D01*
X30450378Y-84281578D01*
X30335719Y-84295202D01*
X30234311Y-84298006D01*
X30176731Y-84296545D01*
X30117660Y-84293315D01*
X30064229Y-84288802D01*
X30025210Y-84283773D01*
X29981198Y-84274743D01*
X29927159Y-84261272D01*
X29871454Y-84245528D01*
X29841272Y-84236078D01*
X29798978Y-84221262D01*
X29751377Y-84203037D01*
X29701824Y-84182877D01*
X29653675Y-84162257D01*
X29610284Y-84142654D01*
X29575006Y-84125541D01*
X29551198Y-84112395D01*
X29542214Y-84104690D01*
X29542209Y-84104584D01*
X29551192Y-84102268D01*
X29575141Y-84101203D01*
X29609508Y-84101536D01*
X29622672Y-84101990D01*
X29728349Y-84097632D01*
X29829542Y-84075544D01*
X29927046Y-84035343D01*
X30021655Y-83976645D01*
X30114163Y-83899068D01*
X30176613Y-83834962D01*
X30229796Y-83772369D01*
X30282179Y-83702463D01*
X30334323Y-83624106D01*
X30386789Y-83536157D01*
X30440137Y-83437477D01*
X30494928Y-83326925D01*
X30551724Y-83203364D01*
X30611084Y-83065651D01*
X30673571Y-82912649D01*
X30739743Y-82743217D01*
X30810164Y-82556216D01*
X30823187Y-82521000D01*
X30895120Y-82331265D01*
X30964614Y-82159122D01*
X31032519Y-82002903D01*
X31099689Y-81860941D01*
X31166976Y-81731568D01*
X31235232Y-81613118D01*
X31305310Y-81503922D01*
X31378061Y-81402313D01*
X31427070Y-81339692D01*
X31540130Y-81213406D01*
X31661237Y-81103524D01*
X31789482Y-81010706D01*
X31923955Y-80935611D01*
X32061520Y-80879641D01*
X32195645Y-80844519D01*
X32338734Y-80825519D01*
X32488900Y-80822510D01*
X32644254Y-80835365D01*
G36*
X32644254Y-80835365D02*
G01*
X32802909Y-80863957D01*
X32962978Y-80908157D01*
X33074911Y-80948337D01*
X33112757Y-80964062D01*
X33157598Y-80983980D01*
X33206530Y-81006648D01*
X33256646Y-81030623D01*
X33305041Y-81054463D01*
X33348808Y-81076723D01*
X33385041Y-81095963D01*
X33410836Y-81110738D01*
X33423285Y-81119606D01*
X33423499Y-81121411D01*
X33410406Y-81119801D01*
X33383201Y-81112693D01*
X33346123Y-81101288D01*
X33311699Y-81089703D01*
X33260334Y-81072711D01*
X33198345Y-81053590D01*
X33134084Y-81034855D01*
X33083577Y-81021024D01*
X32892517Y-80977714D01*
X32711552Y-80951048D01*
X32540450Y-80941080D01*
X32378985Y-80947864D01*
X32226926Y-80971454D01*
X32084045Y-81011906D01*
X31950113Y-81069272D01*
X31824901Y-81143608D01*
X31708180Y-81234967D01*
X31599722Y-81343405D01*
X31567491Y-81380798D01*
X31518232Y-81442338D01*
X31470495Y-81507191D01*
X31423652Y-81576631D01*
X31377077Y-81651930D01*
X31330142Y-81734360D01*
X31282221Y-81825194D01*
X31232687Y-81925705D01*
X31180912Y-82037165D01*
X31126269Y-82160848D01*
X31068131Y-82298025D01*
X31005871Y-82449970D01*
X30938862Y-82617955D01*
X30866478Y-82803252D01*
X30866069Y-82804308D01*
X30798877Y-82976237D01*
X30737102Y-83130789D01*
X30680132Y-83269174D01*
X30627358Y-83392601D01*
X30578170Y-83502281D01*
X30531958Y-83599421D01*
X30488112Y-83685232D01*
X30446022Y-83760924D01*
X30405078Y-83827705D01*
X30364670Y-83886785D01*
X30324188Y-83939374D01*
X30283022Y-83986682D01*
X30255191Y-84015589D01*
X30214366Y-84052883D01*
X30170861Y-84086796D01*
X30128609Y-84114758D01*
X30091543Y-84134201D01*
X30063598Y-84142554D01*
X30060615Y-84142693D01*
X30050633Y-84149453D01*
X30050231Y-84152019D01*
X30059908Y-84161571D01*
X30088857Y-84168754D01*
X30136954Y-84173554D01*
X30204074Y-84175957D01*
X30260269Y-84176215D01*
X30318932Y-84175480D01*
X30363680Y-84173479D01*
X30400130Y-84169523D01*
X30433896Y-84162927D01*
X30470596Y-84153003D01*
X30484702Y-84148760D01*
X30581581Y-84113768D01*
X30682484Y-84066550D01*
X30788107Y-84006576D01*
X30899143Y-83933312D01*
X31016286Y-83846228D01*
X31140231Y-83744790D01*
X31271673Y-83628466D01*
X31411305Y-83496725D01*
X31559823Y-83349035D01*
X31651314Y-83254808D01*
X31732579Y-83171444D01*
X31815568Y-83088747D01*
X31897959Y-83008889D01*
X31977434Y-82934042D01*
X32051671Y-82866379D01*
X32118352Y-82808071D01*
X32175156Y-82761291D01*
X32193566Y-82747067D01*
X32289573Y-82681239D01*
X32379428Y-82633259D01*
X32462898Y-82603208D01*
X32539746Y-82591165D01*
X32609738Y-82597209D01*
X32624423Y-82601042D01*
X32663500Y-82612591D01*
X32601527Y-82620035D01*
X32545278Y-82629397D01*
X32490202Y-82644359D01*
X32435131Y-82665855D01*
X32378897Y-82694818D01*
X32320331Y-82732182D01*
X32258267Y-82778880D01*
X32191534Y-82835846D01*
X32118966Y-82904013D01*
X32039394Y-82984314D01*
X31951650Y-83077684D01*
X31854565Y-83185055D01*
X31759688Y-83292770D01*
X31635664Y-83433139D01*
X31521447Y-83558469D01*
X31415824Y-83669850D01*
X31317579Y-83768376D01*
X31225498Y-83855138D01*
X31138365Y-83931229D01*
X31054968Y-83997741D01*
X30974090Y-84055766D01*
X30894517Y-84106397D01*
X30815035Y-84150725D01*
X30793104Y-84161920D01*
X30674136Y-84216138D01*
X30561539Y-84255624D01*
X30450378Y-84281578D01*
X30335719Y-84295202D01*
X30234311Y-84298006D01*
X30176731Y-84296545D01*
X30117660Y-84293315D01*
X30064229Y-84288802D01*
X30025210Y-84283773D01*
X29981198Y-84274743D01*
X29927159Y-84261272D01*
X29871454Y-84245528D01*
X29841272Y-84236078D01*
X29798978Y-84221262D01*
X29751377Y-84203037D01*
X29701824Y-84182877D01*
X29653675Y-84162257D01*
X29610284Y-84142654D01*
X29575006Y-84125541D01*
X29551198Y-84112395D01*
X29542214Y-84104690D01*
X29542209Y-84104584D01*
X29551192Y-84102268D01*
X29575141Y-84101203D01*
X29609508Y-84101536D01*
X29622672Y-84101990D01*
X29728349Y-84097632D01*
X29829542Y-84075544D01*
X29927046Y-84035343D01*
X30021655Y-83976645D01*
X30114163Y-83899068D01*
X30176613Y-83834962D01*
X30229796Y-83772369D01*
X30282179Y-83702463D01*
X30334323Y-83624106D01*
X30386789Y-83536157D01*
X30440137Y-83437477D01*
X30494928Y-83326925D01*
X30551724Y-83203364D01*
X30611084Y-83065651D01*
X30673571Y-82912649D01*
X30739743Y-82743217D01*
X30810164Y-82556216D01*
X30823187Y-82521000D01*
X30895120Y-82331265D01*
X30964614Y-82159122D01*
X31032519Y-82002903D01*
X31099689Y-81860941D01*
X31166976Y-81731568D01*
X31235232Y-81613118D01*
X31305310Y-81503922D01*
X31378061Y-81402313D01*
X31427070Y-81339692D01*
X31540130Y-81213406D01*
X31661237Y-81103524D01*
X31789482Y-81010706D01*
X31923955Y-80935611D01*
X32061520Y-80879641D01*
X32195645Y-80844519D01*
X32338734Y-80825519D01*
X32488900Y-80822510D01*
X32644254Y-80835365D01*
G37*
D12*
%TO.C,J25*%
X43330000Y-84130000D02*
X42000000Y-84130000D01*
X43330000Y-82800000D02*
X43330000Y-84130000D01*
X43330000Y-81530000D02*
X43330000Y-81470000D01*
X43330000Y-81530000D02*
X40730000Y-81530000D01*
X43330000Y-81470000D02*
X38130000Y-81470000D01*
X40730000Y-84130000D02*
X38130000Y-84130000D01*
X40730000Y-81530000D02*
X40730000Y-84130000D01*
X38130000Y-84130000D02*
X38130000Y-81470000D01*
%TO.C,J35*%
X82995000Y-122270000D02*
X84325000Y-122270000D01*
X82995000Y-123600000D02*
X82995000Y-122270000D01*
X82995000Y-124870000D02*
X82995000Y-124930000D01*
X82995000Y-124870000D02*
X85595000Y-124870000D01*
X82995000Y-124930000D02*
X88195000Y-124930000D01*
X85595000Y-122270000D02*
X88195000Y-122270000D01*
X85595000Y-124870000D02*
X85595000Y-122270000D01*
X88195000Y-122270000D02*
X88195000Y-124930000D01*
%TO.C,J29*%
X43330000Y-89330000D02*
X42000000Y-89330000D01*
X43330000Y-88000000D02*
X43330000Y-89330000D01*
X43330000Y-86730000D02*
X43330000Y-86670000D01*
X43330000Y-86730000D02*
X40730000Y-86730000D01*
X43330000Y-86670000D02*
X38130000Y-86670000D01*
X40730000Y-89330000D02*
X38130000Y-89330000D01*
X40730000Y-86730000D02*
X40730000Y-89330000D01*
X38130000Y-89330000D02*
X38130000Y-86670000D01*
%TO.C,J5*%
X36330000Y-112330000D02*
X35000000Y-112330000D01*
X36330000Y-111000000D02*
X36330000Y-112330000D01*
X36330000Y-109730000D02*
X36330000Y-109670000D01*
X36330000Y-109730000D02*
X33730000Y-109730000D01*
X36330000Y-109670000D02*
X31130000Y-109670000D01*
X33730000Y-112330000D02*
X31130000Y-112330000D01*
X33730000Y-109730000D02*
X33730000Y-112330000D01*
X31130000Y-112330000D02*
X31130000Y-109670000D01*
%TO.C,J22*%
X75930000Y-99270000D02*
X77260000Y-99270000D01*
X75930000Y-100600000D02*
X75930000Y-99270000D01*
X75930000Y-101870000D02*
X75930000Y-101930000D01*
X75930000Y-101870000D02*
X78530000Y-101870000D01*
X75930000Y-101930000D02*
X81130000Y-101930000D01*
X78530000Y-99270000D02*
X81130000Y-99270000D01*
X78530000Y-101870000D02*
X78530000Y-99270000D01*
X81130000Y-99270000D02*
X81130000Y-101930000D01*
%TO.C,J36*%
X75930000Y-114670000D02*
X77260000Y-114670000D01*
X75930000Y-116000000D02*
X75930000Y-114670000D01*
X75930000Y-117270000D02*
X75930000Y-117330000D01*
X75930000Y-117270000D02*
X78530000Y-117270000D01*
X75930000Y-117330000D02*
X81130000Y-117330000D01*
X78530000Y-114670000D02*
X81130000Y-114670000D01*
X78530000Y-117270000D02*
X78530000Y-114670000D01*
X81130000Y-114670000D02*
X81130000Y-117330000D01*
%TO.C,J37*%
X75930000Y-109470000D02*
X77260000Y-109470000D01*
X75930000Y-110800000D02*
X75930000Y-109470000D01*
X75930000Y-112070000D02*
X75930000Y-112130000D01*
X75930000Y-112070000D02*
X78530000Y-112070000D01*
X75930000Y-112130000D02*
X81130000Y-112130000D01*
X78530000Y-109470000D02*
X81130000Y-109470000D01*
X78530000Y-112070000D02*
X78530000Y-109470000D01*
X81130000Y-109470000D02*
X81130000Y-112130000D01*
%TO.C,U1*%
X50670000Y-81520000D02*
X50670000Y-132440000D01*
X50670000Y-132440000D02*
X63590000Y-132440000D01*
X56130000Y-81520000D02*
X50670000Y-81520000D01*
X63590000Y-81520000D02*
X58130000Y-81520000D01*
X63590000Y-132440000D02*
X63590000Y-81520000D01*
X56130000Y-81520000D02*
G75*
G03*
X58130000Y-81520000I1000000J0D01*
G01*
%TO.C,J20*%
X82930000Y-107270000D02*
X84260000Y-107270000D01*
X82930000Y-108600000D02*
X82930000Y-107270000D01*
X82930000Y-109870000D02*
X82930000Y-109930000D01*
X82930000Y-109870000D02*
X85530000Y-109870000D01*
X82930000Y-109930000D02*
X88130000Y-109930000D01*
X85530000Y-107270000D02*
X88130000Y-107270000D01*
X85530000Y-109870000D02*
X85530000Y-107270000D01*
X88130000Y-107270000D02*
X88130000Y-109930000D01*
%TO.C,U2*%
X53235000Y-81520000D02*
X53235000Y-132440000D01*
X53235000Y-132440000D02*
X66155000Y-132440000D01*
X58695000Y-81520000D02*
X53235000Y-81520000D01*
X66155000Y-81520000D02*
X60695000Y-81520000D01*
X66155000Y-132440000D02*
X66155000Y-81520000D01*
X58695000Y-81520000D02*
G75*
G03*
X60695000Y-81520000I1000000J0D01*
G01*
%TO.C,J18*%
X83130000Y-101670000D02*
X84460000Y-101670000D01*
X83130000Y-103000000D02*
X83130000Y-101670000D01*
X83130000Y-104270000D02*
X83130000Y-104330000D01*
X83130000Y-104270000D02*
X85730000Y-104270000D01*
X83130000Y-104330000D02*
X88330000Y-104330000D01*
X85730000Y-101670000D02*
X88330000Y-101670000D01*
X85730000Y-104270000D02*
X85730000Y-101670000D01*
X88330000Y-101670000D02*
X88330000Y-104330000D01*
%TO.C,J34*%
X82930000Y-112070000D02*
X84260000Y-112070000D01*
X82930000Y-113400000D02*
X82930000Y-112070000D01*
X82930000Y-114670000D02*
X82930000Y-114730000D01*
X82930000Y-114670000D02*
X85530000Y-114670000D01*
X82930000Y-114730000D02*
X88130000Y-114730000D01*
X85530000Y-112070000D02*
X88130000Y-112070000D01*
X85530000Y-114670000D02*
X85530000Y-112070000D01*
X88130000Y-112070000D02*
X88130000Y-114730000D01*
%TO.C,J33*%
X82930000Y-117070000D02*
X84260000Y-117070000D01*
X82930000Y-118400000D02*
X82930000Y-117070000D01*
X82930000Y-119670000D02*
X82930000Y-119730000D01*
X82930000Y-119670000D02*
X85530000Y-119670000D01*
X82930000Y-119730000D02*
X88130000Y-119730000D01*
X85530000Y-117070000D02*
X88130000Y-117070000D01*
X85530000Y-119670000D02*
X85530000Y-117070000D01*
X88130000Y-117070000D02*
X88130000Y-119730000D01*
%TO.C,J31*%
X83070000Y-86670000D02*
X84400000Y-86670000D01*
X83070000Y-88000000D02*
X83070000Y-86670000D01*
X83070000Y-89270000D02*
X83070000Y-89330000D01*
X83070000Y-89270000D02*
X85670000Y-89270000D01*
X83070000Y-89330000D02*
X88270000Y-89330000D01*
X85670000Y-86670000D02*
X88270000Y-86670000D01*
X85670000Y-89270000D02*
X85670000Y-86670000D01*
X88270000Y-86670000D02*
X88270000Y-89330000D01*
%TO.C,J9*%
X36330000Y-127330000D02*
X35000000Y-127330000D01*
X36330000Y-126000000D02*
X36330000Y-127330000D01*
X36330000Y-124730000D02*
X36330000Y-124670000D01*
X36330000Y-124730000D02*
X33730000Y-124730000D01*
X36330000Y-124670000D02*
X31130000Y-124670000D01*
X33730000Y-127330000D02*
X31130000Y-127330000D01*
X33730000Y-124730000D02*
X33730000Y-127330000D01*
X31130000Y-127330000D02*
X31130000Y-124670000D01*
%TO.C,J17*%
X83070000Y-91670000D02*
X84400000Y-91670000D01*
X83070000Y-93000000D02*
X83070000Y-91670000D01*
X83070000Y-94270000D02*
X83070000Y-94330000D01*
X83070000Y-94270000D02*
X85670000Y-94270000D01*
X83070000Y-94330000D02*
X88270000Y-94330000D01*
X85670000Y-91670000D02*
X88270000Y-91670000D01*
X85670000Y-94270000D02*
X85670000Y-91670000D01*
X88270000Y-91670000D02*
X88270000Y-94330000D01*
%TO.C,J23*%
X75930000Y-94270000D02*
X77260000Y-94270000D01*
X75930000Y-95600000D02*
X75930000Y-94270000D01*
X75930000Y-96870000D02*
X75930000Y-96930000D01*
X75930000Y-96870000D02*
X78530000Y-96870000D01*
X75930000Y-96930000D02*
X81130000Y-96930000D01*
X78530000Y-94270000D02*
X81130000Y-94270000D01*
X78530000Y-96870000D02*
X78530000Y-94270000D01*
X81130000Y-94270000D02*
X81130000Y-96930000D01*
%TO.C,J8*%
X36330000Y-116730000D02*
X35000000Y-116730000D01*
X36330000Y-115400000D02*
X36330000Y-116730000D01*
X36330000Y-114130000D02*
X36330000Y-114070000D01*
X36330000Y-114130000D02*
X33730000Y-114130000D01*
X36330000Y-114070000D02*
X31130000Y-114070000D01*
X33730000Y-116730000D02*
X31130000Y-116730000D01*
X33730000Y-114130000D02*
X33730000Y-116730000D01*
X31130000Y-116730000D02*
X31130000Y-114070000D01*
%TO.C,J28*%
X43330000Y-94330000D02*
X42000000Y-94330000D01*
X43330000Y-93000000D02*
X43330000Y-94330000D01*
X43330000Y-91730000D02*
X43330000Y-91670000D01*
X43330000Y-91730000D02*
X40730000Y-91730000D01*
X43330000Y-91670000D02*
X38130000Y-91670000D01*
X40730000Y-94330000D02*
X38130000Y-94330000D01*
X40730000Y-91730000D02*
X40730000Y-94330000D01*
X38130000Y-94330000D02*
X38130000Y-91670000D01*
%TO.C,R1*%
X50280000Y-77400000D02*
X51050000Y-77400000D01*
X51050000Y-76030000D02*
X51050000Y-78770000D01*
X51050000Y-78770000D02*
X57590000Y-78770000D01*
X57590000Y-76030000D02*
X51050000Y-76030000D01*
X57590000Y-78770000D02*
X57590000Y-76030000D01*
X58360000Y-77400000D02*
X57590000Y-77400000D01*
%TO.C,J3*%
X36330000Y-107130000D02*
X35000000Y-107130000D01*
X36330000Y-105800000D02*
X36330000Y-107130000D01*
X36330000Y-104530000D02*
X36330000Y-104470000D01*
X36330000Y-104530000D02*
X33730000Y-104530000D01*
X36330000Y-104470000D02*
X31130000Y-104470000D01*
X33730000Y-107130000D02*
X31130000Y-107130000D01*
X33730000Y-104530000D02*
X33730000Y-107130000D01*
X31130000Y-107130000D02*
X31130000Y-104470000D01*
%TO.C,J27*%
X83070000Y-81670000D02*
X84400000Y-81670000D01*
X83070000Y-83000000D02*
X83070000Y-81670000D01*
X83070000Y-84270000D02*
X83070000Y-84330000D01*
X83070000Y-84270000D02*
X85670000Y-84270000D01*
X83070000Y-84330000D02*
X88270000Y-84330000D01*
X85670000Y-81670000D02*
X88270000Y-81670000D01*
X85670000Y-84270000D02*
X85670000Y-81670000D01*
X88270000Y-81670000D02*
X88270000Y-84330000D01*
%TO.C,J7*%
X36330000Y-122330000D02*
X35000000Y-122330000D01*
X36330000Y-121000000D02*
X36330000Y-122330000D01*
X36330000Y-119730000D02*
X36330000Y-119670000D01*
X36330000Y-119730000D02*
X33730000Y-119730000D01*
X36330000Y-119670000D02*
X31130000Y-119670000D01*
X33730000Y-122330000D02*
X31130000Y-122330000D01*
X33730000Y-119730000D02*
X33730000Y-122330000D01*
X31130000Y-122330000D02*
X31130000Y-119670000D01*
%TO.C,J1*%
X43330000Y-99330000D02*
X42000000Y-99330000D01*
X43330000Y-98000000D02*
X43330000Y-99330000D01*
X43330000Y-96730000D02*
X43330000Y-96670000D01*
X43330000Y-96730000D02*
X40730000Y-96730000D01*
X43330000Y-96670000D02*
X38130000Y-96670000D01*
X40730000Y-99330000D02*
X38130000Y-99330000D01*
X40730000Y-96730000D02*
X40730000Y-99330000D01*
X38130000Y-99330000D02*
X38130000Y-96670000D01*
%TO.C,J12*%
X42870000Y-124730000D02*
X41540000Y-124730000D01*
X42870000Y-123400000D02*
X42870000Y-124730000D01*
X42870000Y-122130000D02*
X42870000Y-122070000D01*
X42870000Y-122130000D02*
X40270000Y-122130000D01*
X42870000Y-122070000D02*
X37670000Y-122070000D01*
X40270000Y-124730000D02*
X37670000Y-124730000D01*
X40270000Y-122130000D02*
X40270000Y-124730000D01*
X37670000Y-124730000D02*
X37670000Y-122070000D01*
%TO.C,J19*%
X83070000Y-96670000D02*
X84400000Y-96670000D01*
X83070000Y-98000000D02*
X83070000Y-96670000D01*
X83070000Y-99270000D02*
X83070000Y-99330000D01*
X83070000Y-99270000D02*
X85670000Y-99270000D01*
X83070000Y-99330000D02*
X88270000Y-99330000D01*
X85670000Y-96670000D02*
X88270000Y-96670000D01*
X85670000Y-99270000D02*
X85670000Y-96670000D01*
X88270000Y-96670000D02*
X88270000Y-99330000D01*
%TO.C,D1*%
X61990000Y-76164000D02*
X61990000Y-76320000D01*
X61990000Y-78480000D02*
X61990000Y-78636000D01*
X65222334Y-76321392D02*
G75*
G03*
X61990001Y-76164485I-1672334J-1078608D01*
G01*
X64591129Y-76320164D02*
G75*
G03*
X62509040Y-76320001I-1041129J-1079836D01*
G01*
X62509040Y-78479999D02*
G75*
G03*
X64591129Y-78479836I1040960J1079999D01*
G01*
X61990001Y-78635515D02*
G75*
G03*
X65222334Y-78478608I1559999J1235515D01*
G01*
%TO.C,J4*%
X43330000Y-104530000D02*
X42000000Y-104530000D01*
X43330000Y-103200000D02*
X43330000Y-104530000D01*
X43330000Y-101930000D02*
X43330000Y-101870000D01*
X43330000Y-101930000D02*
X40730000Y-101930000D01*
X43330000Y-101870000D02*
X38130000Y-101870000D01*
X40730000Y-104530000D02*
X38130000Y-104530000D01*
X40730000Y-101930000D02*
X40730000Y-104530000D01*
X38130000Y-104530000D02*
X38130000Y-101870000D01*
%TO.C,J11*%
X42870000Y-114730000D02*
X41540000Y-114730000D01*
X42870000Y-113400000D02*
X42870000Y-114730000D01*
X42870000Y-112130000D02*
X42870000Y-112070000D01*
X42870000Y-112130000D02*
X40270000Y-112130000D01*
X42870000Y-112070000D02*
X37670000Y-112070000D01*
X40270000Y-114730000D02*
X37670000Y-114730000D01*
X40270000Y-112130000D02*
X40270000Y-114730000D01*
X37670000Y-114730000D02*
X37670000Y-112070000D01*
%TO.C,J15*%
X42930000Y-129930000D02*
X41600000Y-129930000D01*
X42930000Y-128600000D02*
X42930000Y-129930000D01*
X42930000Y-127330000D02*
X42930000Y-127270000D01*
X42930000Y-127330000D02*
X40330000Y-127330000D01*
X42930000Y-127270000D02*
X37730000Y-127270000D01*
X40330000Y-129930000D02*
X37730000Y-129930000D01*
X40330000Y-127330000D02*
X40330000Y-129930000D01*
X37730000Y-129930000D02*
X37730000Y-127270000D01*
%TO.C,J10*%
X42870000Y-119730000D02*
X41540000Y-119730000D01*
X42870000Y-118400000D02*
X42870000Y-119730000D01*
X42870000Y-117130000D02*
X42870000Y-117070000D01*
X42870000Y-117130000D02*
X40270000Y-117130000D01*
X42870000Y-117070000D02*
X37670000Y-117070000D01*
X40270000Y-119730000D02*
X37670000Y-119730000D01*
X40270000Y-117130000D02*
X40270000Y-119730000D01*
X37670000Y-119730000D02*
X37670000Y-117070000D01*
%TO.C,J24*%
X76130000Y-104270000D02*
X77460000Y-104270000D01*
X76130000Y-105600000D02*
X76130000Y-104270000D01*
X76130000Y-106870000D02*
X76130000Y-106930000D01*
X76130000Y-106870000D02*
X78730000Y-106870000D01*
X76130000Y-106930000D02*
X81330000Y-106930000D01*
X78730000Y-104270000D02*
X81330000Y-104270000D01*
X78730000Y-106870000D02*
X78730000Y-104270000D01*
X81330000Y-104270000D02*
X81330000Y-106930000D01*
%TO.C,J32*%
X36330000Y-86730000D02*
X35000000Y-86730000D01*
X36330000Y-85400000D02*
X36330000Y-86730000D01*
X36330000Y-84130000D02*
X36330000Y-84070000D01*
X36330000Y-84130000D02*
X33730000Y-84130000D01*
X36330000Y-84070000D02*
X31130000Y-84070000D01*
X33730000Y-86730000D02*
X31130000Y-86730000D01*
X33730000Y-84130000D02*
X33730000Y-86730000D01*
X31130000Y-86730000D02*
X31130000Y-84070000D01*
%TO.C,J13*%
X36270000Y-132330000D02*
X34940000Y-132330000D01*
X36270000Y-131000000D02*
X36270000Y-132330000D01*
X36270000Y-129730000D02*
X36270000Y-129670000D01*
X36270000Y-129730000D02*
X33670000Y-129730000D01*
X36270000Y-129670000D02*
X31070000Y-129670000D01*
X33670000Y-132330000D02*
X31070000Y-132330000D01*
X33670000Y-129730000D02*
X33670000Y-132330000D01*
X31070000Y-132330000D02*
X31070000Y-129670000D01*
%TO.C,J2*%
X36930000Y-101930000D02*
X35600000Y-101930000D01*
X36930000Y-100600000D02*
X36930000Y-101930000D01*
X36930000Y-99330000D02*
X36930000Y-99270000D01*
X36930000Y-99330000D02*
X34330000Y-99330000D01*
X36930000Y-99270000D02*
X31730000Y-99270000D01*
X34330000Y-101930000D02*
X31730000Y-101930000D01*
X34330000Y-99330000D02*
X34330000Y-101930000D01*
X31730000Y-101930000D02*
X31730000Y-99270000D01*
%TO.C,J21*%
X75930000Y-89270000D02*
X77260000Y-89270000D01*
X75930000Y-90600000D02*
X75930000Y-89270000D01*
X75930000Y-91870000D02*
X75930000Y-91930000D01*
X75930000Y-91870000D02*
X78530000Y-91870000D01*
X75930000Y-91930000D02*
X81130000Y-91930000D01*
X78530000Y-89270000D02*
X81130000Y-89270000D01*
X78530000Y-91870000D02*
X78530000Y-89270000D01*
X81130000Y-89270000D02*
X81130000Y-91930000D01*
%TO.C,J26*%
X75930000Y-84070000D02*
X77260000Y-84070000D01*
X75930000Y-85400000D02*
X75930000Y-84070000D01*
X75930000Y-86670000D02*
X75930000Y-86730000D01*
X75930000Y-86670000D02*
X78530000Y-86670000D01*
X75930000Y-86730000D02*
X81130000Y-86730000D01*
X78530000Y-84070000D02*
X81130000Y-84070000D01*
X78530000Y-86670000D02*
X78530000Y-84070000D01*
X81130000Y-84070000D02*
X81130000Y-86730000D01*
%TO.C,J30*%
X36330000Y-91930000D02*
X35000000Y-91930000D01*
X36330000Y-90600000D02*
X36330000Y-91930000D01*
X36330000Y-89330000D02*
X36330000Y-89270000D01*
X36330000Y-89330000D02*
X33730000Y-89330000D01*
X36330000Y-89270000D02*
X31130000Y-89270000D01*
X33730000Y-91930000D02*
X31130000Y-91930000D01*
X33730000Y-89330000D02*
X33730000Y-91930000D01*
X31130000Y-91930000D02*
X31130000Y-89270000D01*
%TO.C,J38*%
X75730000Y-119670000D02*
X77060000Y-119670000D01*
X75730000Y-121000000D02*
X75730000Y-119670000D01*
X75730000Y-122270000D02*
X75730000Y-122330000D01*
X75730000Y-122270000D02*
X78330000Y-122270000D01*
X75730000Y-122330000D02*
X80930000Y-122330000D01*
X78330000Y-119670000D02*
X80930000Y-119670000D01*
X78330000Y-122270000D02*
X78330000Y-119670000D01*
X80930000Y-119670000D02*
X80930000Y-122330000D01*
%TD*%
M02*
