%TF.GenerationSoftware,KiCad,Pcbnew,7.0.1*%
%TF.CreationDate,2023-06-14T21:40:41+02:00*%
%TF.ProjectId,6510_board,36353130-5f62-46f6-9172-642e6b696361,rev?*%
%TF.SameCoordinates,Original*%
%TF.FileFunction,Copper,L2,Bot*%
%TF.FilePolarity,Positive*%
%FSLAX46Y46*%
G04 Gerber Fmt 4.6, Leading zero omitted, Abs format (unit mm)*
G04 Created by KiCad (PCBNEW 7.0.1) date 2023-06-14 21:40:41*
%MOMM*%
%LPD*%
G01*
G04 APERTURE LIST*
%TA.AperFunction,ComponentPad*%
%ADD10R,1.700000X1.700000*%
%TD*%
%TA.AperFunction,ComponentPad*%
%ADD11O,1.700000X1.700000*%
%TD*%
%TA.AperFunction,ComponentPad*%
%ADD12R,1.600000X1.600000*%
%TD*%
%TA.AperFunction,ComponentPad*%
%ADD13O,1.600000X1.600000*%
%TD*%
%TA.AperFunction,ComponentPad*%
%ADD14C,1.600000*%
%TD*%
%TA.AperFunction,ComponentPad*%
%ADD15R,1.800000X1.800000*%
%TD*%
%TA.AperFunction,ComponentPad*%
%ADD16C,1.800000*%
%TD*%
%TA.AperFunction,ViaPad*%
%ADD17C,0.800000*%
%TD*%
G04 APERTURE END LIST*
D10*
%TO.P,J6,1,Pin_1*%
%TO.N,Net-(J6-Pin_1)*%
X42000000Y-108200000D03*
D11*
%TO.P,J6,2,Pin_2*%
%TO.N,GND*%
X39460000Y-108200000D03*
%TD*%
D10*
%TO.P,J16,1,Pin_1*%
%TO.N,Net-(J16-Pin_1)*%
X84260000Y-128600000D03*
D11*
%TO.P,J16,2,Pin_2*%
%TO.N,GND*%
X86800000Y-128600000D03*
%TD*%
D10*
%TO.P,J14,1,Pin_1*%
%TO.N,Net-(J14-Pin_1)*%
X77060000Y-126000000D03*
D11*
%TO.P,J14,2,Pin_2*%
%TO.N,GND*%
X79600000Y-126000000D03*
%TD*%
D10*
%TO.P,J25,1,Pin_1*%
%TO.N,Net-(J25-Pin_1)*%
X42000000Y-82800000D03*
D11*
%TO.P,J25,2,Pin_2*%
%TO.N,GND*%
X39460000Y-82800000D03*
%TD*%
D10*
%TO.P,J35,1,Pin_1*%
%TO.N,Net-(J35-Pin_1)*%
X84325000Y-123600000D03*
D11*
%TO.P,J35,2,Pin_2*%
%TO.N,GND*%
X86865000Y-123600000D03*
%TD*%
D10*
%TO.P,J29,1,Pin_1*%
%TO.N,Net-(J29-Pin_1)*%
X42000000Y-88000000D03*
D11*
%TO.P,J29,2,Pin_2*%
%TO.N,GND*%
X39460000Y-88000000D03*
%TD*%
D10*
%TO.P,J5,1,Pin_1*%
%TO.N,Net-(J5-Pin_1)*%
X35000000Y-111000000D03*
D11*
%TO.P,J5,2,Pin_2*%
%TO.N,GND*%
X32460000Y-111000000D03*
%TD*%
D10*
%TO.P,J22,1,Pin_1*%
%TO.N,Net-(J22-Pin_1)*%
X77260000Y-100600000D03*
D11*
%TO.P,J22,2,Pin_2*%
%TO.N,GND*%
X79800000Y-100600000D03*
%TD*%
D10*
%TO.P,J36,1,Pin_1*%
%TO.N,Net-(J36-Pin_1)*%
X77260000Y-116000000D03*
D11*
%TO.P,J36,2,Pin_2*%
%TO.N,GND*%
X79800000Y-116000000D03*
%TD*%
D10*
%TO.P,J37,1,Pin_1*%
%TO.N,Net-(J37-Pin_1)*%
X77260000Y-110800000D03*
D11*
%TO.P,J37,2,Pin_2*%
%TO.N,GND*%
X79800000Y-110800000D03*
%TD*%
D12*
%TO.P,U1,1,\u03D50*%
%TO.N,Net-(J25-Pin_1)*%
X49510000Y-82850000D03*
D13*
%TO.P,U1,2,RDY*%
%TO.N,Net-(J32-Pin_1)*%
X49510000Y-85390000D03*
%TO.P,U1,3,~{IRQ}*%
%TO.N,Net-(J29-Pin_1)*%
X49510000Y-87930000D03*
%TO.P,U1,4,~{NMI}*%
%TO.N,Net-(J30-Pin_1)*%
X49510000Y-90470000D03*
%TO.P,U1,5,AEC*%
%TO.N,Net-(J28-Pin_1)*%
X49510000Y-93010000D03*
%TO.P,U1,6,VCC*%
%TO.N,Net-(D1-A)*%
X49510000Y-95550000D03*
%TO.P,U1,7,A0*%
%TO.N,Net-(J1-Pin_1)*%
X49510000Y-98090000D03*
%TO.P,U1,8,A1*%
%TO.N,Net-(J2-Pin_1)*%
X49510000Y-100630000D03*
%TO.P,U1,9,A2*%
%TO.N,Net-(J4-Pin_1)*%
X49510000Y-103170000D03*
%TO.P,U1,10,A3*%
%TO.N,Net-(J3-Pin_1)*%
X49510000Y-105710000D03*
%TO.P,U1,11,A4*%
%TO.N,Net-(J6-Pin_1)*%
X49510000Y-108250000D03*
%TO.P,U1,12,A5*%
%TO.N,Net-(J5-Pin_1)*%
X49510000Y-110790000D03*
%TO.P,U1,13,A6*%
%TO.N,Net-(J11-Pin_1)*%
X49510000Y-113330000D03*
%TO.P,U1,14,A7*%
%TO.N,Net-(J8-Pin_1)*%
X49510000Y-115870000D03*
%TO.P,U1,15,A8*%
%TO.N,Net-(J10-Pin_1)*%
X49510000Y-118410000D03*
%TO.P,U1,16,A9*%
%TO.N,Net-(J7-Pin_1)*%
X49510000Y-120950000D03*
%TO.P,U1,17,A10*%
%TO.N,Net-(J12-Pin_1)*%
X49510000Y-123490000D03*
%TO.P,U1,18,A11*%
%TO.N,Net-(J9-Pin_1)*%
X49510000Y-126030000D03*
%TO.P,U1,19,A12*%
%TO.N,Net-(J15-Pin_1)*%
X49510000Y-128570000D03*
%TO.P,U1,20,A13*%
%TO.N,Net-(J13-Pin_1)*%
X49510000Y-131110000D03*
%TO.P,U1,21,VSS*%
%TO.N,GND*%
X64750000Y-131110000D03*
%TO.P,U1,22,A14*%
%TO.N,Net-(J16-Pin_1)*%
X64750000Y-128570000D03*
%TO.P,U1,23,A15*%
%TO.N,Net-(J14-Pin_1)*%
X64750000Y-126030000D03*
%TO.P,U1,24,P5*%
%TO.N,Net-(J35-Pin_1)*%
X64750000Y-123490000D03*
%TO.P,U1,25,P4*%
%TO.N,Net-(J38-Pin_1)*%
X64750000Y-120950000D03*
%TO.P,U1,26,P3*%
%TO.N,Net-(J33-Pin_1)*%
X64750000Y-118410000D03*
%TO.P,U1,27,P2*%
%TO.N,Net-(J36-Pin_1)*%
X64750000Y-115870000D03*
%TO.P,U1,28,P1*%
%TO.N,Net-(J34-Pin_1)*%
X64750000Y-113330000D03*
%TO.P,U1,29,P0*%
%TO.N,Net-(J37-Pin_1)*%
X64750000Y-110790000D03*
%TO.P,U1,30,D7*%
%TO.N,Net-(J20-Pin_1)*%
X64750000Y-108250000D03*
%TO.P,U1,31,D6*%
%TO.N,Net-(J24-Pin_1)*%
X64750000Y-105710000D03*
%TO.P,U1,32,D5*%
%TO.N,Net-(J18-Pin_1)*%
X64750000Y-103170000D03*
%TO.P,U1,33,D4*%
%TO.N,Net-(J22-Pin_1)*%
X64750000Y-100630000D03*
%TO.P,U1,34,D3*%
%TO.N,Net-(J19-Pin_1)*%
X64750000Y-98090000D03*
%TO.P,U1,35,D2*%
%TO.N,Net-(J23-Pin_1)*%
X64750000Y-95550000D03*
%TO.P,U1,36,D1*%
%TO.N,Net-(J17-Pin_1)*%
X64750000Y-93010000D03*
%TO.P,U1,37,D0*%
%TO.N,Net-(J21-Pin_1)*%
X64750000Y-90470000D03*
%TO.P,U1,38,R/~{W}*%
%TO.N,Net-(J31-Pin_1)*%
X64750000Y-87930000D03*
%TO.P,U1,39,\u03D52*%
%TO.N,Net-(J26-Pin_1)*%
X64750000Y-85390000D03*
%TO.P,U1,40,~{RES}*%
%TO.N,Net-(J27-Pin_1)*%
X64750000Y-82850000D03*
%TD*%
D10*
%TO.P,J20,1,Pin_1*%
%TO.N,Net-(J20-Pin_1)*%
X84260000Y-108600000D03*
D11*
%TO.P,J20,2,Pin_2*%
%TO.N,GND*%
X86800000Y-108600000D03*
%TD*%
D12*
%TO.P,U2,1,\u03D50*%
%TO.N,Net-(J25-Pin_1)*%
X52075000Y-82850000D03*
D13*
%TO.P,U2,2,RDY*%
%TO.N,Net-(J32-Pin_1)*%
X52075000Y-85390000D03*
%TO.P,U2,3,~{IRQ}*%
%TO.N,Net-(J29-Pin_1)*%
X52075000Y-87930000D03*
%TO.P,U2,4,~{NMI}*%
%TO.N,Net-(J30-Pin_1)*%
X52075000Y-90470000D03*
%TO.P,U2,5,AEC*%
%TO.N,Net-(J28-Pin_1)*%
X52075000Y-93010000D03*
%TO.P,U2,6,VCC*%
%TO.N,Net-(D1-A)*%
X52075000Y-95550000D03*
%TO.P,U2,7,A0*%
%TO.N,Net-(J1-Pin_1)*%
X52075000Y-98090000D03*
%TO.P,U2,8,A1*%
%TO.N,Net-(J2-Pin_1)*%
X52075000Y-100630000D03*
%TO.P,U2,9,A2*%
%TO.N,Net-(J4-Pin_1)*%
X52075000Y-103170000D03*
%TO.P,U2,10,A3*%
%TO.N,Net-(J3-Pin_1)*%
X52075000Y-105710000D03*
%TO.P,U2,11,A4*%
%TO.N,Net-(J6-Pin_1)*%
X52075000Y-108250000D03*
%TO.P,U2,12,A5*%
%TO.N,Net-(J5-Pin_1)*%
X52075000Y-110790000D03*
%TO.P,U2,13,A6*%
%TO.N,Net-(J11-Pin_1)*%
X52075000Y-113330000D03*
%TO.P,U2,14,A7*%
%TO.N,Net-(J8-Pin_1)*%
X52075000Y-115870000D03*
%TO.P,U2,15,A8*%
%TO.N,Net-(J10-Pin_1)*%
X52075000Y-118410000D03*
%TO.P,U2,16,A9*%
%TO.N,Net-(J7-Pin_1)*%
X52075000Y-120950000D03*
%TO.P,U2,17,A10*%
%TO.N,Net-(J12-Pin_1)*%
X52075000Y-123490000D03*
%TO.P,U2,18,A11*%
%TO.N,Net-(J9-Pin_1)*%
X52075000Y-126030000D03*
%TO.P,U2,19,A12*%
%TO.N,Net-(J15-Pin_1)*%
X52075000Y-128570000D03*
%TO.P,U2,20,A13*%
%TO.N,Net-(J13-Pin_1)*%
X52075000Y-131110000D03*
%TO.P,U2,21,VSS*%
%TO.N,GND*%
X67315000Y-131110000D03*
%TO.P,U2,22,A14*%
%TO.N,Net-(J16-Pin_1)*%
X67315000Y-128570000D03*
%TO.P,U2,23,A15*%
%TO.N,Net-(J14-Pin_1)*%
X67315000Y-126030000D03*
%TO.P,U2,24,P5*%
%TO.N,Net-(J35-Pin_1)*%
X67315000Y-123490000D03*
%TO.P,U2,25,P4*%
%TO.N,Net-(J38-Pin_1)*%
X67315000Y-120950000D03*
%TO.P,U2,26,P3*%
%TO.N,Net-(J33-Pin_1)*%
X67315000Y-118410000D03*
%TO.P,U2,27,P2*%
%TO.N,Net-(J36-Pin_1)*%
X67315000Y-115870000D03*
%TO.P,U2,28,P1*%
%TO.N,Net-(J34-Pin_1)*%
X67315000Y-113330000D03*
%TO.P,U2,29,P0*%
%TO.N,Net-(J37-Pin_1)*%
X67315000Y-110790000D03*
%TO.P,U2,30,D7*%
%TO.N,Net-(J20-Pin_1)*%
X67315000Y-108250000D03*
%TO.P,U2,31,D6*%
%TO.N,Net-(J24-Pin_1)*%
X67315000Y-105710000D03*
%TO.P,U2,32,D5*%
%TO.N,Net-(J18-Pin_1)*%
X67315000Y-103170000D03*
%TO.P,U2,33,D4*%
%TO.N,Net-(J22-Pin_1)*%
X67315000Y-100630000D03*
%TO.P,U2,34,D3*%
%TO.N,Net-(J19-Pin_1)*%
X67315000Y-98090000D03*
%TO.P,U2,35,D2*%
%TO.N,Net-(J23-Pin_1)*%
X67315000Y-95550000D03*
%TO.P,U2,36,D1*%
%TO.N,Net-(J17-Pin_1)*%
X67315000Y-93010000D03*
%TO.P,U2,37,D0*%
%TO.N,Net-(J21-Pin_1)*%
X67315000Y-90470000D03*
%TO.P,U2,38,R/~{W}*%
%TO.N,Net-(J31-Pin_1)*%
X67315000Y-87930000D03*
%TO.P,U2,39,\u03D52*%
%TO.N,Net-(J26-Pin_1)*%
X67315000Y-85390000D03*
%TO.P,U2,40,~{RES}*%
%TO.N,Net-(J27-Pin_1)*%
X67315000Y-82850000D03*
%TD*%
D10*
%TO.P,J18,1,Pin_1*%
%TO.N,Net-(J18-Pin_1)*%
X84460000Y-103000000D03*
D11*
%TO.P,J18,2,Pin_2*%
%TO.N,GND*%
X87000000Y-103000000D03*
%TD*%
D10*
%TO.P,J34,1,Pin_1*%
%TO.N,Net-(J34-Pin_1)*%
X84260000Y-113400000D03*
D11*
%TO.P,J34,2,Pin_2*%
%TO.N,GND*%
X86800000Y-113400000D03*
%TD*%
D10*
%TO.P,J33,1,Pin_1*%
%TO.N,Net-(J33-Pin_1)*%
X84260000Y-118400000D03*
D11*
%TO.P,J33,2,Pin_2*%
%TO.N,GND*%
X86800000Y-118400000D03*
%TD*%
D10*
%TO.P,J31,1,Pin_1*%
%TO.N,Net-(J31-Pin_1)*%
X84400000Y-88000000D03*
D11*
%TO.P,J31,2,Pin_2*%
%TO.N,GND*%
X86940000Y-88000000D03*
%TD*%
D10*
%TO.P,J9,1,Pin_1*%
%TO.N,Net-(J9-Pin_1)*%
X35000000Y-126000000D03*
D11*
%TO.P,J9,2,Pin_2*%
%TO.N,GND*%
X32460000Y-126000000D03*
%TD*%
D10*
%TO.P,J17,1,Pin_1*%
%TO.N,Net-(J17-Pin_1)*%
X84400000Y-93000000D03*
D11*
%TO.P,J17,2,Pin_2*%
%TO.N,GND*%
X86940000Y-93000000D03*
%TD*%
D10*
%TO.P,J23,1,Pin_1*%
%TO.N,Net-(J23-Pin_1)*%
X77260000Y-95600000D03*
D11*
%TO.P,J23,2,Pin_2*%
%TO.N,GND*%
X79800000Y-95600000D03*
%TD*%
D10*
%TO.P,J8,1,Pin_1*%
%TO.N,Net-(J8-Pin_1)*%
X35000000Y-115400000D03*
D11*
%TO.P,J8,2,Pin_2*%
%TO.N,GND*%
X32460000Y-115400000D03*
%TD*%
D10*
%TO.P,J28,1,Pin_1*%
%TO.N,Net-(J28-Pin_1)*%
X42000000Y-93000000D03*
D11*
%TO.P,J28,2,Pin_2*%
%TO.N,GND*%
X39460000Y-93000000D03*
%TD*%
D14*
%TO.P,R1,1*%
%TO.N,GND*%
X49240000Y-77400000D03*
D13*
%TO.P,R1,2*%
%TO.N,Net-(D1-K)*%
X59400000Y-77400000D03*
%TD*%
D10*
%TO.P,J3,1,Pin_1*%
%TO.N,Net-(J3-Pin_1)*%
X35000000Y-105800000D03*
D11*
%TO.P,J3,2,Pin_2*%
%TO.N,GND*%
X32460000Y-105800000D03*
%TD*%
D10*
%TO.P,J27,1,Pin_1*%
%TO.N,Net-(J27-Pin_1)*%
X84400000Y-83000000D03*
D11*
%TO.P,J27,2,Pin_2*%
%TO.N,GND*%
X86940000Y-83000000D03*
%TD*%
D10*
%TO.P,J7,1,Pin_1*%
%TO.N,Net-(J7-Pin_1)*%
X35000000Y-121000000D03*
D11*
%TO.P,J7,2,Pin_2*%
%TO.N,GND*%
X32460000Y-121000000D03*
%TD*%
D10*
%TO.P,J1,1,Pin_1*%
%TO.N,Net-(J1-Pin_1)*%
X42000000Y-98000000D03*
D11*
%TO.P,J1,2,Pin_2*%
%TO.N,GND*%
X39460000Y-98000000D03*
%TD*%
D10*
%TO.P,J12,1,Pin_1*%
%TO.N,Net-(J12-Pin_1)*%
X41540000Y-123400000D03*
D11*
%TO.P,J12,2,Pin_2*%
%TO.N,GND*%
X39000000Y-123400000D03*
%TD*%
D10*
%TO.P,J19,1,Pin_1*%
%TO.N,Net-(J19-Pin_1)*%
X84400000Y-98000000D03*
D11*
%TO.P,J19,2,Pin_2*%
%TO.N,GND*%
X86940000Y-98000000D03*
%TD*%
D15*
%TO.P,D1,1,K*%
%TO.N,Net-(D1-K)*%
X62280000Y-77400000D03*
D16*
%TO.P,D1,2,A*%
%TO.N,Net-(D1-A)*%
X64820000Y-77400000D03*
%TD*%
D10*
%TO.P,J4,1,Pin_1*%
%TO.N,Net-(J4-Pin_1)*%
X42000000Y-103200000D03*
D11*
%TO.P,J4,2,Pin_2*%
%TO.N,GND*%
X39460000Y-103200000D03*
%TD*%
D10*
%TO.P,J11,1,Pin_1*%
%TO.N,Net-(J11-Pin_1)*%
X41540000Y-113400000D03*
D11*
%TO.P,J11,2,Pin_2*%
%TO.N,GND*%
X39000000Y-113400000D03*
%TD*%
D10*
%TO.P,J15,1,Pin_1*%
%TO.N,Net-(J15-Pin_1)*%
X41600000Y-128600000D03*
D11*
%TO.P,J15,2,Pin_2*%
%TO.N,GND*%
X39060000Y-128600000D03*
%TD*%
D10*
%TO.P,J10,1,Pin_1*%
%TO.N,Net-(J10-Pin_1)*%
X41540000Y-118400000D03*
D11*
%TO.P,J10,2,Pin_2*%
%TO.N,GND*%
X39000000Y-118400000D03*
%TD*%
D10*
%TO.P,J24,1,Pin_1*%
%TO.N,Net-(J24-Pin_1)*%
X77460000Y-105600000D03*
D11*
%TO.P,J24,2,Pin_2*%
%TO.N,GND*%
X80000000Y-105600000D03*
%TD*%
D10*
%TO.P,J32,1,Pin_1*%
%TO.N,Net-(J32-Pin_1)*%
X35000000Y-85400000D03*
D11*
%TO.P,J32,2,Pin_2*%
%TO.N,GND*%
X32460000Y-85400000D03*
%TD*%
D10*
%TO.P,J13,1,Pin_1*%
%TO.N,Net-(J13-Pin_1)*%
X34940000Y-131000000D03*
D11*
%TO.P,J13,2,Pin_2*%
%TO.N,GND*%
X32400000Y-131000000D03*
%TD*%
D10*
%TO.P,J2,1,Pin_1*%
%TO.N,Net-(J2-Pin_1)*%
X35600000Y-100600000D03*
D11*
%TO.P,J2,2,Pin_2*%
%TO.N,GND*%
X33060000Y-100600000D03*
%TD*%
D10*
%TO.P,J21,1,Pin_1*%
%TO.N,Net-(J21-Pin_1)*%
X77260000Y-90600000D03*
D11*
%TO.P,J21,2,Pin_2*%
%TO.N,GND*%
X79800000Y-90600000D03*
%TD*%
D10*
%TO.P,J26,1,Pin_1*%
%TO.N,Net-(J26-Pin_1)*%
X77260000Y-85400000D03*
D11*
%TO.P,J26,2,Pin_2*%
%TO.N,GND*%
X79800000Y-85400000D03*
%TD*%
D10*
%TO.P,J30,1,Pin_1*%
%TO.N,Net-(J30-Pin_1)*%
X35000000Y-90600000D03*
D11*
%TO.P,J30,2,Pin_2*%
%TO.N,GND*%
X32460000Y-90600000D03*
%TD*%
D10*
%TO.P,J38,1,Pin_1*%
%TO.N,Net-(J38-Pin_1)*%
X77060000Y-121000000D03*
D11*
%TO.P,J38,2,Pin_2*%
%TO.N,GND*%
X79600000Y-121000000D03*
%TD*%
D17*
%TO.N,GND*%
X90000000Y-77500000D03*
X75000000Y-135000000D03*
X90000000Y-90000000D03*
X60000000Y-135000000D03*
X90000000Y-102500000D03*
X75000000Y-75000000D03*
X90000000Y-110000000D03*
X62500000Y-135000000D03*
X90000000Y-130000000D03*
X30000000Y-87500000D03*
X65000000Y-135000000D03*
X30000000Y-97500000D03*
X67500000Y-135000000D03*
X90000000Y-92500000D03*
X90000000Y-97500000D03*
X67500000Y-75000000D03*
X60000000Y-75000000D03*
X32500000Y-75000000D03*
X55000000Y-75000000D03*
X90000000Y-125000000D03*
X90000000Y-120000000D03*
X30000000Y-122500000D03*
X90000000Y-127500000D03*
X62500000Y-75000000D03*
X30000000Y-117500000D03*
X90000000Y-112500000D03*
X90000000Y-75000000D03*
X30000000Y-100000000D03*
X32500000Y-135000000D03*
X40000000Y-75000000D03*
X52500000Y-75000000D03*
X30000000Y-120000000D03*
X30000000Y-132500000D03*
X52500000Y-135000000D03*
X30000000Y-107500000D03*
X77500000Y-135000000D03*
X30000000Y-90000000D03*
X50000000Y-135000000D03*
X30000000Y-102500000D03*
X80000000Y-75000000D03*
X47500000Y-75000000D03*
X30000000Y-80000000D03*
X30000000Y-130000000D03*
X35000000Y-75000000D03*
X42500000Y-75000000D03*
X30000000Y-95000000D03*
X37500000Y-135000000D03*
X50000000Y-75000000D03*
X90000000Y-85000000D03*
X30000000Y-115000000D03*
X70000000Y-75000000D03*
X57500000Y-135000000D03*
X30000000Y-112500000D03*
X45000000Y-75000000D03*
X30000000Y-75000000D03*
X45000000Y-135000000D03*
X30000000Y-127500000D03*
X30000000Y-92500000D03*
X30000000Y-135000000D03*
X30000000Y-77500000D03*
X72500000Y-135000000D03*
X90000000Y-122500000D03*
X90000000Y-132500000D03*
X77500000Y-75000000D03*
X85000000Y-135000000D03*
X47500000Y-135000000D03*
X57500000Y-75000000D03*
X90000000Y-135000000D03*
X30000000Y-82500000D03*
X40000000Y-135000000D03*
X90000000Y-105000000D03*
X55000000Y-135000000D03*
X90000000Y-117500000D03*
X85000000Y-75000000D03*
X30000000Y-105000000D03*
X30000000Y-110000000D03*
X70000000Y-135000000D03*
X82500000Y-75000000D03*
X42500000Y-135000000D03*
X35000000Y-135000000D03*
X90000000Y-100000000D03*
X82500000Y-135000000D03*
X90000000Y-82500000D03*
X72500000Y-75000000D03*
X90000000Y-107500000D03*
X87500000Y-135000000D03*
X90000000Y-80000000D03*
X80000000Y-135000000D03*
X30000000Y-125000000D03*
X37500000Y-75000000D03*
X90000000Y-87500000D03*
X87500000Y-75000000D03*
X65000000Y-75000000D03*
X90000000Y-115000000D03*
X30000000Y-85000000D03*
X90000000Y-95000000D03*
%TD*%
%TA.AperFunction,Conductor*%
%TO.N,GND*%
G36*
X91937500Y-73017113D02*
G01*
X91982887Y-73062500D01*
X91999500Y-73124500D01*
X91999500Y-136875500D01*
X91982887Y-136937500D01*
X91937500Y-136982887D01*
X91875500Y-136999500D01*
X28124500Y-136999500D01*
X28062500Y-136982887D01*
X28017113Y-136937500D01*
X28000500Y-136875500D01*
X28000500Y-131125000D01*
X31306870Y-131125000D01*
X31314096Y-131202992D01*
X31369885Y-131399068D01*
X31460751Y-131581553D01*
X31583607Y-131744241D01*
X31734259Y-131881578D01*
X31907588Y-131988899D01*
X32097679Y-132062540D01*
X32275000Y-132095687D01*
X32275000Y-131125000D01*
X32525000Y-131125000D01*
X32525000Y-132095687D01*
X32702320Y-132062540D01*
X32892411Y-131988899D01*
X33065740Y-131881578D01*
X33073312Y-131874675D01*
X33839500Y-131874675D01*
X33854033Y-131947738D01*
X33854033Y-131947739D01*
X33854034Y-131947740D01*
X33909399Y-132030601D01*
X33992260Y-132085966D01*
X34028793Y-132093233D01*
X34065325Y-132100500D01*
X34065326Y-132100500D01*
X35814674Y-132100500D01*
X35814675Y-132100500D01*
X35839029Y-132095655D01*
X35887740Y-132085966D01*
X35970601Y-132030601D01*
X36025966Y-131947740D01*
X36040500Y-131874674D01*
X36040500Y-131109999D01*
X48454417Y-131109999D01*
X48474699Y-131315932D01*
X48474700Y-131315934D01*
X48534768Y-131513954D01*
X48632315Y-131696450D01*
X48671536Y-131744241D01*
X48763589Y-131856410D01*
X48794257Y-131881578D01*
X48923550Y-131987685D01*
X49106046Y-132085232D01*
X49304066Y-132145300D01*
X49510000Y-132165583D01*
X49715934Y-132145300D01*
X49913954Y-132085232D01*
X50096450Y-131987685D01*
X50256410Y-131856410D01*
X50387685Y-131696450D01*
X50485232Y-131513954D01*
X50545300Y-131315934D01*
X50565583Y-131110000D01*
X50565583Y-131109999D01*
X51019417Y-131109999D01*
X51039699Y-131315932D01*
X51039700Y-131315934D01*
X51099768Y-131513954D01*
X51197315Y-131696450D01*
X51236536Y-131744241D01*
X51328589Y-131856410D01*
X51359257Y-131881578D01*
X51488550Y-131987685D01*
X51671046Y-132085232D01*
X51869066Y-132145300D01*
X52075000Y-132165583D01*
X52280934Y-132145300D01*
X52478954Y-132085232D01*
X52661450Y-131987685D01*
X52821410Y-131856410D01*
X52952685Y-131696450D01*
X53050232Y-131513954D01*
X53110300Y-131315934D01*
X53118271Y-131235000D01*
X63707230Y-131235000D01*
X63715191Y-131315834D01*
X63775233Y-131513764D01*
X63872731Y-131696171D01*
X64003945Y-131856054D01*
X64163828Y-131987268D01*
X64346235Y-132084766D01*
X64544165Y-132144808D01*
X64625000Y-132152770D01*
X64625000Y-131235000D01*
X64875000Y-131235000D01*
X64875000Y-132152770D01*
X64955834Y-132144808D01*
X65153764Y-132084766D01*
X65336171Y-131987268D01*
X65496054Y-131856054D01*
X65627268Y-131696171D01*
X65724766Y-131513764D01*
X65784808Y-131315834D01*
X65792770Y-131235000D01*
X66272230Y-131235000D01*
X66280191Y-131315834D01*
X66340233Y-131513764D01*
X66437731Y-131696171D01*
X66568945Y-131856054D01*
X66728828Y-131987268D01*
X66911235Y-132084766D01*
X67109165Y-132144808D01*
X67190000Y-132152770D01*
X67190000Y-131235000D01*
X67440000Y-131235000D01*
X67440000Y-132152770D01*
X67520834Y-132144808D01*
X67718764Y-132084766D01*
X67901171Y-131987268D01*
X68061054Y-131856054D01*
X68192268Y-131696171D01*
X68289766Y-131513764D01*
X68349808Y-131315834D01*
X68357770Y-131235000D01*
X67440000Y-131235000D01*
X67190000Y-131235000D01*
X66272230Y-131235000D01*
X65792770Y-131235000D01*
X64875000Y-131235000D01*
X64625000Y-131235000D01*
X63707230Y-131235000D01*
X53118271Y-131235000D01*
X53130583Y-131110000D01*
X53118271Y-130985000D01*
X63707229Y-130985000D01*
X64625000Y-130985000D01*
X64625000Y-130067229D01*
X64874999Y-130067229D01*
X64875000Y-130067230D01*
X64875000Y-130985000D01*
X65792770Y-130985000D01*
X66272229Y-130985000D01*
X67190000Y-130985000D01*
X67190000Y-130067229D01*
X67439999Y-130067229D01*
X67440000Y-130067230D01*
X67440000Y-130985000D01*
X68357770Y-130985000D01*
X68349808Y-130904165D01*
X68289766Y-130706235D01*
X68192268Y-130523828D01*
X68061054Y-130363945D01*
X67901171Y-130232731D01*
X67718764Y-130135233D01*
X67520834Y-130075191D01*
X67439999Y-130067229D01*
X67190000Y-130067229D01*
X67109165Y-130075191D01*
X66911235Y-130135233D01*
X66728828Y-130232731D01*
X66568945Y-130363945D01*
X66437731Y-130523828D01*
X66340233Y-130706235D01*
X66280191Y-130904165D01*
X66272229Y-130985000D01*
X65792770Y-130985000D01*
X65784808Y-130904165D01*
X65724766Y-130706235D01*
X65627268Y-130523828D01*
X65496054Y-130363945D01*
X65336171Y-130232731D01*
X65153764Y-130135233D01*
X64955834Y-130075191D01*
X64874999Y-130067229D01*
X64625000Y-130067229D01*
X64544165Y-130075191D01*
X64346235Y-130135233D01*
X64163828Y-130232731D01*
X64003945Y-130363945D01*
X63872731Y-130523828D01*
X63775233Y-130706235D01*
X63715191Y-130904165D01*
X63707229Y-130985000D01*
X53118271Y-130985000D01*
X53110300Y-130904066D01*
X53050232Y-130706046D01*
X52952685Y-130523550D01*
X52866429Y-130418446D01*
X52821410Y-130363589D01*
X52723952Y-130283609D01*
X52661450Y-130232315D01*
X52478954Y-130134768D01*
X52379943Y-130104733D01*
X52280932Y-130074699D01*
X52075000Y-130054417D01*
X51869067Y-130074699D01*
X51671043Y-130134769D01*
X51488551Y-130232314D01*
X51328589Y-130363589D01*
X51197314Y-130523551D01*
X51099769Y-130706043D01*
X51039699Y-130904067D01*
X51019417Y-131109999D01*
X50565583Y-131109999D01*
X50545300Y-130904066D01*
X50485232Y-130706046D01*
X50387685Y-130523550D01*
X50301429Y-130418446D01*
X50256410Y-130363589D01*
X50158952Y-130283609D01*
X50096450Y-130232315D01*
X49913954Y-130134768D01*
X49814943Y-130104733D01*
X49715932Y-130074699D01*
X49510000Y-130054417D01*
X49304067Y-130074699D01*
X49106043Y-130134769D01*
X48923551Y-130232314D01*
X48763589Y-130363589D01*
X48632314Y-130523551D01*
X48534769Y-130706043D01*
X48474699Y-130904067D01*
X48454417Y-131109999D01*
X36040500Y-131109999D01*
X36040500Y-130125326D01*
X36039126Y-130118421D01*
X36028944Y-130067230D01*
X36025966Y-130052260D01*
X35970601Y-129969399D01*
X35887740Y-129914034D01*
X35887739Y-129914033D01*
X35887738Y-129914033D01*
X35814675Y-129899500D01*
X35814674Y-129899500D01*
X34065326Y-129899500D01*
X34065325Y-129899500D01*
X33992261Y-129914033D01*
X33909399Y-129969399D01*
X33854033Y-130052261D01*
X33839500Y-130125325D01*
X33839500Y-131874675D01*
X33073312Y-131874675D01*
X33216392Y-131744241D01*
X33339248Y-131581553D01*
X33430114Y-131399068D01*
X33485903Y-131202992D01*
X33493130Y-131125000D01*
X32525000Y-131125000D01*
X32275000Y-131125000D01*
X31306870Y-131125000D01*
X28000500Y-131125000D01*
X28000500Y-130874999D01*
X31306869Y-130874999D01*
X31306870Y-130875000D01*
X32275000Y-130875000D01*
X32275000Y-129904312D01*
X32524999Y-129904312D01*
X32525000Y-129904313D01*
X32525000Y-130875000D01*
X33493130Y-130875000D01*
X33493130Y-130874999D01*
X33485903Y-130797007D01*
X33430114Y-130600931D01*
X33339248Y-130418446D01*
X33216392Y-130255758D01*
X33065740Y-130118421D01*
X32892411Y-130011100D01*
X32702320Y-129937459D01*
X32524999Y-129904312D01*
X32275000Y-129904312D01*
X32097679Y-129937459D01*
X31907588Y-130011100D01*
X31734259Y-130118421D01*
X31583607Y-130255758D01*
X31460751Y-130418446D01*
X31369885Y-130600931D01*
X31314096Y-130797007D01*
X31306869Y-130874999D01*
X28000500Y-130874999D01*
X28000500Y-128725000D01*
X37966870Y-128725000D01*
X37974096Y-128802992D01*
X38029885Y-128999068D01*
X38120751Y-129181553D01*
X38243607Y-129344241D01*
X38394259Y-129481578D01*
X38567588Y-129588899D01*
X38757679Y-129662540D01*
X38935000Y-129695687D01*
X38935000Y-128725000D01*
X39185000Y-128725000D01*
X39185000Y-129695687D01*
X39362320Y-129662540D01*
X39552411Y-129588899D01*
X39725740Y-129481578D01*
X39733312Y-129474675D01*
X40499500Y-129474675D01*
X40514033Y-129547738D01*
X40514033Y-129547739D01*
X40514034Y-129547740D01*
X40569399Y-129630601D01*
X40652260Y-129685966D01*
X40688792Y-129693232D01*
X40725325Y-129700500D01*
X40725326Y-129700500D01*
X42474674Y-129700500D01*
X42474675Y-129700500D01*
X42499029Y-129695655D01*
X42547740Y-129685966D01*
X42630601Y-129630601D01*
X42685966Y-129547740D01*
X42700500Y-129474674D01*
X42700500Y-128570000D01*
X48454417Y-128570000D01*
X48474699Y-128775932D01*
X48474700Y-128775934D01*
X48534768Y-128973954D01*
X48632315Y-129156450D01*
X48683609Y-129218952D01*
X48763589Y-129316410D01*
X48797502Y-129344241D01*
X48923550Y-129447685D01*
X49106046Y-129545232D01*
X49304066Y-129605300D01*
X49510000Y-129625583D01*
X49715934Y-129605300D01*
X49913954Y-129545232D01*
X50096450Y-129447685D01*
X50256410Y-129316410D01*
X50387685Y-129156450D01*
X50485232Y-128973954D01*
X50545300Y-128775934D01*
X50565583Y-128570000D01*
X51019417Y-128570000D01*
X51039699Y-128775932D01*
X51039700Y-128775934D01*
X51099768Y-128973954D01*
X51197315Y-129156450D01*
X51248609Y-129218952D01*
X51328589Y-129316410D01*
X51362502Y-129344241D01*
X51488550Y-129447685D01*
X51671046Y-129545232D01*
X51869066Y-129605300D01*
X52075000Y-129625583D01*
X52280934Y-129605300D01*
X52478954Y-129545232D01*
X52661450Y-129447685D01*
X52821410Y-129316410D01*
X52952685Y-129156450D01*
X53050232Y-128973954D01*
X53110300Y-128775934D01*
X53130583Y-128570000D01*
X63694417Y-128570000D01*
X63714699Y-128775932D01*
X63714700Y-128775934D01*
X63774768Y-128973954D01*
X63872315Y-129156450D01*
X63923609Y-129218952D01*
X64003589Y-129316410D01*
X64037502Y-129344241D01*
X64163550Y-129447685D01*
X64346046Y-129545232D01*
X64544066Y-129605300D01*
X64750000Y-129625583D01*
X64955934Y-129605300D01*
X65153954Y-129545232D01*
X65336450Y-129447685D01*
X65496410Y-129316410D01*
X65627685Y-129156450D01*
X65725232Y-128973954D01*
X65785300Y-128775934D01*
X65805583Y-128570000D01*
X66259417Y-128570000D01*
X66279699Y-128775932D01*
X66279700Y-128775934D01*
X66339768Y-128973954D01*
X66437315Y-129156450D01*
X66488609Y-129218952D01*
X66568589Y-129316410D01*
X66602502Y-129344241D01*
X66728550Y-129447685D01*
X66911046Y-129545232D01*
X67109066Y-129605300D01*
X67315000Y-129625583D01*
X67520934Y-129605300D01*
X67718954Y-129545232D01*
X67850956Y-129474675D01*
X83159500Y-129474675D01*
X83174033Y-129547738D01*
X83174033Y-129547739D01*
X83174034Y-129547740D01*
X83229399Y-129630601D01*
X83312260Y-129685966D01*
X83348792Y-129693232D01*
X83385325Y-129700500D01*
X83385326Y-129700500D01*
X85134674Y-129700500D01*
X85134675Y-129700500D01*
X85159029Y-129695655D01*
X85207740Y-129685966D01*
X85290601Y-129630601D01*
X85345966Y-129547740D01*
X85360500Y-129474674D01*
X85360500Y-128725000D01*
X85706870Y-128725000D01*
X85714096Y-128802992D01*
X85769885Y-128999068D01*
X85860751Y-129181553D01*
X85983607Y-129344241D01*
X86134259Y-129481578D01*
X86307588Y-129588899D01*
X86497679Y-129662540D01*
X86675000Y-129695687D01*
X86675000Y-128725000D01*
X86925000Y-128725000D01*
X86925000Y-129695687D01*
X87102320Y-129662540D01*
X87292411Y-129588899D01*
X87465740Y-129481578D01*
X87616392Y-129344241D01*
X87739248Y-129181553D01*
X87830114Y-128999068D01*
X87885903Y-128802992D01*
X87893130Y-128725000D01*
X86925000Y-128725000D01*
X86675000Y-128725000D01*
X85706870Y-128725000D01*
X85360500Y-128725000D01*
X85360500Y-128474999D01*
X85706869Y-128474999D01*
X85706870Y-128475000D01*
X86675000Y-128475000D01*
X86675000Y-127504313D01*
X86925000Y-127504313D01*
X86925000Y-128475000D01*
X87893130Y-128475000D01*
X87893130Y-128474999D01*
X87885903Y-128397007D01*
X87830114Y-128200931D01*
X87739248Y-128018446D01*
X87616392Y-127855758D01*
X87465740Y-127718421D01*
X87292411Y-127611100D01*
X87102320Y-127537459D01*
X86925000Y-127504313D01*
X86675000Y-127504313D01*
X86675000Y-127504312D01*
X86497679Y-127537459D01*
X86307588Y-127611100D01*
X86134259Y-127718421D01*
X85983607Y-127855758D01*
X85860751Y-128018446D01*
X85769885Y-128200931D01*
X85714096Y-128397007D01*
X85706869Y-128474999D01*
X85360500Y-128474999D01*
X85360500Y-127725326D01*
X85359126Y-127718421D01*
X85345966Y-127652261D01*
X85345966Y-127652260D01*
X85290601Y-127569399D01*
X85207740Y-127514034D01*
X85207739Y-127514033D01*
X85207738Y-127514033D01*
X85134675Y-127499500D01*
X85134674Y-127499500D01*
X83385326Y-127499500D01*
X83385325Y-127499500D01*
X83312261Y-127514033D01*
X83229399Y-127569399D01*
X83174033Y-127652261D01*
X83159500Y-127725325D01*
X83159500Y-129474675D01*
X67850956Y-129474675D01*
X67901450Y-129447685D01*
X68061410Y-129316410D01*
X68192685Y-129156450D01*
X68290232Y-128973954D01*
X68350300Y-128775934D01*
X68370583Y-128570000D01*
X68350300Y-128364066D01*
X68290232Y-128166046D01*
X68192685Y-127983550D01*
X68127047Y-127903569D01*
X68061410Y-127823589D01*
X67933260Y-127718421D01*
X67901450Y-127692315D01*
X67718954Y-127594768D01*
X67619943Y-127564733D01*
X67520932Y-127534699D01*
X67315000Y-127514417D01*
X67109067Y-127534699D01*
X66911043Y-127594769D01*
X66728551Y-127692314D01*
X66568589Y-127823589D01*
X66437314Y-127983551D01*
X66339769Y-128166043D01*
X66279699Y-128364067D01*
X66259417Y-128570000D01*
X65805583Y-128570000D01*
X65785300Y-128364066D01*
X65725232Y-128166046D01*
X65627685Y-127983550D01*
X65562047Y-127903569D01*
X65496410Y-127823589D01*
X65368260Y-127718421D01*
X65336450Y-127692315D01*
X65153954Y-127594768D01*
X65054943Y-127564733D01*
X64955932Y-127534699D01*
X64750000Y-127514417D01*
X64544067Y-127534699D01*
X64346043Y-127594769D01*
X64163551Y-127692314D01*
X64003589Y-127823589D01*
X63872314Y-127983551D01*
X63774769Y-128166043D01*
X63714699Y-128364067D01*
X63694417Y-128570000D01*
X53130583Y-128570000D01*
X53110300Y-128364066D01*
X53050232Y-128166046D01*
X52952685Y-127983550D01*
X52887047Y-127903569D01*
X52821410Y-127823589D01*
X52693260Y-127718421D01*
X52661450Y-127692315D01*
X52478954Y-127594768D01*
X52379943Y-127564733D01*
X52280932Y-127534699D01*
X52075000Y-127514417D01*
X51869067Y-127534699D01*
X51671043Y-127594769D01*
X51488551Y-127692314D01*
X51328589Y-127823589D01*
X51197314Y-127983551D01*
X51099769Y-128166043D01*
X51039699Y-128364067D01*
X51019417Y-128570000D01*
X50565583Y-128570000D01*
X50545300Y-128364066D01*
X50485232Y-128166046D01*
X50387685Y-127983550D01*
X50322047Y-127903569D01*
X50256410Y-127823589D01*
X50128260Y-127718421D01*
X50096450Y-127692315D01*
X49913954Y-127594768D01*
X49814943Y-127564733D01*
X49715932Y-127534699D01*
X49510000Y-127514417D01*
X49304067Y-127534699D01*
X49106043Y-127594769D01*
X48923551Y-127692314D01*
X48763589Y-127823589D01*
X48632314Y-127983551D01*
X48534769Y-128166043D01*
X48474699Y-128364067D01*
X48454417Y-128570000D01*
X42700500Y-128570000D01*
X42700500Y-127725326D01*
X42699126Y-127718421D01*
X42685966Y-127652261D01*
X42685966Y-127652260D01*
X42630601Y-127569399D01*
X42547740Y-127514034D01*
X42547739Y-127514033D01*
X42547738Y-127514033D01*
X42474675Y-127499500D01*
X42474674Y-127499500D01*
X40725326Y-127499500D01*
X40725325Y-127499500D01*
X40652261Y-127514033D01*
X40569399Y-127569399D01*
X40514033Y-127652261D01*
X40499500Y-127725325D01*
X40499500Y-129474675D01*
X39733312Y-129474675D01*
X39876392Y-129344241D01*
X39999248Y-129181553D01*
X40090114Y-128999068D01*
X40145903Y-128802992D01*
X40153130Y-128725000D01*
X39185000Y-128725000D01*
X38935000Y-128725000D01*
X37966870Y-128725000D01*
X28000500Y-128725000D01*
X28000500Y-128474999D01*
X37966869Y-128474999D01*
X37966870Y-128475000D01*
X38935000Y-128475000D01*
X38935000Y-127504312D01*
X39184999Y-127504312D01*
X39185000Y-127504313D01*
X39185000Y-128475000D01*
X40153130Y-128475000D01*
X40153130Y-128474999D01*
X40145903Y-128397007D01*
X40090114Y-128200931D01*
X39999248Y-128018446D01*
X39876392Y-127855758D01*
X39725740Y-127718421D01*
X39552411Y-127611100D01*
X39362320Y-127537459D01*
X39184999Y-127504312D01*
X38935000Y-127504312D01*
X38757679Y-127537459D01*
X38567588Y-127611100D01*
X38394259Y-127718421D01*
X38243607Y-127855758D01*
X38120751Y-128018446D01*
X38029885Y-128200931D01*
X37974096Y-128397007D01*
X37966869Y-128474999D01*
X28000500Y-128474999D01*
X28000500Y-126125000D01*
X31366870Y-126125000D01*
X31374096Y-126202992D01*
X31429885Y-126399068D01*
X31520751Y-126581553D01*
X31643607Y-126744241D01*
X31794259Y-126881578D01*
X31967588Y-126988899D01*
X32157679Y-127062540D01*
X32335000Y-127095687D01*
X32335000Y-126125000D01*
X32585000Y-126125000D01*
X32585000Y-127095687D01*
X32762320Y-127062540D01*
X32952411Y-126988899D01*
X33125740Y-126881578D01*
X33133312Y-126874675D01*
X33899500Y-126874675D01*
X33914033Y-126947738D01*
X33914033Y-126947739D01*
X33914034Y-126947740D01*
X33969399Y-127030601D01*
X34052260Y-127085966D01*
X34088792Y-127093232D01*
X34125325Y-127100500D01*
X34125326Y-127100500D01*
X35874674Y-127100500D01*
X35874675Y-127100500D01*
X35899029Y-127095655D01*
X35947740Y-127085966D01*
X36030601Y-127030601D01*
X36085966Y-126947740D01*
X36100500Y-126874674D01*
X36100500Y-126029999D01*
X48454417Y-126029999D01*
X48474699Y-126235932D01*
X48474700Y-126235934D01*
X48534768Y-126433954D01*
X48632315Y-126616450D01*
X48683609Y-126678952D01*
X48763589Y-126776410D01*
X48843570Y-126842047D01*
X48923550Y-126907685D01*
X49106046Y-127005232D01*
X49304066Y-127065300D01*
X49510000Y-127085583D01*
X49715934Y-127065300D01*
X49913954Y-127005232D01*
X50096450Y-126907685D01*
X50256410Y-126776410D01*
X50387685Y-126616450D01*
X50485232Y-126433954D01*
X50545300Y-126235934D01*
X50565583Y-126030000D01*
X50565583Y-126029999D01*
X51019417Y-126029999D01*
X51039699Y-126235932D01*
X51039700Y-126235934D01*
X51099768Y-126433954D01*
X51197315Y-126616450D01*
X51248609Y-126678952D01*
X51328589Y-126776410D01*
X51408570Y-126842047D01*
X51488550Y-126907685D01*
X51671046Y-127005232D01*
X51869066Y-127065300D01*
X52075000Y-127085583D01*
X52280934Y-127065300D01*
X52478954Y-127005232D01*
X52661450Y-126907685D01*
X52821410Y-126776410D01*
X52952685Y-126616450D01*
X53050232Y-126433954D01*
X53110300Y-126235934D01*
X53130583Y-126030000D01*
X53130583Y-126029999D01*
X63694417Y-126029999D01*
X63714699Y-126235932D01*
X63714700Y-126235934D01*
X63774768Y-126433954D01*
X63872315Y-126616450D01*
X63923609Y-126678952D01*
X64003589Y-126776410D01*
X64083570Y-126842047D01*
X64163550Y-126907685D01*
X64346046Y-127005232D01*
X64544066Y-127065300D01*
X64750000Y-127085583D01*
X64955934Y-127065300D01*
X65153954Y-127005232D01*
X65336450Y-126907685D01*
X65496410Y-126776410D01*
X65627685Y-126616450D01*
X65725232Y-126433954D01*
X65785300Y-126235934D01*
X65805583Y-126030000D01*
X65805583Y-126029999D01*
X66259417Y-126029999D01*
X66279699Y-126235932D01*
X66279700Y-126235934D01*
X66339768Y-126433954D01*
X66437315Y-126616450D01*
X66488609Y-126678952D01*
X66568589Y-126776410D01*
X66648570Y-126842047D01*
X66728550Y-126907685D01*
X66911046Y-127005232D01*
X67109066Y-127065300D01*
X67315000Y-127085583D01*
X67520934Y-127065300D01*
X67718954Y-127005232D01*
X67901450Y-126907685D01*
X67941673Y-126874675D01*
X75959500Y-126874675D01*
X75974033Y-126947738D01*
X75974033Y-126947739D01*
X75974034Y-126947740D01*
X76029399Y-127030601D01*
X76112260Y-127085966D01*
X76148792Y-127093232D01*
X76185325Y-127100500D01*
X76185326Y-127100500D01*
X77934674Y-127100500D01*
X77934675Y-127100500D01*
X77959029Y-127095655D01*
X78007740Y-127085966D01*
X78090601Y-127030601D01*
X78145966Y-126947740D01*
X78160500Y-126874674D01*
X78160500Y-126125000D01*
X78506870Y-126125000D01*
X78514096Y-126202992D01*
X78569885Y-126399068D01*
X78660751Y-126581553D01*
X78783607Y-126744241D01*
X78934259Y-126881578D01*
X79107588Y-126988899D01*
X79297679Y-127062540D01*
X79475000Y-127095687D01*
X79475000Y-126125000D01*
X79725000Y-126125000D01*
X79725000Y-127095687D01*
X79902320Y-127062540D01*
X80092411Y-126988899D01*
X80265740Y-126881578D01*
X80416392Y-126744241D01*
X80539248Y-126581553D01*
X80630114Y-126399068D01*
X80685903Y-126202992D01*
X80693130Y-126125000D01*
X79725000Y-126125000D01*
X79475000Y-126125000D01*
X78506870Y-126125000D01*
X78160500Y-126125000D01*
X78160500Y-125874999D01*
X78506869Y-125874999D01*
X78506870Y-125875000D01*
X79475000Y-125875000D01*
X79475000Y-124904312D01*
X79724999Y-124904312D01*
X79725000Y-124904313D01*
X79725000Y-125875000D01*
X80693130Y-125875000D01*
X80693130Y-125874999D01*
X80685903Y-125797007D01*
X80630114Y-125600931D01*
X80539248Y-125418446D01*
X80416392Y-125255758D01*
X80265740Y-125118421D01*
X80092411Y-125011100D01*
X79902320Y-124937459D01*
X79724999Y-124904312D01*
X79475000Y-124904312D01*
X79297679Y-124937459D01*
X79107588Y-125011100D01*
X78934259Y-125118421D01*
X78783607Y-125255758D01*
X78660751Y-125418446D01*
X78569885Y-125600931D01*
X78514096Y-125797007D01*
X78506869Y-125874999D01*
X78160500Y-125874999D01*
X78160500Y-125125326D01*
X78159126Y-125118421D01*
X78145966Y-125052261D01*
X78145966Y-125052260D01*
X78090601Y-124969399D01*
X78007740Y-124914034D01*
X78007739Y-124914033D01*
X78007738Y-124914033D01*
X77934675Y-124899500D01*
X77934674Y-124899500D01*
X76185326Y-124899500D01*
X76185325Y-124899500D01*
X76112261Y-124914033D01*
X76029399Y-124969399D01*
X75974033Y-125052261D01*
X75959500Y-125125325D01*
X75959500Y-126874675D01*
X67941673Y-126874675D01*
X68061410Y-126776410D01*
X68192685Y-126616450D01*
X68290232Y-126433954D01*
X68350300Y-126235934D01*
X68370583Y-126030000D01*
X68350300Y-125824066D01*
X68290232Y-125626046D01*
X68192685Y-125443550D01*
X68127047Y-125363570D01*
X68061410Y-125283589D01*
X67963952Y-125203608D01*
X67901450Y-125152315D01*
X67718954Y-125054768D01*
X67619943Y-125024733D01*
X67520932Y-124994699D01*
X67315000Y-124974417D01*
X67109067Y-124994699D01*
X66911043Y-125054769D01*
X66728551Y-125152314D01*
X66568589Y-125283589D01*
X66437314Y-125443551D01*
X66339769Y-125626043D01*
X66279699Y-125824067D01*
X66259417Y-126029999D01*
X65805583Y-126029999D01*
X65785300Y-125824066D01*
X65725232Y-125626046D01*
X65627685Y-125443550D01*
X65562047Y-125363570D01*
X65496410Y-125283589D01*
X65398952Y-125203608D01*
X65336450Y-125152315D01*
X65153954Y-125054768D01*
X65054943Y-125024733D01*
X64955932Y-124994699D01*
X64750000Y-124974417D01*
X64544067Y-124994699D01*
X64346043Y-125054769D01*
X64163551Y-125152314D01*
X64003589Y-125283589D01*
X63872314Y-125443551D01*
X63774769Y-125626043D01*
X63714699Y-125824067D01*
X63694417Y-126029999D01*
X53130583Y-126029999D01*
X53110300Y-125824066D01*
X53050232Y-125626046D01*
X52952685Y-125443550D01*
X52887047Y-125363570D01*
X52821410Y-125283589D01*
X52723952Y-125203608D01*
X52661450Y-125152315D01*
X52478954Y-125054768D01*
X52379943Y-125024733D01*
X52280932Y-124994699D01*
X52075000Y-124974417D01*
X51869067Y-124994699D01*
X51671043Y-125054769D01*
X51488551Y-125152314D01*
X51328589Y-125283589D01*
X51197314Y-125443551D01*
X51099769Y-125626043D01*
X51039699Y-125824067D01*
X51019417Y-126029999D01*
X50565583Y-126029999D01*
X50545300Y-125824066D01*
X50485232Y-125626046D01*
X50387685Y-125443550D01*
X50322047Y-125363570D01*
X50256410Y-125283589D01*
X50158952Y-125203608D01*
X50096450Y-125152315D01*
X49913954Y-125054768D01*
X49814943Y-125024733D01*
X49715932Y-124994699D01*
X49510000Y-124974417D01*
X49304067Y-124994699D01*
X49106043Y-125054769D01*
X48923551Y-125152314D01*
X48763589Y-125283589D01*
X48632314Y-125443551D01*
X48534769Y-125626043D01*
X48474699Y-125824067D01*
X48454417Y-126029999D01*
X36100500Y-126029999D01*
X36100500Y-125125326D01*
X36099126Y-125118421D01*
X36085966Y-125052261D01*
X36085966Y-125052260D01*
X36030601Y-124969399D01*
X35947740Y-124914034D01*
X35947739Y-124914033D01*
X35947738Y-124914033D01*
X35874675Y-124899500D01*
X35874674Y-124899500D01*
X34125326Y-124899500D01*
X34125325Y-124899500D01*
X34052261Y-124914033D01*
X33969399Y-124969399D01*
X33914033Y-125052261D01*
X33899500Y-125125325D01*
X33899500Y-126874675D01*
X33133312Y-126874675D01*
X33276392Y-126744241D01*
X33399248Y-126581553D01*
X33490114Y-126399068D01*
X33545903Y-126202992D01*
X33553130Y-126125000D01*
X32585000Y-126125000D01*
X32335000Y-126125000D01*
X31366870Y-126125000D01*
X28000500Y-126125000D01*
X28000500Y-125874999D01*
X31366869Y-125874999D01*
X31366870Y-125875000D01*
X32335000Y-125875000D01*
X32335000Y-124904313D01*
X32585000Y-124904313D01*
X32585000Y-125875000D01*
X33553130Y-125875000D01*
X33553130Y-125874999D01*
X33545903Y-125797007D01*
X33490114Y-125600931D01*
X33399248Y-125418446D01*
X33276392Y-125255758D01*
X33125740Y-125118421D01*
X32952411Y-125011100D01*
X32762320Y-124937459D01*
X32585000Y-124904313D01*
X32335000Y-124904313D01*
X32335000Y-124904312D01*
X32157679Y-124937459D01*
X31967588Y-125011100D01*
X31794259Y-125118421D01*
X31643607Y-125255758D01*
X31520751Y-125418446D01*
X31429885Y-125600931D01*
X31374096Y-125797007D01*
X31366869Y-125874999D01*
X28000500Y-125874999D01*
X28000500Y-123525000D01*
X37906870Y-123525000D01*
X37914096Y-123602992D01*
X37969885Y-123799068D01*
X38060751Y-123981553D01*
X38183607Y-124144241D01*
X38334259Y-124281578D01*
X38507588Y-124388899D01*
X38697679Y-124462540D01*
X38875000Y-124495687D01*
X38875000Y-123525000D01*
X39125000Y-123525000D01*
X39125000Y-124495687D01*
X39302320Y-124462540D01*
X39492411Y-124388899D01*
X39665740Y-124281578D01*
X39673312Y-124274675D01*
X40439500Y-124274675D01*
X40454033Y-124347738D01*
X40454033Y-124347739D01*
X40454034Y-124347740D01*
X40509399Y-124430601D01*
X40592260Y-124485966D01*
X40628792Y-124493232D01*
X40665325Y-124500500D01*
X40665326Y-124500500D01*
X42414674Y-124500500D01*
X42414675Y-124500500D01*
X42439029Y-124495655D01*
X42487740Y-124485966D01*
X42570601Y-124430601D01*
X42625966Y-124347740D01*
X42640500Y-124274674D01*
X42640500Y-123489999D01*
X48454417Y-123489999D01*
X48474699Y-123695932D01*
X48474700Y-123695934D01*
X48534768Y-123893954D01*
X48632315Y-124076450D01*
X48683608Y-124138952D01*
X48763589Y-124236410D01*
X48843570Y-124302047D01*
X48923550Y-124367685D01*
X49106046Y-124465232D01*
X49304066Y-124525300D01*
X49510000Y-124545583D01*
X49715934Y-124525300D01*
X49913954Y-124465232D01*
X50096450Y-124367685D01*
X50256410Y-124236410D01*
X50387685Y-124076450D01*
X50485232Y-123893954D01*
X50545300Y-123695934D01*
X50565583Y-123490000D01*
X50565583Y-123489999D01*
X51019417Y-123489999D01*
X51039699Y-123695932D01*
X51039700Y-123695934D01*
X51099768Y-123893954D01*
X51197315Y-124076450D01*
X51248608Y-124138952D01*
X51328589Y-124236410D01*
X51408570Y-124302047D01*
X51488550Y-124367685D01*
X51671046Y-124465232D01*
X51869066Y-124525300D01*
X52075000Y-124545583D01*
X52280934Y-124525300D01*
X52478954Y-124465232D01*
X52661450Y-124367685D01*
X52821410Y-124236410D01*
X52952685Y-124076450D01*
X53050232Y-123893954D01*
X53110300Y-123695934D01*
X53130583Y-123490000D01*
X63694417Y-123490000D01*
X63714699Y-123695932D01*
X63714700Y-123695934D01*
X63774768Y-123893954D01*
X63872315Y-124076450D01*
X63923608Y-124138952D01*
X64003589Y-124236410D01*
X64083570Y-124302047D01*
X64163550Y-124367685D01*
X64346046Y-124465232D01*
X64544066Y-124525300D01*
X64750000Y-124545583D01*
X64955934Y-124525300D01*
X65153954Y-124465232D01*
X65336450Y-124367685D01*
X65496410Y-124236410D01*
X65627685Y-124076450D01*
X65725232Y-123893954D01*
X65785300Y-123695934D01*
X65805583Y-123490000D01*
X66259417Y-123490000D01*
X66279699Y-123695932D01*
X66279700Y-123695934D01*
X66339768Y-123893954D01*
X66437315Y-124076450D01*
X66488608Y-124138952D01*
X66568589Y-124236410D01*
X66648570Y-124302047D01*
X66728550Y-124367685D01*
X66911046Y-124465232D01*
X67109066Y-124525300D01*
X67315000Y-124545583D01*
X67520934Y-124525300D01*
X67687824Y-124474675D01*
X83224500Y-124474675D01*
X83239033Y-124547738D01*
X83239033Y-124547739D01*
X83239034Y-124547740D01*
X83294399Y-124630601D01*
X83377260Y-124685966D01*
X83413792Y-124693232D01*
X83450325Y-124700500D01*
X83450326Y-124700500D01*
X85199674Y-124700500D01*
X85199675Y-124700500D01*
X85224029Y-124695655D01*
X85272740Y-124685966D01*
X85355601Y-124630601D01*
X85410966Y-124547740D01*
X85425500Y-124474674D01*
X85425500Y-123725000D01*
X85771870Y-123725000D01*
X85779096Y-123802992D01*
X85834885Y-123999068D01*
X85925751Y-124181553D01*
X86048607Y-124344241D01*
X86199259Y-124481578D01*
X86372588Y-124588899D01*
X86562679Y-124662540D01*
X86740000Y-124695687D01*
X86740000Y-123725000D01*
X86990000Y-123725000D01*
X86990000Y-124695687D01*
X87167320Y-124662540D01*
X87357411Y-124588899D01*
X87530740Y-124481578D01*
X87681392Y-124344241D01*
X87804248Y-124181553D01*
X87895114Y-123999068D01*
X87950903Y-123802992D01*
X87958130Y-123725000D01*
X86990000Y-123725000D01*
X86740000Y-123725000D01*
X85771870Y-123725000D01*
X85425500Y-123725000D01*
X85425500Y-123474999D01*
X85771869Y-123474999D01*
X85771870Y-123475000D01*
X86740000Y-123475000D01*
X86740000Y-122504312D01*
X86989999Y-122504312D01*
X86990000Y-122504313D01*
X86990000Y-123475000D01*
X87958130Y-123475000D01*
X87958130Y-123474999D01*
X87950903Y-123397007D01*
X87895114Y-123200931D01*
X87804248Y-123018446D01*
X87681392Y-122855758D01*
X87530740Y-122718421D01*
X87357411Y-122611100D01*
X87167320Y-122537459D01*
X86989999Y-122504312D01*
X86740000Y-122504312D01*
X86562679Y-122537459D01*
X86372588Y-122611100D01*
X86199259Y-122718421D01*
X86048607Y-122855758D01*
X85925751Y-123018446D01*
X85834885Y-123200931D01*
X85779096Y-123397007D01*
X85771869Y-123474999D01*
X85425500Y-123474999D01*
X85425500Y-122725326D01*
X85424126Y-122718421D01*
X85410966Y-122652261D01*
X85410966Y-122652260D01*
X85355601Y-122569399D01*
X85272740Y-122514034D01*
X85272739Y-122514033D01*
X85272738Y-122514033D01*
X85199675Y-122499500D01*
X85199674Y-122499500D01*
X83450326Y-122499500D01*
X83450325Y-122499500D01*
X83377261Y-122514033D01*
X83294399Y-122569399D01*
X83239033Y-122652261D01*
X83224500Y-122725325D01*
X83224500Y-124474675D01*
X67687824Y-124474675D01*
X67718954Y-124465232D01*
X67901450Y-124367685D01*
X68061410Y-124236410D01*
X68192685Y-124076450D01*
X68290232Y-123893954D01*
X68350300Y-123695934D01*
X68370583Y-123490000D01*
X68350300Y-123284066D01*
X68290232Y-123086046D01*
X68192685Y-122903550D01*
X68122842Y-122818446D01*
X68061410Y-122743589D01*
X67954386Y-122655758D01*
X67901450Y-122612315D01*
X67761406Y-122537459D01*
X67718956Y-122514769D01*
X67718955Y-122514768D01*
X67718954Y-122514768D01*
X67619944Y-122484734D01*
X67520932Y-122454699D01*
X67315000Y-122434417D01*
X67109067Y-122454699D01*
X66911043Y-122514769D01*
X66728551Y-122612314D01*
X66568589Y-122743589D01*
X66437314Y-122903551D01*
X66339769Y-123086043D01*
X66279699Y-123284067D01*
X66259417Y-123490000D01*
X65805583Y-123490000D01*
X65785300Y-123284066D01*
X65725232Y-123086046D01*
X65627685Y-122903550D01*
X65557842Y-122818446D01*
X65496410Y-122743589D01*
X65389386Y-122655758D01*
X65336450Y-122612315D01*
X65196406Y-122537459D01*
X65153956Y-122514769D01*
X65153955Y-122514768D01*
X65153954Y-122514768D01*
X65054944Y-122484734D01*
X64955932Y-122454699D01*
X64750000Y-122434417D01*
X64544067Y-122454699D01*
X64346043Y-122514769D01*
X64163551Y-122612314D01*
X64003589Y-122743589D01*
X63872314Y-122903551D01*
X63774769Y-123086043D01*
X63714699Y-123284067D01*
X63694417Y-123490000D01*
X53130583Y-123490000D01*
X53110300Y-123284066D01*
X53050232Y-123086046D01*
X52952685Y-122903550D01*
X52882842Y-122818446D01*
X52821410Y-122743589D01*
X52714386Y-122655758D01*
X52661450Y-122612315D01*
X52521406Y-122537459D01*
X52478956Y-122514769D01*
X52478955Y-122514768D01*
X52478954Y-122514768D01*
X52379944Y-122484734D01*
X52280932Y-122454699D01*
X52075000Y-122434417D01*
X51869067Y-122454699D01*
X51671043Y-122514769D01*
X51488551Y-122612314D01*
X51328589Y-122743589D01*
X51197314Y-122903551D01*
X51099769Y-123086043D01*
X51039699Y-123284067D01*
X51019417Y-123489999D01*
X50565583Y-123489999D01*
X50545300Y-123284066D01*
X50485232Y-123086046D01*
X50387685Y-122903550D01*
X50317842Y-122818446D01*
X50256410Y-122743589D01*
X50149386Y-122655758D01*
X50096450Y-122612315D01*
X49956406Y-122537459D01*
X49913956Y-122514769D01*
X49913955Y-122514768D01*
X49913954Y-122514768D01*
X49814944Y-122484734D01*
X49715932Y-122454699D01*
X49510000Y-122434417D01*
X49304067Y-122454699D01*
X49106043Y-122514769D01*
X48923551Y-122612314D01*
X48763589Y-122743589D01*
X48632314Y-122903551D01*
X48534769Y-123086043D01*
X48474699Y-123284067D01*
X48454417Y-123489999D01*
X42640500Y-123489999D01*
X42640500Y-122525326D01*
X42639126Y-122518421D01*
X42625966Y-122452261D01*
X42625966Y-122452260D01*
X42570601Y-122369399D01*
X42487740Y-122314034D01*
X42487739Y-122314033D01*
X42487738Y-122314033D01*
X42414675Y-122299500D01*
X42414674Y-122299500D01*
X40665326Y-122299500D01*
X40665325Y-122299500D01*
X40592261Y-122314033D01*
X40509399Y-122369399D01*
X40454033Y-122452261D01*
X40439500Y-122525325D01*
X40439500Y-124274675D01*
X39673312Y-124274675D01*
X39816392Y-124144241D01*
X39939248Y-123981553D01*
X40030114Y-123799068D01*
X40085903Y-123602992D01*
X40093130Y-123525000D01*
X39125000Y-123525000D01*
X38875000Y-123525000D01*
X37906870Y-123525000D01*
X28000500Y-123525000D01*
X28000500Y-123274999D01*
X37906869Y-123274999D01*
X37906870Y-123275000D01*
X38875000Y-123275000D01*
X38875000Y-122304312D01*
X39124999Y-122304312D01*
X39125000Y-122304313D01*
X39125000Y-123275000D01*
X40093130Y-123275000D01*
X40093130Y-123274999D01*
X40085903Y-123197007D01*
X40030114Y-123000931D01*
X39939248Y-122818446D01*
X39816392Y-122655758D01*
X39665740Y-122518421D01*
X39492411Y-122411100D01*
X39302320Y-122337459D01*
X39124999Y-122304312D01*
X38875000Y-122304312D01*
X38697679Y-122337459D01*
X38507588Y-122411100D01*
X38334259Y-122518421D01*
X38183607Y-122655758D01*
X38060751Y-122818446D01*
X37969885Y-123000931D01*
X37914096Y-123197007D01*
X37906869Y-123274999D01*
X28000500Y-123274999D01*
X28000500Y-121125000D01*
X31366870Y-121125000D01*
X31374096Y-121202992D01*
X31429885Y-121399068D01*
X31520751Y-121581553D01*
X31643607Y-121744241D01*
X31794259Y-121881578D01*
X31967588Y-121988899D01*
X32157679Y-122062540D01*
X32335000Y-122095687D01*
X32335000Y-121125000D01*
X32585000Y-121125000D01*
X32585000Y-122095687D01*
X32762320Y-122062540D01*
X32952411Y-121988899D01*
X33125740Y-121881578D01*
X33133312Y-121874675D01*
X33899500Y-121874675D01*
X33914033Y-121947738D01*
X33914033Y-121947739D01*
X33914034Y-121947740D01*
X33969399Y-122030601D01*
X34052260Y-122085966D01*
X34088793Y-122093233D01*
X34125325Y-122100500D01*
X34125326Y-122100500D01*
X35874674Y-122100500D01*
X35874675Y-122100500D01*
X35899029Y-122095655D01*
X35947740Y-122085966D01*
X36030601Y-122030601D01*
X36085966Y-121947740D01*
X36100500Y-121874674D01*
X36100500Y-120950000D01*
X48454417Y-120950000D01*
X48474699Y-121155932D01*
X48474700Y-121155934D01*
X48534768Y-121353954D01*
X48632315Y-121536450D01*
X48669330Y-121581553D01*
X48763589Y-121696410D01*
X48843570Y-121762047D01*
X48923550Y-121827685D01*
X49106046Y-121925232D01*
X49304066Y-121985300D01*
X49510000Y-122005583D01*
X49715934Y-121985300D01*
X49913954Y-121925232D01*
X50096450Y-121827685D01*
X50256410Y-121696410D01*
X50387685Y-121536450D01*
X50485232Y-121353954D01*
X50545300Y-121155934D01*
X50565583Y-120950000D01*
X51019417Y-120950000D01*
X51039699Y-121155932D01*
X51039700Y-121155934D01*
X51099768Y-121353954D01*
X51197315Y-121536450D01*
X51234330Y-121581553D01*
X51328589Y-121696410D01*
X51408570Y-121762047D01*
X51488550Y-121827685D01*
X51671046Y-121925232D01*
X51869066Y-121985300D01*
X52075000Y-122005583D01*
X52280934Y-121985300D01*
X52478954Y-121925232D01*
X52661450Y-121827685D01*
X52821410Y-121696410D01*
X52952685Y-121536450D01*
X53050232Y-121353954D01*
X53110300Y-121155934D01*
X53130583Y-120950000D01*
X63694417Y-120950000D01*
X63714699Y-121155932D01*
X63714700Y-121155934D01*
X63774768Y-121353954D01*
X63872315Y-121536450D01*
X63909330Y-121581553D01*
X64003589Y-121696410D01*
X64083570Y-121762047D01*
X64163550Y-121827685D01*
X64346046Y-121925232D01*
X64544066Y-121985300D01*
X64750000Y-122005583D01*
X64955934Y-121985300D01*
X65153954Y-121925232D01*
X65336450Y-121827685D01*
X65496410Y-121696410D01*
X65627685Y-121536450D01*
X65725232Y-121353954D01*
X65785300Y-121155934D01*
X65805583Y-120950000D01*
X66259417Y-120950000D01*
X66279699Y-121155932D01*
X66279700Y-121155934D01*
X66339768Y-121353954D01*
X66437315Y-121536450D01*
X66474330Y-121581553D01*
X66568589Y-121696410D01*
X66648570Y-121762047D01*
X66728550Y-121827685D01*
X66911046Y-121925232D01*
X67109066Y-121985300D01*
X67315000Y-122005583D01*
X67520934Y-121985300D01*
X67718954Y-121925232D01*
X67813539Y-121874675D01*
X75959500Y-121874675D01*
X75974033Y-121947738D01*
X75974033Y-121947739D01*
X75974034Y-121947740D01*
X76029399Y-122030601D01*
X76112260Y-122085966D01*
X76148793Y-122093233D01*
X76185325Y-122100500D01*
X76185326Y-122100500D01*
X77934674Y-122100500D01*
X77934675Y-122100500D01*
X77959029Y-122095655D01*
X78007740Y-122085966D01*
X78090601Y-122030601D01*
X78145966Y-121947740D01*
X78160500Y-121874674D01*
X78160500Y-121125000D01*
X78506870Y-121125000D01*
X78514096Y-121202992D01*
X78569885Y-121399068D01*
X78660751Y-121581553D01*
X78783607Y-121744241D01*
X78934259Y-121881578D01*
X79107588Y-121988899D01*
X79297679Y-122062540D01*
X79475000Y-122095687D01*
X79475000Y-121125000D01*
X79725000Y-121125000D01*
X79725000Y-122095687D01*
X79902320Y-122062540D01*
X80092411Y-121988899D01*
X80265740Y-121881578D01*
X80416392Y-121744241D01*
X80539248Y-121581553D01*
X80630114Y-121399068D01*
X80685903Y-121202992D01*
X80693130Y-121125000D01*
X79725000Y-121125000D01*
X79475000Y-121125000D01*
X78506870Y-121125000D01*
X78160500Y-121125000D01*
X78160500Y-120874999D01*
X78506869Y-120874999D01*
X78506870Y-120875000D01*
X79475000Y-120875000D01*
X79475000Y-119904312D01*
X79724999Y-119904312D01*
X79725000Y-119904313D01*
X79725000Y-120875000D01*
X80693130Y-120875000D01*
X80693130Y-120874999D01*
X80685903Y-120797007D01*
X80630114Y-120600931D01*
X80539248Y-120418446D01*
X80416392Y-120255758D01*
X80265740Y-120118421D01*
X80092411Y-120011100D01*
X79902320Y-119937459D01*
X79724999Y-119904312D01*
X79475000Y-119904312D01*
X79297679Y-119937459D01*
X79107588Y-120011100D01*
X78934259Y-120118421D01*
X78783607Y-120255758D01*
X78660751Y-120418446D01*
X78569885Y-120600931D01*
X78514096Y-120797007D01*
X78506869Y-120874999D01*
X78160500Y-120874999D01*
X78160500Y-120125326D01*
X78159126Y-120118421D01*
X78145966Y-120052261D01*
X78145966Y-120052260D01*
X78090601Y-119969399D01*
X78007740Y-119914034D01*
X78007739Y-119914033D01*
X78007738Y-119914033D01*
X77934675Y-119899500D01*
X77934674Y-119899500D01*
X76185326Y-119899500D01*
X76185325Y-119899500D01*
X76112261Y-119914033D01*
X76029399Y-119969399D01*
X75974033Y-120052261D01*
X75959500Y-120125325D01*
X75959500Y-121874675D01*
X67813539Y-121874675D01*
X67901450Y-121827685D01*
X68061410Y-121696410D01*
X68192685Y-121536450D01*
X68290232Y-121353954D01*
X68350300Y-121155934D01*
X68370583Y-120950000D01*
X68350300Y-120744066D01*
X68290232Y-120546046D01*
X68192685Y-120363550D01*
X68104223Y-120255758D01*
X68061410Y-120203589D01*
X67957631Y-120118421D01*
X67901450Y-120072315D01*
X67718954Y-119974768D01*
X67619944Y-119944734D01*
X67520932Y-119914699D01*
X67315000Y-119894417D01*
X67109067Y-119914699D01*
X66911043Y-119974769D01*
X66728551Y-120072314D01*
X66568589Y-120203589D01*
X66437314Y-120363551D01*
X66339769Y-120546043D01*
X66279699Y-120744067D01*
X66259417Y-120950000D01*
X65805583Y-120950000D01*
X65785300Y-120744066D01*
X65725232Y-120546046D01*
X65627685Y-120363550D01*
X65539223Y-120255758D01*
X65496410Y-120203589D01*
X65392631Y-120118421D01*
X65336450Y-120072315D01*
X65153954Y-119974768D01*
X65054944Y-119944734D01*
X64955932Y-119914699D01*
X64750000Y-119894417D01*
X64544067Y-119914699D01*
X64346043Y-119974769D01*
X64163551Y-120072314D01*
X64003589Y-120203589D01*
X63872314Y-120363551D01*
X63774769Y-120546043D01*
X63714699Y-120744067D01*
X63694417Y-120950000D01*
X53130583Y-120950000D01*
X53110300Y-120744066D01*
X53050232Y-120546046D01*
X52952685Y-120363550D01*
X52864223Y-120255758D01*
X52821410Y-120203589D01*
X52717631Y-120118421D01*
X52661450Y-120072315D01*
X52478954Y-119974768D01*
X52379944Y-119944734D01*
X52280932Y-119914699D01*
X52075000Y-119894417D01*
X51869067Y-119914699D01*
X51671043Y-119974769D01*
X51488551Y-120072314D01*
X51328589Y-120203589D01*
X51197314Y-120363551D01*
X51099769Y-120546043D01*
X51039699Y-120744067D01*
X51019417Y-120950000D01*
X50565583Y-120950000D01*
X50545300Y-120744066D01*
X50485232Y-120546046D01*
X50387685Y-120363550D01*
X50299223Y-120255758D01*
X50256410Y-120203589D01*
X50152631Y-120118421D01*
X50096450Y-120072315D01*
X49913954Y-119974768D01*
X49814944Y-119944734D01*
X49715932Y-119914699D01*
X49510000Y-119894417D01*
X49304067Y-119914699D01*
X49106043Y-119974769D01*
X48923551Y-120072314D01*
X48763589Y-120203589D01*
X48632314Y-120363551D01*
X48534769Y-120546043D01*
X48474699Y-120744067D01*
X48454417Y-120950000D01*
X36100500Y-120950000D01*
X36100500Y-120125326D01*
X36099126Y-120118421D01*
X36085966Y-120052261D01*
X36085966Y-120052260D01*
X36030601Y-119969399D01*
X35947740Y-119914034D01*
X35947739Y-119914033D01*
X35947738Y-119914033D01*
X35874675Y-119899500D01*
X35874674Y-119899500D01*
X34125326Y-119899500D01*
X34125325Y-119899500D01*
X34052261Y-119914033D01*
X33969399Y-119969399D01*
X33914033Y-120052261D01*
X33899500Y-120125325D01*
X33899500Y-121874675D01*
X33133312Y-121874675D01*
X33276392Y-121744241D01*
X33399248Y-121581553D01*
X33490114Y-121399068D01*
X33545903Y-121202992D01*
X33553130Y-121125000D01*
X32585000Y-121125000D01*
X32335000Y-121125000D01*
X31366870Y-121125000D01*
X28000500Y-121125000D01*
X28000500Y-120874999D01*
X31366869Y-120874999D01*
X31366870Y-120875000D01*
X32335000Y-120875000D01*
X32335000Y-119904313D01*
X32585000Y-119904313D01*
X32585000Y-120875000D01*
X33553130Y-120875000D01*
X33553130Y-120874999D01*
X33545903Y-120797007D01*
X33490114Y-120600931D01*
X33399248Y-120418446D01*
X33276392Y-120255758D01*
X33125740Y-120118421D01*
X32952411Y-120011100D01*
X32762320Y-119937459D01*
X32585000Y-119904313D01*
X32335000Y-119904313D01*
X32335000Y-119904312D01*
X32157679Y-119937459D01*
X31967588Y-120011100D01*
X31794259Y-120118421D01*
X31643607Y-120255758D01*
X31520751Y-120418446D01*
X31429885Y-120600931D01*
X31374096Y-120797007D01*
X31366869Y-120874999D01*
X28000500Y-120874999D01*
X28000500Y-118525000D01*
X37906870Y-118525000D01*
X37914096Y-118602992D01*
X37969885Y-118799068D01*
X38060751Y-118981553D01*
X38183607Y-119144241D01*
X38334259Y-119281578D01*
X38507588Y-119388899D01*
X38697679Y-119462540D01*
X38875000Y-119495687D01*
X38875000Y-118525000D01*
X39125000Y-118525000D01*
X39125000Y-119495687D01*
X39302320Y-119462540D01*
X39492411Y-119388899D01*
X39665740Y-119281578D01*
X39673312Y-119274675D01*
X40439500Y-119274675D01*
X40454033Y-119347738D01*
X40454033Y-119347739D01*
X40454034Y-119347740D01*
X40509399Y-119430601D01*
X40592260Y-119485966D01*
X40628793Y-119493233D01*
X40665325Y-119500500D01*
X40665326Y-119500500D01*
X42414674Y-119500500D01*
X42414675Y-119500500D01*
X42439029Y-119495655D01*
X42487740Y-119485966D01*
X42570601Y-119430601D01*
X42625966Y-119347740D01*
X42640500Y-119274674D01*
X42640500Y-118410000D01*
X48454417Y-118410000D01*
X48474699Y-118615932D01*
X48474700Y-118615934D01*
X48534768Y-118813954D01*
X48632315Y-118996450D01*
X48683608Y-119058952D01*
X48763589Y-119156410D01*
X48843570Y-119222047D01*
X48923550Y-119287685D01*
X49106046Y-119385232D01*
X49304066Y-119445300D01*
X49510000Y-119465583D01*
X49715934Y-119445300D01*
X49913954Y-119385232D01*
X50096450Y-119287685D01*
X50256410Y-119156410D01*
X50387685Y-118996450D01*
X50485232Y-118813954D01*
X50545300Y-118615934D01*
X50565583Y-118410000D01*
X51019417Y-118410000D01*
X51039699Y-118615932D01*
X51039700Y-118615934D01*
X51099768Y-118813954D01*
X51197315Y-118996450D01*
X51248608Y-119058952D01*
X51328589Y-119156410D01*
X51408570Y-119222047D01*
X51488550Y-119287685D01*
X51671046Y-119385232D01*
X51869066Y-119445300D01*
X52075000Y-119465583D01*
X52280934Y-119445300D01*
X52478954Y-119385232D01*
X52661450Y-119287685D01*
X52821410Y-119156410D01*
X52952685Y-118996450D01*
X53050232Y-118813954D01*
X53110300Y-118615934D01*
X53130583Y-118410000D01*
X53130583Y-118409999D01*
X63694417Y-118409999D01*
X63714699Y-118615932D01*
X63714700Y-118615934D01*
X63774768Y-118813954D01*
X63872315Y-118996450D01*
X63923608Y-119058952D01*
X64003589Y-119156410D01*
X64083570Y-119222047D01*
X64163550Y-119287685D01*
X64346046Y-119385232D01*
X64544066Y-119445300D01*
X64750000Y-119465583D01*
X64955934Y-119445300D01*
X65153954Y-119385232D01*
X65336450Y-119287685D01*
X65496410Y-119156410D01*
X65627685Y-118996450D01*
X65725232Y-118813954D01*
X65785300Y-118615934D01*
X65805583Y-118410000D01*
X65805583Y-118409999D01*
X66259417Y-118409999D01*
X66279699Y-118615932D01*
X66279700Y-118615934D01*
X66339768Y-118813954D01*
X66437315Y-118996450D01*
X66488608Y-119058952D01*
X66568589Y-119156410D01*
X66648570Y-119222047D01*
X66728550Y-119287685D01*
X66911046Y-119385232D01*
X67109066Y-119445300D01*
X67315000Y-119465583D01*
X67520934Y-119445300D01*
X67718954Y-119385232D01*
X67901450Y-119287685D01*
X67917303Y-119274675D01*
X83159500Y-119274675D01*
X83174033Y-119347738D01*
X83174033Y-119347739D01*
X83174034Y-119347740D01*
X83229399Y-119430601D01*
X83312260Y-119485966D01*
X83348793Y-119493233D01*
X83385325Y-119500500D01*
X83385326Y-119500500D01*
X85134674Y-119500500D01*
X85134675Y-119500500D01*
X85159029Y-119495655D01*
X85207740Y-119485966D01*
X85290601Y-119430601D01*
X85345966Y-119347740D01*
X85360500Y-119274674D01*
X85360500Y-118525000D01*
X85706870Y-118525000D01*
X85714096Y-118602992D01*
X85769885Y-118799068D01*
X85860751Y-118981553D01*
X85983607Y-119144241D01*
X86134259Y-119281578D01*
X86307588Y-119388899D01*
X86497679Y-119462540D01*
X86675000Y-119495687D01*
X86675000Y-118525000D01*
X86925000Y-118525000D01*
X86925000Y-119495687D01*
X87102320Y-119462540D01*
X87292411Y-119388899D01*
X87465740Y-119281578D01*
X87616392Y-119144241D01*
X87739248Y-118981553D01*
X87830114Y-118799068D01*
X87885903Y-118602992D01*
X87893130Y-118525000D01*
X86925000Y-118525000D01*
X86675000Y-118525000D01*
X85706870Y-118525000D01*
X85360500Y-118525000D01*
X85360500Y-118274999D01*
X85706869Y-118274999D01*
X85706870Y-118275000D01*
X86675000Y-118275000D01*
X86675000Y-117304313D01*
X86925000Y-117304313D01*
X86925000Y-118275000D01*
X87893130Y-118275000D01*
X87893130Y-118274999D01*
X87885903Y-118197007D01*
X87830114Y-118000931D01*
X87739248Y-117818446D01*
X87616392Y-117655758D01*
X87465740Y-117518421D01*
X87292411Y-117411100D01*
X87102320Y-117337459D01*
X86925000Y-117304313D01*
X86675000Y-117304313D01*
X86675000Y-117304312D01*
X86497679Y-117337459D01*
X86307588Y-117411100D01*
X86134259Y-117518421D01*
X85983607Y-117655758D01*
X85860751Y-117818446D01*
X85769885Y-118000931D01*
X85714096Y-118197007D01*
X85706869Y-118274999D01*
X85360500Y-118274999D01*
X85360500Y-117525326D01*
X85359126Y-117518421D01*
X85345966Y-117452261D01*
X85345966Y-117452260D01*
X85290601Y-117369399D01*
X85207740Y-117314034D01*
X85207739Y-117314033D01*
X85207738Y-117314033D01*
X85134675Y-117299500D01*
X85134674Y-117299500D01*
X83385326Y-117299500D01*
X83385325Y-117299500D01*
X83312261Y-117314033D01*
X83229399Y-117369399D01*
X83174033Y-117452261D01*
X83159500Y-117525325D01*
X83159500Y-119274675D01*
X67917303Y-119274675D01*
X68061410Y-119156410D01*
X68192685Y-118996450D01*
X68290232Y-118813954D01*
X68350300Y-118615934D01*
X68370583Y-118410000D01*
X68350300Y-118204066D01*
X68290232Y-118006046D01*
X68192685Y-117823550D01*
X68127047Y-117743570D01*
X68061410Y-117663589D01*
X67963952Y-117583608D01*
X67901450Y-117532315D01*
X67718954Y-117434768D01*
X67619943Y-117404733D01*
X67520932Y-117374699D01*
X67315000Y-117354417D01*
X67109067Y-117374699D01*
X66911043Y-117434769D01*
X66728551Y-117532314D01*
X66568589Y-117663589D01*
X66437314Y-117823551D01*
X66339769Y-118006043D01*
X66279699Y-118204067D01*
X66259417Y-118409999D01*
X65805583Y-118409999D01*
X65785300Y-118204066D01*
X65725232Y-118006046D01*
X65627685Y-117823550D01*
X65562047Y-117743570D01*
X65496410Y-117663589D01*
X65398952Y-117583608D01*
X65336450Y-117532315D01*
X65153954Y-117434768D01*
X65054943Y-117404733D01*
X64955932Y-117374699D01*
X64750000Y-117354417D01*
X64544067Y-117374699D01*
X64346043Y-117434769D01*
X64163551Y-117532314D01*
X64003589Y-117663589D01*
X63872314Y-117823551D01*
X63774769Y-118006043D01*
X63714699Y-118204067D01*
X63694417Y-118409999D01*
X53130583Y-118409999D01*
X53110300Y-118204066D01*
X53050232Y-118006046D01*
X52952685Y-117823550D01*
X52887047Y-117743570D01*
X52821410Y-117663589D01*
X52723952Y-117583608D01*
X52661450Y-117532315D01*
X52478954Y-117434768D01*
X52379943Y-117404733D01*
X52280932Y-117374699D01*
X52075000Y-117354417D01*
X51869067Y-117374699D01*
X51671043Y-117434769D01*
X51488551Y-117532314D01*
X51328589Y-117663589D01*
X51197314Y-117823551D01*
X51099769Y-118006043D01*
X51039699Y-118204067D01*
X51019417Y-118410000D01*
X50565583Y-118410000D01*
X50545300Y-118204066D01*
X50485232Y-118006046D01*
X50387685Y-117823550D01*
X50322047Y-117743570D01*
X50256410Y-117663589D01*
X50158952Y-117583608D01*
X50096450Y-117532315D01*
X49913954Y-117434768D01*
X49814943Y-117404733D01*
X49715932Y-117374699D01*
X49510000Y-117354417D01*
X49304067Y-117374699D01*
X49106043Y-117434769D01*
X48923551Y-117532314D01*
X48763589Y-117663589D01*
X48632314Y-117823551D01*
X48534769Y-118006043D01*
X48474699Y-118204067D01*
X48454417Y-118410000D01*
X42640500Y-118410000D01*
X42640500Y-117525326D01*
X42639126Y-117518421D01*
X42625966Y-117452261D01*
X42625966Y-117452260D01*
X42570601Y-117369399D01*
X42487740Y-117314034D01*
X42487739Y-117314033D01*
X42487738Y-117314033D01*
X42414675Y-117299500D01*
X42414674Y-117299500D01*
X40665326Y-117299500D01*
X40665325Y-117299500D01*
X40592261Y-117314033D01*
X40509399Y-117369399D01*
X40454033Y-117452261D01*
X40439500Y-117525325D01*
X40439500Y-119274675D01*
X39673312Y-119274675D01*
X39816392Y-119144241D01*
X39939248Y-118981553D01*
X40030114Y-118799068D01*
X40085903Y-118602992D01*
X40093130Y-118525000D01*
X39125000Y-118525000D01*
X38875000Y-118525000D01*
X37906870Y-118525000D01*
X28000500Y-118525000D01*
X28000500Y-118274999D01*
X37906869Y-118274999D01*
X37906870Y-118275000D01*
X38875000Y-118275000D01*
X38875000Y-117304312D01*
X39124999Y-117304312D01*
X39125000Y-117304313D01*
X39125000Y-118275000D01*
X40093130Y-118275000D01*
X40093130Y-118274999D01*
X40085903Y-118197007D01*
X40030114Y-118000931D01*
X39939248Y-117818446D01*
X39816392Y-117655758D01*
X39665740Y-117518421D01*
X39492411Y-117411100D01*
X39302320Y-117337459D01*
X39124999Y-117304312D01*
X38875000Y-117304312D01*
X38697679Y-117337459D01*
X38507588Y-117411100D01*
X38334259Y-117518421D01*
X38183607Y-117655758D01*
X38060751Y-117818446D01*
X37969885Y-118000931D01*
X37914096Y-118197007D01*
X37906869Y-118274999D01*
X28000500Y-118274999D01*
X28000500Y-115525000D01*
X31366870Y-115525000D01*
X31374096Y-115602992D01*
X31429885Y-115799068D01*
X31520751Y-115981553D01*
X31643607Y-116144241D01*
X31794259Y-116281578D01*
X31967588Y-116388899D01*
X32157679Y-116462540D01*
X32335000Y-116495687D01*
X32335000Y-115525000D01*
X32585000Y-115525000D01*
X32585000Y-116495687D01*
X32762320Y-116462540D01*
X32952411Y-116388899D01*
X33125740Y-116281578D01*
X33133312Y-116274675D01*
X33899500Y-116274675D01*
X33914033Y-116347738D01*
X33914033Y-116347739D01*
X33914034Y-116347740D01*
X33969399Y-116430601D01*
X34052260Y-116485966D01*
X34088792Y-116493232D01*
X34125325Y-116500500D01*
X34125326Y-116500500D01*
X35874674Y-116500500D01*
X35874675Y-116500500D01*
X35899029Y-116495655D01*
X35947740Y-116485966D01*
X36030601Y-116430601D01*
X36085966Y-116347740D01*
X36100500Y-116274674D01*
X36100500Y-115870000D01*
X48454417Y-115870000D01*
X48474699Y-116075932D01*
X48474700Y-116075934D01*
X48534768Y-116273954D01*
X48632315Y-116456450D01*
X48637313Y-116462540D01*
X48763589Y-116616410D01*
X48843570Y-116682047D01*
X48923550Y-116747685D01*
X49106046Y-116845232D01*
X49304066Y-116905300D01*
X49510000Y-116925583D01*
X49715934Y-116905300D01*
X49913954Y-116845232D01*
X50096450Y-116747685D01*
X50256410Y-116616410D01*
X50387685Y-116456450D01*
X50485232Y-116273954D01*
X50545300Y-116075934D01*
X50565583Y-115870000D01*
X51019417Y-115870000D01*
X51039699Y-116075932D01*
X51039700Y-116075934D01*
X51099768Y-116273954D01*
X51197315Y-116456450D01*
X51202313Y-116462540D01*
X51328589Y-116616410D01*
X51408570Y-116682047D01*
X51488550Y-116747685D01*
X51671046Y-116845232D01*
X51869066Y-116905300D01*
X52075000Y-116925583D01*
X52280934Y-116905300D01*
X52478954Y-116845232D01*
X52661450Y-116747685D01*
X52821410Y-116616410D01*
X52952685Y-116456450D01*
X53050232Y-116273954D01*
X53110300Y-116075934D01*
X53130583Y-115870000D01*
X63694417Y-115870000D01*
X63714699Y-116075932D01*
X63714700Y-116075934D01*
X63774768Y-116273954D01*
X63872315Y-116456450D01*
X63877313Y-116462540D01*
X64003589Y-116616410D01*
X64083570Y-116682047D01*
X64163550Y-116747685D01*
X64346046Y-116845232D01*
X64544066Y-116905300D01*
X64750000Y-116925583D01*
X64955934Y-116905300D01*
X65153954Y-116845232D01*
X65336450Y-116747685D01*
X65496410Y-116616410D01*
X65627685Y-116456450D01*
X65725232Y-116273954D01*
X65785300Y-116075934D01*
X65805583Y-115870000D01*
X66259417Y-115870000D01*
X66279699Y-116075932D01*
X66279700Y-116075934D01*
X66339768Y-116273954D01*
X66437315Y-116456450D01*
X66442313Y-116462540D01*
X66568589Y-116616410D01*
X66648570Y-116682047D01*
X66728550Y-116747685D01*
X66911046Y-116845232D01*
X67109066Y-116905300D01*
X67315000Y-116925583D01*
X67520934Y-116905300D01*
X67621892Y-116874675D01*
X76159500Y-116874675D01*
X76174033Y-116947738D01*
X76174033Y-116947739D01*
X76174034Y-116947740D01*
X76229399Y-117030601D01*
X76312260Y-117085966D01*
X76348792Y-117093232D01*
X76385325Y-117100500D01*
X76385326Y-117100500D01*
X78134674Y-117100500D01*
X78134675Y-117100500D01*
X78159029Y-117095655D01*
X78207740Y-117085966D01*
X78290601Y-117030601D01*
X78345966Y-116947740D01*
X78360500Y-116874674D01*
X78360500Y-116125000D01*
X78706870Y-116125000D01*
X78714096Y-116202992D01*
X78769885Y-116399068D01*
X78860751Y-116581553D01*
X78983607Y-116744241D01*
X79134259Y-116881578D01*
X79307588Y-116988899D01*
X79497679Y-117062540D01*
X79675000Y-117095687D01*
X79675000Y-116125000D01*
X79925000Y-116125000D01*
X79925000Y-117095687D01*
X80102320Y-117062540D01*
X80292411Y-116988899D01*
X80465740Y-116881578D01*
X80616392Y-116744241D01*
X80739248Y-116581553D01*
X80830114Y-116399068D01*
X80885903Y-116202992D01*
X80893130Y-116125000D01*
X79925000Y-116125000D01*
X79675000Y-116125000D01*
X78706870Y-116125000D01*
X78360500Y-116125000D01*
X78360500Y-115874999D01*
X78706869Y-115874999D01*
X78706870Y-115875000D01*
X79675000Y-115875000D01*
X79675000Y-114904312D01*
X79924999Y-114904312D01*
X79925000Y-114904313D01*
X79925000Y-115875000D01*
X80893130Y-115875000D01*
X80893130Y-115874999D01*
X80885903Y-115797007D01*
X80830114Y-115600931D01*
X80739248Y-115418446D01*
X80616392Y-115255758D01*
X80465740Y-115118421D01*
X80292411Y-115011100D01*
X80102320Y-114937459D01*
X79924999Y-114904312D01*
X79675000Y-114904312D01*
X79497679Y-114937459D01*
X79307588Y-115011100D01*
X79134259Y-115118421D01*
X78983607Y-115255758D01*
X78860751Y-115418446D01*
X78769885Y-115600931D01*
X78714096Y-115797007D01*
X78706869Y-115874999D01*
X78360500Y-115874999D01*
X78360500Y-115125326D01*
X78360154Y-115123589D01*
X78345966Y-115052261D01*
X78345966Y-115052260D01*
X78290601Y-114969399D01*
X78207740Y-114914034D01*
X78207739Y-114914033D01*
X78207738Y-114914033D01*
X78134675Y-114899500D01*
X78134674Y-114899500D01*
X76385326Y-114899500D01*
X76385325Y-114899500D01*
X76312261Y-114914033D01*
X76229399Y-114969399D01*
X76174033Y-115052261D01*
X76159500Y-115125325D01*
X76159500Y-116874675D01*
X67621892Y-116874675D01*
X67718954Y-116845232D01*
X67901450Y-116747685D01*
X68061410Y-116616410D01*
X68192685Y-116456450D01*
X68290232Y-116273954D01*
X68350300Y-116075934D01*
X68370583Y-115870000D01*
X68350300Y-115664066D01*
X68290232Y-115466046D01*
X68192685Y-115283550D01*
X68062835Y-115125326D01*
X68061410Y-115123589D01*
X67963952Y-115043609D01*
X67901450Y-114992315D01*
X67736811Y-114904313D01*
X67718956Y-114894769D01*
X67718955Y-114894768D01*
X67718954Y-114894768D01*
X67619944Y-114864734D01*
X67520932Y-114834699D01*
X67315000Y-114814417D01*
X67109067Y-114834699D01*
X66911043Y-114894769D01*
X66728551Y-114992314D01*
X66568589Y-115123589D01*
X66437314Y-115283551D01*
X66339769Y-115466043D01*
X66279699Y-115664067D01*
X66259417Y-115870000D01*
X65805583Y-115870000D01*
X65785300Y-115664066D01*
X65725232Y-115466046D01*
X65627685Y-115283550D01*
X65497835Y-115125326D01*
X65496410Y-115123589D01*
X65398952Y-115043609D01*
X65336450Y-114992315D01*
X65171811Y-114904313D01*
X65153956Y-114894769D01*
X65153955Y-114894768D01*
X65153954Y-114894768D01*
X65054944Y-114864734D01*
X64955932Y-114834699D01*
X64750000Y-114814417D01*
X64544067Y-114834699D01*
X64346043Y-114894769D01*
X64163551Y-114992314D01*
X64003589Y-115123589D01*
X63872314Y-115283551D01*
X63774769Y-115466043D01*
X63714699Y-115664067D01*
X63694417Y-115870000D01*
X53130583Y-115870000D01*
X53110300Y-115664066D01*
X53050232Y-115466046D01*
X52952685Y-115283550D01*
X52822835Y-115125326D01*
X52821410Y-115123589D01*
X52723952Y-115043609D01*
X52661450Y-114992315D01*
X52496811Y-114904313D01*
X52478956Y-114894769D01*
X52478955Y-114894768D01*
X52478954Y-114894768D01*
X52379944Y-114864734D01*
X52280932Y-114834699D01*
X52075000Y-114814417D01*
X51869067Y-114834699D01*
X51671043Y-114894769D01*
X51488551Y-114992314D01*
X51328589Y-115123589D01*
X51197314Y-115283551D01*
X51099769Y-115466043D01*
X51039699Y-115664067D01*
X51019417Y-115870000D01*
X50565583Y-115870000D01*
X50545300Y-115664066D01*
X50485232Y-115466046D01*
X50387685Y-115283550D01*
X50257835Y-115125326D01*
X50256410Y-115123589D01*
X50158952Y-115043609D01*
X50096450Y-114992315D01*
X49931811Y-114904313D01*
X49913956Y-114894769D01*
X49913955Y-114894768D01*
X49913954Y-114894768D01*
X49814944Y-114864734D01*
X49715932Y-114834699D01*
X49510000Y-114814417D01*
X49304067Y-114834699D01*
X49106043Y-114894769D01*
X48923551Y-114992314D01*
X48763589Y-115123589D01*
X48632314Y-115283551D01*
X48534769Y-115466043D01*
X48474699Y-115664067D01*
X48454417Y-115870000D01*
X36100500Y-115870000D01*
X36100500Y-114525326D01*
X36099126Y-114518421D01*
X36085966Y-114452261D01*
X36085966Y-114452260D01*
X36030601Y-114369399D01*
X35947740Y-114314034D01*
X35947739Y-114314033D01*
X35947738Y-114314033D01*
X35874675Y-114299500D01*
X35874674Y-114299500D01*
X34125326Y-114299500D01*
X34125325Y-114299500D01*
X34052261Y-114314033D01*
X33969399Y-114369399D01*
X33914033Y-114452261D01*
X33899500Y-114525325D01*
X33899500Y-116274675D01*
X33133312Y-116274675D01*
X33276392Y-116144241D01*
X33399248Y-115981553D01*
X33490114Y-115799068D01*
X33545903Y-115602992D01*
X33553130Y-115525000D01*
X32585000Y-115525000D01*
X32335000Y-115525000D01*
X31366870Y-115525000D01*
X28000500Y-115525000D01*
X28000500Y-115274999D01*
X31366869Y-115274999D01*
X31366870Y-115275000D01*
X32335000Y-115275000D01*
X32335000Y-114304313D01*
X32585000Y-114304313D01*
X32585000Y-115275000D01*
X33553130Y-115275000D01*
X33553130Y-115274999D01*
X33545903Y-115197007D01*
X33490114Y-115000931D01*
X33399248Y-114818446D01*
X33276392Y-114655758D01*
X33125740Y-114518421D01*
X32952411Y-114411100D01*
X32762320Y-114337459D01*
X32585000Y-114304313D01*
X32335000Y-114304313D01*
X32335000Y-114304312D01*
X32157679Y-114337459D01*
X31967588Y-114411100D01*
X31794259Y-114518421D01*
X31643607Y-114655758D01*
X31520751Y-114818446D01*
X31429885Y-115000931D01*
X31374096Y-115197007D01*
X31366869Y-115274999D01*
X28000500Y-115274999D01*
X28000500Y-113525000D01*
X37906870Y-113525000D01*
X37914096Y-113602992D01*
X37969885Y-113799068D01*
X38060751Y-113981553D01*
X38183607Y-114144241D01*
X38334259Y-114281578D01*
X38507588Y-114388899D01*
X38697679Y-114462540D01*
X38875000Y-114495687D01*
X38875000Y-113525000D01*
X39125000Y-113525000D01*
X39125000Y-114495687D01*
X39302320Y-114462540D01*
X39492411Y-114388899D01*
X39665740Y-114281578D01*
X39673312Y-114274675D01*
X40439500Y-114274675D01*
X40454033Y-114347738D01*
X40454033Y-114347739D01*
X40454034Y-114347740D01*
X40509399Y-114430601D01*
X40592260Y-114485966D01*
X40628792Y-114493232D01*
X40665325Y-114500500D01*
X40665326Y-114500500D01*
X42414674Y-114500500D01*
X42414675Y-114500500D01*
X42439029Y-114495655D01*
X42487740Y-114485966D01*
X42570601Y-114430601D01*
X42625966Y-114347740D01*
X42640500Y-114274674D01*
X42640500Y-113330000D01*
X48454417Y-113330000D01*
X48474699Y-113535932D01*
X48504734Y-113634944D01*
X48534768Y-113733954D01*
X48632315Y-113916450D01*
X48683608Y-113978952D01*
X48763589Y-114076410D01*
X48843570Y-114142047D01*
X48923550Y-114207685D01*
X49106046Y-114305232D01*
X49304066Y-114365300D01*
X49510000Y-114385583D01*
X49715934Y-114365300D01*
X49913954Y-114305232D01*
X50096450Y-114207685D01*
X50256410Y-114076410D01*
X50387685Y-113916450D01*
X50485232Y-113733954D01*
X50545300Y-113535934D01*
X50565583Y-113330000D01*
X51019417Y-113330000D01*
X51039699Y-113535932D01*
X51069734Y-113634944D01*
X51099768Y-113733954D01*
X51197315Y-113916450D01*
X51248608Y-113978952D01*
X51328589Y-114076410D01*
X51408570Y-114142047D01*
X51488550Y-114207685D01*
X51671046Y-114305232D01*
X51869066Y-114365300D01*
X52075000Y-114385583D01*
X52280934Y-114365300D01*
X52478954Y-114305232D01*
X52661450Y-114207685D01*
X52821410Y-114076410D01*
X52952685Y-113916450D01*
X53050232Y-113733954D01*
X53110300Y-113535934D01*
X53130583Y-113330000D01*
X63694417Y-113330000D01*
X63714699Y-113535932D01*
X63744734Y-113634944D01*
X63774768Y-113733954D01*
X63872315Y-113916450D01*
X63923608Y-113978952D01*
X64003589Y-114076410D01*
X64083570Y-114142047D01*
X64163550Y-114207685D01*
X64346046Y-114305232D01*
X64544066Y-114365300D01*
X64750000Y-114385583D01*
X64955934Y-114365300D01*
X65153954Y-114305232D01*
X65336450Y-114207685D01*
X65496410Y-114076410D01*
X65627685Y-113916450D01*
X65725232Y-113733954D01*
X65785300Y-113535934D01*
X65805583Y-113330000D01*
X66259417Y-113330000D01*
X66279699Y-113535932D01*
X66309734Y-113634944D01*
X66339768Y-113733954D01*
X66437315Y-113916450D01*
X66488608Y-113978952D01*
X66568589Y-114076410D01*
X66648570Y-114142047D01*
X66728550Y-114207685D01*
X66911046Y-114305232D01*
X67109066Y-114365300D01*
X67315000Y-114385583D01*
X67520934Y-114365300D01*
X67718954Y-114305232D01*
X67776122Y-114274675D01*
X83159500Y-114274675D01*
X83174033Y-114347738D01*
X83174033Y-114347739D01*
X83174034Y-114347740D01*
X83229399Y-114430601D01*
X83312260Y-114485966D01*
X83348792Y-114493232D01*
X83385325Y-114500500D01*
X83385326Y-114500500D01*
X85134674Y-114500500D01*
X85134675Y-114500500D01*
X85159029Y-114495655D01*
X85207740Y-114485966D01*
X85290601Y-114430601D01*
X85345966Y-114347740D01*
X85360500Y-114274674D01*
X85360500Y-113525000D01*
X85706870Y-113525000D01*
X85714096Y-113602992D01*
X85769885Y-113799068D01*
X85860751Y-113981553D01*
X85983607Y-114144241D01*
X86134259Y-114281578D01*
X86307588Y-114388899D01*
X86497679Y-114462540D01*
X86675000Y-114495687D01*
X86675000Y-113525000D01*
X86925000Y-113525000D01*
X86925000Y-114495687D01*
X87102320Y-114462540D01*
X87292411Y-114388899D01*
X87465740Y-114281578D01*
X87616392Y-114144241D01*
X87739248Y-113981553D01*
X87830114Y-113799068D01*
X87885903Y-113602992D01*
X87893130Y-113525000D01*
X86925000Y-113525000D01*
X86675000Y-113525000D01*
X85706870Y-113525000D01*
X85360500Y-113525000D01*
X85360500Y-113274999D01*
X85706869Y-113274999D01*
X85706870Y-113275000D01*
X86675000Y-113275000D01*
X86675000Y-112304313D01*
X86925000Y-112304313D01*
X86925000Y-113275000D01*
X87893130Y-113275000D01*
X87893130Y-113274999D01*
X87885903Y-113197007D01*
X87830114Y-113000931D01*
X87739248Y-112818446D01*
X87616392Y-112655758D01*
X87465740Y-112518421D01*
X87292411Y-112411100D01*
X87102320Y-112337459D01*
X86925000Y-112304313D01*
X86675000Y-112304313D01*
X86675000Y-112304312D01*
X86497679Y-112337459D01*
X86307588Y-112411100D01*
X86134259Y-112518421D01*
X85983607Y-112655758D01*
X85860751Y-112818446D01*
X85769885Y-113000931D01*
X85714096Y-113197007D01*
X85706869Y-113274999D01*
X85360500Y-113274999D01*
X85360500Y-112525326D01*
X85359126Y-112518421D01*
X85345966Y-112452261D01*
X85345966Y-112452260D01*
X85290601Y-112369399D01*
X85207740Y-112314034D01*
X85207739Y-112314033D01*
X85207738Y-112314033D01*
X85134675Y-112299500D01*
X85134674Y-112299500D01*
X83385326Y-112299500D01*
X83385325Y-112299500D01*
X83312261Y-112314033D01*
X83229399Y-112369399D01*
X83174033Y-112452261D01*
X83159500Y-112525325D01*
X83159500Y-114274675D01*
X67776122Y-114274675D01*
X67901450Y-114207685D01*
X68061410Y-114076410D01*
X68192685Y-113916450D01*
X68290232Y-113733954D01*
X68350300Y-113535934D01*
X68370583Y-113330000D01*
X68350300Y-113124066D01*
X68290232Y-112926046D01*
X68192685Y-112743550D01*
X68120636Y-112655758D01*
X68061410Y-112583589D01*
X67963952Y-112503609D01*
X67901450Y-112452315D01*
X67810201Y-112403541D01*
X67718956Y-112354769D01*
X67718955Y-112354768D01*
X67718954Y-112354768D01*
X67619943Y-112324733D01*
X67520932Y-112294699D01*
X67315000Y-112274417D01*
X67109067Y-112294699D01*
X66911043Y-112354769D01*
X66728551Y-112452314D01*
X66568589Y-112583589D01*
X66437314Y-112743551D01*
X66339769Y-112926043D01*
X66279699Y-113124067D01*
X66259417Y-113330000D01*
X65805583Y-113330000D01*
X65785300Y-113124066D01*
X65725232Y-112926046D01*
X65627685Y-112743550D01*
X65555636Y-112655758D01*
X65496410Y-112583589D01*
X65398952Y-112503609D01*
X65336450Y-112452315D01*
X65245201Y-112403541D01*
X65153956Y-112354769D01*
X65153955Y-112354768D01*
X65153954Y-112354768D01*
X65054943Y-112324733D01*
X64955932Y-112294699D01*
X64750000Y-112274417D01*
X64544067Y-112294699D01*
X64346043Y-112354769D01*
X64163551Y-112452314D01*
X64003589Y-112583589D01*
X63872314Y-112743551D01*
X63774769Y-112926043D01*
X63714699Y-113124067D01*
X63694417Y-113330000D01*
X53130583Y-113330000D01*
X53110300Y-113124066D01*
X53050232Y-112926046D01*
X52952685Y-112743550D01*
X52880636Y-112655758D01*
X52821410Y-112583589D01*
X52723952Y-112503609D01*
X52661450Y-112452315D01*
X52570201Y-112403541D01*
X52478956Y-112354769D01*
X52478955Y-112354768D01*
X52478954Y-112354768D01*
X52379943Y-112324733D01*
X52280932Y-112294699D01*
X52075000Y-112274417D01*
X51869067Y-112294699D01*
X51671043Y-112354769D01*
X51488551Y-112452314D01*
X51328589Y-112583589D01*
X51197314Y-112743551D01*
X51099769Y-112926043D01*
X51039699Y-113124067D01*
X51019417Y-113330000D01*
X50565583Y-113330000D01*
X50545300Y-113124066D01*
X50485232Y-112926046D01*
X50387685Y-112743550D01*
X50315636Y-112655758D01*
X50256410Y-112583589D01*
X50158952Y-112503609D01*
X50096450Y-112452315D01*
X50005201Y-112403541D01*
X49913956Y-112354769D01*
X49913955Y-112354768D01*
X49913954Y-112354768D01*
X49814943Y-112324733D01*
X49715932Y-112294699D01*
X49510000Y-112274417D01*
X49304067Y-112294699D01*
X49106043Y-112354769D01*
X48923551Y-112452314D01*
X48763589Y-112583589D01*
X48632314Y-112743551D01*
X48534769Y-112926043D01*
X48474699Y-113124067D01*
X48454417Y-113330000D01*
X42640500Y-113330000D01*
X42640500Y-112525326D01*
X42639126Y-112518421D01*
X42625966Y-112452261D01*
X42625966Y-112452260D01*
X42570601Y-112369399D01*
X42487740Y-112314034D01*
X42487739Y-112314033D01*
X42487738Y-112314033D01*
X42414675Y-112299500D01*
X42414674Y-112299500D01*
X40665326Y-112299500D01*
X40665325Y-112299500D01*
X40592261Y-112314033D01*
X40509399Y-112369399D01*
X40454033Y-112452261D01*
X40439500Y-112525325D01*
X40439500Y-114274675D01*
X39673312Y-114274675D01*
X39816392Y-114144241D01*
X39939248Y-113981553D01*
X40030114Y-113799068D01*
X40085903Y-113602992D01*
X40093130Y-113525000D01*
X39125000Y-113525000D01*
X38875000Y-113525000D01*
X37906870Y-113525000D01*
X28000500Y-113525000D01*
X28000500Y-113274999D01*
X37906869Y-113274999D01*
X37906870Y-113275000D01*
X38875000Y-113275000D01*
X38875000Y-112304312D01*
X39124999Y-112304312D01*
X39125000Y-112304313D01*
X39125000Y-113275000D01*
X40093130Y-113275000D01*
X40093130Y-113274999D01*
X40085903Y-113197007D01*
X40030114Y-113000931D01*
X39939248Y-112818446D01*
X39816392Y-112655758D01*
X39665740Y-112518421D01*
X39492411Y-112411100D01*
X39302320Y-112337459D01*
X39124999Y-112304312D01*
X38875000Y-112304312D01*
X38697679Y-112337459D01*
X38507588Y-112411100D01*
X38334259Y-112518421D01*
X38183607Y-112655758D01*
X38060751Y-112818446D01*
X37969885Y-113000931D01*
X37914096Y-113197007D01*
X37906869Y-113274999D01*
X28000500Y-113274999D01*
X28000500Y-111125000D01*
X31366870Y-111125000D01*
X31374096Y-111202992D01*
X31429885Y-111399068D01*
X31520751Y-111581553D01*
X31643607Y-111744241D01*
X31794259Y-111881578D01*
X31967588Y-111988899D01*
X32157679Y-112062540D01*
X32335000Y-112095687D01*
X32335000Y-111125000D01*
X32585000Y-111125000D01*
X32585000Y-112095687D01*
X32762320Y-112062540D01*
X32952411Y-111988899D01*
X33125740Y-111881578D01*
X33133312Y-111874675D01*
X33899500Y-111874675D01*
X33914033Y-111947738D01*
X33914033Y-111947739D01*
X33914034Y-111947740D01*
X33969399Y-112030601D01*
X34052260Y-112085966D01*
X34088792Y-112093232D01*
X34125325Y-112100500D01*
X34125326Y-112100500D01*
X35874674Y-112100500D01*
X35874675Y-112100500D01*
X35899029Y-112095655D01*
X35947740Y-112085966D01*
X36030601Y-112030601D01*
X36085966Y-111947740D01*
X36100500Y-111874674D01*
X36100500Y-110790000D01*
X48454417Y-110790000D01*
X48474699Y-110995932D01*
X48534769Y-111193956D01*
X48539599Y-111202992D01*
X48632315Y-111376450D01*
X48636503Y-111381553D01*
X48763589Y-111536410D01*
X48818597Y-111581553D01*
X48923550Y-111667685D01*
X49106046Y-111765232D01*
X49304066Y-111825300D01*
X49510000Y-111845583D01*
X49715934Y-111825300D01*
X49913954Y-111765232D01*
X50096450Y-111667685D01*
X50256410Y-111536410D01*
X50387685Y-111376450D01*
X50485232Y-111193954D01*
X50545300Y-110995934D01*
X50565583Y-110790000D01*
X51019417Y-110790000D01*
X51039699Y-110995932D01*
X51099769Y-111193956D01*
X51104599Y-111202992D01*
X51197315Y-111376450D01*
X51201503Y-111381553D01*
X51328589Y-111536410D01*
X51383597Y-111581553D01*
X51488550Y-111667685D01*
X51671046Y-111765232D01*
X51869066Y-111825300D01*
X52075000Y-111845583D01*
X52280934Y-111825300D01*
X52478954Y-111765232D01*
X52661450Y-111667685D01*
X52821410Y-111536410D01*
X52952685Y-111376450D01*
X53050232Y-111193954D01*
X53110300Y-110995934D01*
X53130583Y-110790000D01*
X63694417Y-110790000D01*
X63714699Y-110995932D01*
X63774769Y-111193956D01*
X63779599Y-111202992D01*
X63872315Y-111376450D01*
X63876503Y-111381553D01*
X64003589Y-111536410D01*
X64058597Y-111581553D01*
X64163550Y-111667685D01*
X64346046Y-111765232D01*
X64544066Y-111825300D01*
X64750000Y-111845583D01*
X64955934Y-111825300D01*
X65153954Y-111765232D01*
X65336450Y-111667685D01*
X65496410Y-111536410D01*
X65627685Y-111376450D01*
X65725232Y-111193954D01*
X65785300Y-110995934D01*
X65805583Y-110790000D01*
X66259417Y-110790000D01*
X66279699Y-110995932D01*
X66339769Y-111193956D01*
X66344599Y-111202992D01*
X66437315Y-111376450D01*
X66441503Y-111381553D01*
X66568589Y-111536410D01*
X66623597Y-111581553D01*
X66728550Y-111667685D01*
X66911046Y-111765232D01*
X67109066Y-111825300D01*
X67315000Y-111845583D01*
X67520934Y-111825300D01*
X67718954Y-111765232D01*
X67888373Y-111674675D01*
X76159500Y-111674675D01*
X76174033Y-111747738D01*
X76174033Y-111747739D01*
X76174034Y-111747740D01*
X76229399Y-111830601D01*
X76312260Y-111885966D01*
X76348792Y-111893232D01*
X76385325Y-111900500D01*
X76385326Y-111900500D01*
X78134674Y-111900500D01*
X78134675Y-111900500D01*
X78159029Y-111895655D01*
X78207740Y-111885966D01*
X78290601Y-111830601D01*
X78345966Y-111747740D01*
X78360500Y-111674674D01*
X78360500Y-110925000D01*
X78706870Y-110925000D01*
X78714096Y-111002992D01*
X78769885Y-111199068D01*
X78860751Y-111381553D01*
X78983607Y-111544241D01*
X79134259Y-111681578D01*
X79307588Y-111788899D01*
X79497679Y-111862540D01*
X79675000Y-111895687D01*
X79675000Y-110925000D01*
X79925000Y-110925000D01*
X79925000Y-111895687D01*
X80102320Y-111862540D01*
X80292411Y-111788899D01*
X80465740Y-111681578D01*
X80616392Y-111544241D01*
X80739248Y-111381553D01*
X80830114Y-111199068D01*
X80885903Y-111002992D01*
X80893130Y-110925000D01*
X79925000Y-110925000D01*
X79675000Y-110925000D01*
X78706870Y-110925000D01*
X78360500Y-110925000D01*
X78360500Y-110674999D01*
X78706869Y-110674999D01*
X78706870Y-110675000D01*
X79675000Y-110675000D01*
X79675000Y-109704312D01*
X79924999Y-109704312D01*
X79925000Y-109704313D01*
X79925000Y-110675000D01*
X80893130Y-110675000D01*
X80893130Y-110674999D01*
X80885903Y-110597007D01*
X80830114Y-110400931D01*
X80739248Y-110218446D01*
X80616392Y-110055758D01*
X80465740Y-109918421D01*
X80292411Y-109811100D01*
X80102320Y-109737459D01*
X79924999Y-109704312D01*
X79675000Y-109704312D01*
X79497679Y-109737459D01*
X79307588Y-109811100D01*
X79134259Y-109918421D01*
X78983607Y-110055758D01*
X78860751Y-110218446D01*
X78769885Y-110400931D01*
X78714096Y-110597007D01*
X78706869Y-110674999D01*
X78360500Y-110674999D01*
X78360500Y-109925326D01*
X78359126Y-109918421D01*
X78345966Y-109852261D01*
X78345966Y-109852260D01*
X78290601Y-109769399D01*
X78207740Y-109714034D01*
X78207739Y-109714033D01*
X78207738Y-109714033D01*
X78134675Y-109699500D01*
X78134674Y-109699500D01*
X76385326Y-109699500D01*
X76385325Y-109699500D01*
X76312261Y-109714033D01*
X76229399Y-109769399D01*
X76174033Y-109852261D01*
X76159500Y-109925325D01*
X76159500Y-111674675D01*
X67888373Y-111674675D01*
X67901450Y-111667685D01*
X68061410Y-111536410D01*
X68192685Y-111376450D01*
X68290232Y-111193954D01*
X68350300Y-110995934D01*
X68370583Y-110790000D01*
X68350300Y-110584066D01*
X68290232Y-110386046D01*
X68192685Y-110203550D01*
X68122822Y-110118421D01*
X68061410Y-110043589D01*
X67932088Y-109937459D01*
X67901450Y-109912315D01*
X67718954Y-109814768D01*
X67569391Y-109769399D01*
X67520932Y-109754699D01*
X67315000Y-109734417D01*
X67109067Y-109754699D01*
X66911043Y-109814769D01*
X66728551Y-109912314D01*
X66568589Y-110043589D01*
X66437314Y-110203551D01*
X66339769Y-110386043D01*
X66279699Y-110584067D01*
X66259417Y-110790000D01*
X65805583Y-110790000D01*
X65785300Y-110584066D01*
X65725232Y-110386046D01*
X65627685Y-110203550D01*
X65557822Y-110118421D01*
X65496410Y-110043589D01*
X65367088Y-109937459D01*
X65336450Y-109912315D01*
X65153954Y-109814768D01*
X65004391Y-109769399D01*
X64955932Y-109754699D01*
X64750000Y-109734417D01*
X64544067Y-109754699D01*
X64346043Y-109814769D01*
X64163551Y-109912314D01*
X64003589Y-110043589D01*
X63872314Y-110203551D01*
X63774769Y-110386043D01*
X63714699Y-110584067D01*
X63694417Y-110790000D01*
X53130583Y-110790000D01*
X53110300Y-110584066D01*
X53050232Y-110386046D01*
X52952685Y-110203550D01*
X52882822Y-110118421D01*
X52821410Y-110043589D01*
X52692088Y-109937459D01*
X52661450Y-109912315D01*
X52478954Y-109814768D01*
X52329391Y-109769399D01*
X52280932Y-109754699D01*
X52075000Y-109734417D01*
X51869067Y-109754699D01*
X51671043Y-109814769D01*
X51488551Y-109912314D01*
X51328589Y-110043589D01*
X51197314Y-110203551D01*
X51099769Y-110386043D01*
X51039699Y-110584067D01*
X51019417Y-110790000D01*
X50565583Y-110790000D01*
X50545300Y-110584066D01*
X50485232Y-110386046D01*
X50387685Y-110203550D01*
X50317822Y-110118421D01*
X50256410Y-110043589D01*
X50127088Y-109937459D01*
X50096450Y-109912315D01*
X49913954Y-109814768D01*
X49764391Y-109769399D01*
X49715932Y-109754699D01*
X49510000Y-109734417D01*
X49304067Y-109754699D01*
X49106043Y-109814769D01*
X48923551Y-109912314D01*
X48763589Y-110043589D01*
X48632314Y-110203551D01*
X48534769Y-110386043D01*
X48474699Y-110584067D01*
X48454417Y-110790000D01*
X36100500Y-110790000D01*
X36100500Y-110125326D01*
X36099126Y-110118421D01*
X36085966Y-110052261D01*
X36085966Y-110052260D01*
X36030601Y-109969399D01*
X35947740Y-109914034D01*
X35947739Y-109914033D01*
X35947738Y-109914033D01*
X35874675Y-109899500D01*
X35874674Y-109899500D01*
X34125326Y-109899500D01*
X34125325Y-109899500D01*
X34052261Y-109914033D01*
X33969399Y-109969399D01*
X33914033Y-110052261D01*
X33899500Y-110125325D01*
X33899500Y-111874675D01*
X33133312Y-111874675D01*
X33276392Y-111744241D01*
X33399248Y-111581553D01*
X33490114Y-111399068D01*
X33545903Y-111202992D01*
X33553130Y-111125000D01*
X32585000Y-111125000D01*
X32335000Y-111125000D01*
X31366870Y-111125000D01*
X28000500Y-111125000D01*
X28000500Y-110874999D01*
X31366869Y-110874999D01*
X31366870Y-110875000D01*
X32335000Y-110875000D01*
X32335000Y-109904313D01*
X32585000Y-109904313D01*
X32585000Y-110875000D01*
X33553130Y-110875000D01*
X33553130Y-110874999D01*
X33545903Y-110797007D01*
X33490114Y-110600931D01*
X33399248Y-110418446D01*
X33276392Y-110255758D01*
X33125740Y-110118421D01*
X32952411Y-110011100D01*
X32762320Y-109937459D01*
X32585000Y-109904313D01*
X32335000Y-109904313D01*
X32335000Y-109904312D01*
X32157679Y-109937459D01*
X31967588Y-110011100D01*
X31794259Y-110118421D01*
X31643607Y-110255758D01*
X31520751Y-110418446D01*
X31429885Y-110600931D01*
X31374096Y-110797007D01*
X31366869Y-110874999D01*
X28000500Y-110874999D01*
X28000500Y-109474675D01*
X83159500Y-109474675D01*
X83174033Y-109547738D01*
X83174033Y-109547739D01*
X83174034Y-109547740D01*
X83229399Y-109630601D01*
X83312260Y-109685966D01*
X83348792Y-109693232D01*
X83385325Y-109700500D01*
X83385326Y-109700500D01*
X85134674Y-109700500D01*
X85134675Y-109700500D01*
X85159029Y-109695655D01*
X85207740Y-109685966D01*
X85290601Y-109630601D01*
X85345966Y-109547740D01*
X85360500Y-109474674D01*
X85360500Y-108725000D01*
X85706870Y-108725000D01*
X85714096Y-108802992D01*
X85769885Y-108999068D01*
X85860751Y-109181553D01*
X85983607Y-109344241D01*
X86134259Y-109481578D01*
X86307588Y-109588899D01*
X86497679Y-109662540D01*
X86675000Y-109695687D01*
X86675000Y-108725000D01*
X86925000Y-108725000D01*
X86925000Y-109695687D01*
X87102320Y-109662540D01*
X87292411Y-109588899D01*
X87465740Y-109481578D01*
X87616392Y-109344241D01*
X87739248Y-109181553D01*
X87830114Y-108999068D01*
X87885903Y-108802992D01*
X87893130Y-108725000D01*
X86925000Y-108725000D01*
X86675000Y-108725000D01*
X85706870Y-108725000D01*
X85360500Y-108725000D01*
X85360500Y-108474999D01*
X85706869Y-108474999D01*
X85706870Y-108475000D01*
X86675000Y-108475000D01*
X86675000Y-107504313D01*
X86925000Y-107504313D01*
X86925000Y-108475000D01*
X87893130Y-108475000D01*
X87893130Y-108474999D01*
X87885903Y-108397007D01*
X87830114Y-108200931D01*
X87739248Y-108018446D01*
X87616392Y-107855758D01*
X87465740Y-107718421D01*
X87292411Y-107611100D01*
X87102320Y-107537459D01*
X86925000Y-107504313D01*
X86675000Y-107504313D01*
X86675000Y-107504312D01*
X86497679Y-107537459D01*
X86307588Y-107611100D01*
X86134259Y-107718421D01*
X85983607Y-107855758D01*
X85860751Y-108018446D01*
X85769885Y-108200931D01*
X85714096Y-108397007D01*
X85706869Y-108474999D01*
X85360500Y-108474999D01*
X85360500Y-107725326D01*
X85359126Y-107718421D01*
X85345966Y-107652261D01*
X85345966Y-107652260D01*
X85290601Y-107569399D01*
X85207740Y-107514034D01*
X85207739Y-107514033D01*
X85207738Y-107514033D01*
X85134675Y-107499500D01*
X85134674Y-107499500D01*
X83385326Y-107499500D01*
X83385325Y-107499500D01*
X83312261Y-107514033D01*
X83229399Y-107569399D01*
X83174033Y-107652261D01*
X83159500Y-107725325D01*
X83159500Y-109474675D01*
X28000500Y-109474675D01*
X28000500Y-108325000D01*
X38366870Y-108325000D01*
X38374096Y-108402992D01*
X38429885Y-108599068D01*
X38520751Y-108781553D01*
X38643607Y-108944241D01*
X38794259Y-109081578D01*
X38967588Y-109188899D01*
X39157679Y-109262540D01*
X39335000Y-109295687D01*
X39335000Y-108325000D01*
X39585000Y-108325000D01*
X39585000Y-109295687D01*
X39762320Y-109262540D01*
X39952411Y-109188899D01*
X40125740Y-109081578D01*
X40133312Y-109074675D01*
X40899500Y-109074675D01*
X40914033Y-109147738D01*
X40914033Y-109147739D01*
X40914034Y-109147740D01*
X40969399Y-109230601D01*
X41052260Y-109285966D01*
X41088792Y-109293232D01*
X41125325Y-109300500D01*
X41125326Y-109300500D01*
X42874674Y-109300500D01*
X42874675Y-109300500D01*
X42899029Y-109295655D01*
X42947740Y-109285966D01*
X43030601Y-109230601D01*
X43085966Y-109147740D01*
X43100500Y-109074674D01*
X43100500Y-108249999D01*
X48454417Y-108249999D01*
X48474699Y-108455932D01*
X48504733Y-108554943D01*
X48534768Y-108653954D01*
X48632315Y-108836450D01*
X48683609Y-108898952D01*
X48763589Y-108996410D01*
X48843569Y-109062047D01*
X48923550Y-109127685D01*
X49106046Y-109225232D01*
X49304066Y-109285300D01*
X49510000Y-109305583D01*
X49715934Y-109285300D01*
X49913954Y-109225232D01*
X50096450Y-109127685D01*
X50256410Y-108996410D01*
X50387685Y-108836450D01*
X50485232Y-108653954D01*
X50545300Y-108455934D01*
X50565583Y-108250000D01*
X50565583Y-108249999D01*
X51019417Y-108249999D01*
X51039699Y-108455932D01*
X51069733Y-108554943D01*
X51099768Y-108653954D01*
X51197315Y-108836450D01*
X51248609Y-108898952D01*
X51328589Y-108996410D01*
X51408569Y-109062047D01*
X51488550Y-109127685D01*
X51671046Y-109225232D01*
X51869066Y-109285300D01*
X52075000Y-109305583D01*
X52280934Y-109285300D01*
X52478954Y-109225232D01*
X52661450Y-109127685D01*
X52821410Y-108996410D01*
X52952685Y-108836450D01*
X53050232Y-108653954D01*
X53110300Y-108455934D01*
X53130583Y-108250000D01*
X53130583Y-108249999D01*
X63694417Y-108249999D01*
X63714699Y-108455932D01*
X63744733Y-108554943D01*
X63774768Y-108653954D01*
X63872315Y-108836450D01*
X63923609Y-108898952D01*
X64003589Y-108996410D01*
X64083569Y-109062047D01*
X64163550Y-109127685D01*
X64346046Y-109225232D01*
X64544066Y-109285300D01*
X64750000Y-109305583D01*
X64955934Y-109285300D01*
X65153954Y-109225232D01*
X65336450Y-109127685D01*
X65496410Y-108996410D01*
X65627685Y-108836450D01*
X65725232Y-108653954D01*
X65785300Y-108455934D01*
X65805583Y-108250000D01*
X65805583Y-108249999D01*
X66259417Y-108249999D01*
X66279699Y-108455932D01*
X66309733Y-108554943D01*
X66339768Y-108653954D01*
X66437315Y-108836450D01*
X66488609Y-108898952D01*
X66568589Y-108996410D01*
X66648569Y-109062047D01*
X66728550Y-109127685D01*
X66911046Y-109225232D01*
X67109066Y-109285300D01*
X67315000Y-109305583D01*
X67520934Y-109285300D01*
X67718954Y-109225232D01*
X67901450Y-109127685D01*
X68061410Y-108996410D01*
X68192685Y-108836450D01*
X68290232Y-108653954D01*
X68350300Y-108455934D01*
X68370583Y-108250000D01*
X68350300Y-108044066D01*
X68290232Y-107846046D01*
X68192685Y-107663550D01*
X68115418Y-107569399D01*
X68061410Y-107503589D01*
X67963952Y-107423609D01*
X67901450Y-107372315D01*
X67718954Y-107274768D01*
X67619944Y-107244734D01*
X67520932Y-107214699D01*
X67315000Y-107194417D01*
X67109067Y-107214699D01*
X66911043Y-107274769D01*
X66728551Y-107372314D01*
X66568589Y-107503589D01*
X66437314Y-107663551D01*
X66339769Y-107846043D01*
X66279699Y-108044067D01*
X66259417Y-108249999D01*
X65805583Y-108249999D01*
X65785300Y-108044066D01*
X65725232Y-107846046D01*
X65627685Y-107663550D01*
X65550418Y-107569399D01*
X65496410Y-107503589D01*
X65398952Y-107423609D01*
X65336450Y-107372315D01*
X65153954Y-107274768D01*
X65054944Y-107244734D01*
X64955932Y-107214699D01*
X64750000Y-107194417D01*
X64544067Y-107214699D01*
X64346043Y-107274769D01*
X64163551Y-107372314D01*
X64003589Y-107503589D01*
X63872314Y-107663551D01*
X63774769Y-107846043D01*
X63714699Y-108044067D01*
X63694417Y-108249999D01*
X53130583Y-108249999D01*
X53110300Y-108044066D01*
X53050232Y-107846046D01*
X52952685Y-107663550D01*
X52875418Y-107569399D01*
X52821410Y-107503589D01*
X52723952Y-107423609D01*
X52661450Y-107372315D01*
X52478954Y-107274768D01*
X52379944Y-107244734D01*
X52280932Y-107214699D01*
X52075000Y-107194417D01*
X51869067Y-107214699D01*
X51671043Y-107274769D01*
X51488551Y-107372314D01*
X51328589Y-107503589D01*
X51197314Y-107663551D01*
X51099769Y-107846043D01*
X51039699Y-108044067D01*
X51019417Y-108249999D01*
X50565583Y-108249999D01*
X50545300Y-108044066D01*
X50485232Y-107846046D01*
X50387685Y-107663550D01*
X50310418Y-107569399D01*
X50256410Y-107503589D01*
X50158952Y-107423609D01*
X50096450Y-107372315D01*
X49913954Y-107274768D01*
X49814944Y-107244734D01*
X49715932Y-107214699D01*
X49510000Y-107194417D01*
X49304067Y-107214699D01*
X49106043Y-107274769D01*
X48923551Y-107372314D01*
X48763589Y-107503589D01*
X48632314Y-107663551D01*
X48534769Y-107846043D01*
X48474699Y-108044067D01*
X48454417Y-108249999D01*
X43100500Y-108249999D01*
X43100500Y-107325326D01*
X43099126Y-107318421D01*
X43085966Y-107252261D01*
X43085966Y-107252260D01*
X43030601Y-107169399D01*
X42947740Y-107114034D01*
X42947739Y-107114033D01*
X42947738Y-107114033D01*
X42874675Y-107099500D01*
X42874674Y-107099500D01*
X41125326Y-107099500D01*
X41125325Y-107099500D01*
X41052261Y-107114033D01*
X40969399Y-107169399D01*
X40914033Y-107252261D01*
X40899500Y-107325325D01*
X40899500Y-109074675D01*
X40133312Y-109074675D01*
X40276392Y-108944241D01*
X40399248Y-108781553D01*
X40490114Y-108599068D01*
X40545903Y-108402992D01*
X40553130Y-108325000D01*
X39585000Y-108325000D01*
X39335000Y-108325000D01*
X38366870Y-108325000D01*
X28000500Y-108325000D01*
X28000500Y-108074999D01*
X38366869Y-108074999D01*
X38366870Y-108075000D01*
X39335000Y-108075000D01*
X39335000Y-107104313D01*
X39585000Y-107104313D01*
X39585000Y-108075000D01*
X40553130Y-108075000D01*
X40553130Y-108074999D01*
X40545903Y-107997007D01*
X40490114Y-107800931D01*
X40399248Y-107618446D01*
X40276392Y-107455758D01*
X40125740Y-107318421D01*
X39952411Y-107211100D01*
X39762320Y-107137459D01*
X39585000Y-107104313D01*
X39335000Y-107104313D01*
X39335000Y-107104312D01*
X39157679Y-107137459D01*
X38967588Y-107211100D01*
X38794259Y-107318421D01*
X38643607Y-107455758D01*
X38520751Y-107618446D01*
X38429885Y-107800931D01*
X38374096Y-107997007D01*
X38366869Y-108074999D01*
X28000500Y-108074999D01*
X28000500Y-105925000D01*
X31366870Y-105925000D01*
X31374096Y-106002992D01*
X31429885Y-106199068D01*
X31520751Y-106381553D01*
X31643607Y-106544241D01*
X31794259Y-106681578D01*
X31967588Y-106788899D01*
X32157679Y-106862540D01*
X32335000Y-106895687D01*
X32335000Y-105925000D01*
X32585000Y-105925000D01*
X32585000Y-106895687D01*
X32762320Y-106862540D01*
X32952411Y-106788899D01*
X33125740Y-106681578D01*
X33133312Y-106674675D01*
X33899500Y-106674675D01*
X33914033Y-106747738D01*
X33914033Y-106747739D01*
X33914034Y-106747740D01*
X33969399Y-106830601D01*
X34052260Y-106885966D01*
X34088793Y-106893233D01*
X34125325Y-106900500D01*
X34125326Y-106900500D01*
X35874674Y-106900500D01*
X35874675Y-106900500D01*
X35899029Y-106895655D01*
X35947740Y-106885966D01*
X36030601Y-106830601D01*
X36085966Y-106747740D01*
X36100500Y-106674674D01*
X36100500Y-105710000D01*
X48454417Y-105710000D01*
X48474699Y-105915932D01*
X48474700Y-105915934D01*
X48534768Y-106113954D01*
X48632315Y-106296450D01*
X48671536Y-106344241D01*
X48763589Y-106456410D01*
X48794257Y-106481578D01*
X48923550Y-106587685D01*
X49106046Y-106685232D01*
X49304066Y-106745300D01*
X49510000Y-106765583D01*
X49715934Y-106745300D01*
X49913954Y-106685232D01*
X50096450Y-106587685D01*
X50256410Y-106456410D01*
X50387685Y-106296450D01*
X50485232Y-106113954D01*
X50545300Y-105915934D01*
X50565583Y-105710000D01*
X51019417Y-105710000D01*
X51039699Y-105915932D01*
X51039700Y-105915934D01*
X51099768Y-106113954D01*
X51197315Y-106296450D01*
X51236536Y-106344241D01*
X51328589Y-106456410D01*
X51359257Y-106481578D01*
X51488550Y-106587685D01*
X51671046Y-106685232D01*
X51869066Y-106745300D01*
X52075000Y-106765583D01*
X52280934Y-106745300D01*
X52478954Y-106685232D01*
X52661450Y-106587685D01*
X52821410Y-106456410D01*
X52952685Y-106296450D01*
X53050232Y-106113954D01*
X53110300Y-105915934D01*
X53130583Y-105710000D01*
X53130583Y-105709999D01*
X63694417Y-105709999D01*
X63714699Y-105915932D01*
X63714700Y-105915934D01*
X63774768Y-106113954D01*
X63872315Y-106296450D01*
X63911536Y-106344241D01*
X64003589Y-106456410D01*
X64034257Y-106481578D01*
X64163550Y-106587685D01*
X64346046Y-106685232D01*
X64544066Y-106745300D01*
X64750000Y-106765583D01*
X64955934Y-106745300D01*
X65153954Y-106685232D01*
X65336450Y-106587685D01*
X65496410Y-106456410D01*
X65627685Y-106296450D01*
X65725232Y-106113954D01*
X65785300Y-105915934D01*
X65805583Y-105710000D01*
X65805583Y-105709999D01*
X66259417Y-105709999D01*
X66279699Y-105915932D01*
X66279700Y-105915934D01*
X66339768Y-106113954D01*
X66437315Y-106296450D01*
X66476536Y-106344241D01*
X66568589Y-106456410D01*
X66599257Y-106481578D01*
X66728550Y-106587685D01*
X66911046Y-106685232D01*
X67109066Y-106745300D01*
X67315000Y-106765583D01*
X67520934Y-106745300D01*
X67718954Y-106685232D01*
X67901450Y-106587685D01*
X68039154Y-106474675D01*
X76359500Y-106474675D01*
X76374033Y-106547738D01*
X76374033Y-106547739D01*
X76374034Y-106547740D01*
X76429399Y-106630601D01*
X76512260Y-106685966D01*
X76548792Y-106693232D01*
X76585325Y-106700500D01*
X76585326Y-106700500D01*
X78334674Y-106700500D01*
X78334675Y-106700500D01*
X78359029Y-106695655D01*
X78407740Y-106685966D01*
X78490601Y-106630601D01*
X78545966Y-106547740D01*
X78560500Y-106474674D01*
X78560500Y-105725000D01*
X78906870Y-105725000D01*
X78914096Y-105802992D01*
X78969885Y-105999068D01*
X79060751Y-106181553D01*
X79183607Y-106344241D01*
X79334259Y-106481578D01*
X79507588Y-106588899D01*
X79697679Y-106662540D01*
X79875000Y-106695687D01*
X79875000Y-105725000D01*
X80125000Y-105725000D01*
X80125000Y-106695687D01*
X80302320Y-106662540D01*
X80492411Y-106588899D01*
X80665740Y-106481578D01*
X80816392Y-106344241D01*
X80939248Y-106181553D01*
X81030114Y-105999068D01*
X81085903Y-105802992D01*
X81093130Y-105725000D01*
X80125000Y-105725000D01*
X79875000Y-105725000D01*
X78906870Y-105725000D01*
X78560500Y-105725000D01*
X78560500Y-105474999D01*
X78906869Y-105474999D01*
X78906870Y-105475000D01*
X79875000Y-105475000D01*
X79875000Y-104504312D01*
X80124999Y-104504312D01*
X80125000Y-104504313D01*
X80125000Y-105475000D01*
X81093130Y-105475000D01*
X81093130Y-105474999D01*
X81085903Y-105397007D01*
X81030114Y-105200931D01*
X80939248Y-105018446D01*
X80816392Y-104855758D01*
X80665740Y-104718421D01*
X80492411Y-104611100D01*
X80302320Y-104537459D01*
X80124999Y-104504312D01*
X79875000Y-104504312D01*
X79697679Y-104537459D01*
X79507588Y-104611100D01*
X79334259Y-104718421D01*
X79183607Y-104855758D01*
X79060751Y-105018446D01*
X78969885Y-105200931D01*
X78914096Y-105397007D01*
X78906869Y-105474999D01*
X78560500Y-105474999D01*
X78560500Y-104725326D01*
X78559126Y-104718421D01*
X78545966Y-104652261D01*
X78545966Y-104652260D01*
X78490601Y-104569399D01*
X78407740Y-104514034D01*
X78407739Y-104514033D01*
X78407738Y-104514033D01*
X78334675Y-104499500D01*
X78334674Y-104499500D01*
X76585326Y-104499500D01*
X76585325Y-104499500D01*
X76512261Y-104514033D01*
X76429399Y-104569399D01*
X76374033Y-104652261D01*
X76359500Y-104725325D01*
X76359500Y-106474675D01*
X68039154Y-106474675D01*
X68061410Y-106456410D01*
X68192685Y-106296450D01*
X68290232Y-106113954D01*
X68350300Y-105915934D01*
X68370583Y-105710000D01*
X68350300Y-105504066D01*
X68290232Y-105306046D01*
X68192685Y-105123550D01*
X68106429Y-105018446D01*
X68061410Y-104963589D01*
X67963952Y-104883609D01*
X67901450Y-104832315D01*
X67810202Y-104783541D01*
X67718956Y-104734769D01*
X67718955Y-104734768D01*
X67718954Y-104734768D01*
X67602690Y-104699500D01*
X67520932Y-104674699D01*
X67315000Y-104654417D01*
X67109067Y-104674699D01*
X66911043Y-104734769D01*
X66728551Y-104832314D01*
X66568589Y-104963589D01*
X66437314Y-105123551D01*
X66339769Y-105306043D01*
X66279699Y-105504067D01*
X66259417Y-105709999D01*
X65805583Y-105709999D01*
X65785300Y-105504066D01*
X65725232Y-105306046D01*
X65627685Y-105123550D01*
X65541429Y-105018446D01*
X65496410Y-104963589D01*
X65398952Y-104883609D01*
X65336450Y-104832315D01*
X65245202Y-104783541D01*
X65153956Y-104734769D01*
X65153955Y-104734768D01*
X65153954Y-104734768D01*
X65037690Y-104699500D01*
X64955932Y-104674699D01*
X64750000Y-104654417D01*
X64544067Y-104674699D01*
X64346043Y-104734769D01*
X64163551Y-104832314D01*
X64003589Y-104963589D01*
X63872314Y-105123551D01*
X63774769Y-105306043D01*
X63714699Y-105504067D01*
X63694417Y-105709999D01*
X53130583Y-105709999D01*
X53110300Y-105504066D01*
X53050232Y-105306046D01*
X52952685Y-105123550D01*
X52866429Y-105018446D01*
X52821410Y-104963589D01*
X52723952Y-104883609D01*
X52661450Y-104832315D01*
X52570202Y-104783541D01*
X52478956Y-104734769D01*
X52478955Y-104734768D01*
X52478954Y-104734768D01*
X52362690Y-104699500D01*
X52280932Y-104674699D01*
X52075000Y-104654417D01*
X51869067Y-104674699D01*
X51671043Y-104734769D01*
X51488551Y-104832314D01*
X51328589Y-104963589D01*
X51197314Y-105123551D01*
X51099769Y-105306043D01*
X51039699Y-105504067D01*
X51019417Y-105710000D01*
X50565583Y-105710000D01*
X50545300Y-105504066D01*
X50485232Y-105306046D01*
X50387685Y-105123550D01*
X50301429Y-105018446D01*
X50256410Y-104963589D01*
X50158952Y-104883609D01*
X50096450Y-104832315D01*
X50005202Y-104783541D01*
X49913956Y-104734769D01*
X49913955Y-104734768D01*
X49913954Y-104734768D01*
X49797690Y-104699500D01*
X49715932Y-104674699D01*
X49510000Y-104654417D01*
X49304067Y-104674699D01*
X49106043Y-104734769D01*
X48923551Y-104832314D01*
X48763589Y-104963589D01*
X48632314Y-105123551D01*
X48534769Y-105306043D01*
X48474699Y-105504067D01*
X48454417Y-105710000D01*
X36100500Y-105710000D01*
X36100500Y-104925326D01*
X36099126Y-104918421D01*
X36085966Y-104852261D01*
X36085966Y-104852260D01*
X36030601Y-104769399D01*
X35947740Y-104714034D01*
X35947739Y-104714033D01*
X35947738Y-104714033D01*
X35874675Y-104699500D01*
X35874674Y-104699500D01*
X34125326Y-104699500D01*
X34125325Y-104699500D01*
X34052261Y-104714033D01*
X33969399Y-104769399D01*
X33914033Y-104852261D01*
X33899500Y-104925325D01*
X33899500Y-106674675D01*
X33133312Y-106674675D01*
X33276392Y-106544241D01*
X33399248Y-106381553D01*
X33490114Y-106199068D01*
X33545903Y-106002992D01*
X33553130Y-105925000D01*
X32585000Y-105925000D01*
X32335000Y-105925000D01*
X31366870Y-105925000D01*
X28000500Y-105925000D01*
X28000500Y-105674999D01*
X31366869Y-105674999D01*
X31366870Y-105675000D01*
X32335000Y-105675000D01*
X32335000Y-104704312D01*
X32584999Y-104704312D01*
X32585000Y-104704313D01*
X32585000Y-105675000D01*
X33553130Y-105675000D01*
X33553130Y-105674999D01*
X33545903Y-105597007D01*
X33490114Y-105400931D01*
X33399248Y-105218446D01*
X33276392Y-105055758D01*
X33125740Y-104918421D01*
X32952411Y-104811100D01*
X32762320Y-104737459D01*
X32584999Y-104704312D01*
X32335000Y-104704312D01*
X32157679Y-104737459D01*
X31967588Y-104811100D01*
X31794259Y-104918421D01*
X31643607Y-105055758D01*
X31520751Y-105218446D01*
X31429885Y-105400931D01*
X31374096Y-105597007D01*
X31366869Y-105674999D01*
X28000500Y-105674999D01*
X28000500Y-103325000D01*
X38366870Y-103325000D01*
X38374096Y-103402992D01*
X38429885Y-103599068D01*
X38520751Y-103781553D01*
X38643607Y-103944241D01*
X38794259Y-104081578D01*
X38967588Y-104188899D01*
X39157679Y-104262540D01*
X39335000Y-104295687D01*
X39335000Y-103325000D01*
X39585000Y-103325000D01*
X39585000Y-104295687D01*
X39762320Y-104262540D01*
X39952411Y-104188899D01*
X40125740Y-104081578D01*
X40133312Y-104074675D01*
X40899500Y-104074675D01*
X40914033Y-104147738D01*
X40914033Y-104147739D01*
X40914034Y-104147740D01*
X40969399Y-104230601D01*
X41052260Y-104285966D01*
X41088793Y-104293233D01*
X41125325Y-104300500D01*
X41125326Y-104300500D01*
X42874674Y-104300500D01*
X42874675Y-104300500D01*
X42899029Y-104295655D01*
X42947740Y-104285966D01*
X43030601Y-104230601D01*
X43085966Y-104147740D01*
X43100500Y-104074674D01*
X43100500Y-103170000D01*
X48454417Y-103170000D01*
X48474699Y-103375932D01*
X48482908Y-103402992D01*
X48534768Y-103573954D01*
X48632315Y-103756450D01*
X48683609Y-103818952D01*
X48763589Y-103916410D01*
X48843569Y-103982047D01*
X48923550Y-104047685D01*
X49106046Y-104145232D01*
X49304066Y-104205300D01*
X49510000Y-104225583D01*
X49715934Y-104205300D01*
X49913954Y-104145232D01*
X50096450Y-104047685D01*
X50256410Y-103916410D01*
X50387685Y-103756450D01*
X50485232Y-103573954D01*
X50545300Y-103375934D01*
X50565583Y-103170000D01*
X51019417Y-103170000D01*
X51039699Y-103375932D01*
X51047908Y-103402992D01*
X51099768Y-103573954D01*
X51197315Y-103756450D01*
X51248609Y-103818952D01*
X51328589Y-103916410D01*
X51408569Y-103982047D01*
X51488550Y-104047685D01*
X51671046Y-104145232D01*
X51869066Y-104205300D01*
X52075000Y-104225583D01*
X52280934Y-104205300D01*
X52478954Y-104145232D01*
X52661450Y-104047685D01*
X52821410Y-103916410D01*
X52952685Y-103756450D01*
X53050232Y-103573954D01*
X53110300Y-103375934D01*
X53130583Y-103170000D01*
X63694417Y-103170000D01*
X63714699Y-103375932D01*
X63722908Y-103402992D01*
X63774768Y-103573954D01*
X63872315Y-103756450D01*
X63923609Y-103818952D01*
X64003589Y-103916410D01*
X64083569Y-103982047D01*
X64163550Y-104047685D01*
X64346046Y-104145232D01*
X64544066Y-104205300D01*
X64750000Y-104225583D01*
X64955934Y-104205300D01*
X65153954Y-104145232D01*
X65336450Y-104047685D01*
X65496410Y-103916410D01*
X65627685Y-103756450D01*
X65725232Y-103573954D01*
X65785300Y-103375934D01*
X65805583Y-103170000D01*
X66259417Y-103170000D01*
X66279699Y-103375932D01*
X66287908Y-103402992D01*
X66339768Y-103573954D01*
X66437315Y-103756450D01*
X66488609Y-103818952D01*
X66568589Y-103916410D01*
X66648569Y-103982047D01*
X66728550Y-104047685D01*
X66911046Y-104145232D01*
X67109066Y-104205300D01*
X67315000Y-104225583D01*
X67520934Y-104205300D01*
X67718954Y-104145232D01*
X67901450Y-104047685D01*
X68061410Y-103916410D01*
X68095661Y-103874675D01*
X83359500Y-103874675D01*
X83374033Y-103947738D01*
X83374033Y-103947739D01*
X83374034Y-103947740D01*
X83429399Y-104030601D01*
X83512260Y-104085966D01*
X83548793Y-104093233D01*
X83585325Y-104100500D01*
X83585326Y-104100500D01*
X85334674Y-104100500D01*
X85334675Y-104100500D01*
X85359029Y-104095655D01*
X85407740Y-104085966D01*
X85490601Y-104030601D01*
X85545966Y-103947740D01*
X85560500Y-103874674D01*
X85560500Y-103125000D01*
X85906870Y-103125000D01*
X85914096Y-103202992D01*
X85969885Y-103399068D01*
X86060751Y-103581553D01*
X86183607Y-103744241D01*
X86334259Y-103881578D01*
X86507588Y-103988899D01*
X86697679Y-104062540D01*
X86875000Y-104095687D01*
X86875000Y-103125000D01*
X87125000Y-103125000D01*
X87125000Y-104095687D01*
X87302320Y-104062540D01*
X87492411Y-103988899D01*
X87665740Y-103881578D01*
X87816392Y-103744241D01*
X87939248Y-103581553D01*
X88030114Y-103399068D01*
X88085903Y-103202992D01*
X88093130Y-103125000D01*
X87125000Y-103125000D01*
X86875000Y-103125000D01*
X85906870Y-103125000D01*
X85560500Y-103125000D01*
X85560500Y-102874999D01*
X85906869Y-102874999D01*
X85906870Y-102875000D01*
X86875000Y-102875000D01*
X86875000Y-101904312D01*
X87124999Y-101904312D01*
X87125000Y-101904313D01*
X87125000Y-102875000D01*
X88093130Y-102875000D01*
X88093130Y-102874999D01*
X88085903Y-102797007D01*
X88030114Y-102600931D01*
X87939248Y-102418446D01*
X87816392Y-102255758D01*
X87665740Y-102118421D01*
X87492411Y-102011100D01*
X87302320Y-101937459D01*
X87124999Y-101904312D01*
X86875000Y-101904312D01*
X86697679Y-101937459D01*
X86507588Y-102011100D01*
X86334259Y-102118421D01*
X86183607Y-102255758D01*
X86060751Y-102418446D01*
X85969885Y-102600931D01*
X85914096Y-102797007D01*
X85906869Y-102874999D01*
X85560500Y-102874999D01*
X85560500Y-102125326D01*
X85559126Y-102118421D01*
X85545966Y-102052261D01*
X85545966Y-102052260D01*
X85490601Y-101969399D01*
X85407740Y-101914034D01*
X85407739Y-101914033D01*
X85407738Y-101914033D01*
X85334675Y-101899500D01*
X85334674Y-101899500D01*
X83585326Y-101899500D01*
X83585325Y-101899500D01*
X83512261Y-101914033D01*
X83429399Y-101969399D01*
X83374033Y-102052261D01*
X83359500Y-102125325D01*
X83359500Y-103874675D01*
X68095661Y-103874675D01*
X68192685Y-103756450D01*
X68290232Y-103573954D01*
X68350300Y-103375934D01*
X68370583Y-103170000D01*
X68350300Y-102964066D01*
X68290232Y-102766046D01*
X68192685Y-102583550D01*
X68127047Y-102503570D01*
X68061410Y-102423589D01*
X67933260Y-102318421D01*
X67901450Y-102292315D01*
X67718954Y-102194768D01*
X67619944Y-102164734D01*
X67520932Y-102134699D01*
X67337497Y-102116632D01*
X67315000Y-102114417D01*
X67314999Y-102114417D01*
X67109067Y-102134699D01*
X66911043Y-102194769D01*
X66728551Y-102292314D01*
X66568589Y-102423589D01*
X66437314Y-102583551D01*
X66339769Y-102766043D01*
X66279699Y-102964067D01*
X66259417Y-103170000D01*
X65805583Y-103170000D01*
X65785300Y-102964066D01*
X65725232Y-102766046D01*
X65627685Y-102583550D01*
X65562047Y-102503570D01*
X65496410Y-102423589D01*
X65368260Y-102318421D01*
X65336450Y-102292315D01*
X65153954Y-102194768D01*
X65054944Y-102164734D01*
X64955932Y-102134699D01*
X64772497Y-102116632D01*
X64750000Y-102114417D01*
X64749999Y-102114417D01*
X64544067Y-102134699D01*
X64346043Y-102194769D01*
X64163551Y-102292314D01*
X64003589Y-102423589D01*
X63872314Y-102583551D01*
X63774769Y-102766043D01*
X63714699Y-102964067D01*
X63694417Y-103170000D01*
X53130583Y-103170000D01*
X53110300Y-102964066D01*
X53050232Y-102766046D01*
X52952685Y-102583550D01*
X52887047Y-102503570D01*
X52821410Y-102423589D01*
X52693260Y-102318421D01*
X52661450Y-102292315D01*
X52478954Y-102194768D01*
X52379944Y-102164734D01*
X52280932Y-102134699D01*
X52097497Y-102116632D01*
X52075000Y-102114417D01*
X52074999Y-102114417D01*
X51869067Y-102134699D01*
X51671043Y-102194769D01*
X51488551Y-102292314D01*
X51328589Y-102423589D01*
X51197314Y-102583551D01*
X51099769Y-102766043D01*
X51039699Y-102964067D01*
X51019417Y-103170000D01*
X50565583Y-103170000D01*
X50545300Y-102964066D01*
X50485232Y-102766046D01*
X50387685Y-102583550D01*
X50322047Y-102503570D01*
X50256410Y-102423589D01*
X50128260Y-102318421D01*
X50096450Y-102292315D01*
X49913954Y-102194768D01*
X49814944Y-102164734D01*
X49715932Y-102134699D01*
X49532497Y-102116632D01*
X49510000Y-102114417D01*
X49509999Y-102114417D01*
X49304067Y-102134699D01*
X49106043Y-102194769D01*
X48923551Y-102292314D01*
X48763589Y-102423589D01*
X48632314Y-102583551D01*
X48534769Y-102766043D01*
X48474699Y-102964067D01*
X48454417Y-103170000D01*
X43100500Y-103170000D01*
X43100500Y-102325326D01*
X43099126Y-102318421D01*
X43085966Y-102252261D01*
X43085966Y-102252260D01*
X43030601Y-102169399D01*
X42947740Y-102114034D01*
X42947739Y-102114033D01*
X42947738Y-102114033D01*
X42874675Y-102099500D01*
X42874674Y-102099500D01*
X41125326Y-102099500D01*
X41125325Y-102099500D01*
X41052261Y-102114033D01*
X40969399Y-102169399D01*
X40914033Y-102252261D01*
X40899500Y-102325325D01*
X40899500Y-104074675D01*
X40133312Y-104074675D01*
X40276392Y-103944241D01*
X40399248Y-103781553D01*
X40490114Y-103599068D01*
X40545903Y-103402992D01*
X40553130Y-103325000D01*
X39585000Y-103325000D01*
X39335000Y-103325000D01*
X38366870Y-103325000D01*
X28000500Y-103325000D01*
X28000500Y-103074999D01*
X38366869Y-103074999D01*
X38366870Y-103075000D01*
X39335000Y-103075000D01*
X39335000Y-102104313D01*
X39585000Y-102104313D01*
X39585000Y-103075000D01*
X40553130Y-103075000D01*
X40553130Y-103074999D01*
X40545903Y-102997007D01*
X40490114Y-102800931D01*
X40399248Y-102618446D01*
X40276392Y-102455758D01*
X40125740Y-102318421D01*
X39952411Y-102211100D01*
X39762320Y-102137459D01*
X39585000Y-102104313D01*
X39335000Y-102104313D01*
X39335000Y-102104312D01*
X39157679Y-102137459D01*
X38967588Y-102211100D01*
X38794259Y-102318421D01*
X38643607Y-102455758D01*
X38520751Y-102618446D01*
X38429885Y-102800931D01*
X38374096Y-102997007D01*
X38366869Y-103074999D01*
X28000500Y-103074999D01*
X28000500Y-100725000D01*
X31966870Y-100725000D01*
X31974096Y-100802992D01*
X32029885Y-100999068D01*
X32120751Y-101181553D01*
X32243607Y-101344241D01*
X32394259Y-101481578D01*
X32567588Y-101588899D01*
X32757679Y-101662540D01*
X32935000Y-101695687D01*
X32935000Y-100725000D01*
X33185000Y-100725000D01*
X33185000Y-101695687D01*
X33362320Y-101662540D01*
X33552411Y-101588899D01*
X33725740Y-101481578D01*
X33733312Y-101474675D01*
X34499500Y-101474675D01*
X34514033Y-101547738D01*
X34514033Y-101547739D01*
X34514034Y-101547740D01*
X34569399Y-101630601D01*
X34652260Y-101685966D01*
X34688793Y-101693233D01*
X34725325Y-101700500D01*
X34725326Y-101700500D01*
X36474674Y-101700500D01*
X36474675Y-101700500D01*
X36499029Y-101695655D01*
X36547740Y-101685966D01*
X36630601Y-101630601D01*
X36685966Y-101547740D01*
X36700500Y-101474674D01*
X36700500Y-100629999D01*
X48454417Y-100629999D01*
X48474699Y-100835932D01*
X48474700Y-100835934D01*
X48534768Y-101033954D01*
X48632315Y-101216450D01*
X48683608Y-101278952D01*
X48763589Y-101376410D01*
X48843569Y-101442047D01*
X48923550Y-101507685D01*
X49106046Y-101605232D01*
X49304066Y-101665300D01*
X49510000Y-101685583D01*
X49715934Y-101665300D01*
X49913954Y-101605232D01*
X50096450Y-101507685D01*
X50256410Y-101376410D01*
X50387685Y-101216450D01*
X50485232Y-101033954D01*
X50545300Y-100835934D01*
X50565583Y-100630000D01*
X50565583Y-100629999D01*
X51019417Y-100629999D01*
X51039699Y-100835932D01*
X51039700Y-100835934D01*
X51099768Y-101033954D01*
X51197315Y-101216450D01*
X51248608Y-101278952D01*
X51328589Y-101376410D01*
X51408569Y-101442047D01*
X51488550Y-101507685D01*
X51671046Y-101605232D01*
X51869066Y-101665300D01*
X52075000Y-101685583D01*
X52280934Y-101665300D01*
X52478954Y-101605232D01*
X52661450Y-101507685D01*
X52821410Y-101376410D01*
X52952685Y-101216450D01*
X53050232Y-101033954D01*
X53110300Y-100835934D01*
X53130583Y-100630000D01*
X53130583Y-100629999D01*
X63694417Y-100629999D01*
X63714699Y-100835932D01*
X63714700Y-100835934D01*
X63774768Y-101033954D01*
X63872315Y-101216450D01*
X63923608Y-101278952D01*
X64003589Y-101376410D01*
X64083569Y-101442047D01*
X64163550Y-101507685D01*
X64346046Y-101605232D01*
X64544066Y-101665300D01*
X64750000Y-101685583D01*
X64955934Y-101665300D01*
X65153954Y-101605232D01*
X65336450Y-101507685D01*
X65496410Y-101376410D01*
X65627685Y-101216450D01*
X65725232Y-101033954D01*
X65785300Y-100835934D01*
X65805583Y-100630000D01*
X65805583Y-100629999D01*
X66259417Y-100629999D01*
X66279699Y-100835932D01*
X66279700Y-100835934D01*
X66339768Y-101033954D01*
X66437315Y-101216450D01*
X66488608Y-101278952D01*
X66568589Y-101376410D01*
X66648569Y-101442047D01*
X66728550Y-101507685D01*
X66911046Y-101605232D01*
X67109066Y-101665300D01*
X67315000Y-101685583D01*
X67520934Y-101665300D01*
X67718954Y-101605232D01*
X67901450Y-101507685D01*
X67941673Y-101474675D01*
X76159500Y-101474675D01*
X76174033Y-101547738D01*
X76174033Y-101547739D01*
X76174034Y-101547740D01*
X76229399Y-101630601D01*
X76312260Y-101685966D01*
X76348793Y-101693233D01*
X76385325Y-101700500D01*
X76385326Y-101700500D01*
X78134674Y-101700500D01*
X78134675Y-101700500D01*
X78159029Y-101695655D01*
X78207740Y-101685966D01*
X78290601Y-101630601D01*
X78345966Y-101547740D01*
X78360500Y-101474674D01*
X78360500Y-100725000D01*
X78706870Y-100725000D01*
X78714096Y-100802992D01*
X78769885Y-100999068D01*
X78860751Y-101181553D01*
X78983607Y-101344241D01*
X79134259Y-101481578D01*
X79307588Y-101588899D01*
X79497679Y-101662540D01*
X79675000Y-101695687D01*
X79675000Y-100725000D01*
X79925000Y-100725000D01*
X79925000Y-101695687D01*
X80102320Y-101662540D01*
X80292411Y-101588899D01*
X80465740Y-101481578D01*
X80616392Y-101344241D01*
X80739248Y-101181553D01*
X80830114Y-100999068D01*
X80885903Y-100802992D01*
X80893130Y-100725000D01*
X79925000Y-100725000D01*
X79675000Y-100725000D01*
X78706870Y-100725000D01*
X78360500Y-100725000D01*
X78360500Y-100474999D01*
X78706869Y-100474999D01*
X78706870Y-100475000D01*
X79675000Y-100475000D01*
X79675000Y-99504312D01*
X79924999Y-99504312D01*
X79925000Y-99504313D01*
X79925000Y-100475000D01*
X80893130Y-100475000D01*
X80893130Y-100474999D01*
X80885903Y-100397007D01*
X80830114Y-100200931D01*
X80739248Y-100018446D01*
X80616392Y-99855758D01*
X80465740Y-99718421D01*
X80292411Y-99611100D01*
X80102320Y-99537459D01*
X79924999Y-99504312D01*
X79675000Y-99504312D01*
X79497679Y-99537459D01*
X79307588Y-99611100D01*
X79134259Y-99718421D01*
X78983607Y-99855758D01*
X78860751Y-100018446D01*
X78769885Y-100200931D01*
X78714096Y-100397007D01*
X78706869Y-100474999D01*
X78360500Y-100474999D01*
X78360500Y-99725326D01*
X78359126Y-99718421D01*
X78345966Y-99652261D01*
X78345966Y-99652260D01*
X78290601Y-99569399D01*
X78207740Y-99514034D01*
X78207739Y-99514033D01*
X78207738Y-99514033D01*
X78134675Y-99499500D01*
X78134674Y-99499500D01*
X76385326Y-99499500D01*
X76385325Y-99499500D01*
X76312261Y-99514033D01*
X76229399Y-99569399D01*
X76174033Y-99652261D01*
X76159500Y-99725325D01*
X76159500Y-101474675D01*
X67941673Y-101474675D01*
X68061410Y-101376410D01*
X68192685Y-101216450D01*
X68290232Y-101033954D01*
X68350300Y-100835934D01*
X68370583Y-100630000D01*
X68350300Y-100424066D01*
X68290232Y-100226046D01*
X68192685Y-100043550D01*
X68127047Y-99963569D01*
X68061410Y-99883589D01*
X67963952Y-99803608D01*
X67901450Y-99752315D01*
X67718954Y-99654768D01*
X67619943Y-99624733D01*
X67520932Y-99594699D01*
X67315000Y-99574417D01*
X67109067Y-99594699D01*
X66911043Y-99654769D01*
X66728551Y-99752314D01*
X66568589Y-99883589D01*
X66437314Y-100043551D01*
X66339769Y-100226043D01*
X66279699Y-100424067D01*
X66259417Y-100629999D01*
X65805583Y-100629999D01*
X65785300Y-100424066D01*
X65725232Y-100226046D01*
X65627685Y-100043550D01*
X65562047Y-99963569D01*
X65496410Y-99883589D01*
X65398952Y-99803608D01*
X65336450Y-99752315D01*
X65153954Y-99654768D01*
X65054943Y-99624733D01*
X64955932Y-99594699D01*
X64750000Y-99574417D01*
X64544067Y-99594699D01*
X64346043Y-99654769D01*
X64163551Y-99752314D01*
X64003589Y-99883589D01*
X63872314Y-100043551D01*
X63774769Y-100226043D01*
X63714699Y-100424067D01*
X63694417Y-100629999D01*
X53130583Y-100629999D01*
X53110300Y-100424066D01*
X53050232Y-100226046D01*
X52952685Y-100043550D01*
X52887047Y-99963569D01*
X52821410Y-99883589D01*
X52723952Y-99803608D01*
X52661450Y-99752315D01*
X52478954Y-99654768D01*
X52379943Y-99624733D01*
X52280932Y-99594699D01*
X52075000Y-99574417D01*
X51869067Y-99594699D01*
X51671043Y-99654769D01*
X51488551Y-99752314D01*
X51328589Y-99883589D01*
X51197314Y-100043551D01*
X51099769Y-100226043D01*
X51039699Y-100424067D01*
X51019417Y-100629999D01*
X50565583Y-100629999D01*
X50545300Y-100424066D01*
X50485232Y-100226046D01*
X50387685Y-100043550D01*
X50322047Y-99963569D01*
X50256410Y-99883589D01*
X50158952Y-99803608D01*
X50096450Y-99752315D01*
X49913954Y-99654768D01*
X49814943Y-99624733D01*
X49715932Y-99594699D01*
X49510000Y-99574417D01*
X49304067Y-99594699D01*
X49106043Y-99654769D01*
X48923551Y-99752314D01*
X48763589Y-99883589D01*
X48632314Y-100043551D01*
X48534769Y-100226043D01*
X48474699Y-100424067D01*
X48454417Y-100629999D01*
X36700500Y-100629999D01*
X36700500Y-99725326D01*
X36699126Y-99718421D01*
X36685966Y-99652261D01*
X36685966Y-99652260D01*
X36630601Y-99569399D01*
X36547740Y-99514034D01*
X36547739Y-99514033D01*
X36547738Y-99514033D01*
X36474675Y-99499500D01*
X36474674Y-99499500D01*
X34725326Y-99499500D01*
X34725325Y-99499500D01*
X34652261Y-99514033D01*
X34569399Y-99569399D01*
X34514033Y-99652261D01*
X34499500Y-99725325D01*
X34499500Y-101474675D01*
X33733312Y-101474675D01*
X33876392Y-101344241D01*
X33999248Y-101181553D01*
X34090114Y-100999068D01*
X34145903Y-100802992D01*
X34153130Y-100725000D01*
X33185000Y-100725000D01*
X32935000Y-100725000D01*
X31966870Y-100725000D01*
X28000500Y-100725000D01*
X28000500Y-100474999D01*
X31966869Y-100474999D01*
X31966870Y-100475000D01*
X32935000Y-100475000D01*
X32935000Y-99504312D01*
X33184999Y-99504312D01*
X33185000Y-99504313D01*
X33185000Y-100475000D01*
X34153130Y-100475000D01*
X34153130Y-100474999D01*
X34145903Y-100397007D01*
X34090114Y-100200931D01*
X33999248Y-100018446D01*
X33876392Y-99855758D01*
X33725740Y-99718421D01*
X33552411Y-99611100D01*
X33362320Y-99537459D01*
X33184999Y-99504312D01*
X32935000Y-99504312D01*
X32757679Y-99537459D01*
X32567588Y-99611100D01*
X32394259Y-99718421D01*
X32243607Y-99855758D01*
X32120751Y-100018446D01*
X32029885Y-100200931D01*
X31974096Y-100397007D01*
X31966869Y-100474999D01*
X28000500Y-100474999D01*
X28000500Y-98125000D01*
X38366870Y-98125000D01*
X38374096Y-98202992D01*
X38429885Y-98399068D01*
X38520751Y-98581553D01*
X38643607Y-98744241D01*
X38794259Y-98881578D01*
X38967588Y-98988899D01*
X39157679Y-99062540D01*
X39335000Y-99095687D01*
X39335000Y-98125000D01*
X39585000Y-98125000D01*
X39585000Y-99095687D01*
X39762320Y-99062540D01*
X39952411Y-98988899D01*
X40125740Y-98881578D01*
X40133312Y-98874675D01*
X40899500Y-98874675D01*
X40914033Y-98947738D01*
X40914033Y-98947739D01*
X40914034Y-98947740D01*
X40969399Y-99030601D01*
X41052260Y-99085966D01*
X41088792Y-99093232D01*
X41125325Y-99100500D01*
X41125326Y-99100500D01*
X42874674Y-99100500D01*
X42874675Y-99100500D01*
X42899029Y-99095655D01*
X42947740Y-99085966D01*
X43030601Y-99030601D01*
X43085966Y-98947740D01*
X43100500Y-98874674D01*
X43100500Y-98090000D01*
X48454417Y-98090000D01*
X48474699Y-98295932D01*
X48474700Y-98295934D01*
X48534768Y-98493954D01*
X48632315Y-98676450D01*
X48683609Y-98738952D01*
X48763589Y-98836410D01*
X48843569Y-98902047D01*
X48923550Y-98967685D01*
X49106046Y-99065232D01*
X49304066Y-99125300D01*
X49510000Y-99145583D01*
X49715934Y-99125300D01*
X49913954Y-99065232D01*
X50096450Y-98967685D01*
X50256410Y-98836410D01*
X50387685Y-98676450D01*
X50485232Y-98493954D01*
X50545300Y-98295934D01*
X50565583Y-98090000D01*
X51019417Y-98090000D01*
X51039699Y-98295932D01*
X51039700Y-98295934D01*
X51099768Y-98493954D01*
X51197315Y-98676450D01*
X51248609Y-98738952D01*
X51328589Y-98836410D01*
X51408569Y-98902047D01*
X51488550Y-98967685D01*
X51671046Y-99065232D01*
X51869066Y-99125300D01*
X52075000Y-99145583D01*
X52280934Y-99125300D01*
X52478954Y-99065232D01*
X52661450Y-98967685D01*
X52821410Y-98836410D01*
X52952685Y-98676450D01*
X53050232Y-98493954D01*
X53110300Y-98295934D01*
X53130583Y-98090000D01*
X63694417Y-98090000D01*
X63714699Y-98295932D01*
X63714700Y-98295934D01*
X63774768Y-98493954D01*
X63872315Y-98676450D01*
X63923609Y-98738952D01*
X64003589Y-98836410D01*
X64083569Y-98902047D01*
X64163550Y-98967685D01*
X64346046Y-99065232D01*
X64544066Y-99125300D01*
X64750000Y-99145583D01*
X64955934Y-99125300D01*
X65153954Y-99065232D01*
X65336450Y-98967685D01*
X65496410Y-98836410D01*
X65627685Y-98676450D01*
X65725232Y-98493954D01*
X65785300Y-98295934D01*
X65805583Y-98090000D01*
X66259417Y-98090000D01*
X66279699Y-98295932D01*
X66279700Y-98295934D01*
X66339768Y-98493954D01*
X66437315Y-98676450D01*
X66488609Y-98738952D01*
X66568589Y-98836410D01*
X66648569Y-98902047D01*
X66728550Y-98967685D01*
X66911046Y-99065232D01*
X67109066Y-99125300D01*
X67315000Y-99145583D01*
X67520934Y-99125300D01*
X67718954Y-99065232D01*
X67901450Y-98967685D01*
X68014784Y-98874675D01*
X83299500Y-98874675D01*
X83314033Y-98947738D01*
X83314033Y-98947739D01*
X83314034Y-98947740D01*
X83369399Y-99030601D01*
X83452260Y-99085966D01*
X83488792Y-99093232D01*
X83525325Y-99100500D01*
X83525326Y-99100500D01*
X85274674Y-99100500D01*
X85274675Y-99100500D01*
X85299029Y-99095655D01*
X85347740Y-99085966D01*
X85430601Y-99030601D01*
X85485966Y-98947740D01*
X85500500Y-98874674D01*
X85500500Y-98125000D01*
X85846870Y-98125000D01*
X85854096Y-98202992D01*
X85909885Y-98399068D01*
X86000751Y-98581553D01*
X86123607Y-98744241D01*
X86274259Y-98881578D01*
X86447588Y-98988899D01*
X86637679Y-99062540D01*
X86815000Y-99095687D01*
X86815000Y-98125000D01*
X87065000Y-98125000D01*
X87065000Y-99095687D01*
X87242320Y-99062540D01*
X87432411Y-98988899D01*
X87605740Y-98881578D01*
X87756392Y-98744241D01*
X87879248Y-98581553D01*
X87970114Y-98399068D01*
X88025903Y-98202992D01*
X88033130Y-98125000D01*
X87065000Y-98125000D01*
X86815000Y-98125000D01*
X85846870Y-98125000D01*
X85500500Y-98125000D01*
X85500500Y-97874999D01*
X85846869Y-97874999D01*
X85846870Y-97875000D01*
X86815000Y-97875000D01*
X86815000Y-96904312D01*
X87064999Y-96904312D01*
X87065000Y-96904313D01*
X87065000Y-97875000D01*
X88033130Y-97875000D01*
X88033130Y-97874999D01*
X88025903Y-97797007D01*
X87970114Y-97600931D01*
X87879248Y-97418446D01*
X87756392Y-97255758D01*
X87605740Y-97118421D01*
X87432411Y-97011100D01*
X87242320Y-96937459D01*
X87064999Y-96904312D01*
X86815000Y-96904312D01*
X86637679Y-96937459D01*
X86447588Y-97011100D01*
X86274259Y-97118421D01*
X86123607Y-97255758D01*
X86000751Y-97418446D01*
X85909885Y-97600931D01*
X85854096Y-97797007D01*
X85846869Y-97874999D01*
X85500500Y-97874999D01*
X85500500Y-97125326D01*
X85499126Y-97118421D01*
X85485966Y-97052261D01*
X85485966Y-97052260D01*
X85430601Y-96969399D01*
X85347740Y-96914034D01*
X85347739Y-96914033D01*
X85347738Y-96914033D01*
X85274675Y-96899500D01*
X85274674Y-96899500D01*
X83525326Y-96899500D01*
X83525325Y-96899500D01*
X83452261Y-96914033D01*
X83369399Y-96969399D01*
X83314033Y-97052261D01*
X83299500Y-97125325D01*
X83299500Y-98874675D01*
X68014784Y-98874675D01*
X68061410Y-98836410D01*
X68192685Y-98676450D01*
X68290232Y-98493954D01*
X68350300Y-98295934D01*
X68370583Y-98090000D01*
X68350300Y-97884066D01*
X68290232Y-97686046D01*
X68192685Y-97503550D01*
X68122842Y-97418446D01*
X68061410Y-97343589D01*
X67954386Y-97255758D01*
X67901450Y-97212315D01*
X67810201Y-97163541D01*
X67718956Y-97114769D01*
X67718955Y-97114768D01*
X67718954Y-97114768D01*
X67619944Y-97084734D01*
X67520932Y-97054699D01*
X67315000Y-97034417D01*
X67109067Y-97054699D01*
X66911043Y-97114769D01*
X66728551Y-97212314D01*
X66568589Y-97343589D01*
X66437314Y-97503551D01*
X66339769Y-97686043D01*
X66279699Y-97884067D01*
X66259417Y-98090000D01*
X65805583Y-98090000D01*
X65785300Y-97884066D01*
X65725232Y-97686046D01*
X65627685Y-97503550D01*
X65557842Y-97418446D01*
X65496410Y-97343589D01*
X65389386Y-97255758D01*
X65336450Y-97212315D01*
X65245201Y-97163541D01*
X65153956Y-97114769D01*
X65153955Y-97114768D01*
X65153954Y-97114768D01*
X65054944Y-97084734D01*
X64955932Y-97054699D01*
X64750000Y-97034417D01*
X64544067Y-97054699D01*
X64346043Y-97114769D01*
X64163551Y-97212314D01*
X64003589Y-97343589D01*
X63872314Y-97503551D01*
X63774769Y-97686043D01*
X63714699Y-97884067D01*
X63694417Y-98090000D01*
X53130583Y-98090000D01*
X53110300Y-97884066D01*
X53050232Y-97686046D01*
X52952685Y-97503550D01*
X52882842Y-97418446D01*
X52821410Y-97343589D01*
X52714386Y-97255758D01*
X52661450Y-97212315D01*
X52570201Y-97163541D01*
X52478956Y-97114769D01*
X52478955Y-97114768D01*
X52478954Y-97114768D01*
X52379944Y-97084734D01*
X52280932Y-97054699D01*
X52075000Y-97034417D01*
X51869067Y-97054699D01*
X51671043Y-97114769D01*
X51488551Y-97212314D01*
X51328589Y-97343589D01*
X51197314Y-97503551D01*
X51099769Y-97686043D01*
X51039699Y-97884067D01*
X51019417Y-98090000D01*
X50565583Y-98090000D01*
X50545300Y-97884066D01*
X50485232Y-97686046D01*
X50387685Y-97503550D01*
X50317842Y-97418446D01*
X50256410Y-97343589D01*
X50149386Y-97255758D01*
X50096450Y-97212315D01*
X50005201Y-97163541D01*
X49913956Y-97114769D01*
X49913955Y-97114768D01*
X49913954Y-97114768D01*
X49814944Y-97084734D01*
X49715932Y-97054699D01*
X49510000Y-97034417D01*
X49304067Y-97054699D01*
X49106043Y-97114769D01*
X48923551Y-97212314D01*
X48763589Y-97343589D01*
X48632314Y-97503551D01*
X48534769Y-97686043D01*
X48474699Y-97884067D01*
X48454417Y-98090000D01*
X43100500Y-98090000D01*
X43100500Y-97125326D01*
X43099126Y-97118421D01*
X43085966Y-97052261D01*
X43085966Y-97052260D01*
X43030601Y-96969399D01*
X42947740Y-96914034D01*
X42947739Y-96914033D01*
X42947738Y-96914033D01*
X42874675Y-96899500D01*
X42874674Y-96899500D01*
X41125326Y-96899500D01*
X41125325Y-96899500D01*
X41052261Y-96914033D01*
X40969399Y-96969399D01*
X40914033Y-97052261D01*
X40899500Y-97125325D01*
X40899500Y-98874675D01*
X40133312Y-98874675D01*
X40276392Y-98744241D01*
X40399248Y-98581553D01*
X40490114Y-98399068D01*
X40545903Y-98202992D01*
X40553130Y-98125000D01*
X39585000Y-98125000D01*
X39335000Y-98125000D01*
X38366870Y-98125000D01*
X28000500Y-98125000D01*
X28000500Y-97874999D01*
X38366869Y-97874999D01*
X38366870Y-97875000D01*
X39335000Y-97875000D01*
X39335000Y-96904312D01*
X39584999Y-96904312D01*
X39585000Y-96904313D01*
X39585000Y-97875000D01*
X40553130Y-97875000D01*
X40553130Y-97874999D01*
X40545903Y-97797007D01*
X40490114Y-97600931D01*
X40399248Y-97418446D01*
X40276392Y-97255758D01*
X40125740Y-97118421D01*
X39952411Y-97011100D01*
X39762320Y-96937459D01*
X39584999Y-96904312D01*
X39335000Y-96904312D01*
X39157679Y-96937459D01*
X38967588Y-97011100D01*
X38794259Y-97118421D01*
X38643607Y-97255758D01*
X38520751Y-97418446D01*
X38429885Y-97600931D01*
X38374096Y-97797007D01*
X38366869Y-97874999D01*
X28000500Y-97874999D01*
X28000500Y-95549999D01*
X48454417Y-95549999D01*
X48474699Y-95755932D01*
X48474700Y-95755934D01*
X48534768Y-95953954D01*
X48632315Y-96136450D01*
X48669330Y-96181553D01*
X48763589Y-96296410D01*
X48843570Y-96362047D01*
X48923550Y-96427685D01*
X49106046Y-96525232D01*
X49304066Y-96585300D01*
X49510000Y-96605583D01*
X49715934Y-96585300D01*
X49913954Y-96525232D01*
X50096450Y-96427685D01*
X50256410Y-96296410D01*
X50387685Y-96136450D01*
X50485232Y-95953954D01*
X50545300Y-95755934D01*
X50565583Y-95550000D01*
X50565583Y-95549999D01*
X51019417Y-95549999D01*
X51039699Y-95755932D01*
X51039700Y-95755934D01*
X51099768Y-95953954D01*
X51197315Y-96136450D01*
X51234330Y-96181553D01*
X51328589Y-96296410D01*
X51408570Y-96362047D01*
X51488550Y-96427685D01*
X51671046Y-96525232D01*
X51869066Y-96585300D01*
X52075000Y-96605583D01*
X52280934Y-96585300D01*
X52478954Y-96525232D01*
X52661450Y-96427685D01*
X52821410Y-96296410D01*
X52952685Y-96136450D01*
X53050232Y-95953954D01*
X53110300Y-95755934D01*
X53130583Y-95550000D01*
X53130583Y-95549999D01*
X63694417Y-95549999D01*
X63714699Y-95755932D01*
X63714700Y-95755934D01*
X63774768Y-95953954D01*
X63872315Y-96136450D01*
X63909330Y-96181553D01*
X64003589Y-96296410D01*
X64083570Y-96362047D01*
X64163550Y-96427685D01*
X64346046Y-96525232D01*
X64544066Y-96585300D01*
X64750000Y-96605583D01*
X64955934Y-96585300D01*
X65153954Y-96525232D01*
X65336450Y-96427685D01*
X65496410Y-96296410D01*
X65627685Y-96136450D01*
X65725232Y-95953954D01*
X65785300Y-95755934D01*
X65805583Y-95550000D01*
X65805583Y-95549999D01*
X66259417Y-95549999D01*
X66279699Y-95755932D01*
X66279700Y-95755934D01*
X66339768Y-95953954D01*
X66437315Y-96136450D01*
X66474330Y-96181553D01*
X66568589Y-96296410D01*
X66648570Y-96362047D01*
X66728550Y-96427685D01*
X66911046Y-96525232D01*
X67109066Y-96585300D01*
X67315000Y-96605583D01*
X67520934Y-96585300D01*
X67718954Y-96525232D01*
X67813539Y-96474675D01*
X76159500Y-96474675D01*
X76174033Y-96547738D01*
X76174033Y-96547739D01*
X76174034Y-96547740D01*
X76229399Y-96630601D01*
X76312260Y-96685966D01*
X76348792Y-96693232D01*
X76385325Y-96700500D01*
X76385326Y-96700500D01*
X78134674Y-96700500D01*
X78134675Y-96700500D01*
X78159029Y-96695655D01*
X78207740Y-96685966D01*
X78290601Y-96630601D01*
X78345966Y-96547740D01*
X78360500Y-96474674D01*
X78360500Y-95725000D01*
X78706870Y-95725000D01*
X78714096Y-95802992D01*
X78769885Y-95999068D01*
X78860751Y-96181553D01*
X78983607Y-96344241D01*
X79134259Y-96481578D01*
X79307588Y-96588899D01*
X79497679Y-96662540D01*
X79675000Y-96695687D01*
X79675000Y-95725000D01*
X79925000Y-95725000D01*
X79925000Y-96695687D01*
X80102320Y-96662540D01*
X80292411Y-96588899D01*
X80465740Y-96481578D01*
X80616392Y-96344241D01*
X80739248Y-96181553D01*
X80830114Y-95999068D01*
X80885903Y-95802992D01*
X80893130Y-95725000D01*
X79925000Y-95725000D01*
X79675000Y-95725000D01*
X78706870Y-95725000D01*
X78360500Y-95725000D01*
X78360500Y-95474999D01*
X78706869Y-95474999D01*
X78706870Y-95475000D01*
X79675000Y-95475000D01*
X79675000Y-94504312D01*
X79924999Y-94504312D01*
X79925000Y-94504313D01*
X79925000Y-95475000D01*
X80893130Y-95475000D01*
X80893130Y-95474999D01*
X80885903Y-95397007D01*
X80830114Y-95200931D01*
X80739248Y-95018446D01*
X80616392Y-94855758D01*
X80465740Y-94718421D01*
X80292411Y-94611100D01*
X80102320Y-94537459D01*
X79924999Y-94504312D01*
X79675000Y-94504312D01*
X79497679Y-94537459D01*
X79307588Y-94611100D01*
X79134259Y-94718421D01*
X78983607Y-94855758D01*
X78860751Y-95018446D01*
X78769885Y-95200931D01*
X78714096Y-95397007D01*
X78706869Y-95474999D01*
X78360500Y-95474999D01*
X78360500Y-94725326D01*
X78359126Y-94718421D01*
X78345966Y-94652261D01*
X78345966Y-94652260D01*
X78290601Y-94569399D01*
X78207740Y-94514034D01*
X78207739Y-94514033D01*
X78207738Y-94514033D01*
X78134675Y-94499500D01*
X78134674Y-94499500D01*
X76385326Y-94499500D01*
X76385325Y-94499500D01*
X76312261Y-94514033D01*
X76229399Y-94569399D01*
X76174033Y-94652261D01*
X76159500Y-94725325D01*
X76159500Y-96474675D01*
X67813539Y-96474675D01*
X67901450Y-96427685D01*
X68061410Y-96296410D01*
X68192685Y-96136450D01*
X68290232Y-95953954D01*
X68350300Y-95755934D01*
X68370583Y-95550000D01*
X68350300Y-95344066D01*
X68290232Y-95146046D01*
X68192685Y-94963550D01*
X68104223Y-94855758D01*
X68061410Y-94803589D01*
X67957631Y-94718421D01*
X67901450Y-94672315D01*
X67718954Y-94574768D01*
X67619944Y-94544734D01*
X67520932Y-94514699D01*
X67315000Y-94494417D01*
X67109067Y-94514699D01*
X66911043Y-94574769D01*
X66728551Y-94672314D01*
X66568589Y-94803589D01*
X66437314Y-94963551D01*
X66339769Y-95146043D01*
X66279699Y-95344067D01*
X66259417Y-95549999D01*
X65805583Y-95549999D01*
X65785300Y-95344066D01*
X65725232Y-95146046D01*
X65627685Y-94963550D01*
X65539223Y-94855758D01*
X65496410Y-94803589D01*
X65392631Y-94718421D01*
X65336450Y-94672315D01*
X65153954Y-94574768D01*
X65054944Y-94544734D01*
X64955932Y-94514699D01*
X64750000Y-94494417D01*
X64544067Y-94514699D01*
X64346043Y-94574769D01*
X64163551Y-94672314D01*
X64003589Y-94803589D01*
X63872314Y-94963551D01*
X63774769Y-95146043D01*
X63714699Y-95344067D01*
X63694417Y-95549999D01*
X53130583Y-95549999D01*
X53110300Y-95344066D01*
X53050232Y-95146046D01*
X52952685Y-94963550D01*
X52864223Y-94855758D01*
X52821410Y-94803589D01*
X52717631Y-94718421D01*
X52661450Y-94672315D01*
X52478954Y-94574768D01*
X52379944Y-94544734D01*
X52280932Y-94514699D01*
X52075000Y-94494417D01*
X51869067Y-94514699D01*
X51671043Y-94574769D01*
X51488551Y-94672314D01*
X51328589Y-94803589D01*
X51197314Y-94963551D01*
X51099769Y-95146043D01*
X51039699Y-95344067D01*
X51019417Y-95549999D01*
X50565583Y-95549999D01*
X50545300Y-95344066D01*
X50485232Y-95146046D01*
X50387685Y-94963550D01*
X50299223Y-94855758D01*
X50256410Y-94803589D01*
X50152631Y-94718421D01*
X50096450Y-94672315D01*
X49913954Y-94574768D01*
X49814944Y-94544734D01*
X49715932Y-94514699D01*
X49510000Y-94494417D01*
X49304067Y-94514699D01*
X49106043Y-94574769D01*
X48923551Y-94672314D01*
X48763589Y-94803589D01*
X48632314Y-94963551D01*
X48534769Y-95146043D01*
X48474699Y-95344067D01*
X48454417Y-95549999D01*
X28000500Y-95549999D01*
X28000500Y-93125000D01*
X38366870Y-93125000D01*
X38374096Y-93202992D01*
X38429885Y-93399068D01*
X38520751Y-93581553D01*
X38643607Y-93744241D01*
X38794259Y-93881578D01*
X38967588Y-93988899D01*
X39157679Y-94062540D01*
X39335000Y-94095687D01*
X39335000Y-93125000D01*
X39585000Y-93125000D01*
X39585000Y-94095687D01*
X39762320Y-94062540D01*
X39952411Y-93988899D01*
X40125740Y-93881578D01*
X40133312Y-93874675D01*
X40899500Y-93874675D01*
X40914033Y-93947738D01*
X40914033Y-93947739D01*
X40914034Y-93947740D01*
X40969399Y-94030601D01*
X41052260Y-94085966D01*
X41088792Y-94093232D01*
X41125325Y-94100500D01*
X41125326Y-94100500D01*
X42874674Y-94100500D01*
X42874675Y-94100500D01*
X42899029Y-94095655D01*
X42947740Y-94085966D01*
X43030601Y-94030601D01*
X43085966Y-93947740D01*
X43100500Y-93874674D01*
X43100500Y-93010000D01*
X48454417Y-93010000D01*
X48474699Y-93215932D01*
X48474700Y-93215934D01*
X48534768Y-93413954D01*
X48632315Y-93596450D01*
X48683608Y-93658952D01*
X48763589Y-93756410D01*
X48843569Y-93822047D01*
X48923550Y-93887685D01*
X49106046Y-93985232D01*
X49304066Y-94045300D01*
X49510000Y-94065583D01*
X49715934Y-94045300D01*
X49913954Y-93985232D01*
X50096450Y-93887685D01*
X50256410Y-93756410D01*
X50387685Y-93596450D01*
X50485232Y-93413954D01*
X50545300Y-93215934D01*
X50565583Y-93010000D01*
X51019417Y-93010000D01*
X51039699Y-93215932D01*
X51039700Y-93215934D01*
X51099768Y-93413954D01*
X51197315Y-93596450D01*
X51248608Y-93658952D01*
X51328589Y-93756410D01*
X51408569Y-93822047D01*
X51488550Y-93887685D01*
X51671046Y-93985232D01*
X51869066Y-94045300D01*
X52075000Y-94065583D01*
X52280934Y-94045300D01*
X52478954Y-93985232D01*
X52661450Y-93887685D01*
X52821410Y-93756410D01*
X52952685Y-93596450D01*
X53050232Y-93413954D01*
X53110300Y-93215934D01*
X53130583Y-93010000D01*
X53130583Y-93009999D01*
X63694417Y-93009999D01*
X63714699Y-93215932D01*
X63714700Y-93215934D01*
X63774768Y-93413954D01*
X63872315Y-93596450D01*
X63923608Y-93658952D01*
X64003589Y-93756410D01*
X64083569Y-93822047D01*
X64163550Y-93887685D01*
X64346046Y-93985232D01*
X64544066Y-94045300D01*
X64750000Y-94065583D01*
X64955934Y-94045300D01*
X65153954Y-93985232D01*
X65336450Y-93887685D01*
X65496410Y-93756410D01*
X65627685Y-93596450D01*
X65725232Y-93413954D01*
X65785300Y-93215934D01*
X65805583Y-93010000D01*
X65805583Y-93009999D01*
X66259417Y-93009999D01*
X66279699Y-93215932D01*
X66279700Y-93215934D01*
X66339768Y-93413954D01*
X66437315Y-93596450D01*
X66488608Y-93658952D01*
X66568589Y-93756410D01*
X66648569Y-93822047D01*
X66728550Y-93887685D01*
X66911046Y-93985232D01*
X67109066Y-94045300D01*
X67315000Y-94065583D01*
X67520934Y-94045300D01*
X67718954Y-93985232D01*
X67901450Y-93887685D01*
X67917303Y-93874675D01*
X83299500Y-93874675D01*
X83314033Y-93947738D01*
X83314033Y-93947739D01*
X83314034Y-93947740D01*
X83369399Y-94030601D01*
X83452260Y-94085966D01*
X83488792Y-94093232D01*
X83525325Y-94100500D01*
X83525326Y-94100500D01*
X85274674Y-94100500D01*
X85274675Y-94100500D01*
X85299029Y-94095655D01*
X85347740Y-94085966D01*
X85430601Y-94030601D01*
X85485966Y-93947740D01*
X85500500Y-93874674D01*
X85500500Y-93125000D01*
X85846870Y-93125000D01*
X85854096Y-93202992D01*
X85909885Y-93399068D01*
X86000751Y-93581553D01*
X86123607Y-93744241D01*
X86274259Y-93881578D01*
X86447588Y-93988899D01*
X86637679Y-94062540D01*
X86815000Y-94095687D01*
X86815000Y-93125000D01*
X87065000Y-93125000D01*
X87065000Y-94095687D01*
X87242320Y-94062540D01*
X87432411Y-93988899D01*
X87605740Y-93881578D01*
X87756392Y-93744241D01*
X87879248Y-93581553D01*
X87970114Y-93399068D01*
X88025903Y-93202992D01*
X88033130Y-93125000D01*
X87065000Y-93125000D01*
X86815000Y-93125000D01*
X85846870Y-93125000D01*
X85500500Y-93125000D01*
X85500500Y-92874999D01*
X85846869Y-92874999D01*
X85846870Y-92875000D01*
X86815000Y-92875000D01*
X86815000Y-91904312D01*
X87064999Y-91904312D01*
X87065000Y-91904313D01*
X87065000Y-92875000D01*
X88033130Y-92875000D01*
X88033130Y-92874999D01*
X88025903Y-92797007D01*
X87970114Y-92600931D01*
X87879248Y-92418446D01*
X87756392Y-92255758D01*
X87605740Y-92118421D01*
X87432411Y-92011100D01*
X87242320Y-91937459D01*
X87064999Y-91904312D01*
X86815000Y-91904312D01*
X86637679Y-91937459D01*
X86447588Y-92011100D01*
X86274259Y-92118421D01*
X86123607Y-92255758D01*
X86000751Y-92418446D01*
X85909885Y-92600931D01*
X85854096Y-92797007D01*
X85846869Y-92874999D01*
X85500500Y-92874999D01*
X85500500Y-92125326D01*
X85499126Y-92118421D01*
X85485966Y-92052261D01*
X85485966Y-92052260D01*
X85430601Y-91969399D01*
X85347740Y-91914034D01*
X85347739Y-91914033D01*
X85347738Y-91914033D01*
X85274675Y-91899500D01*
X85274674Y-91899500D01*
X83525326Y-91899500D01*
X83525325Y-91899500D01*
X83452261Y-91914033D01*
X83369399Y-91969399D01*
X83314033Y-92052261D01*
X83299500Y-92125325D01*
X83299500Y-93874675D01*
X67917303Y-93874675D01*
X68061410Y-93756410D01*
X68192685Y-93596450D01*
X68290232Y-93413954D01*
X68350300Y-93215934D01*
X68370583Y-93010000D01*
X68350300Y-92804066D01*
X68290232Y-92606046D01*
X68192685Y-92423550D01*
X68127047Y-92343569D01*
X68061410Y-92263589D01*
X67963952Y-92183608D01*
X67901450Y-92132315D01*
X67718954Y-92034768D01*
X67619943Y-92004733D01*
X67520932Y-91974699D01*
X67315000Y-91954417D01*
X67109067Y-91974699D01*
X66911043Y-92034769D01*
X66728551Y-92132314D01*
X66568589Y-92263589D01*
X66437314Y-92423551D01*
X66339769Y-92606043D01*
X66279699Y-92804067D01*
X66259417Y-93009999D01*
X65805583Y-93009999D01*
X65785300Y-92804066D01*
X65725232Y-92606046D01*
X65627685Y-92423550D01*
X65562047Y-92343569D01*
X65496410Y-92263589D01*
X65398952Y-92183608D01*
X65336450Y-92132315D01*
X65153954Y-92034768D01*
X65054943Y-92004733D01*
X64955932Y-91974699D01*
X64750000Y-91954417D01*
X64544067Y-91974699D01*
X64346043Y-92034769D01*
X64163551Y-92132314D01*
X64003589Y-92263589D01*
X63872314Y-92423551D01*
X63774769Y-92606043D01*
X63714699Y-92804067D01*
X63694417Y-93009999D01*
X53130583Y-93009999D01*
X53110300Y-92804066D01*
X53050232Y-92606046D01*
X52952685Y-92423550D01*
X52887047Y-92343569D01*
X52821410Y-92263589D01*
X52723952Y-92183608D01*
X52661450Y-92132315D01*
X52478954Y-92034768D01*
X52379943Y-92004733D01*
X52280932Y-91974699D01*
X52075000Y-91954417D01*
X51869067Y-91974699D01*
X51671043Y-92034769D01*
X51488551Y-92132314D01*
X51328589Y-92263589D01*
X51197314Y-92423551D01*
X51099769Y-92606043D01*
X51039699Y-92804067D01*
X51019417Y-93010000D01*
X50565583Y-93010000D01*
X50545300Y-92804066D01*
X50485232Y-92606046D01*
X50387685Y-92423550D01*
X50322047Y-92343569D01*
X50256410Y-92263589D01*
X50158952Y-92183608D01*
X50096450Y-92132315D01*
X49913954Y-92034768D01*
X49814943Y-92004733D01*
X49715932Y-91974699D01*
X49510000Y-91954417D01*
X49304067Y-91974699D01*
X49106043Y-92034769D01*
X48923551Y-92132314D01*
X48763589Y-92263589D01*
X48632314Y-92423551D01*
X48534769Y-92606043D01*
X48474699Y-92804067D01*
X48454417Y-93010000D01*
X43100500Y-93010000D01*
X43100500Y-92125326D01*
X43099126Y-92118421D01*
X43085966Y-92052261D01*
X43085966Y-92052260D01*
X43030601Y-91969399D01*
X42947740Y-91914034D01*
X42947739Y-91914033D01*
X42947738Y-91914033D01*
X42874675Y-91899500D01*
X42874674Y-91899500D01*
X41125326Y-91899500D01*
X41125325Y-91899500D01*
X41052261Y-91914033D01*
X40969399Y-91969399D01*
X40914033Y-92052261D01*
X40899500Y-92125325D01*
X40899500Y-93874675D01*
X40133312Y-93874675D01*
X40276392Y-93744241D01*
X40399248Y-93581553D01*
X40490114Y-93399068D01*
X40545903Y-93202992D01*
X40553130Y-93125000D01*
X39585000Y-93125000D01*
X39335000Y-93125000D01*
X38366870Y-93125000D01*
X28000500Y-93125000D01*
X28000500Y-92874999D01*
X38366869Y-92874999D01*
X38366870Y-92875000D01*
X39335000Y-92875000D01*
X39335000Y-91904312D01*
X39584999Y-91904312D01*
X39585000Y-91904313D01*
X39585000Y-92875000D01*
X40553130Y-92875000D01*
X40553130Y-92874999D01*
X40545903Y-92797007D01*
X40490114Y-92600931D01*
X40399248Y-92418446D01*
X40276392Y-92255758D01*
X40125740Y-92118421D01*
X39952411Y-92011100D01*
X39762320Y-91937459D01*
X39584999Y-91904312D01*
X39335000Y-91904312D01*
X39157679Y-91937459D01*
X38967588Y-92011100D01*
X38794259Y-92118421D01*
X38643607Y-92255758D01*
X38520751Y-92418446D01*
X38429885Y-92600931D01*
X38374096Y-92797007D01*
X38366869Y-92874999D01*
X28000500Y-92874999D01*
X28000500Y-90725000D01*
X31366870Y-90725000D01*
X31374096Y-90802992D01*
X31429885Y-90999068D01*
X31520751Y-91181553D01*
X31643607Y-91344241D01*
X31794259Y-91481578D01*
X31967588Y-91588899D01*
X32157679Y-91662540D01*
X32335000Y-91695687D01*
X32335000Y-90725000D01*
X32585000Y-90725000D01*
X32585000Y-91695687D01*
X32762320Y-91662540D01*
X32952411Y-91588899D01*
X33125740Y-91481578D01*
X33133312Y-91474675D01*
X33899500Y-91474675D01*
X33914033Y-91547738D01*
X33914033Y-91547739D01*
X33914034Y-91547740D01*
X33969399Y-91630601D01*
X34052260Y-91685966D01*
X34088792Y-91693232D01*
X34125325Y-91700500D01*
X34125326Y-91700500D01*
X35874674Y-91700500D01*
X35874675Y-91700500D01*
X35899029Y-91695655D01*
X35947740Y-91685966D01*
X36030601Y-91630601D01*
X36085966Y-91547740D01*
X36100500Y-91474674D01*
X36100500Y-90470000D01*
X48454417Y-90470000D01*
X48474699Y-90675932D01*
X48474700Y-90675934D01*
X48534768Y-90873954D01*
X48632315Y-91056450D01*
X48683609Y-91118952D01*
X48763589Y-91216410D01*
X48843569Y-91282047D01*
X48923550Y-91347685D01*
X49106046Y-91445232D01*
X49304066Y-91505300D01*
X49510000Y-91525583D01*
X49715934Y-91505300D01*
X49913954Y-91445232D01*
X50096450Y-91347685D01*
X50256410Y-91216410D01*
X50387685Y-91056450D01*
X50485232Y-90873954D01*
X50545300Y-90675934D01*
X50565583Y-90470000D01*
X51019417Y-90470000D01*
X51039699Y-90675932D01*
X51039700Y-90675934D01*
X51099768Y-90873954D01*
X51197315Y-91056450D01*
X51248609Y-91118952D01*
X51328589Y-91216410D01*
X51408569Y-91282047D01*
X51488550Y-91347685D01*
X51671046Y-91445232D01*
X51869066Y-91505300D01*
X52075000Y-91525583D01*
X52280934Y-91505300D01*
X52478954Y-91445232D01*
X52661450Y-91347685D01*
X52821410Y-91216410D01*
X52952685Y-91056450D01*
X53050232Y-90873954D01*
X53110300Y-90675934D01*
X53130583Y-90470000D01*
X63694417Y-90470000D01*
X63714699Y-90675932D01*
X63714700Y-90675934D01*
X63774768Y-90873954D01*
X63872315Y-91056450D01*
X63923609Y-91118952D01*
X64003589Y-91216410D01*
X64083569Y-91282047D01*
X64163550Y-91347685D01*
X64346046Y-91445232D01*
X64544066Y-91505300D01*
X64750000Y-91525583D01*
X64955934Y-91505300D01*
X65153954Y-91445232D01*
X65336450Y-91347685D01*
X65496410Y-91216410D01*
X65627685Y-91056450D01*
X65725232Y-90873954D01*
X65785300Y-90675934D01*
X65805583Y-90470000D01*
X66259417Y-90470000D01*
X66279699Y-90675932D01*
X66279700Y-90675934D01*
X66339768Y-90873954D01*
X66437315Y-91056450D01*
X66488609Y-91118952D01*
X66568589Y-91216410D01*
X66648569Y-91282047D01*
X66728550Y-91347685D01*
X66911046Y-91445232D01*
X67109066Y-91505300D01*
X67315000Y-91525583D01*
X67520934Y-91505300D01*
X67621892Y-91474675D01*
X76159500Y-91474675D01*
X76174033Y-91547738D01*
X76174033Y-91547739D01*
X76174034Y-91547740D01*
X76229399Y-91630601D01*
X76312260Y-91685966D01*
X76348792Y-91693232D01*
X76385325Y-91700500D01*
X76385326Y-91700500D01*
X78134674Y-91700500D01*
X78134675Y-91700500D01*
X78159029Y-91695655D01*
X78207740Y-91685966D01*
X78290601Y-91630601D01*
X78345966Y-91547740D01*
X78360500Y-91474674D01*
X78360500Y-90725000D01*
X78706870Y-90725000D01*
X78714096Y-90802992D01*
X78769885Y-90999068D01*
X78860751Y-91181553D01*
X78983607Y-91344241D01*
X79134259Y-91481578D01*
X79307588Y-91588899D01*
X79497679Y-91662540D01*
X79675000Y-91695687D01*
X79675000Y-90725000D01*
X79925000Y-90725000D01*
X79925000Y-91695687D01*
X80102320Y-91662540D01*
X80292411Y-91588899D01*
X80465740Y-91481578D01*
X80616392Y-91344241D01*
X80739248Y-91181553D01*
X80830114Y-90999068D01*
X80885903Y-90802992D01*
X80893130Y-90725000D01*
X79925000Y-90725000D01*
X79675000Y-90725000D01*
X78706870Y-90725000D01*
X78360500Y-90725000D01*
X78360500Y-90474999D01*
X78706869Y-90474999D01*
X78706870Y-90475000D01*
X79675000Y-90475000D01*
X79675000Y-89504312D01*
X79924999Y-89504312D01*
X79925000Y-89504313D01*
X79925000Y-90475000D01*
X80893130Y-90475000D01*
X80893130Y-90474999D01*
X80885903Y-90397007D01*
X80830114Y-90200931D01*
X80739248Y-90018446D01*
X80616392Y-89855758D01*
X80465740Y-89718421D01*
X80292411Y-89611100D01*
X80102320Y-89537459D01*
X79924999Y-89504312D01*
X79675000Y-89504312D01*
X79497679Y-89537459D01*
X79307588Y-89611100D01*
X79134259Y-89718421D01*
X78983607Y-89855758D01*
X78860751Y-90018446D01*
X78769885Y-90200931D01*
X78714096Y-90397007D01*
X78706869Y-90474999D01*
X78360500Y-90474999D01*
X78360500Y-89725326D01*
X78360154Y-89723589D01*
X78345966Y-89652261D01*
X78345966Y-89652260D01*
X78290601Y-89569399D01*
X78207740Y-89514034D01*
X78207739Y-89514033D01*
X78207738Y-89514033D01*
X78134675Y-89499500D01*
X78134674Y-89499500D01*
X76385326Y-89499500D01*
X76385325Y-89499500D01*
X76312261Y-89514033D01*
X76229399Y-89569399D01*
X76174033Y-89652261D01*
X76159500Y-89725325D01*
X76159500Y-91474675D01*
X67621892Y-91474675D01*
X67718954Y-91445232D01*
X67901450Y-91347685D01*
X68061410Y-91216410D01*
X68192685Y-91056450D01*
X68290232Y-90873954D01*
X68350300Y-90675934D01*
X68370583Y-90470000D01*
X68350300Y-90264066D01*
X68290232Y-90066046D01*
X68192685Y-89883550D01*
X68062835Y-89725326D01*
X68061410Y-89723589D01*
X67963952Y-89643608D01*
X67901450Y-89592315D01*
X67736811Y-89504313D01*
X67718956Y-89494769D01*
X67718955Y-89494768D01*
X67718954Y-89494768D01*
X67619944Y-89464734D01*
X67520932Y-89434699D01*
X67315000Y-89414417D01*
X67109067Y-89434699D01*
X66911043Y-89494769D01*
X66728551Y-89592314D01*
X66568589Y-89723589D01*
X66437314Y-89883551D01*
X66339769Y-90066043D01*
X66279699Y-90264067D01*
X66259417Y-90470000D01*
X65805583Y-90470000D01*
X65785300Y-90264066D01*
X65725232Y-90066046D01*
X65627685Y-89883550D01*
X65497835Y-89725326D01*
X65496410Y-89723589D01*
X65398952Y-89643608D01*
X65336450Y-89592315D01*
X65171811Y-89504313D01*
X65153956Y-89494769D01*
X65153955Y-89494768D01*
X65153954Y-89494768D01*
X65054944Y-89464734D01*
X64955932Y-89434699D01*
X64750000Y-89414417D01*
X64544067Y-89434699D01*
X64346043Y-89494769D01*
X64163551Y-89592314D01*
X64003589Y-89723589D01*
X63872314Y-89883551D01*
X63774769Y-90066043D01*
X63714699Y-90264067D01*
X63694417Y-90470000D01*
X53130583Y-90470000D01*
X53110300Y-90264066D01*
X53050232Y-90066046D01*
X52952685Y-89883550D01*
X52822835Y-89725326D01*
X52821410Y-89723589D01*
X52723952Y-89643608D01*
X52661450Y-89592315D01*
X52496811Y-89504313D01*
X52478956Y-89494769D01*
X52478955Y-89494768D01*
X52478954Y-89494768D01*
X52379944Y-89464734D01*
X52280932Y-89434699D01*
X52075000Y-89414417D01*
X51869067Y-89434699D01*
X51671043Y-89494769D01*
X51488551Y-89592314D01*
X51328589Y-89723589D01*
X51197314Y-89883551D01*
X51099769Y-90066043D01*
X51039699Y-90264067D01*
X51019417Y-90470000D01*
X50565583Y-90470000D01*
X50545300Y-90264066D01*
X50485232Y-90066046D01*
X50387685Y-89883550D01*
X50257835Y-89725326D01*
X50256410Y-89723589D01*
X50158952Y-89643608D01*
X50096450Y-89592315D01*
X49931811Y-89504313D01*
X49913956Y-89494769D01*
X49913955Y-89494768D01*
X49913954Y-89494768D01*
X49814944Y-89464734D01*
X49715932Y-89434699D01*
X49510000Y-89414417D01*
X49304067Y-89434699D01*
X49106043Y-89494769D01*
X48923551Y-89592314D01*
X48763589Y-89723589D01*
X48632314Y-89883551D01*
X48534769Y-90066043D01*
X48474699Y-90264067D01*
X48454417Y-90470000D01*
X36100500Y-90470000D01*
X36100500Y-89725326D01*
X36100154Y-89723589D01*
X36085966Y-89652261D01*
X36085966Y-89652260D01*
X36030601Y-89569399D01*
X35947740Y-89514034D01*
X35947739Y-89514033D01*
X35947738Y-89514033D01*
X35874675Y-89499500D01*
X35874674Y-89499500D01*
X34125326Y-89499500D01*
X34125325Y-89499500D01*
X34052261Y-89514033D01*
X33969399Y-89569399D01*
X33914033Y-89652261D01*
X33899500Y-89725325D01*
X33899500Y-91474675D01*
X33133312Y-91474675D01*
X33276392Y-91344241D01*
X33399248Y-91181553D01*
X33490114Y-90999068D01*
X33545903Y-90802992D01*
X33553130Y-90725000D01*
X32585000Y-90725000D01*
X32335000Y-90725000D01*
X31366870Y-90725000D01*
X28000500Y-90725000D01*
X28000500Y-90474999D01*
X31366869Y-90474999D01*
X31366870Y-90475000D01*
X32335000Y-90475000D01*
X32335000Y-89504312D01*
X32584999Y-89504312D01*
X32585000Y-89504313D01*
X32585000Y-90475000D01*
X33553130Y-90475000D01*
X33553130Y-90474999D01*
X33545903Y-90397007D01*
X33490114Y-90200931D01*
X33399248Y-90018446D01*
X33276392Y-89855758D01*
X33125740Y-89718421D01*
X32952411Y-89611100D01*
X32762320Y-89537459D01*
X32584999Y-89504312D01*
X32335000Y-89504312D01*
X32157679Y-89537459D01*
X31967588Y-89611100D01*
X31794259Y-89718421D01*
X31643607Y-89855758D01*
X31520751Y-90018446D01*
X31429885Y-90200931D01*
X31374096Y-90397007D01*
X31366869Y-90474999D01*
X28000500Y-90474999D01*
X28000500Y-88125000D01*
X38366870Y-88125000D01*
X38374096Y-88202992D01*
X38429885Y-88399068D01*
X38520751Y-88581553D01*
X38643607Y-88744241D01*
X38794259Y-88881578D01*
X38967588Y-88988899D01*
X39157679Y-89062540D01*
X39335000Y-89095687D01*
X39335000Y-88125000D01*
X39585000Y-88125000D01*
X39585000Y-89095687D01*
X39762320Y-89062540D01*
X39952411Y-88988899D01*
X40125740Y-88881578D01*
X40133312Y-88874675D01*
X40899500Y-88874675D01*
X40914033Y-88947738D01*
X40914033Y-88947739D01*
X40914034Y-88947740D01*
X40969399Y-89030601D01*
X41052260Y-89085966D01*
X41088793Y-89093233D01*
X41125325Y-89100500D01*
X41125326Y-89100500D01*
X42874674Y-89100500D01*
X42874675Y-89100500D01*
X42899029Y-89095655D01*
X42947740Y-89085966D01*
X43030601Y-89030601D01*
X43085966Y-88947740D01*
X43100500Y-88874674D01*
X43100500Y-87929999D01*
X48454417Y-87929999D01*
X48474699Y-88135932D01*
X48504734Y-88234944D01*
X48534768Y-88333954D01*
X48632315Y-88516450D01*
X48683609Y-88578952D01*
X48763589Y-88676410D01*
X48843569Y-88742047D01*
X48923550Y-88807685D01*
X49106046Y-88905232D01*
X49304066Y-88965300D01*
X49510000Y-88985583D01*
X49715934Y-88965300D01*
X49913954Y-88905232D01*
X50096450Y-88807685D01*
X50256410Y-88676410D01*
X50387685Y-88516450D01*
X50485232Y-88333954D01*
X50545300Y-88135934D01*
X50565583Y-87930000D01*
X50565583Y-87929999D01*
X51019417Y-87929999D01*
X51039699Y-88135932D01*
X51069734Y-88234944D01*
X51099768Y-88333954D01*
X51197315Y-88516450D01*
X51248609Y-88578952D01*
X51328589Y-88676410D01*
X51408569Y-88742047D01*
X51488550Y-88807685D01*
X51671046Y-88905232D01*
X51869066Y-88965300D01*
X52075000Y-88985583D01*
X52280934Y-88965300D01*
X52478954Y-88905232D01*
X52661450Y-88807685D01*
X52821410Y-88676410D01*
X52952685Y-88516450D01*
X53050232Y-88333954D01*
X53110300Y-88135934D01*
X53130583Y-87930000D01*
X53130583Y-87929999D01*
X63694417Y-87929999D01*
X63714699Y-88135932D01*
X63744734Y-88234944D01*
X63774768Y-88333954D01*
X63872315Y-88516450D01*
X63923609Y-88578952D01*
X64003589Y-88676410D01*
X64083569Y-88742047D01*
X64163550Y-88807685D01*
X64346046Y-88905232D01*
X64544066Y-88965300D01*
X64750000Y-88985583D01*
X64955934Y-88965300D01*
X65153954Y-88905232D01*
X65336450Y-88807685D01*
X65496410Y-88676410D01*
X65627685Y-88516450D01*
X65725232Y-88333954D01*
X65785300Y-88135934D01*
X65805583Y-87930000D01*
X65805583Y-87929999D01*
X66259417Y-87929999D01*
X66279699Y-88135932D01*
X66309734Y-88234944D01*
X66339768Y-88333954D01*
X66437315Y-88516450D01*
X66488609Y-88578952D01*
X66568589Y-88676410D01*
X66648569Y-88742047D01*
X66728550Y-88807685D01*
X66911046Y-88905232D01*
X67109066Y-88965300D01*
X67315000Y-88985583D01*
X67520934Y-88965300D01*
X67718954Y-88905232D01*
X67776122Y-88874675D01*
X83299500Y-88874675D01*
X83314033Y-88947738D01*
X83314033Y-88947739D01*
X83314034Y-88947740D01*
X83369399Y-89030601D01*
X83452260Y-89085966D01*
X83488793Y-89093233D01*
X83525325Y-89100500D01*
X83525326Y-89100500D01*
X85274674Y-89100500D01*
X85274675Y-89100500D01*
X85299029Y-89095655D01*
X85347740Y-89085966D01*
X85430601Y-89030601D01*
X85485966Y-88947740D01*
X85500500Y-88874674D01*
X85500500Y-88125000D01*
X85846870Y-88125000D01*
X85854096Y-88202992D01*
X85909885Y-88399068D01*
X86000751Y-88581553D01*
X86123607Y-88744241D01*
X86274259Y-88881578D01*
X86447588Y-88988899D01*
X86637679Y-89062540D01*
X86815000Y-89095687D01*
X86815000Y-88125000D01*
X87065000Y-88125000D01*
X87065000Y-89095687D01*
X87242320Y-89062540D01*
X87432411Y-88988899D01*
X87605740Y-88881578D01*
X87756392Y-88744241D01*
X87879248Y-88581553D01*
X87970114Y-88399068D01*
X88025903Y-88202992D01*
X88033130Y-88125000D01*
X87065000Y-88125000D01*
X86815000Y-88125000D01*
X85846870Y-88125000D01*
X85500500Y-88125000D01*
X85500500Y-87874999D01*
X85846869Y-87874999D01*
X85846870Y-87875000D01*
X86815000Y-87875000D01*
X86815000Y-86904312D01*
X87064999Y-86904312D01*
X87065000Y-86904313D01*
X87065000Y-87875000D01*
X88033130Y-87875000D01*
X88033130Y-87874999D01*
X88025903Y-87797007D01*
X87970114Y-87600931D01*
X87879248Y-87418446D01*
X87756392Y-87255758D01*
X87605740Y-87118421D01*
X87432411Y-87011100D01*
X87242320Y-86937459D01*
X87064999Y-86904312D01*
X86815000Y-86904312D01*
X86637679Y-86937459D01*
X86447588Y-87011100D01*
X86274259Y-87118421D01*
X86123607Y-87255758D01*
X86000751Y-87418446D01*
X85909885Y-87600931D01*
X85854096Y-87797007D01*
X85846869Y-87874999D01*
X85500500Y-87874999D01*
X85500500Y-87125326D01*
X85499126Y-87118421D01*
X85485966Y-87052261D01*
X85485966Y-87052260D01*
X85430601Y-86969399D01*
X85347740Y-86914034D01*
X85347739Y-86914033D01*
X85347738Y-86914033D01*
X85274675Y-86899500D01*
X85274674Y-86899500D01*
X83525326Y-86899500D01*
X83525325Y-86899500D01*
X83452261Y-86914033D01*
X83369399Y-86969399D01*
X83314033Y-87052261D01*
X83299500Y-87125325D01*
X83299500Y-88874675D01*
X67776122Y-88874675D01*
X67901450Y-88807685D01*
X68061410Y-88676410D01*
X68192685Y-88516450D01*
X68290232Y-88333954D01*
X68350300Y-88135934D01*
X68370583Y-87930000D01*
X68350300Y-87724066D01*
X68290232Y-87526046D01*
X68192685Y-87343550D01*
X68120636Y-87255758D01*
X68061410Y-87183589D01*
X67963952Y-87103608D01*
X67901450Y-87052315D01*
X67810201Y-87003541D01*
X67718956Y-86954769D01*
X67718955Y-86954768D01*
X67718954Y-86954768D01*
X67619943Y-86924733D01*
X67520932Y-86894699D01*
X67315000Y-86874417D01*
X67109067Y-86894699D01*
X66911043Y-86954769D01*
X66728551Y-87052314D01*
X66568589Y-87183589D01*
X66437314Y-87343551D01*
X66339769Y-87526043D01*
X66279699Y-87724067D01*
X66259417Y-87929999D01*
X65805583Y-87929999D01*
X65785300Y-87724066D01*
X65725232Y-87526046D01*
X65627685Y-87343550D01*
X65555636Y-87255758D01*
X65496410Y-87183589D01*
X65398952Y-87103608D01*
X65336450Y-87052315D01*
X65245201Y-87003541D01*
X65153956Y-86954769D01*
X65153955Y-86954768D01*
X65153954Y-86954768D01*
X65054943Y-86924733D01*
X64955932Y-86894699D01*
X64750000Y-86874417D01*
X64544067Y-86894699D01*
X64346043Y-86954769D01*
X64163551Y-87052314D01*
X64003589Y-87183589D01*
X63872314Y-87343551D01*
X63774769Y-87526043D01*
X63714699Y-87724067D01*
X63694417Y-87929999D01*
X53130583Y-87929999D01*
X53110300Y-87724066D01*
X53050232Y-87526046D01*
X52952685Y-87343550D01*
X52880636Y-87255758D01*
X52821410Y-87183589D01*
X52723952Y-87103608D01*
X52661450Y-87052315D01*
X52570201Y-87003541D01*
X52478956Y-86954769D01*
X52478955Y-86954768D01*
X52478954Y-86954768D01*
X52379943Y-86924733D01*
X52280932Y-86894699D01*
X52075000Y-86874417D01*
X51869067Y-86894699D01*
X51671043Y-86954769D01*
X51488551Y-87052314D01*
X51328589Y-87183589D01*
X51197314Y-87343551D01*
X51099769Y-87526043D01*
X51039699Y-87724067D01*
X51019417Y-87929999D01*
X50565583Y-87929999D01*
X50545300Y-87724066D01*
X50485232Y-87526046D01*
X50387685Y-87343550D01*
X50315636Y-87255758D01*
X50256410Y-87183589D01*
X50158952Y-87103608D01*
X50096450Y-87052315D01*
X50005201Y-87003541D01*
X49913956Y-86954769D01*
X49913955Y-86954768D01*
X49913954Y-86954768D01*
X49814943Y-86924733D01*
X49715932Y-86894699D01*
X49510000Y-86874417D01*
X49304067Y-86894699D01*
X49106043Y-86954769D01*
X48923551Y-87052314D01*
X48763589Y-87183589D01*
X48632314Y-87343551D01*
X48534769Y-87526043D01*
X48474699Y-87724067D01*
X48454417Y-87929999D01*
X43100500Y-87929999D01*
X43100500Y-87125326D01*
X43099126Y-87118421D01*
X43085966Y-87052261D01*
X43085966Y-87052260D01*
X43030601Y-86969399D01*
X42947740Y-86914034D01*
X42947739Y-86914033D01*
X42947738Y-86914033D01*
X42874675Y-86899500D01*
X42874674Y-86899500D01*
X41125326Y-86899500D01*
X41125325Y-86899500D01*
X41052261Y-86914033D01*
X40969399Y-86969399D01*
X40914033Y-87052261D01*
X40899500Y-87125325D01*
X40899500Y-88874675D01*
X40133312Y-88874675D01*
X40276392Y-88744241D01*
X40399248Y-88581553D01*
X40490114Y-88399068D01*
X40545903Y-88202992D01*
X40553130Y-88125000D01*
X39585000Y-88125000D01*
X39335000Y-88125000D01*
X38366870Y-88125000D01*
X28000500Y-88125000D01*
X28000500Y-87874999D01*
X38366869Y-87874999D01*
X38366870Y-87875000D01*
X39335000Y-87875000D01*
X39335000Y-86904312D01*
X39584999Y-86904312D01*
X39585000Y-86904313D01*
X39585000Y-87875000D01*
X40553130Y-87875000D01*
X40553130Y-87874999D01*
X40545903Y-87797007D01*
X40490114Y-87600931D01*
X40399248Y-87418446D01*
X40276392Y-87255758D01*
X40125740Y-87118421D01*
X39952411Y-87011100D01*
X39762320Y-86937459D01*
X39584999Y-86904312D01*
X39335000Y-86904312D01*
X39157679Y-86937459D01*
X38967588Y-87011100D01*
X38794259Y-87118421D01*
X38643607Y-87255758D01*
X38520751Y-87418446D01*
X38429885Y-87600931D01*
X38374096Y-87797007D01*
X38366869Y-87874999D01*
X28000500Y-87874999D01*
X28000500Y-85525000D01*
X31366870Y-85525000D01*
X31374096Y-85602992D01*
X31429885Y-85799068D01*
X31520751Y-85981553D01*
X31643607Y-86144241D01*
X31794259Y-86281578D01*
X31967588Y-86388899D01*
X32157679Y-86462540D01*
X32335000Y-86495687D01*
X32335000Y-85525000D01*
X32585000Y-85525000D01*
X32585000Y-86495687D01*
X32762320Y-86462540D01*
X32952411Y-86388899D01*
X33125740Y-86281578D01*
X33133312Y-86274675D01*
X33899500Y-86274675D01*
X33914033Y-86347738D01*
X33914033Y-86347739D01*
X33914034Y-86347740D01*
X33969399Y-86430601D01*
X34052260Y-86485966D01*
X34088792Y-86493232D01*
X34125325Y-86500500D01*
X34125326Y-86500500D01*
X35874674Y-86500500D01*
X35874675Y-86500500D01*
X35899029Y-86495655D01*
X35947740Y-86485966D01*
X36030601Y-86430601D01*
X36085966Y-86347740D01*
X36100500Y-86274674D01*
X36100500Y-85390000D01*
X48454417Y-85390000D01*
X48474699Y-85595932D01*
X48534769Y-85793956D01*
X48583541Y-85885202D01*
X48632315Y-85976450D01*
X48636503Y-85981553D01*
X48763589Y-86136410D01*
X48843570Y-86202047D01*
X48923550Y-86267685D01*
X49106046Y-86365232D01*
X49304066Y-86425300D01*
X49510000Y-86445583D01*
X49715934Y-86425300D01*
X49913954Y-86365232D01*
X50096450Y-86267685D01*
X50256410Y-86136410D01*
X50387685Y-85976450D01*
X50485232Y-85793954D01*
X50545300Y-85595934D01*
X50565583Y-85390000D01*
X51019417Y-85390000D01*
X51039699Y-85595932D01*
X51099769Y-85793956D01*
X51148541Y-85885202D01*
X51197315Y-85976450D01*
X51201503Y-85981553D01*
X51328589Y-86136410D01*
X51408570Y-86202047D01*
X51488550Y-86267685D01*
X51671046Y-86365232D01*
X51869066Y-86425300D01*
X52075000Y-86445583D01*
X52280934Y-86425300D01*
X52478954Y-86365232D01*
X52661450Y-86267685D01*
X52821410Y-86136410D01*
X52952685Y-85976450D01*
X53050232Y-85793954D01*
X53110300Y-85595934D01*
X53130583Y-85390000D01*
X63694417Y-85390000D01*
X63714699Y-85595932D01*
X63774769Y-85793956D01*
X63823541Y-85885202D01*
X63872315Y-85976450D01*
X63876503Y-85981553D01*
X64003589Y-86136410D01*
X64083570Y-86202047D01*
X64163550Y-86267685D01*
X64346046Y-86365232D01*
X64544066Y-86425300D01*
X64750000Y-86445583D01*
X64955934Y-86425300D01*
X65153954Y-86365232D01*
X65336450Y-86267685D01*
X65496410Y-86136410D01*
X65627685Y-85976450D01*
X65725232Y-85793954D01*
X65785300Y-85595934D01*
X65805583Y-85390000D01*
X66259417Y-85390000D01*
X66279699Y-85595932D01*
X66339769Y-85793956D01*
X66388541Y-85885202D01*
X66437315Y-85976450D01*
X66441503Y-85981553D01*
X66568589Y-86136410D01*
X66648570Y-86202047D01*
X66728550Y-86267685D01*
X66911046Y-86365232D01*
X67109066Y-86425300D01*
X67315000Y-86445583D01*
X67520934Y-86425300D01*
X67718954Y-86365232D01*
X67888373Y-86274675D01*
X76159500Y-86274675D01*
X76174033Y-86347738D01*
X76174033Y-86347739D01*
X76174034Y-86347740D01*
X76229399Y-86430601D01*
X76312260Y-86485966D01*
X76348792Y-86493232D01*
X76385325Y-86500500D01*
X76385326Y-86500500D01*
X78134674Y-86500500D01*
X78134675Y-86500500D01*
X78159029Y-86495655D01*
X78207740Y-86485966D01*
X78290601Y-86430601D01*
X78345966Y-86347740D01*
X78360500Y-86274674D01*
X78360500Y-85525000D01*
X78706870Y-85525000D01*
X78714096Y-85602992D01*
X78769885Y-85799068D01*
X78860751Y-85981553D01*
X78983607Y-86144241D01*
X79134259Y-86281578D01*
X79307588Y-86388899D01*
X79497679Y-86462540D01*
X79675000Y-86495687D01*
X79675000Y-85525000D01*
X79925000Y-85525000D01*
X79925000Y-86495687D01*
X80102320Y-86462540D01*
X80292411Y-86388899D01*
X80465740Y-86281578D01*
X80616392Y-86144241D01*
X80739248Y-85981553D01*
X80830114Y-85799068D01*
X80885903Y-85602992D01*
X80893130Y-85525000D01*
X79925000Y-85525000D01*
X79675000Y-85525000D01*
X78706870Y-85525000D01*
X78360500Y-85525000D01*
X78360500Y-85274999D01*
X78706869Y-85274999D01*
X78706870Y-85275000D01*
X79675000Y-85275000D01*
X79675000Y-84304312D01*
X79924999Y-84304312D01*
X79925000Y-84304313D01*
X79925000Y-85275000D01*
X80893130Y-85275000D01*
X80893130Y-85274999D01*
X80885903Y-85197007D01*
X80830114Y-85000931D01*
X80739248Y-84818446D01*
X80616392Y-84655758D01*
X80465740Y-84518421D01*
X80292411Y-84411100D01*
X80102320Y-84337459D01*
X79924999Y-84304312D01*
X79675000Y-84304312D01*
X79497679Y-84337459D01*
X79307588Y-84411100D01*
X79134259Y-84518421D01*
X78983607Y-84655758D01*
X78860751Y-84818446D01*
X78769885Y-85000931D01*
X78714096Y-85197007D01*
X78706869Y-85274999D01*
X78360500Y-85274999D01*
X78360500Y-84525326D01*
X78359126Y-84518421D01*
X78345966Y-84452261D01*
X78345966Y-84452260D01*
X78290601Y-84369399D01*
X78207740Y-84314034D01*
X78207739Y-84314033D01*
X78207738Y-84314033D01*
X78134675Y-84299500D01*
X78134674Y-84299500D01*
X76385326Y-84299500D01*
X76385325Y-84299500D01*
X76312261Y-84314033D01*
X76229399Y-84369399D01*
X76174033Y-84452261D01*
X76159500Y-84525325D01*
X76159500Y-86274675D01*
X67888373Y-86274675D01*
X67901450Y-86267685D01*
X68061410Y-86136410D01*
X68192685Y-85976450D01*
X68290232Y-85793954D01*
X68350300Y-85595934D01*
X68370583Y-85390000D01*
X68350300Y-85184066D01*
X68290232Y-84986046D01*
X68192685Y-84803550D01*
X68127047Y-84723570D01*
X68061410Y-84643589D01*
X67963952Y-84563609D01*
X67901450Y-84512315D01*
X67718954Y-84414768D01*
X67569391Y-84369399D01*
X67520932Y-84354699D01*
X67315000Y-84334417D01*
X67109067Y-84354699D01*
X66911043Y-84414769D01*
X66728551Y-84512314D01*
X66568589Y-84643589D01*
X66437314Y-84803551D01*
X66339769Y-84986043D01*
X66279699Y-85184067D01*
X66259417Y-85390000D01*
X65805583Y-85390000D01*
X65785300Y-85184066D01*
X65725232Y-84986046D01*
X65627685Y-84803550D01*
X65562047Y-84723570D01*
X65496410Y-84643589D01*
X65398952Y-84563609D01*
X65336450Y-84512315D01*
X65153954Y-84414768D01*
X65004391Y-84369399D01*
X64955932Y-84354699D01*
X64750000Y-84334417D01*
X64544067Y-84354699D01*
X64346043Y-84414769D01*
X64163551Y-84512314D01*
X64003589Y-84643589D01*
X63872314Y-84803551D01*
X63774769Y-84986043D01*
X63714699Y-85184067D01*
X63694417Y-85390000D01*
X53130583Y-85390000D01*
X53110300Y-85184066D01*
X53050232Y-84986046D01*
X52952685Y-84803550D01*
X52887047Y-84723570D01*
X52821410Y-84643589D01*
X52723952Y-84563609D01*
X52661450Y-84512315D01*
X52478954Y-84414768D01*
X52329391Y-84369399D01*
X52280932Y-84354699D01*
X52075000Y-84334417D01*
X51869067Y-84354699D01*
X51671043Y-84414769D01*
X51488551Y-84512314D01*
X51328589Y-84643589D01*
X51197314Y-84803551D01*
X51099769Y-84986043D01*
X51039699Y-85184067D01*
X51019417Y-85390000D01*
X50565583Y-85390000D01*
X50545300Y-85184066D01*
X50485232Y-84986046D01*
X50387685Y-84803550D01*
X50322047Y-84723570D01*
X50256410Y-84643589D01*
X50158952Y-84563609D01*
X50096450Y-84512315D01*
X49913954Y-84414768D01*
X49764391Y-84369399D01*
X49715932Y-84354699D01*
X49510000Y-84334417D01*
X49304067Y-84354699D01*
X49106043Y-84414769D01*
X48923551Y-84512314D01*
X48763589Y-84643589D01*
X48632314Y-84803551D01*
X48534769Y-84986043D01*
X48474699Y-85184067D01*
X48454417Y-85390000D01*
X36100500Y-85390000D01*
X36100500Y-84525326D01*
X36099126Y-84518421D01*
X36085966Y-84452261D01*
X36085966Y-84452260D01*
X36030601Y-84369399D01*
X35947740Y-84314034D01*
X35947739Y-84314033D01*
X35947738Y-84314033D01*
X35874675Y-84299500D01*
X35874674Y-84299500D01*
X34125326Y-84299500D01*
X34125325Y-84299500D01*
X34052261Y-84314033D01*
X33969399Y-84369399D01*
X33914033Y-84452261D01*
X33899500Y-84525325D01*
X33899500Y-86274675D01*
X33133312Y-86274675D01*
X33276392Y-86144241D01*
X33399248Y-85981553D01*
X33490114Y-85799068D01*
X33545903Y-85602992D01*
X33553130Y-85525000D01*
X32585000Y-85525000D01*
X32335000Y-85525000D01*
X31366870Y-85525000D01*
X28000500Y-85525000D01*
X28000500Y-85274999D01*
X31366869Y-85274999D01*
X31366870Y-85275000D01*
X32335000Y-85275000D01*
X32335000Y-84304312D01*
X32584999Y-84304312D01*
X32585000Y-84304313D01*
X32585000Y-85275000D01*
X33553130Y-85275000D01*
X33553130Y-85274999D01*
X33545903Y-85197007D01*
X33490114Y-85000931D01*
X33399248Y-84818446D01*
X33276392Y-84655758D01*
X33125740Y-84518421D01*
X32952411Y-84411100D01*
X32762320Y-84337459D01*
X32584999Y-84304312D01*
X32335000Y-84304312D01*
X32157679Y-84337459D01*
X31967588Y-84411100D01*
X31794259Y-84518421D01*
X31643607Y-84655758D01*
X31520751Y-84818446D01*
X31429885Y-85000931D01*
X31374096Y-85197007D01*
X31366869Y-85274999D01*
X28000500Y-85274999D01*
X28000500Y-82925000D01*
X38366870Y-82925000D01*
X38374096Y-83002992D01*
X38429885Y-83199068D01*
X38520751Y-83381553D01*
X38643607Y-83544241D01*
X38794259Y-83681578D01*
X38967588Y-83788899D01*
X39157679Y-83862540D01*
X39335000Y-83895687D01*
X39335000Y-82925000D01*
X39585000Y-82925000D01*
X39585000Y-83895687D01*
X39762320Y-83862540D01*
X39952411Y-83788899D01*
X40125740Y-83681578D01*
X40133312Y-83674675D01*
X40899500Y-83674675D01*
X40914033Y-83747738D01*
X40914033Y-83747739D01*
X40914034Y-83747740D01*
X40969399Y-83830601D01*
X41052260Y-83885966D01*
X41088793Y-83893233D01*
X41125325Y-83900500D01*
X41125326Y-83900500D01*
X42874674Y-83900500D01*
X42874675Y-83900500D01*
X42899029Y-83895655D01*
X42947740Y-83885966D01*
X43030601Y-83830601D01*
X43085966Y-83747740D01*
X43100500Y-83674675D01*
X48459500Y-83674675D01*
X48474033Y-83747738D01*
X48474033Y-83747739D01*
X48474034Y-83747740D01*
X48529399Y-83830601D01*
X48612260Y-83885966D01*
X48648793Y-83893233D01*
X48685325Y-83900500D01*
X48685326Y-83900500D01*
X50334674Y-83900500D01*
X50334675Y-83900500D01*
X50359029Y-83895655D01*
X50407740Y-83885966D01*
X50490601Y-83830601D01*
X50545966Y-83747740D01*
X50560500Y-83674675D01*
X51024500Y-83674675D01*
X51039033Y-83747738D01*
X51039033Y-83747739D01*
X51039034Y-83747740D01*
X51094399Y-83830601D01*
X51177260Y-83885966D01*
X51213793Y-83893233D01*
X51250325Y-83900500D01*
X51250326Y-83900500D01*
X52899674Y-83900500D01*
X52899675Y-83900500D01*
X52924029Y-83895655D01*
X52972740Y-83885966D01*
X53055601Y-83830601D01*
X53110966Y-83747740D01*
X53125500Y-83674674D01*
X53125500Y-82849999D01*
X63694417Y-82849999D01*
X63714699Y-83055932D01*
X63714700Y-83055934D01*
X63774768Y-83253954D01*
X63872315Y-83436450D01*
X63923608Y-83498952D01*
X64003589Y-83596410D01*
X64083569Y-83662047D01*
X64163550Y-83727685D01*
X64346046Y-83825232D01*
X64544066Y-83885300D01*
X64750000Y-83905583D01*
X64955934Y-83885300D01*
X65153954Y-83825232D01*
X65336450Y-83727685D01*
X65496410Y-83596410D01*
X65627685Y-83436450D01*
X65725232Y-83253954D01*
X65785300Y-83055934D01*
X65805583Y-82850000D01*
X65805583Y-82849999D01*
X66259417Y-82849999D01*
X66279699Y-83055932D01*
X66279700Y-83055934D01*
X66339768Y-83253954D01*
X66437315Y-83436450D01*
X66488608Y-83498952D01*
X66568589Y-83596410D01*
X66648569Y-83662047D01*
X66728550Y-83727685D01*
X66911046Y-83825232D01*
X67109066Y-83885300D01*
X67315000Y-83905583D01*
X67520934Y-83885300D01*
X67555960Y-83874675D01*
X83299500Y-83874675D01*
X83314033Y-83947738D01*
X83314033Y-83947739D01*
X83314034Y-83947740D01*
X83369399Y-84030601D01*
X83452260Y-84085966D01*
X83488792Y-84093232D01*
X83525325Y-84100500D01*
X83525326Y-84100500D01*
X85274674Y-84100500D01*
X85274675Y-84100500D01*
X85299029Y-84095655D01*
X85347740Y-84085966D01*
X85430601Y-84030601D01*
X85485966Y-83947740D01*
X85500500Y-83874674D01*
X85500500Y-83125000D01*
X85846870Y-83125000D01*
X85854096Y-83202992D01*
X85909885Y-83399068D01*
X86000751Y-83581553D01*
X86123607Y-83744241D01*
X86274259Y-83881578D01*
X86447588Y-83988899D01*
X86637679Y-84062540D01*
X86815000Y-84095687D01*
X86815000Y-83125000D01*
X87065000Y-83125000D01*
X87065000Y-84095687D01*
X87242320Y-84062540D01*
X87432411Y-83988899D01*
X87605740Y-83881578D01*
X87756392Y-83744241D01*
X87879248Y-83581553D01*
X87970114Y-83399068D01*
X88025903Y-83202992D01*
X88033130Y-83125000D01*
X87065000Y-83125000D01*
X86815000Y-83125000D01*
X85846870Y-83125000D01*
X85500500Y-83125000D01*
X85500500Y-82874999D01*
X85846869Y-82874999D01*
X85846870Y-82875000D01*
X86815000Y-82875000D01*
X86815000Y-81904312D01*
X87064999Y-81904312D01*
X87065000Y-81904313D01*
X87065000Y-82875000D01*
X88033130Y-82875000D01*
X88033130Y-82874999D01*
X88025903Y-82797007D01*
X87970114Y-82600931D01*
X87879248Y-82418446D01*
X87756392Y-82255758D01*
X87605740Y-82118421D01*
X87432411Y-82011100D01*
X87242320Y-81937459D01*
X87064999Y-81904312D01*
X86815000Y-81904312D01*
X86637679Y-81937459D01*
X86447588Y-82011100D01*
X86274259Y-82118421D01*
X86123607Y-82255758D01*
X86000751Y-82418446D01*
X85909885Y-82600931D01*
X85854096Y-82797007D01*
X85846869Y-82874999D01*
X85500500Y-82874999D01*
X85500500Y-82125326D01*
X85499126Y-82118421D01*
X85485966Y-82052261D01*
X85485966Y-82052260D01*
X85430601Y-81969399D01*
X85347740Y-81914034D01*
X85347739Y-81914033D01*
X85347738Y-81914033D01*
X85274675Y-81899500D01*
X85274674Y-81899500D01*
X83525326Y-81899500D01*
X83525325Y-81899500D01*
X83452261Y-81914033D01*
X83369399Y-81969399D01*
X83314033Y-82052261D01*
X83299500Y-82125325D01*
X83299500Y-83874675D01*
X67555960Y-83874675D01*
X67718954Y-83825232D01*
X67901450Y-83727685D01*
X68061410Y-83596410D01*
X68192685Y-83436450D01*
X68290232Y-83253954D01*
X68350300Y-83055934D01*
X68370583Y-82850000D01*
X68350300Y-82644066D01*
X68290232Y-82446046D01*
X68192685Y-82263550D01*
X68127047Y-82183569D01*
X68061410Y-82103589D01*
X67948710Y-82011100D01*
X67901450Y-81972315D01*
X67774228Y-81904313D01*
X67718956Y-81874769D01*
X67718955Y-81874768D01*
X67718954Y-81874768D01*
X67619944Y-81844734D01*
X67520932Y-81814699D01*
X67315000Y-81794417D01*
X67109067Y-81814699D01*
X66911043Y-81874769D01*
X66728551Y-81972314D01*
X66568589Y-82103589D01*
X66437314Y-82263551D01*
X66339769Y-82446043D01*
X66279699Y-82644067D01*
X66259417Y-82849999D01*
X65805583Y-82849999D01*
X65785300Y-82644066D01*
X65725232Y-82446046D01*
X65627685Y-82263550D01*
X65562047Y-82183569D01*
X65496410Y-82103589D01*
X65383710Y-82011100D01*
X65336450Y-81972315D01*
X65209228Y-81904313D01*
X65153956Y-81874769D01*
X65153955Y-81874768D01*
X65153954Y-81874768D01*
X65054944Y-81844734D01*
X64955932Y-81814699D01*
X64750000Y-81794417D01*
X64544067Y-81814699D01*
X64346043Y-81874769D01*
X64163551Y-81972314D01*
X64003589Y-82103589D01*
X63872314Y-82263551D01*
X63774769Y-82446043D01*
X63714699Y-82644067D01*
X63694417Y-82849999D01*
X53125500Y-82849999D01*
X53125500Y-82025326D01*
X53110966Y-81952260D01*
X53055601Y-81869399D01*
X52972740Y-81814034D01*
X52972739Y-81814033D01*
X52972738Y-81814033D01*
X52899675Y-81799500D01*
X52899674Y-81799500D01*
X51250326Y-81799500D01*
X51250325Y-81799500D01*
X51177261Y-81814033D01*
X51094399Y-81869399D01*
X51039033Y-81952261D01*
X51024500Y-82025325D01*
X51024500Y-83674675D01*
X50560500Y-83674675D01*
X50560500Y-83674674D01*
X50560500Y-82025326D01*
X50545966Y-81952260D01*
X50490601Y-81869399D01*
X50407740Y-81814034D01*
X50407739Y-81814033D01*
X50407738Y-81814033D01*
X50334675Y-81799500D01*
X50334674Y-81799500D01*
X48685326Y-81799500D01*
X48685325Y-81799500D01*
X48612261Y-81814033D01*
X48529399Y-81869399D01*
X48474033Y-81952261D01*
X48459500Y-82025325D01*
X48459500Y-83674675D01*
X43100500Y-83674675D01*
X43100500Y-83674674D01*
X43100500Y-81925326D01*
X43099126Y-81918421D01*
X43085966Y-81852261D01*
X43085966Y-81852260D01*
X43030601Y-81769399D01*
X42947740Y-81714034D01*
X42947739Y-81714033D01*
X42947738Y-81714033D01*
X42874675Y-81699500D01*
X42874674Y-81699500D01*
X41125326Y-81699500D01*
X41125325Y-81699500D01*
X41052261Y-81714033D01*
X40969399Y-81769399D01*
X40914033Y-81852261D01*
X40899500Y-81925325D01*
X40899500Y-83674675D01*
X40133312Y-83674675D01*
X40276392Y-83544241D01*
X40399248Y-83381553D01*
X40490114Y-83199068D01*
X40545903Y-83002992D01*
X40553130Y-82925000D01*
X39585000Y-82925000D01*
X39335000Y-82925000D01*
X38366870Y-82925000D01*
X28000500Y-82925000D01*
X28000500Y-82674999D01*
X38366869Y-82674999D01*
X38366870Y-82675000D01*
X39335000Y-82675000D01*
X39335000Y-81704312D01*
X39584999Y-81704312D01*
X39585000Y-81704313D01*
X39585000Y-82675000D01*
X40553130Y-82675000D01*
X40553130Y-82674999D01*
X40545903Y-82597007D01*
X40490114Y-82400931D01*
X40399248Y-82218446D01*
X40276392Y-82055758D01*
X40125740Y-81918421D01*
X39952411Y-81811100D01*
X39762320Y-81737459D01*
X39584999Y-81704312D01*
X39335000Y-81704312D01*
X39157679Y-81737459D01*
X38967588Y-81811100D01*
X38794259Y-81918421D01*
X38643607Y-82055758D01*
X38520751Y-82218446D01*
X38429885Y-82400931D01*
X38374096Y-82597007D01*
X38366869Y-82674999D01*
X28000500Y-82674999D01*
X28000500Y-78225738D01*
X48591037Y-78225738D01*
X48653829Y-78277268D01*
X48836235Y-78374766D01*
X49034165Y-78434808D01*
X49240000Y-78455080D01*
X49445834Y-78434808D01*
X49643764Y-78374766D01*
X49826171Y-78277268D01*
X49888960Y-78225738D01*
X49888961Y-78225737D01*
X49240001Y-77576777D01*
X49240000Y-77576777D01*
X48591037Y-78225737D01*
X48591037Y-78225738D01*
X28000500Y-78225738D01*
X28000500Y-77400000D01*
X48184919Y-77400000D01*
X48205191Y-77605834D01*
X48265233Y-77803764D01*
X48362731Y-77986170D01*
X48414260Y-78048960D01*
X48414262Y-78048960D01*
X49063223Y-77400001D01*
X49416777Y-77400001D01*
X50065737Y-78048961D01*
X50065738Y-78048960D01*
X50117268Y-77986171D01*
X50214766Y-77803764D01*
X50274808Y-77605834D01*
X50295080Y-77400000D01*
X50295080Y-77399999D01*
X58344417Y-77399999D01*
X58364699Y-77605932D01*
X58364700Y-77605934D01*
X58424768Y-77803954D01*
X58522315Y-77986450D01*
X58540210Y-78008255D01*
X58653589Y-78146410D01*
X58733570Y-78212047D01*
X58813550Y-78277685D01*
X58996046Y-78375232D01*
X59194066Y-78435300D01*
X59400000Y-78455583D01*
X59605934Y-78435300D01*
X59803954Y-78375232D01*
X59898539Y-78324675D01*
X61129500Y-78324675D01*
X61144033Y-78397738D01*
X61144033Y-78397739D01*
X61144034Y-78397740D01*
X61199399Y-78480601D01*
X61282260Y-78535966D01*
X61318793Y-78543233D01*
X61355325Y-78550500D01*
X61355326Y-78550500D01*
X63204674Y-78550500D01*
X63204675Y-78550500D01*
X63229029Y-78545655D01*
X63277740Y-78535966D01*
X63360601Y-78480601D01*
X63415966Y-78397740D01*
X63430500Y-78324674D01*
X63430500Y-77556054D01*
X63446171Y-77495715D01*
X63489223Y-77450627D01*
X63548773Y-77432186D01*
X63609772Y-77445054D01*
X63656800Y-77485977D01*
X63677971Y-77544613D01*
X63684243Y-77612310D01*
X63742595Y-77817390D01*
X63837631Y-78008252D01*
X63966126Y-78178405D01*
X63966128Y-78178407D01*
X64123698Y-78322052D01*
X64304981Y-78434298D01*
X64503802Y-78511321D01*
X64713390Y-78550500D01*
X64926608Y-78550500D01*
X64926610Y-78550500D01*
X65136198Y-78511321D01*
X65335019Y-78434298D01*
X65516302Y-78322052D01*
X65673872Y-78178407D01*
X65802366Y-78008255D01*
X65802366Y-78008253D01*
X65802368Y-78008252D01*
X65850080Y-77912430D01*
X65897405Y-77817389D01*
X65955756Y-77612310D01*
X65975429Y-77400000D01*
X65955756Y-77187690D01*
X65897405Y-76982611D01*
X65897014Y-76981827D01*
X65802368Y-76791747D01*
X65673873Y-76621594D01*
X65621950Y-76574260D01*
X65516302Y-76477948D01*
X65516301Y-76477947D01*
X65335017Y-76365701D01*
X65136198Y-76288679D01*
X65136197Y-76288678D01*
X64926610Y-76249500D01*
X64713390Y-76249500D01*
X64573664Y-76275619D01*
X64503801Y-76288679D01*
X64304982Y-76365701D01*
X64123698Y-76477947D01*
X63966126Y-76621594D01*
X63837631Y-76791747D01*
X63742595Y-76982609D01*
X63684243Y-77187689D01*
X63677971Y-77255387D01*
X63656800Y-77314023D01*
X63609772Y-77354946D01*
X63548773Y-77367814D01*
X63489223Y-77349373D01*
X63446171Y-77304285D01*
X63430500Y-77243946D01*
X63430500Y-76475325D01*
X63415966Y-76402261D01*
X63415966Y-76402260D01*
X63360601Y-76319399D01*
X63277740Y-76264034D01*
X63277739Y-76264033D01*
X63277738Y-76264033D01*
X63204675Y-76249500D01*
X63204674Y-76249500D01*
X61355326Y-76249500D01*
X61355325Y-76249500D01*
X61282261Y-76264033D01*
X61199399Y-76319399D01*
X61144033Y-76402261D01*
X61129500Y-76475325D01*
X61129500Y-78324675D01*
X59898539Y-78324675D01*
X59986450Y-78277685D01*
X60146410Y-78146410D01*
X60277685Y-77986450D01*
X60375232Y-77803954D01*
X60435300Y-77605934D01*
X60455583Y-77400000D01*
X60435300Y-77194066D01*
X60375232Y-76996046D01*
X60277685Y-76813550D01*
X60212047Y-76733569D01*
X60146410Y-76653589D01*
X60048952Y-76573608D01*
X59986450Y-76522315D01*
X59803954Y-76424768D01*
X59704943Y-76394733D01*
X59605932Y-76364699D01*
X59400000Y-76344417D01*
X59194067Y-76364699D01*
X58996043Y-76424769D01*
X58813551Y-76522314D01*
X58653589Y-76653589D01*
X58522314Y-76813551D01*
X58424769Y-76996043D01*
X58364699Y-77194067D01*
X58344417Y-77399999D01*
X50295080Y-77399999D01*
X50274808Y-77194165D01*
X50214766Y-76996235D01*
X50117268Y-76813829D01*
X50065737Y-76751037D01*
X49416777Y-77400000D01*
X49416777Y-77400001D01*
X49063223Y-77400001D01*
X49063223Y-77400000D01*
X48414261Y-76751038D01*
X48414260Y-76751038D01*
X48362730Y-76813829D01*
X48265233Y-76996235D01*
X48205191Y-77194165D01*
X48184919Y-77400000D01*
X28000500Y-77400000D01*
X28000500Y-76574261D01*
X48591038Y-76574261D01*
X49240000Y-77223223D01*
X49240001Y-77223223D01*
X49888960Y-76574262D01*
X49888960Y-76574260D01*
X49826170Y-76522731D01*
X49643764Y-76425233D01*
X49445834Y-76365191D01*
X49240000Y-76344919D01*
X49034165Y-76365191D01*
X48836235Y-76425233D01*
X48653829Y-76522730D01*
X48591038Y-76574260D01*
X48591038Y-76574261D01*
X28000500Y-76574261D01*
X28000500Y-73124500D01*
X28017113Y-73062500D01*
X28062500Y-73017113D01*
X28124500Y-73000500D01*
X91875500Y-73000500D01*
X91937500Y-73017113D01*
G37*
%TD.AperFunction*%
%TD*%
M02*
