M48
; DRILL file {KiCad 7.0.1} date Wed 14 Jun 2023 09:41:29 PM CEST
; FORMAT={-:-/ absolute / inch / decimal}
; #@! TF.CreationDate,2023-06-14T21:41:29+02:00
; #@! TF.GenerationSoftware,Kicad,Pcbnew,7.0.1
; #@! TF.FileFunction,Plated,1,2,PTH
FMAT,2
INCH
; #@! TA.AperFunction,Plated,PTH,ViaDrill
T1C0.0157
; #@! TA.AperFunction,Plated,PTH,ComponentDrill
T2C0.0315
; #@! TA.AperFunction,Plated,PTH,ComponentDrill
T3C0.0354
; #@! TA.AperFunction,Plated,PTH,ComponentDrill
T4C0.0394
%
G90
G05
T1
X1.1811Y-2.9528
X1.1811Y-3.0512
X1.1811Y-3.1496
X1.1811Y-3.248
X1.1811Y-3.3465
X1.1811Y-3.4449
X1.1811Y-3.5433
X1.1811Y-3.6417
X1.1811Y-3.7402
X1.1811Y-3.8386
X1.1811Y-3.937
X1.1811Y-4.0354
X1.1811Y-4.1339
X1.1811Y-4.2323
X1.1811Y-4.3307
X1.1811Y-4.4291
X1.1811Y-4.5276
X1.1811Y-4.626
X1.1811Y-4.7244
X1.1811Y-4.8228
X1.1811Y-4.9213
X1.1811Y-5.0197
X1.1811Y-5.1181
X1.1811Y-5.2165
X1.1811Y-5.315
X1.2795Y-2.9528
X1.2795Y-5.315
X1.378Y-2.9528
X1.378Y-5.315
X1.4764Y-2.9528
X1.4764Y-5.315
X1.5748Y-2.9528
X1.5748Y-5.315
X1.6732Y-2.9528
X1.6732Y-5.315
X1.7717Y-2.9528
X1.7717Y-5.315
X1.8701Y-2.9528
X1.8701Y-5.315
X1.9685Y-2.9528
X1.9685Y-5.315
X2.0669Y-2.9528
X2.0669Y-5.315
X2.1654Y-2.9528
X2.1654Y-5.315
X2.2638Y-2.9528
X2.2638Y-5.315
X2.3622Y-2.9528
X2.3622Y-5.315
X2.4606Y-2.9528
X2.4606Y-5.315
X2.5591Y-2.9528
X2.5591Y-5.315
X2.6575Y-2.9528
X2.6575Y-5.315
X2.7559Y-2.9528
X2.7559Y-5.315
X2.8543Y-2.9528
X2.8543Y-5.315
X2.9528Y-2.9528
X2.9528Y-5.315
X3.0512Y-2.9528
X3.0512Y-5.315
X3.1496Y-2.9528
X3.1496Y-5.315
X3.248Y-2.9528
X3.248Y-5.315
X3.3465Y-2.9528
X3.3465Y-5.315
X3.4449Y-2.9528
X3.4449Y-5.315
X3.5433Y-2.9528
X3.5433Y-3.0512
X3.5433Y-3.1496
X3.5433Y-3.248
X3.5433Y-3.3465
X3.5433Y-3.4449
X3.5433Y-3.5433
X3.5433Y-3.6417
X3.5433Y-3.7402
X3.5433Y-3.8386
X3.5433Y-3.937
X3.5433Y-4.0354
X3.5433Y-4.1339
X3.5433Y-4.2323
X3.5433Y-4.3307
X3.5433Y-4.4291
X3.5433Y-4.5276
X3.5433Y-4.626
X3.5433Y-4.7244
X3.5433Y-4.8228
X3.5433Y-4.9213
X3.5433Y-5.0197
X3.5433Y-5.1181
X3.5433Y-5.2165
X3.5433Y-5.315
T2
X1.9386Y-3.0472
X1.9492Y-3.2618
X1.9492Y-3.3618
X1.9492Y-3.4618
X1.9492Y-3.5618
X1.9492Y-3.6618
X1.9492Y-3.7618
X1.9492Y-3.8618
X1.9492Y-3.9618
X1.9492Y-4.0618
X1.9492Y-4.1618
X1.9492Y-4.2618
X1.9492Y-4.3618
X1.9492Y-4.4618
X1.9492Y-4.5618
X1.9492Y-4.6618
X1.9492Y-4.7618
X1.9492Y-4.8618
X1.9492Y-4.9618
X1.9492Y-5.0618
X1.9492Y-5.1618
X2.0502Y-3.2618
X2.0502Y-3.3618
X2.0502Y-3.4618
X2.0502Y-3.5618
X2.0502Y-3.6618
X2.0502Y-3.7618
X2.0502Y-3.8618
X2.0502Y-3.9618
X2.0502Y-4.0618
X2.0502Y-4.1618
X2.0502Y-4.2618
X2.0502Y-4.3618
X2.0502Y-4.4618
X2.0502Y-4.5618
X2.0502Y-4.6618
X2.0502Y-4.7618
X2.0502Y-4.8618
X2.0502Y-4.9618
X2.0502Y-5.0618
X2.0502Y-5.1618
X2.3386Y-3.0472
X2.5492Y-3.2618
X2.5492Y-3.3618
X2.5492Y-3.4618
X2.5492Y-3.5618
X2.5492Y-3.6618
X2.5492Y-3.7618
X2.5492Y-3.8618
X2.5492Y-3.9618
X2.5492Y-4.0618
X2.5492Y-4.1618
X2.5492Y-4.2618
X2.5492Y-4.3618
X2.5492Y-4.4618
X2.5492Y-4.5618
X2.5492Y-4.6618
X2.5492Y-4.7618
X2.5492Y-4.8618
X2.5492Y-4.9618
X2.5492Y-5.0618
X2.5492Y-5.1618
X2.6502Y-3.2618
X2.6502Y-3.3618
X2.6502Y-3.4618
X2.6502Y-3.5618
X2.6502Y-3.6618
X2.6502Y-3.7618
X2.6502Y-3.8618
X2.6502Y-3.9618
X2.6502Y-4.0618
X2.6502Y-4.1618
X2.6502Y-4.2618
X2.6502Y-4.3618
X2.6502Y-4.4618
X2.6502Y-4.5618
X2.6502Y-4.6618
X2.6502Y-4.7618
X2.6502Y-4.8618
X2.6502Y-4.9618
X2.6502Y-5.0618
X2.6502Y-5.1618
T3
X2.452Y-3.0472
X2.552Y-3.0472
T4
X1.278Y-3.3622
X1.278Y-3.5669
X1.278Y-3.7598
X1.278Y-4.1654
X1.278Y-4.3701
X1.278Y-4.5472
X1.278Y-4.7638
X1.278Y-5.1575
X1.2795Y-4.9606
X1.378Y-3.3622
X1.378Y-3.5669
X1.378Y-3.7598
X1.378Y-4.1654
X1.378Y-4.3701
X1.378Y-4.5472
X1.378Y-4.7638
X1.378Y-5.1575
X1.3795Y-4.9606
X1.5354Y-4.4646
X1.5354Y-4.6654
X1.5354Y-4.8622
X1.5354Y-5.0591
X1.5512Y-3.4646
X1.5535Y-3.8583
X1.5535Y-4.065
X1.5535Y-4.2598
X1.6354Y-4.4646
X1.6354Y-4.6654
X1.6354Y-4.8622
X1.6354Y-5.0591
X1.6512Y-3.4646
X1.6535Y-3.8583
X1.6535Y-4.065
X1.6535Y-4.2598
X3.0016Y-3.3661
X3.0016Y-3.563
X3.0317Y-4.7638
X3.0317Y-4.9606
X3.0409Y-3.9567
X3.0409Y-4.3622
X3.0409Y-4.5669
X3.0474Y-4.1575
X3.1016Y-3.3661
X3.1016Y-3.563
X3.1317Y-4.7638
X3.1317Y-4.9606
X3.1409Y-3.9567
X3.1409Y-4.3622
X3.1409Y-4.5669
X3.1474Y-4.1575
X3.3102Y-3.4646
X3.3165Y-3.2677
X3.3165Y-3.8583
X3.3165Y-4.0551
X3.3165Y-4.2717
X3.3165Y-4.4646
X3.3165Y-4.6654
X3.3165Y-4.8622
X3.3165Y-5.063
X3.4102Y-3.4646
X3.4165Y-3.2677
X3.4165Y-3.8583
X3.4165Y-4.0551
X3.4165Y-4.2717
X3.4165Y-4.4646
X3.4165Y-4.6654
X3.4165Y-4.8622
X3.4165Y-5.063
T0
M30
