%TF.GenerationSoftware,KiCad,Pcbnew,7.0.1*%
%TF.CreationDate,2023-06-14T21:41:20+02:00*%
%TF.ProjectId,6502_board,36353032-5f62-46f6-9172-642e6b696361,rev?*%
%TF.SameCoordinates,Original*%
%TF.FileFunction,Soldermask,Top*%
%TF.FilePolarity,Negative*%
%FSLAX46Y46*%
G04 Gerber Fmt 4.6, Leading zero omitted, Abs format (unit mm)*
G04 Created by KiCad (PCBNEW 7.0.1) date 2023-06-14 21:41:20*
%MOMM*%
%LPD*%
G01*
G04 APERTURE LIST*
%ADD10R,1.700000X1.700000*%
%ADD11O,1.700000X1.700000*%
%ADD12R,1.600000X1.600000*%
%ADD13O,1.600000X1.600000*%
%ADD14C,1.600000*%
%ADD15R,1.800000X1.800000*%
%ADD16C,1.800000*%
G04 APERTURE END LIST*
D10*
%TO.C,J6*%
X41540000Y-113400000D03*
D11*
X39000000Y-113400000D03*
%TD*%
D10*
%TO.C,J16*%
X84240000Y-123500000D03*
D11*
X86780000Y-123500000D03*
%TD*%
D10*
%TO.C,J14*%
X77005000Y-121000000D03*
D11*
X79545000Y-121000000D03*
%TD*%
D10*
%TO.C,J25*%
X76240000Y-90500000D03*
D11*
X78780000Y-90500000D03*
%TD*%
D10*
%TO.C,J29*%
X35000000Y-90600000D03*
D11*
X32460000Y-90600000D03*
%TD*%
D10*
%TO.C,J5*%
X35000000Y-115500000D03*
D11*
X32460000Y-115500000D03*
%TD*%
D10*
%TO.C,J22*%
X77240000Y-110800000D03*
D11*
X79780000Y-110800000D03*
%TD*%
D12*
%TO.C,U1*%
X49510000Y-82850000D03*
D13*
X49510000Y-85390000D03*
X49510000Y-87930000D03*
X49510000Y-90470000D03*
X49510000Y-93010000D03*
X49510000Y-95550000D03*
X49510000Y-98090000D03*
X49510000Y-100630000D03*
X49510000Y-103170000D03*
X49510000Y-105710000D03*
X49510000Y-108250000D03*
X49510000Y-110790000D03*
X49510000Y-113330000D03*
X49510000Y-115870000D03*
X49510000Y-118410000D03*
X49510000Y-120950000D03*
X49510000Y-123490000D03*
X49510000Y-126030000D03*
X49510000Y-128570000D03*
X49510000Y-131110000D03*
X64750000Y-131110000D03*
X64750000Y-128570000D03*
X64750000Y-126030000D03*
X64750000Y-123490000D03*
X64750000Y-120950000D03*
X64750000Y-118410000D03*
X64750000Y-115870000D03*
X64750000Y-113330000D03*
X64750000Y-110790000D03*
X64750000Y-108250000D03*
X64750000Y-105710000D03*
X64750000Y-103170000D03*
X64750000Y-100630000D03*
X64750000Y-98090000D03*
X64750000Y-95550000D03*
X64750000Y-93010000D03*
X64750000Y-90470000D03*
X64750000Y-87930000D03*
X64750000Y-85390000D03*
X64750000Y-82850000D03*
%TD*%
D10*
%TO.C,J20*%
X84240000Y-118500000D03*
D11*
X86780000Y-118500000D03*
%TD*%
D12*
%TO.C,U2*%
X52075000Y-82850000D03*
D13*
X52075000Y-85390000D03*
X52075000Y-87930000D03*
X52075000Y-90470000D03*
X52075000Y-93010000D03*
X52075000Y-95550000D03*
X52075000Y-98090000D03*
X52075000Y-100630000D03*
X52075000Y-103170000D03*
X52075000Y-105710000D03*
X52075000Y-108250000D03*
X52075000Y-110790000D03*
X52075000Y-113330000D03*
X52075000Y-115870000D03*
X52075000Y-118410000D03*
X52075000Y-120950000D03*
X52075000Y-123490000D03*
X52075000Y-126030000D03*
X52075000Y-128570000D03*
X52075000Y-131110000D03*
X67315000Y-131110000D03*
X67315000Y-128570000D03*
X67315000Y-126030000D03*
X67315000Y-123490000D03*
X67315000Y-120950000D03*
X67315000Y-118410000D03*
X67315000Y-115870000D03*
X67315000Y-113330000D03*
X67315000Y-110790000D03*
X67315000Y-108250000D03*
X67315000Y-105710000D03*
X67315000Y-103170000D03*
X67315000Y-100630000D03*
X67315000Y-98090000D03*
X67315000Y-95550000D03*
X67315000Y-93010000D03*
X67315000Y-90470000D03*
X67315000Y-87930000D03*
X67315000Y-85390000D03*
X67315000Y-82850000D03*
%TD*%
D10*
%TO.C,J18*%
X84240000Y-113400000D03*
D11*
X86780000Y-113400000D03*
%TD*%
D10*
%TO.C,J34*%
X84080000Y-88000000D03*
D11*
X86620000Y-88000000D03*
%TD*%
D10*
%TO.C,J33*%
X42000000Y-98000000D03*
D11*
X39460000Y-98000000D03*
%TD*%
D10*
%TO.C,J31*%
X84240000Y-98000000D03*
D11*
X86780000Y-98000000D03*
%TD*%
D10*
%TO.C,J9*%
X35000000Y-131000000D03*
D11*
X32460000Y-131000000D03*
%TD*%
D10*
%TO.C,J17*%
X84240000Y-103000000D03*
D11*
X86780000Y-103000000D03*
%TD*%
D10*
%TO.C,J23*%
X77405000Y-105600000D03*
D11*
X79945000Y-105600000D03*
%TD*%
D10*
%TO.C,J8*%
X35000000Y-121000000D03*
D11*
X32460000Y-121000000D03*
%TD*%
D10*
%TO.C,J28*%
X41940000Y-88000000D03*
D11*
X39400000Y-88000000D03*
%TD*%
D14*
%TO.C,R1*%
X49240000Y-77400000D03*
D13*
X59400000Y-77400000D03*
%TD*%
D10*
%TO.C,J3*%
X35000000Y-111000000D03*
D11*
X32460000Y-111000000D03*
%TD*%
D10*
%TO.C,J27*%
X84240000Y-83000000D03*
D11*
X86780000Y-83000000D03*
%TD*%
D10*
%TO.C,J7*%
X35040000Y-126000000D03*
D11*
X32500000Y-126000000D03*
%TD*%
D10*
%TO.C,J1*%
X42000000Y-103250000D03*
D11*
X39460000Y-103250000D03*
%TD*%
D10*
%TO.C,J12*%
X41540000Y-128500000D03*
D11*
X39000000Y-128500000D03*
%TD*%
D10*
%TO.C,J19*%
X84240000Y-108500000D03*
D11*
X86780000Y-108500000D03*
%TD*%
D15*
%TO.C,D1*%
X62280000Y-77400000D03*
D16*
X64820000Y-77400000D03*
%TD*%
D10*
%TO.C,J4*%
X42000000Y-108200000D03*
D11*
X39460000Y-108200000D03*
%TD*%
D10*
%TO.C,J11*%
X41540000Y-118500000D03*
D11*
X39000000Y-118500000D03*
%TD*%
D10*
%TO.C,J15*%
X84240000Y-128600000D03*
D11*
X86780000Y-128600000D03*
%TD*%
D10*
%TO.C,J10*%
X41540000Y-123500000D03*
D11*
X39000000Y-123500000D03*
%TD*%
D10*
%TO.C,J24*%
X77240000Y-116000000D03*
D11*
X79780000Y-116000000D03*
%TD*%
D10*
%TO.C,J32*%
X35000000Y-85400000D03*
D11*
X32460000Y-85400000D03*
%TD*%
D10*
%TO.C,J13*%
X77005000Y-126000000D03*
D11*
X79545000Y-126000000D03*
%TD*%
D10*
%TO.C,J2*%
X35000000Y-105800000D03*
D11*
X32460000Y-105800000D03*
%TD*%
D10*
%TO.C,J21*%
X77240000Y-100500000D03*
D11*
X79780000Y-100500000D03*
%TD*%
D10*
%TO.C,J26*%
X76240000Y-85500000D03*
D11*
X78780000Y-85500000D03*
%TD*%
D10*
%TO.C,J30*%
X35000000Y-95500000D03*
D11*
X32460000Y-95500000D03*
%TD*%
M02*
