%TF.GenerationSoftware,KiCad,Pcbnew,7.0.1*%
%TF.CreationDate,2023-06-14T21:41:20+02:00*%
%TF.ProjectId,6502_board,36353032-5f62-46f6-9172-642e6b696361,rev?*%
%TF.SameCoordinates,Original*%
%TF.FileFunction,Copper,L2,Bot*%
%TF.FilePolarity,Positive*%
%FSLAX46Y46*%
G04 Gerber Fmt 4.6, Leading zero omitted, Abs format (unit mm)*
G04 Created by KiCad (PCBNEW 7.0.1) date 2023-06-14 21:41:20*
%MOMM*%
%LPD*%
G01*
G04 APERTURE LIST*
%TA.AperFunction,ComponentPad*%
%ADD10R,1.700000X1.700000*%
%TD*%
%TA.AperFunction,ComponentPad*%
%ADD11O,1.700000X1.700000*%
%TD*%
%TA.AperFunction,ComponentPad*%
%ADD12R,1.600000X1.600000*%
%TD*%
%TA.AperFunction,ComponentPad*%
%ADD13O,1.600000X1.600000*%
%TD*%
%TA.AperFunction,ComponentPad*%
%ADD14C,1.600000*%
%TD*%
%TA.AperFunction,ComponentPad*%
%ADD15R,1.800000X1.800000*%
%TD*%
%TA.AperFunction,ComponentPad*%
%ADD16C,1.800000*%
%TD*%
%TA.AperFunction,ViaPad*%
%ADD17C,0.800000*%
%TD*%
G04 APERTURE END LIST*
D10*
%TO.P,J6,1,Pin_1*%
%TO.N,Net-(J6-Pin_1)*%
X41540000Y-113400000D03*
D11*
%TO.P,J6,2,Pin_2*%
%TO.N,GND*%
X39000000Y-113400000D03*
%TD*%
D10*
%TO.P,J16,1,Pin_1*%
%TO.N,Net-(J16-Pin_1)*%
X84240000Y-123500000D03*
D11*
%TO.P,J16,2,Pin_2*%
%TO.N,GND*%
X86780000Y-123500000D03*
%TD*%
D10*
%TO.P,J14,1,Pin_1*%
%TO.N,Net-(J14-Pin_1)*%
X77005000Y-121000000D03*
D11*
%TO.P,J14,2,Pin_2*%
%TO.N,GND*%
X79545000Y-121000000D03*
%TD*%
D10*
%TO.P,J25,1,Pin_1*%
%TO.N,Net-(J25-Pin_1)*%
X76240000Y-90500000D03*
D11*
%TO.P,J25,2,Pin_2*%
%TO.N,GND*%
X78780000Y-90500000D03*
%TD*%
D10*
%TO.P,J29,1,Pin_1*%
%TO.N,Net-(J29-Pin_1)*%
X35000000Y-90600000D03*
D11*
%TO.P,J29,2,Pin_2*%
%TO.N,GND*%
X32460000Y-90600000D03*
%TD*%
D10*
%TO.P,J5,1,Pin_1*%
%TO.N,Net-(J5-Pin_1)*%
X35000000Y-115500000D03*
D11*
%TO.P,J5,2,Pin_2*%
%TO.N,GND*%
X32460000Y-115500000D03*
%TD*%
D10*
%TO.P,J22,1,Pin_1*%
%TO.N,Net-(J22-Pin_1)*%
X77240000Y-110800000D03*
D11*
%TO.P,J22,2,Pin_2*%
%TO.N,GND*%
X79780000Y-110800000D03*
%TD*%
D12*
%TO.P,U1,1,~{VP}*%
%TO.N,Net-(U1-~{VP})*%
X49510000Y-82850000D03*
D13*
%TO.P,U1,2,RDY*%
%TO.N,Net-(J32-Pin_1)*%
X49510000Y-85390000D03*
%TO.P,U1,3,\u03D51*%
%TO.N,Net-(J28-Pin_1)*%
X49510000Y-87930000D03*
%TO.P,U1,4,~{IRQ}*%
%TO.N,Net-(J29-Pin_1)*%
X49510000Y-90470000D03*
%TO.P,U1,5,~{ML}*%
%TO.N,Net-(U1-~{ML})*%
X49510000Y-93010000D03*
%TO.P,U1,6,~{NMI}*%
%TO.N,Net-(J30-Pin_1)*%
X49510000Y-95550000D03*
%TO.P,U1,7,SYNC*%
%TO.N,Net-(J33-Pin_1)*%
X49510000Y-98090000D03*
%TO.P,U1,8,VDD*%
%TO.N,Net-(D1-A)*%
X49510000Y-100630000D03*
%TO.P,U1,9,A0*%
%TO.N,Net-(J1-Pin_1)*%
X49510000Y-103170000D03*
%TO.P,U1,10,A1*%
%TO.N,Net-(J2-Pin_1)*%
X49510000Y-105710000D03*
%TO.P,U1,11,A2*%
%TO.N,Net-(J4-Pin_1)*%
X49510000Y-108250000D03*
%TO.P,U1,12,A3*%
%TO.N,Net-(J3-Pin_1)*%
X49510000Y-110790000D03*
%TO.P,U1,13,A4*%
%TO.N,Net-(J6-Pin_1)*%
X49510000Y-113330000D03*
%TO.P,U1,14,A5*%
%TO.N,Net-(J5-Pin_1)*%
X49510000Y-115870000D03*
%TO.P,U1,15,A6*%
%TO.N,Net-(J11-Pin_1)*%
X49510000Y-118410000D03*
%TO.P,U1,16,A7*%
%TO.N,Net-(J8-Pin_1)*%
X49510000Y-120950000D03*
%TO.P,U1,17,A8*%
%TO.N,Net-(J10-Pin_1)*%
X49510000Y-123490000D03*
%TO.P,U1,18,A9*%
%TO.N,Net-(J7-Pin_1)*%
X49510000Y-126030000D03*
%TO.P,U1,19,A10*%
%TO.N,Net-(J12-Pin_1)*%
X49510000Y-128570000D03*
%TO.P,U1,20,A11*%
%TO.N,Net-(J9-Pin_1)*%
X49510000Y-131110000D03*
%TO.P,U1,21,VSS*%
%TO.N,GND*%
X64750000Y-131110000D03*
%TO.P,U1,22,A12*%
%TO.N,Net-(J15-Pin_1)*%
X64750000Y-128570000D03*
%TO.P,U1,23,A13*%
%TO.N,Net-(J13-Pin_1)*%
X64750000Y-126030000D03*
%TO.P,U1,24,A14*%
%TO.N,Net-(J16-Pin_1)*%
X64750000Y-123490000D03*
%TO.P,U1,25,A15*%
%TO.N,Net-(J14-Pin_1)*%
X64750000Y-120950000D03*
%TO.P,U1,26,D7*%
%TO.N,Net-(J20-Pin_1)*%
X64750000Y-118410000D03*
%TO.P,U1,27,D6*%
%TO.N,Net-(J24-Pin_1)*%
X64750000Y-115870000D03*
%TO.P,U1,28,D5*%
%TO.N,Net-(J18-Pin_1)*%
X64750000Y-113330000D03*
%TO.P,U1,29,D4*%
%TO.N,Net-(J22-Pin_1)*%
X64750000Y-110790000D03*
%TO.P,U1,30,D3*%
%TO.N,Net-(J19-Pin_1)*%
X64750000Y-108250000D03*
%TO.P,U1,31,D2*%
%TO.N,Net-(J23-Pin_1)*%
X64750000Y-105710000D03*
%TO.P,U1,32,D1*%
%TO.N,Net-(J17-Pin_1)*%
X64750000Y-103170000D03*
%TO.P,U1,33,D0*%
%TO.N,Net-(J21-Pin_1)*%
X64750000Y-100630000D03*
%TO.P,U1,34,R/~{W}*%
%TO.N,Net-(J31-Pin_1)*%
X64750000Y-98090000D03*
%TO.P,U1,35,nc*%
%TO.N,unconnected-(U1-nc-Pad35)*%
X64750000Y-95550000D03*
%TO.P,U1,36,BE*%
%TO.N,Net-(U1-BE)*%
X64750000Y-93010000D03*
%TO.P,U1,37,\u03D50*%
%TO.N,Net-(J25-Pin_1)*%
X64750000Y-90470000D03*
%TO.P,U1,38,~{SO}*%
%TO.N,Net-(J34-Pin_1)*%
X64750000Y-87930000D03*
%TO.P,U1,39,\u03D52*%
%TO.N,Net-(J26-Pin_1)*%
X64750000Y-85390000D03*
%TO.P,U1,40,~{RES}*%
%TO.N,Net-(J27-Pin_1)*%
X64750000Y-82850000D03*
%TD*%
D10*
%TO.P,J20,1,Pin_1*%
%TO.N,Net-(J20-Pin_1)*%
X84240000Y-118500000D03*
D11*
%TO.P,J20,2,Pin_2*%
%TO.N,GND*%
X86780000Y-118500000D03*
%TD*%
D12*
%TO.P,U2,1,~{VP}*%
%TO.N,Net-(U1-~{VP})*%
X52075000Y-82850000D03*
D13*
%TO.P,U2,2,RDY*%
%TO.N,Net-(J32-Pin_1)*%
X52075000Y-85390000D03*
%TO.P,U2,3,\u03D51*%
%TO.N,Net-(J28-Pin_1)*%
X52075000Y-87930000D03*
%TO.P,U2,4,~{IRQ}*%
%TO.N,Net-(J29-Pin_1)*%
X52075000Y-90470000D03*
%TO.P,U2,5,~{ML}*%
%TO.N,Net-(U1-~{ML})*%
X52075000Y-93010000D03*
%TO.P,U2,6,~{NMI}*%
%TO.N,Net-(J30-Pin_1)*%
X52075000Y-95550000D03*
%TO.P,U2,7,SYNC*%
%TO.N,Net-(J33-Pin_1)*%
X52075000Y-98090000D03*
%TO.P,U2,8,VDD*%
%TO.N,Net-(D1-A)*%
X52075000Y-100630000D03*
%TO.P,U2,9,A0*%
%TO.N,Net-(J1-Pin_1)*%
X52075000Y-103170000D03*
%TO.P,U2,10,A1*%
%TO.N,Net-(J2-Pin_1)*%
X52075000Y-105710000D03*
%TO.P,U2,11,A2*%
%TO.N,Net-(J4-Pin_1)*%
X52075000Y-108250000D03*
%TO.P,U2,12,A3*%
%TO.N,Net-(J3-Pin_1)*%
X52075000Y-110790000D03*
%TO.P,U2,13,A4*%
%TO.N,Net-(J6-Pin_1)*%
X52075000Y-113330000D03*
%TO.P,U2,14,A5*%
%TO.N,Net-(J5-Pin_1)*%
X52075000Y-115870000D03*
%TO.P,U2,15,A6*%
%TO.N,Net-(J11-Pin_1)*%
X52075000Y-118410000D03*
%TO.P,U2,16,A7*%
%TO.N,Net-(J8-Pin_1)*%
X52075000Y-120950000D03*
%TO.P,U2,17,A8*%
%TO.N,Net-(J10-Pin_1)*%
X52075000Y-123490000D03*
%TO.P,U2,18,A9*%
%TO.N,Net-(J7-Pin_1)*%
X52075000Y-126030000D03*
%TO.P,U2,19,A10*%
%TO.N,Net-(J12-Pin_1)*%
X52075000Y-128570000D03*
%TO.P,U2,20,A11*%
%TO.N,Net-(J9-Pin_1)*%
X52075000Y-131110000D03*
%TO.P,U2,21,VSS*%
%TO.N,GND*%
X67315000Y-131110000D03*
%TO.P,U2,22,A12*%
%TO.N,Net-(J15-Pin_1)*%
X67315000Y-128570000D03*
%TO.P,U2,23,A13*%
%TO.N,Net-(J13-Pin_1)*%
X67315000Y-126030000D03*
%TO.P,U2,24,A14*%
%TO.N,Net-(J16-Pin_1)*%
X67315000Y-123490000D03*
%TO.P,U2,25,A15*%
%TO.N,Net-(J14-Pin_1)*%
X67315000Y-120950000D03*
%TO.P,U2,26,D7*%
%TO.N,Net-(J20-Pin_1)*%
X67315000Y-118410000D03*
%TO.P,U2,27,D6*%
%TO.N,Net-(J24-Pin_1)*%
X67315000Y-115870000D03*
%TO.P,U2,28,D5*%
%TO.N,Net-(J18-Pin_1)*%
X67315000Y-113330000D03*
%TO.P,U2,29,D4*%
%TO.N,Net-(J22-Pin_1)*%
X67315000Y-110790000D03*
%TO.P,U2,30,D3*%
%TO.N,Net-(J19-Pin_1)*%
X67315000Y-108250000D03*
%TO.P,U2,31,D2*%
%TO.N,Net-(J23-Pin_1)*%
X67315000Y-105710000D03*
%TO.P,U2,32,D1*%
%TO.N,Net-(J17-Pin_1)*%
X67315000Y-103170000D03*
%TO.P,U2,33,D0*%
%TO.N,Net-(J21-Pin_1)*%
X67315000Y-100630000D03*
%TO.P,U2,34,R/~{W}*%
%TO.N,Net-(J31-Pin_1)*%
X67315000Y-98090000D03*
%TO.P,U2,35,nc*%
%TO.N,unconnected-(U2-nc-Pad35)*%
X67315000Y-95550000D03*
%TO.P,U2,36,BE*%
%TO.N,Net-(U1-BE)*%
X67315000Y-93010000D03*
%TO.P,U2,37,\u03D50*%
%TO.N,Net-(J25-Pin_1)*%
X67315000Y-90470000D03*
%TO.P,U2,38,~{SO}*%
%TO.N,Net-(J34-Pin_1)*%
X67315000Y-87930000D03*
%TO.P,U2,39,\u03D52*%
%TO.N,Net-(J26-Pin_1)*%
X67315000Y-85390000D03*
%TO.P,U2,40,~{RES}*%
%TO.N,Net-(J27-Pin_1)*%
X67315000Y-82850000D03*
%TD*%
D10*
%TO.P,J18,1,Pin_1*%
%TO.N,Net-(J18-Pin_1)*%
X84240000Y-113400000D03*
D11*
%TO.P,J18,2,Pin_2*%
%TO.N,GND*%
X86780000Y-113400000D03*
%TD*%
D10*
%TO.P,J34,1,Pin_1*%
%TO.N,Net-(J34-Pin_1)*%
X84080000Y-88000000D03*
D11*
%TO.P,J34,2,Pin_2*%
%TO.N,GND*%
X86620000Y-88000000D03*
%TD*%
D10*
%TO.P,J33,1,Pin_1*%
%TO.N,Net-(J33-Pin_1)*%
X42000000Y-98000000D03*
D11*
%TO.P,J33,2,Pin_2*%
%TO.N,GND*%
X39460000Y-98000000D03*
%TD*%
D10*
%TO.P,J31,1,Pin_1*%
%TO.N,Net-(J31-Pin_1)*%
X84240000Y-98000000D03*
D11*
%TO.P,J31,2,Pin_2*%
%TO.N,GND*%
X86780000Y-98000000D03*
%TD*%
D10*
%TO.P,J9,1,Pin_1*%
%TO.N,Net-(J9-Pin_1)*%
X35000000Y-131000000D03*
D11*
%TO.P,J9,2,Pin_2*%
%TO.N,GND*%
X32460000Y-131000000D03*
%TD*%
D10*
%TO.P,J17,1,Pin_1*%
%TO.N,Net-(J17-Pin_1)*%
X84240000Y-103000000D03*
D11*
%TO.P,J17,2,Pin_2*%
%TO.N,GND*%
X86780000Y-103000000D03*
%TD*%
D10*
%TO.P,J23,1,Pin_1*%
%TO.N,Net-(J23-Pin_1)*%
X77405000Y-105600000D03*
D11*
%TO.P,J23,2,Pin_2*%
%TO.N,GND*%
X79945000Y-105600000D03*
%TD*%
D10*
%TO.P,J8,1,Pin_1*%
%TO.N,Net-(J8-Pin_1)*%
X35000000Y-121000000D03*
D11*
%TO.P,J8,2,Pin_2*%
%TO.N,GND*%
X32460000Y-121000000D03*
%TD*%
D10*
%TO.P,J28,1,Pin_1*%
%TO.N,Net-(J28-Pin_1)*%
X41940000Y-88000000D03*
D11*
%TO.P,J28,2,Pin_2*%
%TO.N,GND*%
X39400000Y-88000000D03*
%TD*%
D14*
%TO.P,R1,1*%
%TO.N,GND*%
X49240000Y-77400000D03*
D13*
%TO.P,R1,2*%
%TO.N,Net-(D1-K)*%
X59400000Y-77400000D03*
%TD*%
D10*
%TO.P,J3,1,Pin_1*%
%TO.N,Net-(J3-Pin_1)*%
X35000000Y-111000000D03*
D11*
%TO.P,J3,2,Pin_2*%
%TO.N,GND*%
X32460000Y-111000000D03*
%TD*%
D10*
%TO.P,J27,1,Pin_1*%
%TO.N,Net-(J27-Pin_1)*%
X84240000Y-83000000D03*
D11*
%TO.P,J27,2,Pin_2*%
%TO.N,GND*%
X86780000Y-83000000D03*
%TD*%
D10*
%TO.P,J7,1,Pin_1*%
%TO.N,Net-(J7-Pin_1)*%
X35040000Y-126000000D03*
D11*
%TO.P,J7,2,Pin_2*%
%TO.N,GND*%
X32500000Y-126000000D03*
%TD*%
D10*
%TO.P,J1,1,Pin_1*%
%TO.N,Net-(J1-Pin_1)*%
X42000000Y-103250000D03*
D11*
%TO.P,J1,2,Pin_2*%
%TO.N,GND*%
X39460000Y-103250000D03*
%TD*%
D10*
%TO.P,J12,1,Pin_1*%
%TO.N,Net-(J12-Pin_1)*%
X41540000Y-128500000D03*
D11*
%TO.P,J12,2,Pin_2*%
%TO.N,GND*%
X39000000Y-128500000D03*
%TD*%
D10*
%TO.P,J19,1,Pin_1*%
%TO.N,Net-(J19-Pin_1)*%
X84240000Y-108500000D03*
D11*
%TO.P,J19,2,Pin_2*%
%TO.N,GND*%
X86780000Y-108500000D03*
%TD*%
D15*
%TO.P,D1,1,K*%
%TO.N,Net-(D1-K)*%
X62280000Y-77400000D03*
D16*
%TO.P,D1,2,A*%
%TO.N,Net-(D1-A)*%
X64820000Y-77400000D03*
%TD*%
D10*
%TO.P,J4,1,Pin_1*%
%TO.N,Net-(J4-Pin_1)*%
X42000000Y-108200000D03*
D11*
%TO.P,J4,2,Pin_2*%
%TO.N,GND*%
X39460000Y-108200000D03*
%TD*%
D10*
%TO.P,J11,1,Pin_1*%
%TO.N,Net-(J11-Pin_1)*%
X41540000Y-118500000D03*
D11*
%TO.P,J11,2,Pin_2*%
%TO.N,GND*%
X39000000Y-118500000D03*
%TD*%
D10*
%TO.P,J15,1,Pin_1*%
%TO.N,Net-(J15-Pin_1)*%
X84240000Y-128600000D03*
D11*
%TO.P,J15,2,Pin_2*%
%TO.N,GND*%
X86780000Y-128600000D03*
%TD*%
D10*
%TO.P,J10,1,Pin_1*%
%TO.N,Net-(J10-Pin_1)*%
X41540000Y-123500000D03*
D11*
%TO.P,J10,2,Pin_2*%
%TO.N,GND*%
X39000000Y-123500000D03*
%TD*%
D10*
%TO.P,J24,1,Pin_1*%
%TO.N,Net-(J24-Pin_1)*%
X77240000Y-116000000D03*
D11*
%TO.P,J24,2,Pin_2*%
%TO.N,GND*%
X79780000Y-116000000D03*
%TD*%
D10*
%TO.P,J32,1,Pin_1*%
%TO.N,Net-(J32-Pin_1)*%
X35000000Y-85400000D03*
D11*
%TO.P,J32,2,Pin_2*%
%TO.N,GND*%
X32460000Y-85400000D03*
%TD*%
D10*
%TO.P,J13,1,Pin_1*%
%TO.N,Net-(J13-Pin_1)*%
X77005000Y-126000000D03*
D11*
%TO.P,J13,2,Pin_2*%
%TO.N,GND*%
X79545000Y-126000000D03*
%TD*%
D10*
%TO.P,J2,1,Pin_1*%
%TO.N,Net-(J2-Pin_1)*%
X35000000Y-105800000D03*
D11*
%TO.P,J2,2,Pin_2*%
%TO.N,GND*%
X32460000Y-105800000D03*
%TD*%
D10*
%TO.P,J21,1,Pin_1*%
%TO.N,Net-(J21-Pin_1)*%
X77240000Y-100500000D03*
D11*
%TO.P,J21,2,Pin_2*%
%TO.N,GND*%
X79780000Y-100500000D03*
%TD*%
D10*
%TO.P,J26,1,Pin_1*%
%TO.N,Net-(J26-Pin_1)*%
X76240000Y-85500000D03*
D11*
%TO.P,J26,2,Pin_2*%
%TO.N,GND*%
X78780000Y-85500000D03*
%TD*%
D10*
%TO.P,J30,1,Pin_1*%
%TO.N,Net-(J30-Pin_1)*%
X35000000Y-95500000D03*
D11*
%TO.P,J30,2,Pin_2*%
%TO.N,GND*%
X32460000Y-95500000D03*
%TD*%
D17*
%TO.N,GND*%
X90000000Y-77500000D03*
X75000000Y-135000000D03*
X90000000Y-90000000D03*
X60000000Y-135000000D03*
X90000000Y-102500000D03*
X75000000Y-75000000D03*
X90000000Y-110000000D03*
X62500000Y-135000000D03*
X90000000Y-130000000D03*
X30000000Y-87500000D03*
X65000000Y-135000000D03*
X30000000Y-97500000D03*
X67500000Y-135000000D03*
X90000000Y-92500000D03*
X90000000Y-97500000D03*
X67500000Y-75000000D03*
X60000000Y-75000000D03*
X32500000Y-75000000D03*
X55000000Y-75000000D03*
X90000000Y-125000000D03*
X90000000Y-120000000D03*
X30000000Y-122500000D03*
X90000000Y-127500000D03*
X62500000Y-75000000D03*
X30000000Y-117500000D03*
X90000000Y-112500000D03*
X90000000Y-75000000D03*
X30000000Y-100000000D03*
X32500000Y-135000000D03*
X40000000Y-75000000D03*
X52500000Y-75000000D03*
X30000000Y-120000000D03*
X30000000Y-132500000D03*
X52500000Y-135000000D03*
X30000000Y-107500000D03*
X77500000Y-135000000D03*
X30000000Y-90000000D03*
X50000000Y-135000000D03*
X30000000Y-102500000D03*
X80000000Y-75000000D03*
X47500000Y-75000000D03*
X30000000Y-80000000D03*
X30000000Y-130000000D03*
X35000000Y-75000000D03*
X42500000Y-75000000D03*
X30000000Y-95000000D03*
X37500000Y-135000000D03*
X50000000Y-75000000D03*
X90000000Y-85000000D03*
X30000000Y-115000000D03*
X70000000Y-75000000D03*
X57500000Y-135000000D03*
X30000000Y-112500000D03*
X45000000Y-75000000D03*
X30000000Y-75000000D03*
X45000000Y-135000000D03*
X30000000Y-127500000D03*
X30000000Y-92500000D03*
X30000000Y-135000000D03*
X30000000Y-77500000D03*
X72500000Y-135000000D03*
X90000000Y-122500000D03*
X90000000Y-132500000D03*
X77500000Y-75000000D03*
X85000000Y-135000000D03*
X47500000Y-135000000D03*
X57500000Y-75000000D03*
X90000000Y-135000000D03*
X30000000Y-82500000D03*
X40000000Y-135000000D03*
X90000000Y-105000000D03*
X55000000Y-135000000D03*
X90000000Y-117500000D03*
X85000000Y-75000000D03*
X30000000Y-105000000D03*
X30000000Y-110000000D03*
X70000000Y-135000000D03*
X82500000Y-75000000D03*
X42500000Y-135000000D03*
X35000000Y-135000000D03*
X90000000Y-100000000D03*
X82500000Y-135000000D03*
X90000000Y-82500000D03*
X72500000Y-75000000D03*
X90000000Y-107500000D03*
X87500000Y-135000000D03*
X90000000Y-80000000D03*
X80000000Y-135000000D03*
X30000000Y-125000000D03*
X37500000Y-75000000D03*
X90000000Y-87500000D03*
X87500000Y-75000000D03*
X65000000Y-75000000D03*
X90000000Y-115000000D03*
X30000000Y-85000000D03*
X90000000Y-95000000D03*
%TD*%
%TA.AperFunction,Conductor*%
%TO.N,GND*%
G36*
X91937500Y-73017113D02*
G01*
X91982887Y-73062500D01*
X91999500Y-73124500D01*
X91999500Y-136875500D01*
X91982887Y-136937500D01*
X91937500Y-136982887D01*
X91875500Y-136999500D01*
X28124500Y-136999500D01*
X28062500Y-136982887D01*
X28017113Y-136937500D01*
X28000500Y-136875500D01*
X28000500Y-131125000D01*
X31366870Y-131125000D01*
X31374096Y-131202992D01*
X31429885Y-131399068D01*
X31520751Y-131581553D01*
X31643607Y-131744241D01*
X31794259Y-131881578D01*
X31967588Y-131988899D01*
X32157679Y-132062540D01*
X32335000Y-132095687D01*
X32335000Y-131125000D01*
X32585000Y-131125000D01*
X32585000Y-132095687D01*
X32762320Y-132062540D01*
X32952411Y-131988899D01*
X33125740Y-131881578D01*
X33133312Y-131874675D01*
X33899500Y-131874675D01*
X33914033Y-131947738D01*
X33914033Y-131947739D01*
X33914034Y-131947740D01*
X33969399Y-132030601D01*
X34052260Y-132085966D01*
X34088793Y-132093233D01*
X34125325Y-132100500D01*
X34125326Y-132100500D01*
X35874674Y-132100500D01*
X35874675Y-132100500D01*
X35899029Y-132095655D01*
X35947740Y-132085966D01*
X36030601Y-132030601D01*
X36085966Y-131947740D01*
X36100500Y-131874674D01*
X36100500Y-131109999D01*
X48454417Y-131109999D01*
X48474699Y-131315932D01*
X48474700Y-131315934D01*
X48534768Y-131513954D01*
X48632315Y-131696450D01*
X48671536Y-131744241D01*
X48763589Y-131856410D01*
X48794257Y-131881578D01*
X48923550Y-131987685D01*
X49106046Y-132085232D01*
X49304066Y-132145300D01*
X49510000Y-132165583D01*
X49715934Y-132145300D01*
X49913954Y-132085232D01*
X50096450Y-131987685D01*
X50256410Y-131856410D01*
X50387685Y-131696450D01*
X50485232Y-131513954D01*
X50545300Y-131315934D01*
X50565583Y-131110000D01*
X50565583Y-131109999D01*
X51019417Y-131109999D01*
X51039699Y-131315932D01*
X51039700Y-131315934D01*
X51099768Y-131513954D01*
X51197315Y-131696450D01*
X51236536Y-131744241D01*
X51328589Y-131856410D01*
X51359257Y-131881578D01*
X51488550Y-131987685D01*
X51671046Y-132085232D01*
X51869066Y-132145300D01*
X52075000Y-132165583D01*
X52280934Y-132145300D01*
X52478954Y-132085232D01*
X52661450Y-131987685D01*
X52821410Y-131856410D01*
X52952685Y-131696450D01*
X53050232Y-131513954D01*
X53110300Y-131315934D01*
X53118271Y-131235000D01*
X63707230Y-131235000D01*
X63715191Y-131315834D01*
X63775233Y-131513764D01*
X63872731Y-131696171D01*
X64003945Y-131856054D01*
X64163828Y-131987268D01*
X64346235Y-132084766D01*
X64544165Y-132144808D01*
X64625000Y-132152770D01*
X64625000Y-131235000D01*
X64875000Y-131235000D01*
X64875000Y-132152770D01*
X64955834Y-132144808D01*
X65153764Y-132084766D01*
X65336171Y-131987268D01*
X65496054Y-131856054D01*
X65627268Y-131696171D01*
X65724766Y-131513764D01*
X65784808Y-131315834D01*
X65792770Y-131235000D01*
X66272230Y-131235000D01*
X66280191Y-131315834D01*
X66340233Y-131513764D01*
X66437731Y-131696171D01*
X66568945Y-131856054D01*
X66728828Y-131987268D01*
X66911235Y-132084766D01*
X67109165Y-132144808D01*
X67190000Y-132152770D01*
X67190000Y-131235000D01*
X67440000Y-131235000D01*
X67440000Y-132152770D01*
X67520834Y-132144808D01*
X67718764Y-132084766D01*
X67901171Y-131987268D01*
X68061054Y-131856054D01*
X68192268Y-131696171D01*
X68289766Y-131513764D01*
X68349808Y-131315834D01*
X68357770Y-131235000D01*
X67440000Y-131235000D01*
X67190000Y-131235000D01*
X66272230Y-131235000D01*
X65792770Y-131235000D01*
X64875000Y-131235000D01*
X64625000Y-131235000D01*
X63707230Y-131235000D01*
X53118271Y-131235000D01*
X53130583Y-131110000D01*
X53118271Y-130985000D01*
X63707229Y-130985000D01*
X64625000Y-130985000D01*
X64625000Y-130067229D01*
X64874999Y-130067229D01*
X64875000Y-130067230D01*
X64875000Y-130985000D01*
X65792770Y-130985000D01*
X66272229Y-130985000D01*
X67190000Y-130985000D01*
X67190000Y-130067229D01*
X67439999Y-130067229D01*
X67440000Y-130067230D01*
X67440000Y-130985000D01*
X68357770Y-130985000D01*
X68349808Y-130904165D01*
X68289766Y-130706235D01*
X68192268Y-130523828D01*
X68061054Y-130363945D01*
X67901171Y-130232731D01*
X67718764Y-130135233D01*
X67520834Y-130075191D01*
X67439999Y-130067229D01*
X67190000Y-130067229D01*
X67109165Y-130075191D01*
X66911235Y-130135233D01*
X66728828Y-130232731D01*
X66568945Y-130363945D01*
X66437731Y-130523828D01*
X66340233Y-130706235D01*
X66280191Y-130904165D01*
X66272229Y-130985000D01*
X65792770Y-130985000D01*
X65784808Y-130904165D01*
X65724766Y-130706235D01*
X65627268Y-130523828D01*
X65496054Y-130363945D01*
X65336171Y-130232731D01*
X65153764Y-130135233D01*
X64955834Y-130075191D01*
X64874999Y-130067229D01*
X64625000Y-130067229D01*
X64544165Y-130075191D01*
X64346235Y-130135233D01*
X64163828Y-130232731D01*
X64003945Y-130363945D01*
X63872731Y-130523828D01*
X63775233Y-130706235D01*
X63715191Y-130904165D01*
X63707229Y-130985000D01*
X53118271Y-130985000D01*
X53110300Y-130904066D01*
X53050232Y-130706046D01*
X52952685Y-130523550D01*
X52866429Y-130418446D01*
X52821410Y-130363589D01*
X52723952Y-130283609D01*
X52661450Y-130232315D01*
X52478954Y-130134768D01*
X52379943Y-130104733D01*
X52280932Y-130074699D01*
X52075000Y-130054417D01*
X51869067Y-130074699D01*
X51671043Y-130134769D01*
X51488551Y-130232314D01*
X51328589Y-130363589D01*
X51197314Y-130523551D01*
X51099769Y-130706043D01*
X51039699Y-130904067D01*
X51019417Y-131109999D01*
X50565583Y-131109999D01*
X50545300Y-130904066D01*
X50485232Y-130706046D01*
X50387685Y-130523550D01*
X50301429Y-130418446D01*
X50256410Y-130363589D01*
X50158952Y-130283609D01*
X50096450Y-130232315D01*
X49913954Y-130134768D01*
X49814943Y-130104733D01*
X49715932Y-130074699D01*
X49510000Y-130054417D01*
X49304067Y-130074699D01*
X49106043Y-130134769D01*
X48923551Y-130232314D01*
X48763589Y-130363589D01*
X48632314Y-130523551D01*
X48534769Y-130706043D01*
X48474699Y-130904067D01*
X48454417Y-131109999D01*
X36100500Y-131109999D01*
X36100500Y-130125326D01*
X36099126Y-130118421D01*
X36088944Y-130067230D01*
X36085966Y-130052260D01*
X36030601Y-129969399D01*
X35947740Y-129914034D01*
X35947739Y-129914033D01*
X35947738Y-129914033D01*
X35874675Y-129899500D01*
X35874674Y-129899500D01*
X34125326Y-129899500D01*
X34125325Y-129899500D01*
X34052261Y-129914033D01*
X33969399Y-129969399D01*
X33914033Y-130052261D01*
X33899500Y-130125325D01*
X33899500Y-131874675D01*
X33133312Y-131874675D01*
X33276392Y-131744241D01*
X33399248Y-131581553D01*
X33490114Y-131399068D01*
X33545903Y-131202992D01*
X33553130Y-131125000D01*
X32585000Y-131125000D01*
X32335000Y-131125000D01*
X31366870Y-131125000D01*
X28000500Y-131125000D01*
X28000500Y-130874999D01*
X31366869Y-130874999D01*
X31366870Y-130875000D01*
X32335000Y-130875000D01*
X32335000Y-129904313D01*
X32585000Y-129904313D01*
X32585000Y-130875000D01*
X33553130Y-130875000D01*
X33553130Y-130874999D01*
X33545903Y-130797007D01*
X33490114Y-130600931D01*
X33399248Y-130418446D01*
X33276392Y-130255758D01*
X33125740Y-130118421D01*
X32952411Y-130011100D01*
X32762320Y-129937459D01*
X32585000Y-129904313D01*
X32335000Y-129904313D01*
X32335000Y-129904312D01*
X32157679Y-129937459D01*
X31967588Y-130011100D01*
X31794259Y-130118421D01*
X31643607Y-130255758D01*
X31520751Y-130418446D01*
X31429885Y-130600931D01*
X31374096Y-130797007D01*
X31366869Y-130874999D01*
X28000500Y-130874999D01*
X28000500Y-128625000D01*
X37906870Y-128625000D01*
X37914096Y-128702992D01*
X37969885Y-128899068D01*
X38060751Y-129081553D01*
X38183607Y-129244241D01*
X38334259Y-129381578D01*
X38507588Y-129488899D01*
X38697679Y-129562540D01*
X38875000Y-129595687D01*
X38875000Y-128625000D01*
X39125000Y-128625000D01*
X39125000Y-129595687D01*
X39302320Y-129562540D01*
X39492411Y-129488899D01*
X39665740Y-129381578D01*
X39673312Y-129374675D01*
X40439500Y-129374675D01*
X40454033Y-129447738D01*
X40454033Y-129447739D01*
X40454034Y-129447740D01*
X40509399Y-129530601D01*
X40592260Y-129585966D01*
X40628792Y-129593232D01*
X40665325Y-129600500D01*
X40665326Y-129600500D01*
X42414674Y-129600500D01*
X42414675Y-129600500D01*
X42439029Y-129595655D01*
X42487740Y-129585966D01*
X42570601Y-129530601D01*
X42625966Y-129447740D01*
X42640500Y-129374674D01*
X42640500Y-128570000D01*
X48454417Y-128570000D01*
X48474699Y-128775932D01*
X48474700Y-128775934D01*
X48534768Y-128973954D01*
X48632315Y-129156450D01*
X48683609Y-129218952D01*
X48763589Y-129316410D01*
X48842998Y-129381578D01*
X48923550Y-129447685D01*
X49106046Y-129545232D01*
X49304066Y-129605300D01*
X49510000Y-129625583D01*
X49715934Y-129605300D01*
X49913954Y-129545232D01*
X50096450Y-129447685D01*
X50256410Y-129316410D01*
X50387685Y-129156450D01*
X50485232Y-128973954D01*
X50545300Y-128775934D01*
X50565583Y-128570000D01*
X51019417Y-128570000D01*
X51039699Y-128775932D01*
X51039700Y-128775934D01*
X51099768Y-128973954D01*
X51197315Y-129156450D01*
X51248609Y-129218952D01*
X51328589Y-129316410D01*
X51407998Y-129381578D01*
X51488550Y-129447685D01*
X51671046Y-129545232D01*
X51869066Y-129605300D01*
X52075000Y-129625583D01*
X52280934Y-129605300D01*
X52478954Y-129545232D01*
X52661450Y-129447685D01*
X52821410Y-129316410D01*
X52952685Y-129156450D01*
X53050232Y-128973954D01*
X53110300Y-128775934D01*
X53130583Y-128570000D01*
X63694417Y-128570000D01*
X63714699Y-128775932D01*
X63714700Y-128775934D01*
X63774768Y-128973954D01*
X63872315Y-129156450D01*
X63923609Y-129218952D01*
X64003589Y-129316410D01*
X64082998Y-129381578D01*
X64163550Y-129447685D01*
X64346046Y-129545232D01*
X64544066Y-129605300D01*
X64750000Y-129625583D01*
X64955934Y-129605300D01*
X65153954Y-129545232D01*
X65336450Y-129447685D01*
X65496410Y-129316410D01*
X65627685Y-129156450D01*
X65725232Y-128973954D01*
X65785300Y-128775934D01*
X65805583Y-128570000D01*
X66259417Y-128570000D01*
X66279699Y-128775932D01*
X66279700Y-128775934D01*
X66339768Y-128973954D01*
X66437315Y-129156450D01*
X66488609Y-129218952D01*
X66568589Y-129316410D01*
X66647998Y-129381578D01*
X66728550Y-129447685D01*
X66911046Y-129545232D01*
X67109066Y-129605300D01*
X67315000Y-129625583D01*
X67520934Y-129605300D01*
X67718954Y-129545232D01*
X67850956Y-129474675D01*
X83139500Y-129474675D01*
X83154033Y-129547738D01*
X83154033Y-129547739D01*
X83154034Y-129547740D01*
X83209399Y-129630601D01*
X83292260Y-129685966D01*
X83328792Y-129693232D01*
X83365325Y-129700500D01*
X83365326Y-129700500D01*
X85114674Y-129700500D01*
X85114675Y-129700500D01*
X85139029Y-129695655D01*
X85187740Y-129685966D01*
X85270601Y-129630601D01*
X85325966Y-129547740D01*
X85335655Y-129499029D01*
X85340500Y-129474675D01*
X85340500Y-128725000D01*
X85686870Y-128725000D01*
X85694096Y-128802992D01*
X85749885Y-128999068D01*
X85840751Y-129181553D01*
X85963607Y-129344241D01*
X86114259Y-129481578D01*
X86287588Y-129588899D01*
X86477679Y-129662540D01*
X86655000Y-129695687D01*
X86655000Y-128725000D01*
X86905000Y-128725000D01*
X86905000Y-129695687D01*
X87082320Y-129662540D01*
X87272411Y-129588899D01*
X87445740Y-129481578D01*
X87596392Y-129344241D01*
X87719248Y-129181553D01*
X87810114Y-128999068D01*
X87865903Y-128802992D01*
X87873130Y-128725000D01*
X86905000Y-128725000D01*
X86655000Y-128725000D01*
X85686870Y-128725000D01*
X85340500Y-128725000D01*
X85340500Y-128474999D01*
X85686869Y-128474999D01*
X85686870Y-128475000D01*
X86655000Y-128475000D01*
X86655000Y-127504313D01*
X86905000Y-127504313D01*
X86905000Y-128475000D01*
X87873130Y-128475000D01*
X87873130Y-128474999D01*
X87865903Y-128397007D01*
X87810114Y-128200931D01*
X87719248Y-128018446D01*
X87596392Y-127855758D01*
X87445740Y-127718421D01*
X87272411Y-127611100D01*
X87082320Y-127537459D01*
X86905000Y-127504313D01*
X86655000Y-127504313D01*
X86655000Y-127504312D01*
X86477679Y-127537459D01*
X86287588Y-127611100D01*
X86114259Y-127718421D01*
X85963607Y-127855758D01*
X85840751Y-128018446D01*
X85749885Y-128200931D01*
X85694096Y-128397007D01*
X85686869Y-128474999D01*
X85340500Y-128474999D01*
X85340500Y-127725325D01*
X85325966Y-127652261D01*
X85325966Y-127652260D01*
X85270601Y-127569399D01*
X85187740Y-127514034D01*
X85187739Y-127514033D01*
X85187738Y-127514033D01*
X85114675Y-127499500D01*
X85114674Y-127499500D01*
X83365326Y-127499500D01*
X83365325Y-127499500D01*
X83292261Y-127514033D01*
X83209399Y-127569399D01*
X83154033Y-127652261D01*
X83139500Y-127725325D01*
X83139500Y-129474675D01*
X67850956Y-129474675D01*
X67901450Y-129447685D01*
X68061410Y-129316410D01*
X68192685Y-129156450D01*
X68290232Y-128973954D01*
X68350300Y-128775934D01*
X68370583Y-128570000D01*
X68350300Y-128364066D01*
X68290232Y-128166046D01*
X68192685Y-127983550D01*
X68127047Y-127903569D01*
X68061410Y-127823589D01*
X67933260Y-127718421D01*
X67901450Y-127692315D01*
X67810202Y-127643541D01*
X67718956Y-127594769D01*
X67718955Y-127594768D01*
X67718954Y-127594768D01*
X67578826Y-127552261D01*
X67520932Y-127534699D01*
X67315000Y-127514417D01*
X67109067Y-127534699D01*
X66911043Y-127594769D01*
X66728551Y-127692314D01*
X66568589Y-127823589D01*
X66437314Y-127983551D01*
X66339769Y-128166043D01*
X66279699Y-128364067D01*
X66259417Y-128570000D01*
X65805583Y-128570000D01*
X65785300Y-128364066D01*
X65725232Y-128166046D01*
X65627685Y-127983550D01*
X65562047Y-127903569D01*
X65496410Y-127823589D01*
X65368260Y-127718421D01*
X65336450Y-127692315D01*
X65245202Y-127643541D01*
X65153956Y-127594769D01*
X65153955Y-127594768D01*
X65153954Y-127594768D01*
X65013826Y-127552261D01*
X64955932Y-127534699D01*
X64750000Y-127514417D01*
X64544067Y-127534699D01*
X64346043Y-127594769D01*
X64163551Y-127692314D01*
X64003589Y-127823589D01*
X63872314Y-127983551D01*
X63774769Y-128166043D01*
X63714699Y-128364067D01*
X63694417Y-128570000D01*
X53130583Y-128570000D01*
X53110300Y-128364066D01*
X53050232Y-128166046D01*
X52952685Y-127983550D01*
X52887047Y-127903569D01*
X52821410Y-127823589D01*
X52693260Y-127718421D01*
X52661450Y-127692315D01*
X52570202Y-127643541D01*
X52478956Y-127594769D01*
X52478955Y-127594768D01*
X52478954Y-127594768D01*
X52338826Y-127552261D01*
X52280932Y-127534699D01*
X52075000Y-127514417D01*
X51869067Y-127534699D01*
X51671043Y-127594769D01*
X51488551Y-127692314D01*
X51328589Y-127823589D01*
X51197314Y-127983551D01*
X51099769Y-128166043D01*
X51039699Y-128364067D01*
X51019417Y-128570000D01*
X50565583Y-128570000D01*
X50545300Y-128364066D01*
X50485232Y-128166046D01*
X50387685Y-127983550D01*
X50322047Y-127903569D01*
X50256410Y-127823589D01*
X50128260Y-127718421D01*
X50096450Y-127692315D01*
X50005202Y-127643541D01*
X49913956Y-127594769D01*
X49913955Y-127594768D01*
X49913954Y-127594768D01*
X49773826Y-127552261D01*
X49715932Y-127534699D01*
X49510000Y-127514417D01*
X49304067Y-127534699D01*
X49106043Y-127594769D01*
X48923551Y-127692314D01*
X48763589Y-127823589D01*
X48632314Y-127983551D01*
X48534769Y-128166043D01*
X48474699Y-128364067D01*
X48454417Y-128570000D01*
X42640500Y-128570000D01*
X42640500Y-127625326D01*
X42639126Y-127618421D01*
X42625966Y-127552261D01*
X42625966Y-127552260D01*
X42570601Y-127469399D01*
X42487740Y-127414034D01*
X42487739Y-127414033D01*
X42487738Y-127414033D01*
X42414675Y-127399500D01*
X42414674Y-127399500D01*
X40665326Y-127399500D01*
X40665325Y-127399500D01*
X40592261Y-127414033D01*
X40509399Y-127469399D01*
X40454033Y-127552261D01*
X40439500Y-127625325D01*
X40439500Y-129374675D01*
X39673312Y-129374675D01*
X39816392Y-129244241D01*
X39939248Y-129081553D01*
X40030114Y-128899068D01*
X40085903Y-128702992D01*
X40093130Y-128625000D01*
X39125000Y-128625000D01*
X38875000Y-128625000D01*
X37906870Y-128625000D01*
X28000500Y-128625000D01*
X28000500Y-128374999D01*
X37906869Y-128374999D01*
X37906870Y-128375000D01*
X38875000Y-128375000D01*
X38875000Y-127404312D01*
X39124999Y-127404312D01*
X39125000Y-127404313D01*
X39125000Y-128375000D01*
X40093130Y-128375000D01*
X40093130Y-128374999D01*
X40085903Y-128297007D01*
X40030114Y-128100931D01*
X39939248Y-127918446D01*
X39816392Y-127755758D01*
X39665740Y-127618421D01*
X39492411Y-127511100D01*
X39302320Y-127437459D01*
X39124999Y-127404312D01*
X38875000Y-127404312D01*
X38697679Y-127437459D01*
X38507588Y-127511100D01*
X38334259Y-127618421D01*
X38183607Y-127755758D01*
X38060751Y-127918446D01*
X37969885Y-128100931D01*
X37914096Y-128297007D01*
X37906869Y-128374999D01*
X28000500Y-128374999D01*
X28000500Y-126125000D01*
X31406870Y-126125000D01*
X31414096Y-126202992D01*
X31469885Y-126399068D01*
X31560751Y-126581553D01*
X31683607Y-126744241D01*
X31834259Y-126881578D01*
X32007588Y-126988899D01*
X32197679Y-127062540D01*
X32375000Y-127095687D01*
X32375000Y-126125000D01*
X32625000Y-126125000D01*
X32625000Y-127095687D01*
X32802320Y-127062540D01*
X32992411Y-126988899D01*
X33165740Y-126881578D01*
X33173312Y-126874675D01*
X33939500Y-126874675D01*
X33954033Y-126947738D01*
X33954033Y-126947739D01*
X33954034Y-126947740D01*
X34009399Y-127030601D01*
X34092260Y-127085966D01*
X34128792Y-127093232D01*
X34165325Y-127100500D01*
X34165326Y-127100500D01*
X35914674Y-127100500D01*
X35914675Y-127100500D01*
X35939029Y-127095655D01*
X35987740Y-127085966D01*
X36070601Y-127030601D01*
X36125966Y-126947740D01*
X36140500Y-126874674D01*
X36140500Y-126029999D01*
X48454417Y-126029999D01*
X48474699Y-126235932D01*
X48474700Y-126235934D01*
X48534768Y-126433954D01*
X48632315Y-126616450D01*
X48683609Y-126678952D01*
X48763589Y-126776410D01*
X48843570Y-126842047D01*
X48923550Y-126907685D01*
X49106046Y-127005232D01*
X49304066Y-127065300D01*
X49510000Y-127085583D01*
X49715934Y-127065300D01*
X49913954Y-127005232D01*
X50096450Y-126907685D01*
X50256410Y-126776410D01*
X50387685Y-126616450D01*
X50485232Y-126433954D01*
X50545300Y-126235934D01*
X50565583Y-126030000D01*
X50565583Y-126029999D01*
X51019417Y-126029999D01*
X51039699Y-126235932D01*
X51039700Y-126235934D01*
X51099768Y-126433954D01*
X51197315Y-126616450D01*
X51248609Y-126678952D01*
X51328589Y-126776410D01*
X51408570Y-126842047D01*
X51488550Y-126907685D01*
X51671046Y-127005232D01*
X51869066Y-127065300D01*
X52075000Y-127085583D01*
X52280934Y-127065300D01*
X52478954Y-127005232D01*
X52661450Y-126907685D01*
X52821410Y-126776410D01*
X52952685Y-126616450D01*
X53050232Y-126433954D01*
X53110300Y-126235934D01*
X53130583Y-126030000D01*
X53130583Y-126029999D01*
X63694417Y-126029999D01*
X63714699Y-126235932D01*
X63714700Y-126235934D01*
X63774768Y-126433954D01*
X63872315Y-126616450D01*
X63923609Y-126678952D01*
X64003589Y-126776410D01*
X64083570Y-126842047D01*
X64163550Y-126907685D01*
X64346046Y-127005232D01*
X64544066Y-127065300D01*
X64750000Y-127085583D01*
X64955934Y-127065300D01*
X65153954Y-127005232D01*
X65336450Y-126907685D01*
X65496410Y-126776410D01*
X65627685Y-126616450D01*
X65725232Y-126433954D01*
X65785300Y-126235934D01*
X65805583Y-126030000D01*
X65805583Y-126029999D01*
X66259417Y-126029999D01*
X66279699Y-126235932D01*
X66279700Y-126235934D01*
X66339768Y-126433954D01*
X66437315Y-126616450D01*
X66488609Y-126678952D01*
X66568589Y-126776410D01*
X66648570Y-126842047D01*
X66728550Y-126907685D01*
X66911046Y-127005232D01*
X67109066Y-127065300D01*
X67315000Y-127085583D01*
X67520934Y-127065300D01*
X67718954Y-127005232D01*
X67901450Y-126907685D01*
X67941673Y-126874675D01*
X75904500Y-126874675D01*
X75919033Y-126947738D01*
X75919033Y-126947739D01*
X75919034Y-126947740D01*
X75974399Y-127030601D01*
X76057260Y-127085966D01*
X76093792Y-127093232D01*
X76130325Y-127100500D01*
X76130326Y-127100500D01*
X77879674Y-127100500D01*
X77879675Y-127100500D01*
X77904029Y-127095655D01*
X77952740Y-127085966D01*
X78035601Y-127030601D01*
X78090966Y-126947740D01*
X78105500Y-126874674D01*
X78105500Y-126125000D01*
X78451870Y-126125000D01*
X78459096Y-126202992D01*
X78514885Y-126399068D01*
X78605751Y-126581553D01*
X78728607Y-126744241D01*
X78879259Y-126881578D01*
X79052588Y-126988899D01*
X79242679Y-127062540D01*
X79420000Y-127095687D01*
X79420000Y-126125000D01*
X79670000Y-126125000D01*
X79670000Y-127095687D01*
X79847320Y-127062540D01*
X80037411Y-126988899D01*
X80210740Y-126881578D01*
X80361392Y-126744241D01*
X80484248Y-126581553D01*
X80575114Y-126399068D01*
X80630903Y-126202992D01*
X80638130Y-126125000D01*
X79670000Y-126125000D01*
X79420000Y-126125000D01*
X78451870Y-126125000D01*
X78105500Y-126125000D01*
X78105500Y-125874999D01*
X78451869Y-125874999D01*
X78451870Y-125875000D01*
X79420000Y-125875000D01*
X79420000Y-124904313D01*
X79670000Y-124904313D01*
X79670000Y-125875000D01*
X80638130Y-125875000D01*
X80638130Y-125874999D01*
X80630903Y-125797007D01*
X80575114Y-125600931D01*
X80484248Y-125418446D01*
X80361392Y-125255758D01*
X80210740Y-125118421D01*
X80037411Y-125011100D01*
X79847320Y-124937459D01*
X79670000Y-124904313D01*
X79420000Y-124904313D01*
X79420000Y-124904312D01*
X79242679Y-124937459D01*
X79052588Y-125011100D01*
X78879259Y-125118421D01*
X78728607Y-125255758D01*
X78605751Y-125418446D01*
X78514885Y-125600931D01*
X78459096Y-125797007D01*
X78451869Y-125874999D01*
X78105500Y-125874999D01*
X78105500Y-125125326D01*
X78104126Y-125118421D01*
X78090966Y-125052261D01*
X78090966Y-125052260D01*
X78035601Y-124969399D01*
X77952740Y-124914034D01*
X77952739Y-124914033D01*
X77952738Y-124914033D01*
X77879675Y-124899500D01*
X77879674Y-124899500D01*
X76130326Y-124899500D01*
X76130325Y-124899500D01*
X76057261Y-124914033D01*
X75974399Y-124969399D01*
X75919033Y-125052261D01*
X75904500Y-125125325D01*
X75904500Y-126874675D01*
X67941673Y-126874675D01*
X68061410Y-126776410D01*
X68192685Y-126616450D01*
X68290232Y-126433954D01*
X68350300Y-126235934D01*
X68370583Y-126030000D01*
X68350300Y-125824066D01*
X68290232Y-125626046D01*
X68192685Y-125443550D01*
X68127047Y-125363570D01*
X68061410Y-125283589D01*
X67963952Y-125203608D01*
X67901450Y-125152315D01*
X67718954Y-125054768D01*
X67619943Y-125024733D01*
X67520932Y-124994699D01*
X67315000Y-124974417D01*
X67109067Y-124994699D01*
X66911043Y-125054769D01*
X66728551Y-125152314D01*
X66568589Y-125283589D01*
X66437314Y-125443551D01*
X66339769Y-125626043D01*
X66279699Y-125824067D01*
X66259417Y-126029999D01*
X65805583Y-126029999D01*
X65785300Y-125824066D01*
X65725232Y-125626046D01*
X65627685Y-125443550D01*
X65562047Y-125363570D01*
X65496410Y-125283589D01*
X65398952Y-125203608D01*
X65336450Y-125152315D01*
X65153954Y-125054768D01*
X65054943Y-125024733D01*
X64955932Y-124994699D01*
X64750000Y-124974417D01*
X64544067Y-124994699D01*
X64346043Y-125054769D01*
X64163551Y-125152314D01*
X64003589Y-125283589D01*
X63872314Y-125443551D01*
X63774769Y-125626043D01*
X63714699Y-125824067D01*
X63694417Y-126029999D01*
X53130583Y-126029999D01*
X53110300Y-125824066D01*
X53050232Y-125626046D01*
X52952685Y-125443550D01*
X52887047Y-125363570D01*
X52821410Y-125283589D01*
X52723952Y-125203608D01*
X52661450Y-125152315D01*
X52478954Y-125054768D01*
X52379943Y-125024733D01*
X52280932Y-124994699D01*
X52075000Y-124974417D01*
X51869067Y-124994699D01*
X51671043Y-125054769D01*
X51488551Y-125152314D01*
X51328589Y-125283589D01*
X51197314Y-125443551D01*
X51099769Y-125626043D01*
X51039699Y-125824067D01*
X51019417Y-126029999D01*
X50565583Y-126029999D01*
X50545300Y-125824066D01*
X50485232Y-125626046D01*
X50387685Y-125443550D01*
X50322047Y-125363570D01*
X50256410Y-125283589D01*
X50158952Y-125203608D01*
X50096450Y-125152315D01*
X49913954Y-125054768D01*
X49814943Y-125024733D01*
X49715932Y-124994699D01*
X49510000Y-124974417D01*
X49304067Y-124994699D01*
X49106043Y-125054769D01*
X48923551Y-125152314D01*
X48763589Y-125283589D01*
X48632314Y-125443551D01*
X48534769Y-125626043D01*
X48474699Y-125824067D01*
X48454417Y-126029999D01*
X36140500Y-126029999D01*
X36140500Y-125125326D01*
X36139126Y-125118421D01*
X36125966Y-125052261D01*
X36125966Y-125052260D01*
X36070601Y-124969399D01*
X35987740Y-124914034D01*
X35987739Y-124914033D01*
X35987738Y-124914033D01*
X35914675Y-124899500D01*
X35914674Y-124899500D01*
X34165326Y-124899500D01*
X34165325Y-124899500D01*
X34092261Y-124914033D01*
X34009399Y-124969399D01*
X33954033Y-125052261D01*
X33939500Y-125125325D01*
X33939500Y-126874675D01*
X33173312Y-126874675D01*
X33316392Y-126744241D01*
X33439248Y-126581553D01*
X33530114Y-126399068D01*
X33585903Y-126202992D01*
X33593130Y-126125000D01*
X32625000Y-126125000D01*
X32375000Y-126125000D01*
X31406870Y-126125000D01*
X28000500Y-126125000D01*
X28000500Y-125874999D01*
X31406869Y-125874999D01*
X31406870Y-125875000D01*
X32375000Y-125875000D01*
X32375000Y-124904312D01*
X32624999Y-124904312D01*
X32625000Y-124904313D01*
X32625000Y-125875000D01*
X33593130Y-125875000D01*
X33593130Y-125874999D01*
X33585903Y-125797007D01*
X33530114Y-125600931D01*
X33439248Y-125418446D01*
X33316392Y-125255758D01*
X33165740Y-125118421D01*
X32992411Y-125011100D01*
X32802320Y-124937459D01*
X32624999Y-124904312D01*
X32375000Y-124904312D01*
X32197679Y-124937459D01*
X32007588Y-125011100D01*
X31834259Y-125118421D01*
X31683607Y-125255758D01*
X31560751Y-125418446D01*
X31469885Y-125600931D01*
X31414096Y-125797007D01*
X31406869Y-125874999D01*
X28000500Y-125874999D01*
X28000500Y-123625000D01*
X37906870Y-123625000D01*
X37914096Y-123702992D01*
X37969885Y-123899068D01*
X38060751Y-124081553D01*
X38183607Y-124244241D01*
X38334259Y-124381578D01*
X38507588Y-124488899D01*
X38697679Y-124562540D01*
X38875000Y-124595687D01*
X38875000Y-123625000D01*
X39125000Y-123625000D01*
X39125000Y-124595687D01*
X39302320Y-124562540D01*
X39492411Y-124488899D01*
X39665740Y-124381578D01*
X39673312Y-124374675D01*
X40439500Y-124374675D01*
X40454033Y-124447738D01*
X40454033Y-124447739D01*
X40454034Y-124447740D01*
X40509399Y-124530601D01*
X40592260Y-124585966D01*
X40628793Y-124593233D01*
X40665325Y-124600500D01*
X40665326Y-124600500D01*
X42414674Y-124600500D01*
X42414675Y-124600500D01*
X42439029Y-124595655D01*
X42487740Y-124585966D01*
X42570601Y-124530601D01*
X42625966Y-124447740D01*
X42640500Y-124374674D01*
X42640500Y-123489999D01*
X48454417Y-123489999D01*
X48474699Y-123695932D01*
X48534769Y-123893956D01*
X48583541Y-123985202D01*
X48632315Y-124076450D01*
X48636503Y-124081553D01*
X48763589Y-124236410D01*
X48843570Y-124302047D01*
X48923550Y-124367685D01*
X49106046Y-124465232D01*
X49304066Y-124525300D01*
X49510000Y-124545583D01*
X49715934Y-124525300D01*
X49913954Y-124465232D01*
X50096450Y-124367685D01*
X50256410Y-124236410D01*
X50387685Y-124076450D01*
X50485232Y-123893954D01*
X50545300Y-123695934D01*
X50565583Y-123490000D01*
X50565583Y-123489999D01*
X51019417Y-123489999D01*
X51039699Y-123695932D01*
X51099769Y-123893956D01*
X51148541Y-123985202D01*
X51197315Y-124076450D01*
X51201503Y-124081553D01*
X51328589Y-124236410D01*
X51408570Y-124302047D01*
X51488550Y-124367685D01*
X51671046Y-124465232D01*
X51869066Y-124525300D01*
X52075000Y-124545583D01*
X52280934Y-124525300D01*
X52478954Y-124465232D01*
X52661450Y-124367685D01*
X52821410Y-124236410D01*
X52952685Y-124076450D01*
X53050232Y-123893954D01*
X53110300Y-123695934D01*
X53130583Y-123490000D01*
X63694417Y-123490000D01*
X63714699Y-123695932D01*
X63774769Y-123893956D01*
X63823541Y-123985202D01*
X63872315Y-124076450D01*
X63876503Y-124081553D01*
X64003589Y-124236410D01*
X64083570Y-124302047D01*
X64163550Y-124367685D01*
X64346046Y-124465232D01*
X64544066Y-124525300D01*
X64750000Y-124545583D01*
X64955934Y-124525300D01*
X65153954Y-124465232D01*
X65336450Y-124367685D01*
X65496410Y-124236410D01*
X65627685Y-124076450D01*
X65725232Y-123893954D01*
X65785300Y-123695934D01*
X65805583Y-123490000D01*
X66259417Y-123490000D01*
X66279699Y-123695932D01*
X66339769Y-123893956D01*
X66388541Y-123985202D01*
X66437315Y-124076450D01*
X66441503Y-124081553D01*
X66568589Y-124236410D01*
X66648570Y-124302047D01*
X66728550Y-124367685D01*
X66911046Y-124465232D01*
X67109066Y-124525300D01*
X67315000Y-124545583D01*
X67520934Y-124525300D01*
X67718954Y-124465232D01*
X67888373Y-124374675D01*
X83139500Y-124374675D01*
X83154033Y-124447738D01*
X83154033Y-124447739D01*
X83154034Y-124447740D01*
X83209399Y-124530601D01*
X83292260Y-124585966D01*
X83328793Y-124593233D01*
X83365325Y-124600500D01*
X83365326Y-124600500D01*
X85114674Y-124600500D01*
X85114675Y-124600500D01*
X85139029Y-124595655D01*
X85187740Y-124585966D01*
X85270601Y-124530601D01*
X85325966Y-124447740D01*
X85340500Y-124374674D01*
X85340500Y-123625000D01*
X85686870Y-123625000D01*
X85694096Y-123702992D01*
X85749885Y-123899068D01*
X85840751Y-124081553D01*
X85963607Y-124244241D01*
X86114259Y-124381578D01*
X86287588Y-124488899D01*
X86477679Y-124562540D01*
X86655000Y-124595687D01*
X86655000Y-123625000D01*
X86905000Y-123625000D01*
X86905000Y-124595687D01*
X87082320Y-124562540D01*
X87272411Y-124488899D01*
X87445740Y-124381578D01*
X87596392Y-124244241D01*
X87719248Y-124081553D01*
X87810114Y-123899068D01*
X87865903Y-123702992D01*
X87873130Y-123625000D01*
X86905000Y-123625000D01*
X86655000Y-123625000D01*
X85686870Y-123625000D01*
X85340500Y-123625000D01*
X85340500Y-123374999D01*
X85686869Y-123374999D01*
X85686870Y-123375000D01*
X86655000Y-123375000D01*
X86655000Y-122404313D01*
X86905000Y-122404313D01*
X86905000Y-123375000D01*
X87873130Y-123375000D01*
X87873130Y-123374999D01*
X87865903Y-123297007D01*
X87810114Y-123100931D01*
X87719248Y-122918446D01*
X87596392Y-122755758D01*
X87445740Y-122618421D01*
X87272411Y-122511100D01*
X87082320Y-122437459D01*
X86905000Y-122404313D01*
X86655000Y-122404313D01*
X86655000Y-122404312D01*
X86477679Y-122437459D01*
X86287588Y-122511100D01*
X86114259Y-122618421D01*
X85963607Y-122755758D01*
X85840751Y-122918446D01*
X85749885Y-123100931D01*
X85694096Y-123297007D01*
X85686869Y-123374999D01*
X85340500Y-123374999D01*
X85340500Y-122625326D01*
X85339126Y-122618421D01*
X85325966Y-122552261D01*
X85325966Y-122552260D01*
X85270601Y-122469399D01*
X85187740Y-122414034D01*
X85187739Y-122414033D01*
X85187738Y-122414033D01*
X85114675Y-122399500D01*
X85114674Y-122399500D01*
X83365326Y-122399500D01*
X83365325Y-122399500D01*
X83292261Y-122414033D01*
X83209399Y-122469399D01*
X83154033Y-122552261D01*
X83139500Y-122625325D01*
X83139500Y-124374675D01*
X67888373Y-124374675D01*
X67901450Y-124367685D01*
X68061410Y-124236410D01*
X68192685Y-124076450D01*
X68290232Y-123893954D01*
X68350300Y-123695934D01*
X68370583Y-123490000D01*
X68350300Y-123284066D01*
X68290232Y-123086046D01*
X68192685Y-122903550D01*
X68127047Y-122823570D01*
X68061410Y-122743589D01*
X67963952Y-122663608D01*
X67901450Y-122612315D01*
X67718954Y-122514768D01*
X67569391Y-122469399D01*
X67520932Y-122454699D01*
X67315000Y-122434417D01*
X67109067Y-122454699D01*
X66911043Y-122514769D01*
X66728551Y-122612314D01*
X66568589Y-122743589D01*
X66437314Y-122903551D01*
X66339769Y-123086043D01*
X66279699Y-123284067D01*
X66259417Y-123490000D01*
X65805583Y-123490000D01*
X65785300Y-123284066D01*
X65725232Y-123086046D01*
X65627685Y-122903550D01*
X65562047Y-122823570D01*
X65496410Y-122743589D01*
X65398952Y-122663608D01*
X65336450Y-122612315D01*
X65153954Y-122514768D01*
X65004391Y-122469399D01*
X64955932Y-122454699D01*
X64750000Y-122434417D01*
X64544067Y-122454699D01*
X64346043Y-122514769D01*
X64163551Y-122612314D01*
X64003589Y-122743589D01*
X63872314Y-122903551D01*
X63774769Y-123086043D01*
X63714699Y-123284067D01*
X63694417Y-123490000D01*
X53130583Y-123490000D01*
X53110300Y-123284066D01*
X53050232Y-123086046D01*
X52952685Y-122903550D01*
X52887047Y-122823570D01*
X52821410Y-122743589D01*
X52723952Y-122663608D01*
X52661450Y-122612315D01*
X52478954Y-122514768D01*
X52329391Y-122469399D01*
X52280932Y-122454699D01*
X52075000Y-122434417D01*
X51869067Y-122454699D01*
X51671043Y-122514769D01*
X51488551Y-122612314D01*
X51328589Y-122743589D01*
X51197314Y-122903551D01*
X51099769Y-123086043D01*
X51039699Y-123284067D01*
X51019417Y-123489999D01*
X50565583Y-123489999D01*
X50545300Y-123284066D01*
X50485232Y-123086046D01*
X50387685Y-122903550D01*
X50322047Y-122823570D01*
X50256410Y-122743589D01*
X50158952Y-122663608D01*
X50096450Y-122612315D01*
X49913954Y-122514768D01*
X49764391Y-122469399D01*
X49715932Y-122454699D01*
X49510000Y-122434417D01*
X49304067Y-122454699D01*
X49106043Y-122514769D01*
X48923551Y-122612314D01*
X48763589Y-122743589D01*
X48632314Y-122903551D01*
X48534769Y-123086043D01*
X48474699Y-123284067D01*
X48454417Y-123489999D01*
X42640500Y-123489999D01*
X42640500Y-122625326D01*
X42639126Y-122618421D01*
X42625966Y-122552261D01*
X42625966Y-122552260D01*
X42570601Y-122469399D01*
X42487740Y-122414034D01*
X42487739Y-122414033D01*
X42487738Y-122414033D01*
X42414675Y-122399500D01*
X42414674Y-122399500D01*
X40665326Y-122399500D01*
X40665325Y-122399500D01*
X40592261Y-122414033D01*
X40509399Y-122469399D01*
X40454033Y-122552261D01*
X40439500Y-122625325D01*
X40439500Y-124374675D01*
X39673312Y-124374675D01*
X39816392Y-124244241D01*
X39939248Y-124081553D01*
X40030114Y-123899068D01*
X40085903Y-123702992D01*
X40093130Y-123625000D01*
X39125000Y-123625000D01*
X38875000Y-123625000D01*
X37906870Y-123625000D01*
X28000500Y-123625000D01*
X28000500Y-123374999D01*
X37906869Y-123374999D01*
X37906870Y-123375000D01*
X38875000Y-123375000D01*
X38875000Y-122404312D01*
X39124999Y-122404312D01*
X39125000Y-122404313D01*
X39125000Y-123375000D01*
X40093130Y-123375000D01*
X40093130Y-123374999D01*
X40085903Y-123297007D01*
X40030114Y-123100931D01*
X39939248Y-122918446D01*
X39816392Y-122755758D01*
X39665740Y-122618421D01*
X39492411Y-122511100D01*
X39302320Y-122437459D01*
X39124999Y-122404312D01*
X38875000Y-122404312D01*
X38697679Y-122437459D01*
X38507588Y-122511100D01*
X38334259Y-122618421D01*
X38183607Y-122755758D01*
X38060751Y-122918446D01*
X37969885Y-123100931D01*
X37914096Y-123297007D01*
X37906869Y-123374999D01*
X28000500Y-123374999D01*
X28000500Y-121125000D01*
X31366870Y-121125000D01*
X31374096Y-121202992D01*
X31429885Y-121399068D01*
X31520751Y-121581553D01*
X31643607Y-121744241D01*
X31794259Y-121881578D01*
X31967588Y-121988899D01*
X32157679Y-122062540D01*
X32335000Y-122095687D01*
X32335000Y-121125000D01*
X32585000Y-121125000D01*
X32585000Y-122095687D01*
X32762320Y-122062540D01*
X32952411Y-121988899D01*
X33125740Y-121881578D01*
X33133312Y-121874675D01*
X33899500Y-121874675D01*
X33914033Y-121947738D01*
X33914033Y-121947739D01*
X33914034Y-121947740D01*
X33969399Y-122030601D01*
X34052260Y-122085966D01*
X34088793Y-122093233D01*
X34125325Y-122100500D01*
X34125326Y-122100500D01*
X35874674Y-122100500D01*
X35874675Y-122100500D01*
X35899029Y-122095655D01*
X35947740Y-122085966D01*
X36030601Y-122030601D01*
X36085966Y-121947740D01*
X36100500Y-121874674D01*
X36100500Y-120950000D01*
X48454417Y-120950000D01*
X48474699Y-121155932D01*
X48474700Y-121155934D01*
X48534768Y-121353954D01*
X48632315Y-121536450D01*
X48669330Y-121581553D01*
X48763589Y-121696410D01*
X48843570Y-121762047D01*
X48923550Y-121827685D01*
X49106046Y-121925232D01*
X49304066Y-121985300D01*
X49510000Y-122005583D01*
X49715934Y-121985300D01*
X49913954Y-121925232D01*
X50096450Y-121827685D01*
X50256410Y-121696410D01*
X50387685Y-121536450D01*
X50485232Y-121353954D01*
X50545300Y-121155934D01*
X50565583Y-120950000D01*
X51019417Y-120950000D01*
X51039699Y-121155932D01*
X51039700Y-121155934D01*
X51099768Y-121353954D01*
X51197315Y-121536450D01*
X51234330Y-121581553D01*
X51328589Y-121696410D01*
X51408570Y-121762047D01*
X51488550Y-121827685D01*
X51671046Y-121925232D01*
X51869066Y-121985300D01*
X52075000Y-122005583D01*
X52280934Y-121985300D01*
X52478954Y-121925232D01*
X52661450Y-121827685D01*
X52821410Y-121696410D01*
X52952685Y-121536450D01*
X53050232Y-121353954D01*
X53110300Y-121155934D01*
X53130583Y-120950000D01*
X63694417Y-120950000D01*
X63714699Y-121155932D01*
X63714700Y-121155934D01*
X63774768Y-121353954D01*
X63872315Y-121536450D01*
X63909330Y-121581553D01*
X64003589Y-121696410D01*
X64083570Y-121762047D01*
X64163550Y-121827685D01*
X64346046Y-121925232D01*
X64544066Y-121985300D01*
X64750000Y-122005583D01*
X64955934Y-121985300D01*
X65153954Y-121925232D01*
X65336450Y-121827685D01*
X65496410Y-121696410D01*
X65627685Y-121536450D01*
X65725232Y-121353954D01*
X65785300Y-121155934D01*
X65805583Y-120950000D01*
X66259417Y-120950000D01*
X66279699Y-121155932D01*
X66279700Y-121155934D01*
X66339768Y-121353954D01*
X66437315Y-121536450D01*
X66474330Y-121581553D01*
X66568589Y-121696410D01*
X66648570Y-121762047D01*
X66728550Y-121827685D01*
X66911046Y-121925232D01*
X67109066Y-121985300D01*
X67315000Y-122005583D01*
X67520934Y-121985300D01*
X67718954Y-121925232D01*
X67813539Y-121874675D01*
X75904500Y-121874675D01*
X75919033Y-121947738D01*
X75919033Y-121947739D01*
X75919034Y-121947740D01*
X75974399Y-122030601D01*
X76057260Y-122085966D01*
X76093793Y-122093233D01*
X76130325Y-122100500D01*
X76130326Y-122100500D01*
X77879674Y-122100500D01*
X77879675Y-122100500D01*
X77904029Y-122095655D01*
X77952740Y-122085966D01*
X78035601Y-122030601D01*
X78090966Y-121947740D01*
X78105500Y-121874674D01*
X78105500Y-121125000D01*
X78451870Y-121125000D01*
X78459096Y-121202992D01*
X78514885Y-121399068D01*
X78605751Y-121581553D01*
X78728607Y-121744241D01*
X78879259Y-121881578D01*
X79052588Y-121988899D01*
X79242679Y-122062540D01*
X79420000Y-122095687D01*
X79420000Y-121125000D01*
X79670000Y-121125000D01*
X79670000Y-122095687D01*
X79847320Y-122062540D01*
X80037411Y-121988899D01*
X80210740Y-121881578D01*
X80361392Y-121744241D01*
X80484248Y-121581553D01*
X80575114Y-121399068D01*
X80630903Y-121202992D01*
X80638130Y-121125000D01*
X79670000Y-121125000D01*
X79420000Y-121125000D01*
X78451870Y-121125000D01*
X78105500Y-121125000D01*
X78105500Y-120874999D01*
X78451869Y-120874999D01*
X78451870Y-120875000D01*
X79420000Y-120875000D01*
X79420000Y-119904313D01*
X79670000Y-119904313D01*
X79670000Y-120875000D01*
X80638130Y-120875000D01*
X80638130Y-120874999D01*
X80630903Y-120797007D01*
X80575114Y-120600931D01*
X80484248Y-120418446D01*
X80361392Y-120255758D01*
X80210740Y-120118421D01*
X80037411Y-120011100D01*
X79847320Y-119937459D01*
X79670000Y-119904313D01*
X79420000Y-119904313D01*
X79420000Y-119904312D01*
X79242679Y-119937459D01*
X79052588Y-120011100D01*
X78879259Y-120118421D01*
X78728607Y-120255758D01*
X78605751Y-120418446D01*
X78514885Y-120600931D01*
X78459096Y-120797007D01*
X78451869Y-120874999D01*
X78105500Y-120874999D01*
X78105500Y-120125326D01*
X78104126Y-120118421D01*
X78090966Y-120052261D01*
X78090966Y-120052260D01*
X78035601Y-119969399D01*
X77952740Y-119914034D01*
X77952739Y-119914033D01*
X77952738Y-119914033D01*
X77879675Y-119899500D01*
X77879674Y-119899500D01*
X76130326Y-119899500D01*
X76130325Y-119899500D01*
X76057261Y-119914033D01*
X75974399Y-119969399D01*
X75919033Y-120052261D01*
X75904500Y-120125325D01*
X75904500Y-121874675D01*
X67813539Y-121874675D01*
X67901450Y-121827685D01*
X68061410Y-121696410D01*
X68192685Y-121536450D01*
X68290232Y-121353954D01*
X68350300Y-121155934D01*
X68370583Y-120950000D01*
X68350300Y-120744066D01*
X68290232Y-120546046D01*
X68192685Y-120363550D01*
X68104223Y-120255758D01*
X68061410Y-120203589D01*
X67957631Y-120118421D01*
X67901450Y-120072315D01*
X67718954Y-119974768D01*
X67619944Y-119944734D01*
X67520932Y-119914699D01*
X67315000Y-119894417D01*
X67109067Y-119914699D01*
X66911043Y-119974769D01*
X66728551Y-120072314D01*
X66568589Y-120203589D01*
X66437314Y-120363551D01*
X66339769Y-120546043D01*
X66279699Y-120744067D01*
X66259417Y-120950000D01*
X65805583Y-120950000D01*
X65785300Y-120744066D01*
X65725232Y-120546046D01*
X65627685Y-120363550D01*
X65539223Y-120255758D01*
X65496410Y-120203589D01*
X65392631Y-120118421D01*
X65336450Y-120072315D01*
X65153954Y-119974768D01*
X65054944Y-119944734D01*
X64955932Y-119914699D01*
X64750000Y-119894417D01*
X64544067Y-119914699D01*
X64346043Y-119974769D01*
X64163551Y-120072314D01*
X64003589Y-120203589D01*
X63872314Y-120363551D01*
X63774769Y-120546043D01*
X63714699Y-120744067D01*
X63694417Y-120950000D01*
X53130583Y-120950000D01*
X53110300Y-120744066D01*
X53050232Y-120546046D01*
X52952685Y-120363550D01*
X52864223Y-120255758D01*
X52821410Y-120203589D01*
X52717631Y-120118421D01*
X52661450Y-120072315D01*
X52478954Y-119974768D01*
X52379944Y-119944734D01*
X52280932Y-119914699D01*
X52075000Y-119894417D01*
X51869067Y-119914699D01*
X51671043Y-119974769D01*
X51488551Y-120072314D01*
X51328589Y-120203589D01*
X51197314Y-120363551D01*
X51099769Y-120546043D01*
X51039699Y-120744067D01*
X51019417Y-120950000D01*
X50565583Y-120950000D01*
X50545300Y-120744066D01*
X50485232Y-120546046D01*
X50387685Y-120363550D01*
X50299223Y-120255758D01*
X50256410Y-120203589D01*
X50152631Y-120118421D01*
X50096450Y-120072315D01*
X49913954Y-119974768D01*
X49814944Y-119944734D01*
X49715932Y-119914699D01*
X49510000Y-119894417D01*
X49304067Y-119914699D01*
X49106043Y-119974769D01*
X48923551Y-120072314D01*
X48763589Y-120203589D01*
X48632314Y-120363551D01*
X48534769Y-120546043D01*
X48474699Y-120744067D01*
X48454417Y-120950000D01*
X36100500Y-120950000D01*
X36100500Y-120125326D01*
X36099126Y-120118421D01*
X36085966Y-120052261D01*
X36085966Y-120052260D01*
X36030601Y-119969399D01*
X35947740Y-119914034D01*
X35947739Y-119914033D01*
X35947738Y-119914033D01*
X35874675Y-119899500D01*
X35874674Y-119899500D01*
X34125326Y-119899500D01*
X34125325Y-119899500D01*
X34052261Y-119914033D01*
X33969399Y-119969399D01*
X33914033Y-120052261D01*
X33899500Y-120125325D01*
X33899500Y-121874675D01*
X33133312Y-121874675D01*
X33276392Y-121744241D01*
X33399248Y-121581553D01*
X33490114Y-121399068D01*
X33545903Y-121202992D01*
X33553130Y-121125000D01*
X32585000Y-121125000D01*
X32335000Y-121125000D01*
X31366870Y-121125000D01*
X28000500Y-121125000D01*
X28000500Y-120874999D01*
X31366869Y-120874999D01*
X31366870Y-120875000D01*
X32335000Y-120875000D01*
X32335000Y-119904313D01*
X32585000Y-119904313D01*
X32585000Y-120875000D01*
X33553130Y-120875000D01*
X33553130Y-120874999D01*
X33545903Y-120797007D01*
X33490114Y-120600931D01*
X33399248Y-120418446D01*
X33276392Y-120255758D01*
X33125740Y-120118421D01*
X32952411Y-120011100D01*
X32762320Y-119937459D01*
X32585000Y-119904313D01*
X32335000Y-119904313D01*
X32335000Y-119904312D01*
X32157679Y-119937459D01*
X31967588Y-120011100D01*
X31794259Y-120118421D01*
X31643607Y-120255758D01*
X31520751Y-120418446D01*
X31429885Y-120600931D01*
X31374096Y-120797007D01*
X31366869Y-120874999D01*
X28000500Y-120874999D01*
X28000500Y-118625000D01*
X37906870Y-118625000D01*
X37914096Y-118702992D01*
X37969885Y-118899068D01*
X38060751Y-119081553D01*
X38183607Y-119244241D01*
X38334259Y-119381578D01*
X38507588Y-119488899D01*
X38697679Y-119562540D01*
X38875000Y-119595687D01*
X38875000Y-118625000D01*
X39125000Y-118625000D01*
X39125000Y-119595687D01*
X39302320Y-119562540D01*
X39492411Y-119488899D01*
X39665740Y-119381578D01*
X39673312Y-119374675D01*
X40439500Y-119374675D01*
X40454033Y-119447738D01*
X40454033Y-119447739D01*
X40454034Y-119447740D01*
X40509399Y-119530601D01*
X40592260Y-119585966D01*
X40628792Y-119593232D01*
X40665325Y-119600500D01*
X40665326Y-119600500D01*
X42414674Y-119600500D01*
X42414675Y-119600500D01*
X42439029Y-119595655D01*
X42487740Y-119585966D01*
X42570601Y-119530601D01*
X42625966Y-119447740D01*
X42640500Y-119374674D01*
X42640500Y-118410000D01*
X48454417Y-118410000D01*
X48474699Y-118615932D01*
X48474700Y-118615934D01*
X48534768Y-118813954D01*
X48632315Y-118996450D01*
X48683608Y-119058952D01*
X48763589Y-119156410D01*
X48843570Y-119222047D01*
X48923550Y-119287685D01*
X49106046Y-119385232D01*
X49304066Y-119445300D01*
X49510000Y-119465583D01*
X49715934Y-119445300D01*
X49913954Y-119385232D01*
X50096450Y-119287685D01*
X50256410Y-119156410D01*
X50387685Y-118996450D01*
X50485232Y-118813954D01*
X50545300Y-118615934D01*
X50565583Y-118410000D01*
X51019417Y-118410000D01*
X51039699Y-118615932D01*
X51039700Y-118615934D01*
X51099768Y-118813954D01*
X51197315Y-118996450D01*
X51248608Y-119058952D01*
X51328589Y-119156410D01*
X51408570Y-119222047D01*
X51488550Y-119287685D01*
X51671046Y-119385232D01*
X51869066Y-119445300D01*
X52075000Y-119465583D01*
X52280934Y-119445300D01*
X52478954Y-119385232D01*
X52661450Y-119287685D01*
X52821410Y-119156410D01*
X52952685Y-118996450D01*
X53050232Y-118813954D01*
X53110300Y-118615934D01*
X53130583Y-118410000D01*
X53130583Y-118409999D01*
X63694417Y-118409999D01*
X63714699Y-118615932D01*
X63714700Y-118615934D01*
X63774768Y-118813954D01*
X63872315Y-118996450D01*
X63923608Y-119058952D01*
X64003589Y-119156410D01*
X64083570Y-119222047D01*
X64163550Y-119287685D01*
X64346046Y-119385232D01*
X64544066Y-119445300D01*
X64750000Y-119465583D01*
X64955934Y-119445300D01*
X65153954Y-119385232D01*
X65336450Y-119287685D01*
X65496410Y-119156410D01*
X65627685Y-118996450D01*
X65725232Y-118813954D01*
X65785300Y-118615934D01*
X65805583Y-118410000D01*
X65805583Y-118409999D01*
X66259417Y-118409999D01*
X66279699Y-118615932D01*
X66279700Y-118615934D01*
X66339768Y-118813954D01*
X66437315Y-118996450D01*
X66488608Y-119058952D01*
X66568589Y-119156410D01*
X66648570Y-119222047D01*
X66728550Y-119287685D01*
X66911046Y-119385232D01*
X67109066Y-119445300D01*
X67315000Y-119465583D01*
X67520934Y-119445300D01*
X67718954Y-119385232D01*
X67738705Y-119374675D01*
X83139500Y-119374675D01*
X83154033Y-119447738D01*
X83154033Y-119447739D01*
X83154034Y-119447740D01*
X83209399Y-119530601D01*
X83292260Y-119585966D01*
X83328792Y-119593232D01*
X83365325Y-119600500D01*
X83365326Y-119600500D01*
X85114674Y-119600500D01*
X85114675Y-119600500D01*
X85139029Y-119595655D01*
X85187740Y-119585966D01*
X85270601Y-119530601D01*
X85325966Y-119447740D01*
X85340500Y-119374674D01*
X85340500Y-118625000D01*
X85686870Y-118625000D01*
X85694096Y-118702992D01*
X85749885Y-118899068D01*
X85840751Y-119081553D01*
X85963607Y-119244241D01*
X86114259Y-119381578D01*
X86287588Y-119488899D01*
X86477679Y-119562540D01*
X86655000Y-119595687D01*
X86655000Y-118625000D01*
X86905000Y-118625000D01*
X86905000Y-119595687D01*
X87082320Y-119562540D01*
X87272411Y-119488899D01*
X87445740Y-119381578D01*
X87596392Y-119244241D01*
X87719248Y-119081553D01*
X87810114Y-118899068D01*
X87865903Y-118702992D01*
X87873130Y-118625000D01*
X86905000Y-118625000D01*
X86655000Y-118625000D01*
X85686870Y-118625000D01*
X85340500Y-118625000D01*
X85340500Y-118374999D01*
X85686869Y-118374999D01*
X85686870Y-118375000D01*
X86655000Y-118375000D01*
X86655000Y-117404313D01*
X86905000Y-117404313D01*
X86905000Y-118375000D01*
X87873130Y-118375000D01*
X87873130Y-118374999D01*
X87865903Y-118297007D01*
X87810114Y-118100931D01*
X87719248Y-117918446D01*
X87596392Y-117755758D01*
X87445740Y-117618421D01*
X87272411Y-117511100D01*
X87082320Y-117437459D01*
X86905000Y-117404313D01*
X86655000Y-117404313D01*
X86655000Y-117404312D01*
X86477679Y-117437459D01*
X86287588Y-117511100D01*
X86114259Y-117618421D01*
X85963607Y-117755758D01*
X85840751Y-117918446D01*
X85749885Y-118100931D01*
X85694096Y-118297007D01*
X85686869Y-118374999D01*
X85340500Y-118374999D01*
X85340500Y-117625326D01*
X85339126Y-117618421D01*
X85325966Y-117552261D01*
X85325966Y-117552260D01*
X85270601Y-117469399D01*
X85187740Y-117414034D01*
X85187739Y-117414033D01*
X85187738Y-117414033D01*
X85114675Y-117399500D01*
X85114674Y-117399500D01*
X83365326Y-117399500D01*
X83365325Y-117399500D01*
X83292261Y-117414033D01*
X83209399Y-117469399D01*
X83154033Y-117552261D01*
X83139500Y-117625325D01*
X83139500Y-119374675D01*
X67738705Y-119374675D01*
X67901450Y-119287685D01*
X68061410Y-119156410D01*
X68192685Y-118996450D01*
X68290232Y-118813954D01*
X68350300Y-118615934D01*
X68370583Y-118410000D01*
X68350300Y-118204066D01*
X68290232Y-118006046D01*
X68192685Y-117823550D01*
X68127047Y-117743570D01*
X68061410Y-117663589D01*
X67925753Y-117552260D01*
X67901450Y-117532315D01*
X67810201Y-117483541D01*
X67718956Y-117434769D01*
X67718955Y-117434768D01*
X67718954Y-117434768D01*
X67602690Y-117399500D01*
X67520932Y-117374699D01*
X67315000Y-117354417D01*
X67109067Y-117374699D01*
X66911043Y-117434769D01*
X66728551Y-117532314D01*
X66568589Y-117663589D01*
X66437314Y-117823551D01*
X66339769Y-118006043D01*
X66279699Y-118204067D01*
X66259417Y-118409999D01*
X65805583Y-118409999D01*
X65785300Y-118204066D01*
X65725232Y-118006046D01*
X65627685Y-117823550D01*
X65562047Y-117743570D01*
X65496410Y-117663589D01*
X65360753Y-117552260D01*
X65336450Y-117532315D01*
X65245201Y-117483541D01*
X65153956Y-117434769D01*
X65153955Y-117434768D01*
X65153954Y-117434768D01*
X65037690Y-117399500D01*
X64955932Y-117374699D01*
X64750000Y-117354417D01*
X64544067Y-117374699D01*
X64346043Y-117434769D01*
X64163551Y-117532314D01*
X64003589Y-117663589D01*
X63872314Y-117823551D01*
X63774769Y-118006043D01*
X63714699Y-118204067D01*
X63694417Y-118409999D01*
X53130583Y-118409999D01*
X53110300Y-118204066D01*
X53050232Y-118006046D01*
X52952685Y-117823550D01*
X52887047Y-117743570D01*
X52821410Y-117663589D01*
X52685753Y-117552260D01*
X52661450Y-117532315D01*
X52570201Y-117483541D01*
X52478956Y-117434769D01*
X52478955Y-117434768D01*
X52478954Y-117434768D01*
X52362690Y-117399500D01*
X52280932Y-117374699D01*
X52075000Y-117354417D01*
X51869067Y-117374699D01*
X51671043Y-117434769D01*
X51488551Y-117532314D01*
X51328589Y-117663589D01*
X51197314Y-117823551D01*
X51099769Y-118006043D01*
X51039699Y-118204067D01*
X51019417Y-118410000D01*
X50565583Y-118410000D01*
X50545300Y-118204066D01*
X50485232Y-118006046D01*
X50387685Y-117823550D01*
X50322047Y-117743570D01*
X50256410Y-117663589D01*
X50120753Y-117552260D01*
X50096450Y-117532315D01*
X50005201Y-117483541D01*
X49913956Y-117434769D01*
X49913955Y-117434768D01*
X49913954Y-117434768D01*
X49797690Y-117399500D01*
X49715932Y-117374699D01*
X49510000Y-117354417D01*
X49304067Y-117374699D01*
X49106043Y-117434769D01*
X48923551Y-117532314D01*
X48763589Y-117663589D01*
X48632314Y-117823551D01*
X48534769Y-118006043D01*
X48474699Y-118204067D01*
X48454417Y-118410000D01*
X42640500Y-118410000D01*
X42640500Y-117625326D01*
X42639126Y-117618421D01*
X42625966Y-117552261D01*
X42625966Y-117552260D01*
X42570601Y-117469399D01*
X42487740Y-117414034D01*
X42487739Y-117414033D01*
X42487738Y-117414033D01*
X42414675Y-117399500D01*
X42414674Y-117399500D01*
X40665326Y-117399500D01*
X40665325Y-117399500D01*
X40592261Y-117414033D01*
X40509399Y-117469399D01*
X40454033Y-117552261D01*
X40439500Y-117625325D01*
X40439500Y-119374675D01*
X39673312Y-119374675D01*
X39816392Y-119244241D01*
X39939248Y-119081553D01*
X40030114Y-118899068D01*
X40085903Y-118702992D01*
X40093130Y-118625000D01*
X39125000Y-118625000D01*
X38875000Y-118625000D01*
X37906870Y-118625000D01*
X28000500Y-118625000D01*
X28000500Y-118374999D01*
X37906869Y-118374999D01*
X37906870Y-118375000D01*
X38875000Y-118375000D01*
X38875000Y-117404312D01*
X39124999Y-117404312D01*
X39125000Y-117404313D01*
X39125000Y-118375000D01*
X40093130Y-118375000D01*
X40093130Y-118374999D01*
X40085903Y-118297007D01*
X40030114Y-118100931D01*
X39939248Y-117918446D01*
X39816392Y-117755758D01*
X39665740Y-117618421D01*
X39492411Y-117511100D01*
X39302320Y-117437459D01*
X39124999Y-117404312D01*
X38875000Y-117404312D01*
X38697679Y-117437459D01*
X38507588Y-117511100D01*
X38334259Y-117618421D01*
X38183607Y-117755758D01*
X38060751Y-117918446D01*
X37969885Y-118100931D01*
X37914096Y-118297007D01*
X37906869Y-118374999D01*
X28000500Y-118374999D01*
X28000500Y-115625000D01*
X31366870Y-115625000D01*
X31374096Y-115702992D01*
X31429885Y-115899068D01*
X31520751Y-116081553D01*
X31643607Y-116244241D01*
X31794259Y-116381578D01*
X31967588Y-116488899D01*
X32157679Y-116562540D01*
X32335000Y-116595687D01*
X32335000Y-115625000D01*
X32585000Y-115625000D01*
X32585000Y-116595687D01*
X32762320Y-116562540D01*
X32952411Y-116488899D01*
X33125740Y-116381578D01*
X33133312Y-116374675D01*
X33899500Y-116374675D01*
X33914033Y-116447738D01*
X33914033Y-116447739D01*
X33914034Y-116447740D01*
X33969399Y-116530601D01*
X34052260Y-116585966D01*
X34088793Y-116593233D01*
X34125325Y-116600500D01*
X34125326Y-116600500D01*
X35874674Y-116600500D01*
X35874675Y-116600500D01*
X35899029Y-116595655D01*
X35947740Y-116585966D01*
X36030601Y-116530601D01*
X36085966Y-116447740D01*
X36100500Y-116374674D01*
X36100500Y-115870000D01*
X48454417Y-115870000D01*
X48474699Y-116075932D01*
X48474700Y-116075934D01*
X48534768Y-116273954D01*
X48632315Y-116456450D01*
X48658945Y-116488899D01*
X48763589Y-116616410D01*
X48843570Y-116682047D01*
X48923550Y-116747685D01*
X49106046Y-116845232D01*
X49304066Y-116905300D01*
X49510000Y-116925583D01*
X49715934Y-116905300D01*
X49913954Y-116845232D01*
X50096450Y-116747685D01*
X50256410Y-116616410D01*
X50387685Y-116456450D01*
X50485232Y-116273954D01*
X50545300Y-116075934D01*
X50565583Y-115870000D01*
X51019417Y-115870000D01*
X51039699Y-116075932D01*
X51039700Y-116075934D01*
X51099768Y-116273954D01*
X51197315Y-116456450D01*
X51223945Y-116488899D01*
X51328589Y-116616410D01*
X51408570Y-116682047D01*
X51488550Y-116747685D01*
X51671046Y-116845232D01*
X51869066Y-116905300D01*
X52075000Y-116925583D01*
X52280934Y-116905300D01*
X52478954Y-116845232D01*
X52661450Y-116747685D01*
X52821410Y-116616410D01*
X52952685Y-116456450D01*
X53050232Y-116273954D01*
X53110300Y-116075934D01*
X53130583Y-115870000D01*
X63694417Y-115870000D01*
X63714699Y-116075932D01*
X63714700Y-116075934D01*
X63774768Y-116273954D01*
X63872315Y-116456450D01*
X63898945Y-116488899D01*
X64003589Y-116616410D01*
X64083570Y-116682047D01*
X64163550Y-116747685D01*
X64346046Y-116845232D01*
X64544066Y-116905300D01*
X64750000Y-116925583D01*
X64955934Y-116905300D01*
X65153954Y-116845232D01*
X65336450Y-116747685D01*
X65496410Y-116616410D01*
X65627685Y-116456450D01*
X65725232Y-116273954D01*
X65785300Y-116075934D01*
X65805583Y-115870000D01*
X66259417Y-115870000D01*
X66279699Y-116075932D01*
X66279700Y-116075934D01*
X66339768Y-116273954D01*
X66437315Y-116456450D01*
X66463945Y-116488899D01*
X66568589Y-116616410D01*
X66648570Y-116682047D01*
X66728550Y-116747685D01*
X66911046Y-116845232D01*
X67109066Y-116905300D01*
X67315000Y-116925583D01*
X67520934Y-116905300D01*
X67621892Y-116874675D01*
X76139500Y-116874675D01*
X76154033Y-116947738D01*
X76154033Y-116947739D01*
X76154034Y-116947740D01*
X76209399Y-117030601D01*
X76292260Y-117085966D01*
X76328792Y-117093232D01*
X76365325Y-117100500D01*
X76365326Y-117100500D01*
X78114674Y-117100500D01*
X78114675Y-117100500D01*
X78139029Y-117095655D01*
X78187740Y-117085966D01*
X78270601Y-117030601D01*
X78325966Y-116947740D01*
X78340500Y-116874674D01*
X78340500Y-116125000D01*
X78686870Y-116125000D01*
X78694096Y-116202992D01*
X78749885Y-116399068D01*
X78840751Y-116581553D01*
X78963607Y-116744241D01*
X79114259Y-116881578D01*
X79287588Y-116988899D01*
X79477679Y-117062540D01*
X79655000Y-117095687D01*
X79655000Y-116125000D01*
X79905000Y-116125000D01*
X79905000Y-117095687D01*
X80082320Y-117062540D01*
X80272411Y-116988899D01*
X80445740Y-116881578D01*
X80596392Y-116744241D01*
X80719248Y-116581553D01*
X80810114Y-116399068D01*
X80865903Y-116202992D01*
X80873130Y-116125000D01*
X79905000Y-116125000D01*
X79655000Y-116125000D01*
X78686870Y-116125000D01*
X78340500Y-116125000D01*
X78340500Y-115874999D01*
X78686869Y-115874999D01*
X78686870Y-115875000D01*
X79655000Y-115875000D01*
X79655000Y-114904312D01*
X79904999Y-114904312D01*
X79905000Y-114904313D01*
X79905000Y-115875000D01*
X80873130Y-115875000D01*
X80873130Y-115874999D01*
X80865903Y-115797007D01*
X80810114Y-115600931D01*
X80719248Y-115418446D01*
X80596392Y-115255758D01*
X80445740Y-115118421D01*
X80272411Y-115011100D01*
X80082320Y-114937459D01*
X79904999Y-114904312D01*
X79655000Y-114904312D01*
X79477679Y-114937459D01*
X79287588Y-115011100D01*
X79114259Y-115118421D01*
X78963607Y-115255758D01*
X78840751Y-115418446D01*
X78749885Y-115600931D01*
X78694096Y-115797007D01*
X78686869Y-115874999D01*
X78340500Y-115874999D01*
X78340500Y-115125326D01*
X78340154Y-115123589D01*
X78325966Y-115052261D01*
X78325966Y-115052260D01*
X78270601Y-114969399D01*
X78187740Y-114914034D01*
X78187739Y-114914033D01*
X78187738Y-114914033D01*
X78114675Y-114899500D01*
X78114674Y-114899500D01*
X76365326Y-114899500D01*
X76365325Y-114899500D01*
X76292261Y-114914033D01*
X76209399Y-114969399D01*
X76154033Y-115052261D01*
X76139500Y-115125325D01*
X76139500Y-116874675D01*
X67621892Y-116874675D01*
X67718954Y-116845232D01*
X67901450Y-116747685D01*
X68061410Y-116616410D01*
X68192685Y-116456450D01*
X68290232Y-116273954D01*
X68350300Y-116075934D01*
X68370583Y-115870000D01*
X68350300Y-115664066D01*
X68290232Y-115466046D01*
X68192685Y-115283550D01*
X68062835Y-115125326D01*
X68061410Y-115123589D01*
X67963952Y-115043609D01*
X67901450Y-114992315D01*
X67736811Y-114904313D01*
X67718956Y-114894769D01*
X67718955Y-114894768D01*
X67718954Y-114894768D01*
X67619944Y-114864734D01*
X67520932Y-114834699D01*
X67315000Y-114814417D01*
X67109067Y-114834699D01*
X66911043Y-114894769D01*
X66728551Y-114992314D01*
X66568589Y-115123589D01*
X66437314Y-115283551D01*
X66339769Y-115466043D01*
X66279699Y-115664067D01*
X66259417Y-115870000D01*
X65805583Y-115870000D01*
X65785300Y-115664066D01*
X65725232Y-115466046D01*
X65627685Y-115283550D01*
X65497835Y-115125326D01*
X65496410Y-115123589D01*
X65398952Y-115043609D01*
X65336450Y-114992315D01*
X65171811Y-114904313D01*
X65153956Y-114894769D01*
X65153955Y-114894768D01*
X65153954Y-114894768D01*
X65054944Y-114864734D01*
X64955932Y-114834699D01*
X64750000Y-114814417D01*
X64544067Y-114834699D01*
X64346043Y-114894769D01*
X64163551Y-114992314D01*
X64003589Y-115123589D01*
X63872314Y-115283551D01*
X63774769Y-115466043D01*
X63714699Y-115664067D01*
X63694417Y-115870000D01*
X53130583Y-115870000D01*
X53110300Y-115664066D01*
X53050232Y-115466046D01*
X52952685Y-115283550D01*
X52822835Y-115125326D01*
X52821410Y-115123589D01*
X52723952Y-115043609D01*
X52661450Y-114992315D01*
X52496811Y-114904313D01*
X52478956Y-114894769D01*
X52478955Y-114894768D01*
X52478954Y-114894768D01*
X52379944Y-114864734D01*
X52280932Y-114834699D01*
X52075000Y-114814417D01*
X51869067Y-114834699D01*
X51671043Y-114894769D01*
X51488551Y-114992314D01*
X51328589Y-115123589D01*
X51197314Y-115283551D01*
X51099769Y-115466043D01*
X51039699Y-115664067D01*
X51019417Y-115870000D01*
X50565583Y-115870000D01*
X50545300Y-115664066D01*
X50485232Y-115466046D01*
X50387685Y-115283550D01*
X50257835Y-115125326D01*
X50256410Y-115123589D01*
X50158952Y-115043609D01*
X50096450Y-114992315D01*
X49931811Y-114904313D01*
X49913956Y-114894769D01*
X49913955Y-114894768D01*
X49913954Y-114894768D01*
X49814944Y-114864734D01*
X49715932Y-114834699D01*
X49510000Y-114814417D01*
X49304067Y-114834699D01*
X49106043Y-114894769D01*
X48923551Y-114992314D01*
X48763589Y-115123589D01*
X48632314Y-115283551D01*
X48534769Y-115466043D01*
X48474699Y-115664067D01*
X48454417Y-115870000D01*
X36100500Y-115870000D01*
X36100500Y-114625326D01*
X36099126Y-114618421D01*
X36085966Y-114552261D01*
X36085966Y-114552260D01*
X36030601Y-114469399D01*
X35947740Y-114414034D01*
X35947739Y-114414033D01*
X35947738Y-114414033D01*
X35874675Y-114399500D01*
X35874674Y-114399500D01*
X34125326Y-114399500D01*
X34125325Y-114399500D01*
X34052261Y-114414033D01*
X33969399Y-114469399D01*
X33914033Y-114552261D01*
X33899500Y-114625325D01*
X33899500Y-116374675D01*
X33133312Y-116374675D01*
X33276392Y-116244241D01*
X33399248Y-116081553D01*
X33490114Y-115899068D01*
X33545903Y-115702992D01*
X33553130Y-115625000D01*
X32585000Y-115625000D01*
X32335000Y-115625000D01*
X31366870Y-115625000D01*
X28000500Y-115625000D01*
X28000500Y-115374999D01*
X31366869Y-115374999D01*
X31366870Y-115375000D01*
X32335000Y-115375000D01*
X32335000Y-114404313D01*
X32585000Y-114404313D01*
X32585000Y-115375000D01*
X33553130Y-115375000D01*
X33553130Y-115374999D01*
X33545903Y-115297007D01*
X33490114Y-115100931D01*
X33399248Y-114918446D01*
X33276392Y-114755758D01*
X33125740Y-114618421D01*
X32952411Y-114511100D01*
X32762320Y-114437459D01*
X32585000Y-114404313D01*
X32335000Y-114404313D01*
X32335000Y-114404312D01*
X32157679Y-114437459D01*
X31967588Y-114511100D01*
X31794259Y-114618421D01*
X31643607Y-114755758D01*
X31520751Y-114918446D01*
X31429885Y-115100931D01*
X31374096Y-115297007D01*
X31366869Y-115374999D01*
X28000500Y-115374999D01*
X28000500Y-113525000D01*
X37906870Y-113525000D01*
X37914096Y-113602992D01*
X37969885Y-113799068D01*
X38060751Y-113981553D01*
X38183607Y-114144241D01*
X38334259Y-114281578D01*
X38507588Y-114388899D01*
X38697679Y-114462540D01*
X38875000Y-114495687D01*
X38875000Y-113525000D01*
X39125000Y-113525000D01*
X39125000Y-114495687D01*
X39302320Y-114462540D01*
X39492411Y-114388899D01*
X39665740Y-114281578D01*
X39673312Y-114274675D01*
X40439500Y-114274675D01*
X40454033Y-114347738D01*
X40454033Y-114347739D01*
X40454034Y-114347740D01*
X40509399Y-114430601D01*
X40592260Y-114485966D01*
X40628792Y-114493232D01*
X40665325Y-114500500D01*
X40665326Y-114500500D01*
X42414674Y-114500500D01*
X42414675Y-114500500D01*
X42439029Y-114495655D01*
X42487740Y-114485966D01*
X42570601Y-114430601D01*
X42625966Y-114347740D01*
X42640500Y-114274674D01*
X42640500Y-113330000D01*
X48454417Y-113330000D01*
X48474699Y-113535932D01*
X48504734Y-113634944D01*
X48534768Y-113733954D01*
X48632315Y-113916450D01*
X48683608Y-113978952D01*
X48763589Y-114076410D01*
X48843570Y-114142047D01*
X48923550Y-114207685D01*
X49106046Y-114305232D01*
X49304066Y-114365300D01*
X49510000Y-114385583D01*
X49715934Y-114365300D01*
X49913954Y-114305232D01*
X50096450Y-114207685D01*
X50256410Y-114076410D01*
X50387685Y-113916450D01*
X50485232Y-113733954D01*
X50545300Y-113535934D01*
X50565583Y-113330000D01*
X51019417Y-113330000D01*
X51039699Y-113535932D01*
X51069734Y-113634944D01*
X51099768Y-113733954D01*
X51197315Y-113916450D01*
X51248608Y-113978952D01*
X51328589Y-114076410D01*
X51408570Y-114142047D01*
X51488550Y-114207685D01*
X51671046Y-114305232D01*
X51869066Y-114365300D01*
X52075000Y-114385583D01*
X52280934Y-114365300D01*
X52478954Y-114305232D01*
X52661450Y-114207685D01*
X52821410Y-114076410D01*
X52952685Y-113916450D01*
X53050232Y-113733954D01*
X53110300Y-113535934D01*
X53130583Y-113330000D01*
X63694417Y-113330000D01*
X63714699Y-113535932D01*
X63744734Y-113634944D01*
X63774768Y-113733954D01*
X63872315Y-113916450D01*
X63923608Y-113978952D01*
X64003589Y-114076410D01*
X64083570Y-114142047D01*
X64163550Y-114207685D01*
X64346046Y-114305232D01*
X64544066Y-114365300D01*
X64750000Y-114385583D01*
X64955934Y-114365300D01*
X65153954Y-114305232D01*
X65336450Y-114207685D01*
X65496410Y-114076410D01*
X65627685Y-113916450D01*
X65725232Y-113733954D01*
X65785300Y-113535934D01*
X65805583Y-113330000D01*
X66259417Y-113330000D01*
X66279699Y-113535932D01*
X66309734Y-113634944D01*
X66339768Y-113733954D01*
X66437315Y-113916450D01*
X66488608Y-113978952D01*
X66568589Y-114076410D01*
X66648570Y-114142047D01*
X66728550Y-114207685D01*
X66911046Y-114305232D01*
X67109066Y-114365300D01*
X67315000Y-114385583D01*
X67520934Y-114365300D01*
X67718954Y-114305232D01*
X67776122Y-114274675D01*
X83139500Y-114274675D01*
X83154033Y-114347738D01*
X83154033Y-114347739D01*
X83154034Y-114347740D01*
X83209399Y-114430601D01*
X83292260Y-114485966D01*
X83328792Y-114493232D01*
X83365325Y-114500500D01*
X83365326Y-114500500D01*
X85114674Y-114500500D01*
X85114675Y-114500500D01*
X85139029Y-114495655D01*
X85187740Y-114485966D01*
X85270601Y-114430601D01*
X85325966Y-114347740D01*
X85340500Y-114274674D01*
X85340500Y-113525000D01*
X85686870Y-113525000D01*
X85694096Y-113602992D01*
X85749885Y-113799068D01*
X85840751Y-113981553D01*
X85963607Y-114144241D01*
X86114259Y-114281578D01*
X86287588Y-114388899D01*
X86477679Y-114462540D01*
X86655000Y-114495687D01*
X86655000Y-113525000D01*
X86905000Y-113525000D01*
X86905000Y-114495687D01*
X87082320Y-114462540D01*
X87272411Y-114388899D01*
X87445740Y-114281578D01*
X87596392Y-114144241D01*
X87719248Y-113981553D01*
X87810114Y-113799068D01*
X87865903Y-113602992D01*
X87873130Y-113525000D01*
X86905000Y-113525000D01*
X86655000Y-113525000D01*
X85686870Y-113525000D01*
X85340500Y-113525000D01*
X85340500Y-113274999D01*
X85686869Y-113274999D01*
X85686870Y-113275000D01*
X86655000Y-113275000D01*
X86655000Y-112304313D01*
X86905000Y-112304313D01*
X86905000Y-113275000D01*
X87873130Y-113275000D01*
X87873130Y-113274999D01*
X87865903Y-113197007D01*
X87810114Y-113000931D01*
X87719248Y-112818446D01*
X87596392Y-112655758D01*
X87445740Y-112518421D01*
X87272411Y-112411100D01*
X87082320Y-112337459D01*
X86905000Y-112304313D01*
X86655000Y-112304313D01*
X86655000Y-112304312D01*
X86477679Y-112337459D01*
X86287588Y-112411100D01*
X86114259Y-112518421D01*
X85963607Y-112655758D01*
X85840751Y-112818446D01*
X85749885Y-113000931D01*
X85694096Y-113197007D01*
X85686869Y-113274999D01*
X85340500Y-113274999D01*
X85340500Y-112525326D01*
X85339126Y-112518421D01*
X85325966Y-112452261D01*
X85325966Y-112452260D01*
X85270601Y-112369399D01*
X85187740Y-112314034D01*
X85187739Y-112314033D01*
X85187738Y-112314033D01*
X85114675Y-112299500D01*
X85114674Y-112299500D01*
X83365326Y-112299500D01*
X83365325Y-112299500D01*
X83292261Y-112314033D01*
X83209399Y-112369399D01*
X83154033Y-112452261D01*
X83139500Y-112525325D01*
X83139500Y-114274675D01*
X67776122Y-114274675D01*
X67901450Y-114207685D01*
X68061410Y-114076410D01*
X68192685Y-113916450D01*
X68290232Y-113733954D01*
X68350300Y-113535934D01*
X68370583Y-113330000D01*
X68350300Y-113124066D01*
X68290232Y-112926046D01*
X68192685Y-112743550D01*
X68120636Y-112655758D01*
X68061410Y-112583589D01*
X67963952Y-112503609D01*
X67901450Y-112452315D01*
X67810201Y-112403541D01*
X67718956Y-112354769D01*
X67718955Y-112354768D01*
X67718954Y-112354768D01*
X67619943Y-112324733D01*
X67520932Y-112294699D01*
X67315000Y-112274417D01*
X67109067Y-112294699D01*
X66911043Y-112354769D01*
X66728551Y-112452314D01*
X66568589Y-112583589D01*
X66437314Y-112743551D01*
X66339769Y-112926043D01*
X66279699Y-113124067D01*
X66259417Y-113330000D01*
X65805583Y-113330000D01*
X65785300Y-113124066D01*
X65725232Y-112926046D01*
X65627685Y-112743550D01*
X65555636Y-112655758D01*
X65496410Y-112583589D01*
X65398952Y-112503609D01*
X65336450Y-112452315D01*
X65245201Y-112403541D01*
X65153956Y-112354769D01*
X65153955Y-112354768D01*
X65153954Y-112354768D01*
X65054943Y-112324733D01*
X64955932Y-112294699D01*
X64750000Y-112274417D01*
X64544067Y-112294699D01*
X64346043Y-112354769D01*
X64163551Y-112452314D01*
X64003589Y-112583589D01*
X63872314Y-112743551D01*
X63774769Y-112926043D01*
X63714699Y-113124067D01*
X63694417Y-113330000D01*
X53130583Y-113330000D01*
X53110300Y-113124066D01*
X53050232Y-112926046D01*
X52952685Y-112743550D01*
X52880636Y-112655758D01*
X52821410Y-112583589D01*
X52723952Y-112503609D01*
X52661450Y-112452315D01*
X52570201Y-112403541D01*
X52478956Y-112354769D01*
X52478955Y-112354768D01*
X52478954Y-112354768D01*
X52379943Y-112324733D01*
X52280932Y-112294699D01*
X52075000Y-112274417D01*
X51869067Y-112294699D01*
X51671043Y-112354769D01*
X51488551Y-112452314D01*
X51328589Y-112583589D01*
X51197314Y-112743551D01*
X51099769Y-112926043D01*
X51039699Y-113124067D01*
X51019417Y-113330000D01*
X50565583Y-113330000D01*
X50545300Y-113124066D01*
X50485232Y-112926046D01*
X50387685Y-112743550D01*
X50315636Y-112655758D01*
X50256410Y-112583589D01*
X50158952Y-112503609D01*
X50096450Y-112452315D01*
X50005201Y-112403541D01*
X49913956Y-112354769D01*
X49913955Y-112354768D01*
X49913954Y-112354768D01*
X49814943Y-112324733D01*
X49715932Y-112294699D01*
X49510000Y-112274417D01*
X49304067Y-112294699D01*
X49106043Y-112354769D01*
X48923551Y-112452314D01*
X48763589Y-112583589D01*
X48632314Y-112743551D01*
X48534769Y-112926043D01*
X48474699Y-113124067D01*
X48454417Y-113330000D01*
X42640500Y-113330000D01*
X42640500Y-112525326D01*
X42639126Y-112518421D01*
X42625966Y-112452261D01*
X42625966Y-112452260D01*
X42570601Y-112369399D01*
X42487740Y-112314034D01*
X42487739Y-112314033D01*
X42487738Y-112314033D01*
X42414675Y-112299500D01*
X42414674Y-112299500D01*
X40665326Y-112299500D01*
X40665325Y-112299500D01*
X40592261Y-112314033D01*
X40509399Y-112369399D01*
X40454033Y-112452261D01*
X40439500Y-112525325D01*
X40439500Y-114274675D01*
X39673312Y-114274675D01*
X39816392Y-114144241D01*
X39939248Y-113981553D01*
X40030114Y-113799068D01*
X40085903Y-113602992D01*
X40093130Y-113525000D01*
X39125000Y-113525000D01*
X38875000Y-113525000D01*
X37906870Y-113525000D01*
X28000500Y-113525000D01*
X28000500Y-113274999D01*
X37906869Y-113274999D01*
X37906870Y-113275000D01*
X38875000Y-113275000D01*
X38875000Y-112304312D01*
X39124999Y-112304312D01*
X39125000Y-112304313D01*
X39125000Y-113275000D01*
X40093130Y-113275000D01*
X40093130Y-113274999D01*
X40085903Y-113197007D01*
X40030114Y-113000931D01*
X39939248Y-112818446D01*
X39816392Y-112655758D01*
X39665740Y-112518421D01*
X39492411Y-112411100D01*
X39302320Y-112337459D01*
X39124999Y-112304312D01*
X38875000Y-112304312D01*
X38697679Y-112337459D01*
X38507588Y-112411100D01*
X38334259Y-112518421D01*
X38183607Y-112655758D01*
X38060751Y-112818446D01*
X37969885Y-113000931D01*
X37914096Y-113197007D01*
X37906869Y-113274999D01*
X28000500Y-113274999D01*
X28000500Y-111125000D01*
X31366870Y-111125000D01*
X31374096Y-111202992D01*
X31429885Y-111399068D01*
X31520751Y-111581553D01*
X31643607Y-111744241D01*
X31794259Y-111881578D01*
X31967588Y-111988899D01*
X32157679Y-112062540D01*
X32335000Y-112095687D01*
X32335000Y-111125000D01*
X32585000Y-111125000D01*
X32585000Y-112095687D01*
X32762320Y-112062540D01*
X32952411Y-111988899D01*
X33125740Y-111881578D01*
X33133312Y-111874675D01*
X33899500Y-111874675D01*
X33914033Y-111947738D01*
X33914033Y-111947739D01*
X33914034Y-111947740D01*
X33969399Y-112030601D01*
X34052260Y-112085966D01*
X34088792Y-112093232D01*
X34125325Y-112100500D01*
X34125326Y-112100500D01*
X35874674Y-112100500D01*
X35874675Y-112100500D01*
X35899029Y-112095655D01*
X35947740Y-112085966D01*
X36030601Y-112030601D01*
X36085966Y-111947740D01*
X36100500Y-111874674D01*
X36100500Y-110790000D01*
X48454417Y-110790000D01*
X48474699Y-110995932D01*
X48534769Y-111193956D01*
X48539599Y-111202992D01*
X48632315Y-111376450D01*
X48636503Y-111381553D01*
X48763589Y-111536410D01*
X48818597Y-111581553D01*
X48923550Y-111667685D01*
X49106046Y-111765232D01*
X49304066Y-111825300D01*
X49510000Y-111845583D01*
X49715934Y-111825300D01*
X49913954Y-111765232D01*
X50096450Y-111667685D01*
X50256410Y-111536410D01*
X50387685Y-111376450D01*
X50485232Y-111193954D01*
X50545300Y-110995934D01*
X50565583Y-110790000D01*
X51019417Y-110790000D01*
X51039699Y-110995932D01*
X51099769Y-111193956D01*
X51104599Y-111202992D01*
X51197315Y-111376450D01*
X51201503Y-111381553D01*
X51328589Y-111536410D01*
X51383597Y-111581553D01*
X51488550Y-111667685D01*
X51671046Y-111765232D01*
X51869066Y-111825300D01*
X52075000Y-111845583D01*
X52280934Y-111825300D01*
X52478954Y-111765232D01*
X52661450Y-111667685D01*
X52821410Y-111536410D01*
X52952685Y-111376450D01*
X53050232Y-111193954D01*
X53110300Y-110995934D01*
X53130583Y-110790000D01*
X63694417Y-110790000D01*
X63714699Y-110995932D01*
X63774769Y-111193956D01*
X63779599Y-111202992D01*
X63872315Y-111376450D01*
X63876503Y-111381553D01*
X64003589Y-111536410D01*
X64058597Y-111581553D01*
X64163550Y-111667685D01*
X64346046Y-111765232D01*
X64544066Y-111825300D01*
X64750000Y-111845583D01*
X64955934Y-111825300D01*
X65153954Y-111765232D01*
X65336450Y-111667685D01*
X65496410Y-111536410D01*
X65627685Y-111376450D01*
X65725232Y-111193954D01*
X65785300Y-110995934D01*
X65805583Y-110790000D01*
X66259417Y-110790000D01*
X66279699Y-110995932D01*
X66339769Y-111193956D01*
X66344599Y-111202992D01*
X66437315Y-111376450D01*
X66441503Y-111381553D01*
X66568589Y-111536410D01*
X66623597Y-111581553D01*
X66728550Y-111667685D01*
X66911046Y-111765232D01*
X67109066Y-111825300D01*
X67315000Y-111845583D01*
X67520934Y-111825300D01*
X67718954Y-111765232D01*
X67888373Y-111674675D01*
X76139500Y-111674675D01*
X76154033Y-111747738D01*
X76154033Y-111747739D01*
X76154034Y-111747740D01*
X76209399Y-111830601D01*
X76292260Y-111885966D01*
X76328792Y-111893232D01*
X76365325Y-111900500D01*
X76365326Y-111900500D01*
X78114674Y-111900500D01*
X78114675Y-111900500D01*
X78139029Y-111895655D01*
X78187740Y-111885966D01*
X78270601Y-111830601D01*
X78325966Y-111747740D01*
X78340500Y-111674674D01*
X78340500Y-110925000D01*
X78686870Y-110925000D01*
X78694096Y-111002992D01*
X78749885Y-111199068D01*
X78840751Y-111381553D01*
X78963607Y-111544241D01*
X79114259Y-111681578D01*
X79287588Y-111788899D01*
X79477679Y-111862540D01*
X79655000Y-111895687D01*
X79655000Y-110925000D01*
X79905000Y-110925000D01*
X79905000Y-111895687D01*
X80082320Y-111862540D01*
X80272411Y-111788899D01*
X80445740Y-111681578D01*
X80596392Y-111544241D01*
X80719248Y-111381553D01*
X80810114Y-111199068D01*
X80865903Y-111002992D01*
X80873130Y-110925000D01*
X79905000Y-110925000D01*
X79655000Y-110925000D01*
X78686870Y-110925000D01*
X78340500Y-110925000D01*
X78340500Y-110674999D01*
X78686869Y-110674999D01*
X78686870Y-110675000D01*
X79655000Y-110675000D01*
X79655000Y-109704312D01*
X79904999Y-109704312D01*
X79905000Y-109704313D01*
X79905000Y-110675000D01*
X80873130Y-110675000D01*
X80873130Y-110674999D01*
X80865903Y-110597007D01*
X80810114Y-110400931D01*
X80719248Y-110218446D01*
X80596392Y-110055758D01*
X80445740Y-109918421D01*
X80272411Y-109811100D01*
X80082320Y-109737459D01*
X79904999Y-109704312D01*
X79655000Y-109704312D01*
X79477679Y-109737459D01*
X79287588Y-109811100D01*
X79114259Y-109918421D01*
X78963607Y-110055758D01*
X78840751Y-110218446D01*
X78749885Y-110400931D01*
X78694096Y-110597007D01*
X78686869Y-110674999D01*
X78340500Y-110674999D01*
X78340500Y-109925326D01*
X78339126Y-109918421D01*
X78325966Y-109852261D01*
X78325966Y-109852260D01*
X78270601Y-109769399D01*
X78187740Y-109714034D01*
X78187739Y-109714033D01*
X78187738Y-109714033D01*
X78114675Y-109699500D01*
X78114674Y-109699500D01*
X76365326Y-109699500D01*
X76365325Y-109699500D01*
X76292261Y-109714033D01*
X76209399Y-109769399D01*
X76154033Y-109852261D01*
X76139500Y-109925325D01*
X76139500Y-111674675D01*
X67888373Y-111674675D01*
X67901450Y-111667685D01*
X68061410Y-111536410D01*
X68192685Y-111376450D01*
X68290232Y-111193954D01*
X68350300Y-110995934D01*
X68370583Y-110790000D01*
X68350300Y-110584066D01*
X68290232Y-110386046D01*
X68192685Y-110203550D01*
X68122822Y-110118421D01*
X68061410Y-110043589D01*
X67932088Y-109937459D01*
X67901450Y-109912315D01*
X67718954Y-109814768D01*
X67569391Y-109769399D01*
X67520932Y-109754699D01*
X67315000Y-109734417D01*
X67109067Y-109754699D01*
X66911043Y-109814769D01*
X66728551Y-109912314D01*
X66568589Y-110043589D01*
X66437314Y-110203551D01*
X66339769Y-110386043D01*
X66279699Y-110584067D01*
X66259417Y-110790000D01*
X65805583Y-110790000D01*
X65785300Y-110584066D01*
X65725232Y-110386046D01*
X65627685Y-110203550D01*
X65557822Y-110118421D01*
X65496410Y-110043589D01*
X65367088Y-109937459D01*
X65336450Y-109912315D01*
X65153954Y-109814768D01*
X65004391Y-109769399D01*
X64955932Y-109754699D01*
X64750000Y-109734417D01*
X64544067Y-109754699D01*
X64346043Y-109814769D01*
X64163551Y-109912314D01*
X64003589Y-110043589D01*
X63872314Y-110203551D01*
X63774769Y-110386043D01*
X63714699Y-110584067D01*
X63694417Y-110790000D01*
X53130583Y-110790000D01*
X53110300Y-110584066D01*
X53050232Y-110386046D01*
X52952685Y-110203550D01*
X52882822Y-110118421D01*
X52821410Y-110043589D01*
X52692088Y-109937459D01*
X52661450Y-109912315D01*
X52478954Y-109814768D01*
X52329391Y-109769399D01*
X52280932Y-109754699D01*
X52075000Y-109734417D01*
X51869067Y-109754699D01*
X51671043Y-109814769D01*
X51488551Y-109912314D01*
X51328589Y-110043589D01*
X51197314Y-110203551D01*
X51099769Y-110386043D01*
X51039699Y-110584067D01*
X51019417Y-110790000D01*
X50565583Y-110790000D01*
X50545300Y-110584066D01*
X50485232Y-110386046D01*
X50387685Y-110203550D01*
X50317822Y-110118421D01*
X50256410Y-110043589D01*
X50127088Y-109937459D01*
X50096450Y-109912315D01*
X49913954Y-109814768D01*
X49764391Y-109769399D01*
X49715932Y-109754699D01*
X49510000Y-109734417D01*
X49304067Y-109754699D01*
X49106043Y-109814769D01*
X48923551Y-109912314D01*
X48763589Y-110043589D01*
X48632314Y-110203551D01*
X48534769Y-110386043D01*
X48474699Y-110584067D01*
X48454417Y-110790000D01*
X36100500Y-110790000D01*
X36100500Y-110125326D01*
X36099126Y-110118421D01*
X36085966Y-110052261D01*
X36085966Y-110052260D01*
X36030601Y-109969399D01*
X35947740Y-109914034D01*
X35947739Y-109914033D01*
X35947738Y-109914033D01*
X35874675Y-109899500D01*
X35874674Y-109899500D01*
X34125326Y-109899500D01*
X34125325Y-109899500D01*
X34052261Y-109914033D01*
X33969399Y-109969399D01*
X33914033Y-110052261D01*
X33899500Y-110125325D01*
X33899500Y-111874675D01*
X33133312Y-111874675D01*
X33276392Y-111744241D01*
X33399248Y-111581553D01*
X33490114Y-111399068D01*
X33545903Y-111202992D01*
X33553130Y-111125000D01*
X32585000Y-111125000D01*
X32335000Y-111125000D01*
X31366870Y-111125000D01*
X28000500Y-111125000D01*
X28000500Y-110874999D01*
X31366869Y-110874999D01*
X31366870Y-110875000D01*
X32335000Y-110875000D01*
X32335000Y-109904313D01*
X32585000Y-109904313D01*
X32585000Y-110875000D01*
X33553130Y-110875000D01*
X33553130Y-110874999D01*
X33545903Y-110797007D01*
X33490114Y-110600931D01*
X33399248Y-110418446D01*
X33276392Y-110255758D01*
X33125740Y-110118421D01*
X32952411Y-110011100D01*
X32762320Y-109937459D01*
X32585000Y-109904313D01*
X32335000Y-109904313D01*
X32335000Y-109904312D01*
X32157679Y-109937459D01*
X31967588Y-110011100D01*
X31794259Y-110118421D01*
X31643607Y-110255758D01*
X31520751Y-110418446D01*
X31429885Y-110600931D01*
X31374096Y-110797007D01*
X31366869Y-110874999D01*
X28000500Y-110874999D01*
X28000500Y-109374675D01*
X83139500Y-109374675D01*
X83154033Y-109447738D01*
X83154033Y-109447739D01*
X83154034Y-109447740D01*
X83209399Y-109530601D01*
X83292260Y-109585966D01*
X83328793Y-109593233D01*
X83365325Y-109600500D01*
X83365326Y-109600500D01*
X85114674Y-109600500D01*
X85114675Y-109600500D01*
X85139029Y-109595655D01*
X85187740Y-109585966D01*
X85270601Y-109530601D01*
X85325966Y-109447740D01*
X85340500Y-109374674D01*
X85340500Y-108625000D01*
X85686870Y-108625000D01*
X85694096Y-108702992D01*
X85749885Y-108899068D01*
X85840751Y-109081553D01*
X85963607Y-109244241D01*
X86114259Y-109381578D01*
X86287588Y-109488899D01*
X86477679Y-109562540D01*
X86655000Y-109595687D01*
X86655000Y-108625000D01*
X86905000Y-108625000D01*
X86905000Y-109595687D01*
X87082320Y-109562540D01*
X87272411Y-109488899D01*
X87445740Y-109381578D01*
X87596392Y-109244241D01*
X87719248Y-109081553D01*
X87810114Y-108899068D01*
X87865903Y-108702992D01*
X87873130Y-108625000D01*
X86905000Y-108625000D01*
X86655000Y-108625000D01*
X85686870Y-108625000D01*
X85340500Y-108625000D01*
X85340500Y-108374999D01*
X85686869Y-108374999D01*
X85686870Y-108375000D01*
X86655000Y-108375000D01*
X86655000Y-107404313D01*
X86905000Y-107404313D01*
X86905000Y-108375000D01*
X87873130Y-108375000D01*
X87873130Y-108374999D01*
X87865903Y-108297007D01*
X87810114Y-108100931D01*
X87719248Y-107918446D01*
X87596392Y-107755758D01*
X87445740Y-107618421D01*
X87272411Y-107511100D01*
X87082320Y-107437459D01*
X86905000Y-107404313D01*
X86655000Y-107404313D01*
X86655000Y-107404312D01*
X86477679Y-107437459D01*
X86287588Y-107511100D01*
X86114259Y-107618421D01*
X85963607Y-107755758D01*
X85840751Y-107918446D01*
X85749885Y-108100931D01*
X85694096Y-108297007D01*
X85686869Y-108374999D01*
X85340500Y-108374999D01*
X85340500Y-107625326D01*
X85339131Y-107618446D01*
X85325966Y-107552261D01*
X85325966Y-107552260D01*
X85270601Y-107469399D01*
X85187740Y-107414034D01*
X85187739Y-107414033D01*
X85187738Y-107414033D01*
X85114675Y-107399500D01*
X85114674Y-107399500D01*
X83365326Y-107399500D01*
X83365325Y-107399500D01*
X83292261Y-107414033D01*
X83209399Y-107469399D01*
X83154033Y-107552261D01*
X83139500Y-107625325D01*
X83139500Y-109374675D01*
X28000500Y-109374675D01*
X28000500Y-108325000D01*
X38366870Y-108325000D01*
X38374096Y-108402992D01*
X38429885Y-108599068D01*
X38520751Y-108781553D01*
X38643607Y-108944241D01*
X38794259Y-109081578D01*
X38967588Y-109188899D01*
X39157679Y-109262540D01*
X39335000Y-109295687D01*
X39335000Y-108325000D01*
X39585000Y-108325000D01*
X39585000Y-109295687D01*
X39762320Y-109262540D01*
X39952411Y-109188899D01*
X40125740Y-109081578D01*
X40133312Y-109074675D01*
X40899500Y-109074675D01*
X40914033Y-109147738D01*
X40914033Y-109147739D01*
X40914034Y-109147740D01*
X40969399Y-109230601D01*
X41052260Y-109285966D01*
X41088792Y-109293232D01*
X41125325Y-109300500D01*
X41125326Y-109300500D01*
X42874674Y-109300500D01*
X42874675Y-109300500D01*
X42899029Y-109295655D01*
X42947740Y-109285966D01*
X43030601Y-109230601D01*
X43085966Y-109147740D01*
X43100500Y-109074674D01*
X43100500Y-108249999D01*
X48454417Y-108249999D01*
X48474699Y-108455932D01*
X48474700Y-108455934D01*
X48534768Y-108653954D01*
X48632315Y-108836450D01*
X48683609Y-108898952D01*
X48763589Y-108996410D01*
X48843569Y-109062047D01*
X48923550Y-109127685D01*
X49106046Y-109225232D01*
X49304066Y-109285300D01*
X49510000Y-109305583D01*
X49715934Y-109285300D01*
X49913954Y-109225232D01*
X50096450Y-109127685D01*
X50256410Y-108996410D01*
X50387685Y-108836450D01*
X50485232Y-108653954D01*
X50545300Y-108455934D01*
X50565583Y-108250000D01*
X50565583Y-108249999D01*
X51019417Y-108249999D01*
X51039699Y-108455932D01*
X51039700Y-108455934D01*
X51099768Y-108653954D01*
X51197315Y-108836450D01*
X51248609Y-108898952D01*
X51328589Y-108996410D01*
X51408569Y-109062047D01*
X51488550Y-109127685D01*
X51671046Y-109225232D01*
X51869066Y-109285300D01*
X52075000Y-109305583D01*
X52280934Y-109285300D01*
X52478954Y-109225232D01*
X52661450Y-109127685D01*
X52821410Y-108996410D01*
X52952685Y-108836450D01*
X53050232Y-108653954D01*
X53110300Y-108455934D01*
X53130583Y-108250000D01*
X53130583Y-108249999D01*
X63694417Y-108249999D01*
X63714699Y-108455932D01*
X63714700Y-108455934D01*
X63774768Y-108653954D01*
X63872315Y-108836450D01*
X63923609Y-108898952D01*
X64003589Y-108996410D01*
X64083569Y-109062047D01*
X64163550Y-109127685D01*
X64346046Y-109225232D01*
X64544066Y-109285300D01*
X64750000Y-109305583D01*
X64955934Y-109285300D01*
X65153954Y-109225232D01*
X65336450Y-109127685D01*
X65496410Y-108996410D01*
X65627685Y-108836450D01*
X65725232Y-108653954D01*
X65785300Y-108455934D01*
X65805583Y-108250000D01*
X65805583Y-108249999D01*
X66259417Y-108249999D01*
X66279699Y-108455932D01*
X66279700Y-108455934D01*
X66339768Y-108653954D01*
X66437315Y-108836450D01*
X66488609Y-108898952D01*
X66568589Y-108996410D01*
X66648569Y-109062047D01*
X66728550Y-109127685D01*
X66911046Y-109225232D01*
X67109066Y-109285300D01*
X67315000Y-109305583D01*
X67520934Y-109285300D01*
X67718954Y-109225232D01*
X67901450Y-109127685D01*
X68061410Y-108996410D01*
X68192685Y-108836450D01*
X68290232Y-108653954D01*
X68350300Y-108455934D01*
X68370583Y-108250000D01*
X68350300Y-108044066D01*
X68290232Y-107846046D01*
X68192685Y-107663550D01*
X68101353Y-107552261D01*
X68061410Y-107503589D01*
X67940440Y-107404313D01*
X67901450Y-107372315D01*
X67718954Y-107274768D01*
X67619944Y-107244734D01*
X67520932Y-107214699D01*
X67315000Y-107194417D01*
X67109067Y-107214699D01*
X66911043Y-107274769D01*
X66728551Y-107372314D01*
X66568589Y-107503589D01*
X66437314Y-107663551D01*
X66339769Y-107846043D01*
X66279699Y-108044067D01*
X66259417Y-108249999D01*
X65805583Y-108249999D01*
X65785300Y-108044066D01*
X65725232Y-107846046D01*
X65627685Y-107663550D01*
X65536353Y-107552261D01*
X65496410Y-107503589D01*
X65375440Y-107404313D01*
X65336450Y-107372315D01*
X65153954Y-107274768D01*
X65054944Y-107244734D01*
X64955932Y-107214699D01*
X64750000Y-107194417D01*
X64544067Y-107214699D01*
X64346043Y-107274769D01*
X64163551Y-107372314D01*
X64003589Y-107503589D01*
X63872314Y-107663551D01*
X63774769Y-107846043D01*
X63714699Y-108044067D01*
X63694417Y-108249999D01*
X53130583Y-108249999D01*
X53110300Y-108044066D01*
X53050232Y-107846046D01*
X52952685Y-107663550D01*
X52861353Y-107552261D01*
X52821410Y-107503589D01*
X52700440Y-107404313D01*
X52661450Y-107372315D01*
X52478954Y-107274768D01*
X52379944Y-107244734D01*
X52280932Y-107214699D01*
X52075000Y-107194417D01*
X51869067Y-107214699D01*
X51671043Y-107274769D01*
X51488551Y-107372314D01*
X51328589Y-107503589D01*
X51197314Y-107663551D01*
X51099769Y-107846043D01*
X51039699Y-108044067D01*
X51019417Y-108249999D01*
X50565583Y-108249999D01*
X50545300Y-108044066D01*
X50485232Y-107846046D01*
X50387685Y-107663550D01*
X50296353Y-107552261D01*
X50256410Y-107503589D01*
X50135440Y-107404313D01*
X50096450Y-107372315D01*
X49913954Y-107274768D01*
X49814944Y-107244734D01*
X49715932Y-107214699D01*
X49510000Y-107194417D01*
X49304067Y-107214699D01*
X49106043Y-107274769D01*
X48923551Y-107372314D01*
X48763589Y-107503589D01*
X48632314Y-107663551D01*
X48534769Y-107846043D01*
X48474699Y-108044067D01*
X48454417Y-108249999D01*
X43100500Y-108249999D01*
X43100500Y-107325326D01*
X43099126Y-107318421D01*
X43085966Y-107252261D01*
X43085966Y-107252260D01*
X43030601Y-107169399D01*
X42947740Y-107114034D01*
X42947739Y-107114033D01*
X42947738Y-107114033D01*
X42874675Y-107099500D01*
X42874674Y-107099500D01*
X41125326Y-107099500D01*
X41125325Y-107099500D01*
X41052261Y-107114033D01*
X40969399Y-107169399D01*
X40914033Y-107252261D01*
X40899500Y-107325325D01*
X40899500Y-109074675D01*
X40133312Y-109074675D01*
X40276392Y-108944241D01*
X40399248Y-108781553D01*
X40490114Y-108599068D01*
X40545903Y-108402992D01*
X40553130Y-108325000D01*
X39585000Y-108325000D01*
X39335000Y-108325000D01*
X38366870Y-108325000D01*
X28000500Y-108325000D01*
X28000500Y-108074999D01*
X38366869Y-108074999D01*
X38366870Y-108075000D01*
X39335000Y-108075000D01*
X39335000Y-107104313D01*
X39585000Y-107104313D01*
X39585000Y-108075000D01*
X40553130Y-108075000D01*
X40553130Y-108074999D01*
X40545903Y-107997007D01*
X40490114Y-107800931D01*
X40399248Y-107618446D01*
X40276392Y-107455758D01*
X40125740Y-107318421D01*
X39952411Y-107211100D01*
X39762320Y-107137459D01*
X39585000Y-107104313D01*
X39335000Y-107104313D01*
X39335000Y-107104312D01*
X39157679Y-107137459D01*
X38967588Y-107211100D01*
X38794259Y-107318421D01*
X38643607Y-107455758D01*
X38520751Y-107618446D01*
X38429885Y-107800931D01*
X38374096Y-107997007D01*
X38366869Y-108074999D01*
X28000500Y-108074999D01*
X28000500Y-105925000D01*
X31366870Y-105925000D01*
X31374096Y-106002992D01*
X31429885Y-106199068D01*
X31520751Y-106381553D01*
X31643607Y-106544241D01*
X31794259Y-106681578D01*
X31967588Y-106788899D01*
X32157679Y-106862540D01*
X32335000Y-106895687D01*
X32335000Y-105925000D01*
X32585000Y-105925000D01*
X32585000Y-106895687D01*
X32762320Y-106862540D01*
X32952411Y-106788899D01*
X33125740Y-106681578D01*
X33133312Y-106674675D01*
X33899500Y-106674675D01*
X33914033Y-106747738D01*
X33914033Y-106747739D01*
X33914034Y-106747740D01*
X33969399Y-106830601D01*
X34052260Y-106885966D01*
X34088793Y-106893233D01*
X34125325Y-106900500D01*
X34125326Y-106900500D01*
X35874674Y-106900500D01*
X35874675Y-106900500D01*
X35899029Y-106895655D01*
X35947740Y-106885966D01*
X36030601Y-106830601D01*
X36085966Y-106747740D01*
X36100500Y-106674674D01*
X36100500Y-105710000D01*
X48454417Y-105710000D01*
X48474699Y-105915932D01*
X48474700Y-105915934D01*
X48534768Y-106113954D01*
X48632315Y-106296450D01*
X48671536Y-106344241D01*
X48763589Y-106456410D01*
X48794257Y-106481578D01*
X48923550Y-106587685D01*
X49106046Y-106685232D01*
X49304066Y-106745300D01*
X49510000Y-106765583D01*
X49715934Y-106745300D01*
X49913954Y-106685232D01*
X50096450Y-106587685D01*
X50256410Y-106456410D01*
X50387685Y-106296450D01*
X50485232Y-106113954D01*
X50545300Y-105915934D01*
X50565583Y-105710000D01*
X51019417Y-105710000D01*
X51039699Y-105915932D01*
X51039700Y-105915934D01*
X51099768Y-106113954D01*
X51197315Y-106296450D01*
X51236536Y-106344241D01*
X51328589Y-106456410D01*
X51359257Y-106481578D01*
X51488550Y-106587685D01*
X51671046Y-106685232D01*
X51869066Y-106745300D01*
X52075000Y-106765583D01*
X52280934Y-106745300D01*
X52478954Y-106685232D01*
X52661450Y-106587685D01*
X52821410Y-106456410D01*
X52952685Y-106296450D01*
X53050232Y-106113954D01*
X53110300Y-105915934D01*
X53130583Y-105710000D01*
X53130583Y-105709999D01*
X63694417Y-105709999D01*
X63714699Y-105915932D01*
X63714700Y-105915934D01*
X63774768Y-106113954D01*
X63872315Y-106296450D01*
X63911536Y-106344241D01*
X64003589Y-106456410D01*
X64034257Y-106481578D01*
X64163550Y-106587685D01*
X64346046Y-106685232D01*
X64544066Y-106745300D01*
X64750000Y-106765583D01*
X64955934Y-106745300D01*
X65153954Y-106685232D01*
X65336450Y-106587685D01*
X65496410Y-106456410D01*
X65627685Y-106296450D01*
X65725232Y-106113954D01*
X65785300Y-105915934D01*
X65805583Y-105710000D01*
X65805583Y-105709999D01*
X66259417Y-105709999D01*
X66279699Y-105915932D01*
X66279700Y-105915934D01*
X66339768Y-106113954D01*
X66437315Y-106296450D01*
X66476536Y-106344241D01*
X66568589Y-106456410D01*
X66599257Y-106481578D01*
X66728550Y-106587685D01*
X66911046Y-106685232D01*
X67109066Y-106745300D01*
X67315000Y-106765583D01*
X67520934Y-106745300D01*
X67718954Y-106685232D01*
X67901450Y-106587685D01*
X68039154Y-106474675D01*
X76304500Y-106474675D01*
X76319033Y-106547738D01*
X76319033Y-106547739D01*
X76319034Y-106547740D01*
X76374399Y-106630601D01*
X76457260Y-106685966D01*
X76493792Y-106693232D01*
X76530325Y-106700500D01*
X76530326Y-106700500D01*
X78279674Y-106700500D01*
X78279675Y-106700500D01*
X78304029Y-106695655D01*
X78352740Y-106685966D01*
X78435601Y-106630601D01*
X78490966Y-106547740D01*
X78505500Y-106474674D01*
X78505500Y-105725000D01*
X78851870Y-105725000D01*
X78859096Y-105802992D01*
X78914885Y-105999068D01*
X79005751Y-106181553D01*
X79128607Y-106344241D01*
X79279259Y-106481578D01*
X79452588Y-106588899D01*
X79642679Y-106662540D01*
X79820000Y-106695687D01*
X79820000Y-105725000D01*
X80070000Y-105725000D01*
X80070000Y-106695687D01*
X80247320Y-106662540D01*
X80437411Y-106588899D01*
X80610740Y-106481578D01*
X80761392Y-106344241D01*
X80884248Y-106181553D01*
X80975114Y-105999068D01*
X81030903Y-105802992D01*
X81038130Y-105725000D01*
X80070000Y-105725000D01*
X79820000Y-105725000D01*
X78851870Y-105725000D01*
X78505500Y-105725000D01*
X78505500Y-105474999D01*
X78851869Y-105474999D01*
X78851870Y-105475000D01*
X79820000Y-105475000D01*
X79820000Y-104504312D01*
X80069999Y-104504312D01*
X80070000Y-104504313D01*
X80070000Y-105475000D01*
X81038130Y-105475000D01*
X81038130Y-105474999D01*
X81030903Y-105397007D01*
X80975114Y-105200931D01*
X80884248Y-105018446D01*
X80761392Y-104855758D01*
X80610740Y-104718421D01*
X80437411Y-104611100D01*
X80247320Y-104537459D01*
X80069999Y-104504312D01*
X79820000Y-104504312D01*
X79642679Y-104537459D01*
X79452588Y-104611100D01*
X79279259Y-104718421D01*
X79128607Y-104855758D01*
X79005751Y-105018446D01*
X78914885Y-105200931D01*
X78859096Y-105397007D01*
X78851869Y-105474999D01*
X78505500Y-105474999D01*
X78505500Y-104725326D01*
X78504126Y-104718421D01*
X78490966Y-104652261D01*
X78490966Y-104652260D01*
X78435601Y-104569399D01*
X78352740Y-104514034D01*
X78352739Y-104514033D01*
X78352738Y-104514033D01*
X78279675Y-104499500D01*
X78279674Y-104499500D01*
X76530326Y-104499500D01*
X76530325Y-104499500D01*
X76457261Y-104514033D01*
X76374399Y-104569399D01*
X76319033Y-104652261D01*
X76304500Y-104725325D01*
X76304500Y-106474675D01*
X68039154Y-106474675D01*
X68061410Y-106456410D01*
X68192685Y-106296450D01*
X68290232Y-106113954D01*
X68350300Y-105915934D01*
X68370583Y-105710000D01*
X68350300Y-105504066D01*
X68290232Y-105306046D01*
X68192685Y-105123550D01*
X68106429Y-105018446D01*
X68061410Y-104963589D01*
X67963952Y-104883609D01*
X67901450Y-104832315D01*
X67810202Y-104783541D01*
X67718956Y-104734769D01*
X67718955Y-104734768D01*
X67718954Y-104734768D01*
X67602690Y-104699500D01*
X67520932Y-104674699D01*
X67315000Y-104654417D01*
X67109067Y-104674699D01*
X66911043Y-104734769D01*
X66728551Y-104832314D01*
X66568589Y-104963589D01*
X66437314Y-105123551D01*
X66339769Y-105306043D01*
X66279699Y-105504067D01*
X66259417Y-105709999D01*
X65805583Y-105709999D01*
X65785300Y-105504066D01*
X65725232Y-105306046D01*
X65627685Y-105123550D01*
X65541429Y-105018446D01*
X65496410Y-104963589D01*
X65398952Y-104883609D01*
X65336450Y-104832315D01*
X65245202Y-104783541D01*
X65153956Y-104734769D01*
X65153955Y-104734768D01*
X65153954Y-104734768D01*
X65037690Y-104699500D01*
X64955932Y-104674699D01*
X64750000Y-104654417D01*
X64544067Y-104674699D01*
X64346043Y-104734769D01*
X64163551Y-104832314D01*
X64003589Y-104963589D01*
X63872314Y-105123551D01*
X63774769Y-105306043D01*
X63714699Y-105504067D01*
X63694417Y-105709999D01*
X53130583Y-105709999D01*
X53110300Y-105504066D01*
X53050232Y-105306046D01*
X52952685Y-105123550D01*
X52866429Y-105018446D01*
X52821410Y-104963589D01*
X52723952Y-104883609D01*
X52661450Y-104832315D01*
X52570202Y-104783541D01*
X52478956Y-104734769D01*
X52478955Y-104734768D01*
X52478954Y-104734768D01*
X52362690Y-104699500D01*
X52280932Y-104674699D01*
X52075000Y-104654417D01*
X51869067Y-104674699D01*
X51671043Y-104734769D01*
X51488551Y-104832314D01*
X51328589Y-104963589D01*
X51197314Y-105123551D01*
X51099769Y-105306043D01*
X51039699Y-105504067D01*
X51019417Y-105710000D01*
X50565583Y-105710000D01*
X50545300Y-105504066D01*
X50485232Y-105306046D01*
X50387685Y-105123550D01*
X50301429Y-105018446D01*
X50256410Y-104963589D01*
X50158952Y-104883609D01*
X50096450Y-104832315D01*
X50005202Y-104783541D01*
X49913956Y-104734769D01*
X49913955Y-104734768D01*
X49913954Y-104734768D01*
X49797690Y-104699500D01*
X49715932Y-104674699D01*
X49510000Y-104654417D01*
X49304067Y-104674699D01*
X49106043Y-104734769D01*
X48923551Y-104832314D01*
X48763589Y-104963589D01*
X48632314Y-105123551D01*
X48534769Y-105306043D01*
X48474699Y-105504067D01*
X48454417Y-105710000D01*
X36100500Y-105710000D01*
X36100500Y-104925326D01*
X36099126Y-104918421D01*
X36085966Y-104852261D01*
X36085966Y-104852260D01*
X36030601Y-104769399D01*
X35947740Y-104714034D01*
X35947739Y-104714033D01*
X35947738Y-104714033D01*
X35874675Y-104699500D01*
X35874674Y-104699500D01*
X34125326Y-104699500D01*
X34125325Y-104699500D01*
X34052261Y-104714033D01*
X33969399Y-104769399D01*
X33914033Y-104852261D01*
X33899500Y-104925325D01*
X33899500Y-106674675D01*
X33133312Y-106674675D01*
X33276392Y-106544241D01*
X33399248Y-106381553D01*
X33490114Y-106199068D01*
X33545903Y-106002992D01*
X33553130Y-105925000D01*
X32585000Y-105925000D01*
X32335000Y-105925000D01*
X31366870Y-105925000D01*
X28000500Y-105925000D01*
X28000500Y-105674999D01*
X31366869Y-105674999D01*
X31366870Y-105675000D01*
X32335000Y-105675000D01*
X32335000Y-104704312D01*
X32584999Y-104704312D01*
X32585000Y-104704313D01*
X32585000Y-105675000D01*
X33553130Y-105675000D01*
X33553130Y-105674999D01*
X33545903Y-105597007D01*
X33490114Y-105400931D01*
X33399248Y-105218446D01*
X33276392Y-105055758D01*
X33125740Y-104918421D01*
X32952411Y-104811100D01*
X32762320Y-104737459D01*
X32584999Y-104704312D01*
X32335000Y-104704312D01*
X32157679Y-104737459D01*
X31967588Y-104811100D01*
X31794259Y-104918421D01*
X31643607Y-105055758D01*
X31520751Y-105218446D01*
X31429885Y-105400931D01*
X31374096Y-105597007D01*
X31366869Y-105674999D01*
X28000500Y-105674999D01*
X28000500Y-103375000D01*
X38366870Y-103375000D01*
X38374096Y-103452992D01*
X38429885Y-103649068D01*
X38520751Y-103831553D01*
X38643607Y-103994241D01*
X38794259Y-104131578D01*
X38967588Y-104238899D01*
X39157679Y-104312540D01*
X39335000Y-104345687D01*
X39335000Y-103375000D01*
X39585000Y-103375000D01*
X39585000Y-104345687D01*
X39762320Y-104312540D01*
X39952411Y-104238899D01*
X40125740Y-104131578D01*
X40133312Y-104124675D01*
X40899500Y-104124675D01*
X40914033Y-104197738D01*
X40914033Y-104197739D01*
X40914034Y-104197740D01*
X40969399Y-104280601D01*
X41052260Y-104335966D01*
X41088793Y-104343233D01*
X41125325Y-104350500D01*
X41125326Y-104350500D01*
X42874674Y-104350500D01*
X42874675Y-104350500D01*
X42899029Y-104345655D01*
X42947740Y-104335966D01*
X43030601Y-104280601D01*
X43085966Y-104197740D01*
X43100500Y-104124674D01*
X43100500Y-103170000D01*
X48454417Y-103170000D01*
X48474699Y-103375932D01*
X48498075Y-103452992D01*
X48534768Y-103573954D01*
X48632315Y-103756450D01*
X48683609Y-103818952D01*
X48763589Y-103916410D01*
X48843569Y-103982047D01*
X48923550Y-104047685D01*
X49106046Y-104145232D01*
X49304066Y-104205300D01*
X49510000Y-104225583D01*
X49715934Y-104205300D01*
X49913954Y-104145232D01*
X50096450Y-104047685D01*
X50256410Y-103916410D01*
X50387685Y-103756450D01*
X50485232Y-103573954D01*
X50545300Y-103375934D01*
X50565583Y-103170000D01*
X51019417Y-103170000D01*
X51039699Y-103375932D01*
X51063075Y-103452992D01*
X51099768Y-103573954D01*
X51197315Y-103756450D01*
X51248609Y-103818952D01*
X51328589Y-103916410D01*
X51408569Y-103982047D01*
X51488550Y-104047685D01*
X51671046Y-104145232D01*
X51869066Y-104205300D01*
X52075000Y-104225583D01*
X52280934Y-104205300D01*
X52478954Y-104145232D01*
X52661450Y-104047685D01*
X52821410Y-103916410D01*
X52952685Y-103756450D01*
X53050232Y-103573954D01*
X53110300Y-103375934D01*
X53130583Y-103170000D01*
X63694417Y-103170000D01*
X63714699Y-103375932D01*
X63738075Y-103452992D01*
X63774768Y-103573954D01*
X63872315Y-103756450D01*
X63923609Y-103818952D01*
X64003589Y-103916410D01*
X64083569Y-103982047D01*
X64163550Y-104047685D01*
X64346046Y-104145232D01*
X64544066Y-104205300D01*
X64750000Y-104225583D01*
X64955934Y-104205300D01*
X65153954Y-104145232D01*
X65336450Y-104047685D01*
X65496410Y-103916410D01*
X65627685Y-103756450D01*
X65725232Y-103573954D01*
X65785300Y-103375934D01*
X65805583Y-103170000D01*
X66259417Y-103170000D01*
X66279699Y-103375932D01*
X66303075Y-103452992D01*
X66339768Y-103573954D01*
X66437315Y-103756450D01*
X66488609Y-103818952D01*
X66568589Y-103916410D01*
X66648569Y-103982047D01*
X66728550Y-104047685D01*
X66911046Y-104145232D01*
X67109066Y-104205300D01*
X67315000Y-104225583D01*
X67520934Y-104205300D01*
X67718954Y-104145232D01*
X67901450Y-104047685D01*
X68061410Y-103916410D01*
X68095661Y-103874675D01*
X83139500Y-103874675D01*
X83154033Y-103947738D01*
X83154033Y-103947739D01*
X83154034Y-103947740D01*
X83209399Y-104030601D01*
X83292260Y-104085966D01*
X83328793Y-104093233D01*
X83365325Y-104100500D01*
X83365326Y-104100500D01*
X85114674Y-104100500D01*
X85114675Y-104100500D01*
X85139029Y-104095655D01*
X85187740Y-104085966D01*
X85270601Y-104030601D01*
X85325966Y-103947740D01*
X85340500Y-103874674D01*
X85340500Y-103125000D01*
X85686870Y-103125000D01*
X85694096Y-103202992D01*
X85749885Y-103399068D01*
X85840751Y-103581553D01*
X85963607Y-103744241D01*
X86114259Y-103881578D01*
X86287588Y-103988899D01*
X86477679Y-104062540D01*
X86655000Y-104095687D01*
X86655000Y-103125000D01*
X86905000Y-103125000D01*
X86905000Y-104095687D01*
X87082320Y-104062540D01*
X87272411Y-103988899D01*
X87445740Y-103881578D01*
X87596392Y-103744241D01*
X87719248Y-103581553D01*
X87810114Y-103399068D01*
X87865903Y-103202992D01*
X87873130Y-103125000D01*
X86905000Y-103125000D01*
X86655000Y-103125000D01*
X85686870Y-103125000D01*
X85340500Y-103125000D01*
X85340500Y-102874999D01*
X85686869Y-102874999D01*
X85686870Y-102875000D01*
X86655000Y-102875000D01*
X86655000Y-101904313D01*
X86905000Y-101904313D01*
X86905000Y-102875000D01*
X87873130Y-102875000D01*
X87873130Y-102874999D01*
X87865903Y-102797007D01*
X87810114Y-102600931D01*
X87719248Y-102418446D01*
X87596392Y-102255758D01*
X87445740Y-102118421D01*
X87272411Y-102011100D01*
X87082320Y-101937459D01*
X86905000Y-101904313D01*
X86655000Y-101904313D01*
X86655000Y-101904312D01*
X86477679Y-101937459D01*
X86287588Y-102011100D01*
X86114259Y-102118421D01*
X85963607Y-102255758D01*
X85840751Y-102418446D01*
X85749885Y-102600931D01*
X85694096Y-102797007D01*
X85686869Y-102874999D01*
X85340500Y-102874999D01*
X85340500Y-102125326D01*
X85339126Y-102118421D01*
X85325966Y-102052261D01*
X85325966Y-102052260D01*
X85270601Y-101969399D01*
X85187740Y-101914034D01*
X85187739Y-101914033D01*
X85187738Y-101914033D01*
X85114675Y-101899500D01*
X85114674Y-101899500D01*
X83365326Y-101899500D01*
X83365325Y-101899500D01*
X83292261Y-101914033D01*
X83209399Y-101969399D01*
X83154033Y-102052261D01*
X83139500Y-102125325D01*
X83139500Y-103874675D01*
X68095661Y-103874675D01*
X68192685Y-103756450D01*
X68290232Y-103573954D01*
X68350300Y-103375934D01*
X68370583Y-103170000D01*
X68350300Y-102964066D01*
X68290232Y-102766046D01*
X68192685Y-102583550D01*
X68127047Y-102503570D01*
X68061410Y-102423589D01*
X67913569Y-102302261D01*
X67901450Y-102292315D01*
X67718954Y-102194768D01*
X67617633Y-102164033D01*
X67520932Y-102134699D01*
X67337497Y-102116632D01*
X67315000Y-102114417D01*
X67314999Y-102114417D01*
X67109067Y-102134699D01*
X66911043Y-102194769D01*
X66728551Y-102292314D01*
X66568589Y-102423589D01*
X66437314Y-102583551D01*
X66339769Y-102766043D01*
X66279699Y-102964067D01*
X66259417Y-103170000D01*
X65805583Y-103170000D01*
X65785300Y-102964066D01*
X65725232Y-102766046D01*
X65627685Y-102583550D01*
X65562047Y-102503570D01*
X65496410Y-102423589D01*
X65348569Y-102302261D01*
X65336450Y-102292315D01*
X65153954Y-102194768D01*
X65052633Y-102164033D01*
X64955932Y-102134699D01*
X64772497Y-102116632D01*
X64750000Y-102114417D01*
X64749999Y-102114417D01*
X64544067Y-102134699D01*
X64346043Y-102194769D01*
X64163551Y-102292314D01*
X64003589Y-102423589D01*
X63872314Y-102583551D01*
X63774769Y-102766043D01*
X63714699Y-102964067D01*
X63694417Y-103170000D01*
X53130583Y-103170000D01*
X53110300Y-102964066D01*
X53050232Y-102766046D01*
X52952685Y-102583550D01*
X52887047Y-102503570D01*
X52821410Y-102423589D01*
X52673569Y-102302261D01*
X52661450Y-102292315D01*
X52478954Y-102194768D01*
X52377633Y-102164033D01*
X52280932Y-102134699D01*
X52097497Y-102116632D01*
X52075000Y-102114417D01*
X52074999Y-102114417D01*
X51869067Y-102134699D01*
X51671043Y-102194769D01*
X51488551Y-102292314D01*
X51328589Y-102423589D01*
X51197314Y-102583551D01*
X51099769Y-102766043D01*
X51039699Y-102964067D01*
X51019417Y-103170000D01*
X50565583Y-103170000D01*
X50545300Y-102964066D01*
X50485232Y-102766046D01*
X50387685Y-102583550D01*
X50322047Y-102503570D01*
X50256410Y-102423589D01*
X50108569Y-102302261D01*
X50096450Y-102292315D01*
X49913954Y-102194768D01*
X49812633Y-102164033D01*
X49715932Y-102134699D01*
X49532497Y-102116632D01*
X49510000Y-102114417D01*
X49509999Y-102114417D01*
X49304067Y-102134699D01*
X49106043Y-102194769D01*
X48923551Y-102292314D01*
X48763589Y-102423589D01*
X48632314Y-102583551D01*
X48534769Y-102766043D01*
X48474699Y-102964067D01*
X48454417Y-103170000D01*
X43100500Y-103170000D01*
X43100500Y-102375326D01*
X43099126Y-102368421D01*
X43085966Y-102302261D01*
X43085966Y-102302260D01*
X43030601Y-102219399D01*
X42947740Y-102164034D01*
X42947739Y-102164033D01*
X42947738Y-102164033D01*
X42874675Y-102149500D01*
X42874674Y-102149500D01*
X41125326Y-102149500D01*
X41125325Y-102149500D01*
X41052261Y-102164033D01*
X40969399Y-102219399D01*
X40914033Y-102302261D01*
X40899500Y-102375325D01*
X40899500Y-104124675D01*
X40133312Y-104124675D01*
X40276392Y-103994241D01*
X40399248Y-103831553D01*
X40490114Y-103649068D01*
X40545903Y-103452992D01*
X40553130Y-103375000D01*
X39585000Y-103375000D01*
X39335000Y-103375000D01*
X38366870Y-103375000D01*
X28000500Y-103375000D01*
X28000500Y-103124999D01*
X38366869Y-103124999D01*
X38366870Y-103125000D01*
X39335000Y-103125000D01*
X39335000Y-102154313D01*
X39585000Y-102154313D01*
X39585000Y-103125000D01*
X40553130Y-103125000D01*
X40553130Y-103124999D01*
X40545903Y-103047007D01*
X40490114Y-102850931D01*
X40399248Y-102668446D01*
X40276392Y-102505758D01*
X40125740Y-102368421D01*
X39952411Y-102261100D01*
X39762320Y-102187459D01*
X39585000Y-102154313D01*
X39335000Y-102154313D01*
X39335000Y-102154312D01*
X39157679Y-102187459D01*
X38967588Y-102261100D01*
X38794259Y-102368421D01*
X38643607Y-102505758D01*
X38520751Y-102668446D01*
X38429885Y-102850931D01*
X38374096Y-103047007D01*
X38366869Y-103124999D01*
X28000500Y-103124999D01*
X28000500Y-100629999D01*
X48454417Y-100629999D01*
X48474699Y-100835932D01*
X48474700Y-100835934D01*
X48534768Y-101033954D01*
X48632315Y-101216450D01*
X48683608Y-101278952D01*
X48763589Y-101376410D01*
X48843569Y-101442047D01*
X48923550Y-101507685D01*
X49106046Y-101605232D01*
X49304066Y-101665300D01*
X49510000Y-101685583D01*
X49715934Y-101665300D01*
X49913954Y-101605232D01*
X50096450Y-101507685D01*
X50256410Y-101376410D01*
X50387685Y-101216450D01*
X50485232Y-101033954D01*
X50545300Y-100835934D01*
X50565583Y-100630000D01*
X50565583Y-100629999D01*
X51019417Y-100629999D01*
X51039699Y-100835932D01*
X51039700Y-100835934D01*
X51099768Y-101033954D01*
X51197315Y-101216450D01*
X51248608Y-101278952D01*
X51328589Y-101376410D01*
X51408569Y-101442047D01*
X51488550Y-101507685D01*
X51671046Y-101605232D01*
X51869066Y-101665300D01*
X52075000Y-101685583D01*
X52280934Y-101665300D01*
X52478954Y-101605232D01*
X52661450Y-101507685D01*
X52821410Y-101376410D01*
X52952685Y-101216450D01*
X53050232Y-101033954D01*
X53110300Y-100835934D01*
X53130583Y-100630000D01*
X53130583Y-100629999D01*
X63694417Y-100629999D01*
X63714699Y-100835932D01*
X63714700Y-100835934D01*
X63774768Y-101033954D01*
X63872315Y-101216450D01*
X63923608Y-101278952D01*
X64003589Y-101376410D01*
X64083569Y-101442047D01*
X64163550Y-101507685D01*
X64346046Y-101605232D01*
X64544066Y-101665300D01*
X64750000Y-101685583D01*
X64955934Y-101665300D01*
X65153954Y-101605232D01*
X65336450Y-101507685D01*
X65496410Y-101376410D01*
X65627685Y-101216450D01*
X65725232Y-101033954D01*
X65785300Y-100835934D01*
X65805583Y-100630000D01*
X65805583Y-100629999D01*
X66259417Y-100629999D01*
X66279699Y-100835932D01*
X66279700Y-100835934D01*
X66339768Y-101033954D01*
X66437315Y-101216450D01*
X66488608Y-101278952D01*
X66568589Y-101376410D01*
X66648569Y-101442047D01*
X66728550Y-101507685D01*
X66911046Y-101605232D01*
X67109066Y-101665300D01*
X67315000Y-101685583D01*
X67520934Y-101665300D01*
X67718954Y-101605232D01*
X67901450Y-101507685D01*
X68061410Y-101376410D01*
X68062834Y-101374675D01*
X76139500Y-101374675D01*
X76154033Y-101447738D01*
X76154033Y-101447739D01*
X76154034Y-101447740D01*
X76209399Y-101530601D01*
X76292260Y-101585966D01*
X76328793Y-101593233D01*
X76365325Y-101600500D01*
X76365326Y-101600500D01*
X78114674Y-101600500D01*
X78114675Y-101600500D01*
X78139029Y-101595655D01*
X78187740Y-101585966D01*
X78270601Y-101530601D01*
X78325966Y-101447740D01*
X78340500Y-101374674D01*
X78340500Y-100625000D01*
X78686870Y-100625000D01*
X78694096Y-100702992D01*
X78749885Y-100899068D01*
X78840751Y-101081553D01*
X78963607Y-101244241D01*
X79114259Y-101381578D01*
X79287588Y-101488899D01*
X79477679Y-101562540D01*
X79655000Y-101595687D01*
X79655000Y-100625000D01*
X79905000Y-100625000D01*
X79905000Y-101595687D01*
X80082320Y-101562540D01*
X80272411Y-101488899D01*
X80445740Y-101381578D01*
X80596392Y-101244241D01*
X80719248Y-101081553D01*
X80810114Y-100899068D01*
X80865903Y-100702992D01*
X80873130Y-100625000D01*
X79905000Y-100625000D01*
X79655000Y-100625000D01*
X78686870Y-100625000D01*
X78340500Y-100625000D01*
X78340500Y-100374999D01*
X78686869Y-100374999D01*
X78686870Y-100375000D01*
X79655000Y-100375000D01*
X79655000Y-99404312D01*
X79904999Y-99404312D01*
X79905000Y-99404313D01*
X79905000Y-100375000D01*
X80873130Y-100375000D01*
X80873130Y-100374999D01*
X80865903Y-100297007D01*
X80810114Y-100100931D01*
X80719248Y-99918446D01*
X80596392Y-99755758D01*
X80445740Y-99618421D01*
X80272411Y-99511100D01*
X80082320Y-99437459D01*
X79904999Y-99404312D01*
X79655000Y-99404312D01*
X79477679Y-99437459D01*
X79287588Y-99511100D01*
X79114259Y-99618421D01*
X78963607Y-99755758D01*
X78840751Y-99918446D01*
X78749885Y-100100931D01*
X78694096Y-100297007D01*
X78686869Y-100374999D01*
X78340500Y-100374999D01*
X78340500Y-99625326D01*
X78339126Y-99618421D01*
X78325966Y-99552261D01*
X78325966Y-99552260D01*
X78270601Y-99469399D01*
X78187740Y-99414034D01*
X78187739Y-99414033D01*
X78187738Y-99414033D01*
X78114675Y-99399500D01*
X78114674Y-99399500D01*
X76365326Y-99399500D01*
X76365325Y-99399500D01*
X76292261Y-99414033D01*
X76209399Y-99469399D01*
X76154033Y-99552261D01*
X76139500Y-99625325D01*
X76139500Y-101374675D01*
X68062834Y-101374675D01*
X68192685Y-101216450D01*
X68290232Y-101033954D01*
X68350300Y-100835934D01*
X68370583Y-100630000D01*
X68350300Y-100424066D01*
X68290232Y-100226046D01*
X68192685Y-100043550D01*
X68127047Y-99963569D01*
X68061410Y-99883589D01*
X67905645Y-99755758D01*
X67901450Y-99752315D01*
X67718954Y-99654768D01*
X67599133Y-99618421D01*
X67520932Y-99594699D01*
X67315000Y-99574417D01*
X67109067Y-99594699D01*
X66911043Y-99654769D01*
X66728551Y-99752314D01*
X66568589Y-99883589D01*
X66437314Y-100043551D01*
X66339769Y-100226043D01*
X66279699Y-100424067D01*
X66259417Y-100629999D01*
X65805583Y-100629999D01*
X65785300Y-100424066D01*
X65725232Y-100226046D01*
X65627685Y-100043550D01*
X65562047Y-99963569D01*
X65496410Y-99883589D01*
X65340645Y-99755758D01*
X65336450Y-99752315D01*
X65153954Y-99654768D01*
X65034133Y-99618421D01*
X64955932Y-99594699D01*
X64750000Y-99574417D01*
X64544067Y-99594699D01*
X64346043Y-99654769D01*
X64163551Y-99752314D01*
X64003589Y-99883589D01*
X63872314Y-100043551D01*
X63774769Y-100226043D01*
X63714699Y-100424067D01*
X63694417Y-100629999D01*
X53130583Y-100629999D01*
X53110300Y-100424066D01*
X53050232Y-100226046D01*
X52952685Y-100043550D01*
X52887047Y-99963569D01*
X52821410Y-99883589D01*
X52665645Y-99755758D01*
X52661450Y-99752315D01*
X52478954Y-99654768D01*
X52359133Y-99618421D01*
X52280932Y-99594699D01*
X52075000Y-99574417D01*
X51869067Y-99594699D01*
X51671043Y-99654769D01*
X51488551Y-99752314D01*
X51328589Y-99883589D01*
X51197314Y-100043551D01*
X51099769Y-100226043D01*
X51039699Y-100424067D01*
X51019417Y-100629999D01*
X50565583Y-100629999D01*
X50545300Y-100424066D01*
X50485232Y-100226046D01*
X50387685Y-100043550D01*
X50322047Y-99963569D01*
X50256410Y-99883589D01*
X50100645Y-99755758D01*
X50096450Y-99752315D01*
X49913954Y-99654768D01*
X49794133Y-99618421D01*
X49715932Y-99594699D01*
X49510000Y-99574417D01*
X49304067Y-99594699D01*
X49106043Y-99654769D01*
X48923551Y-99752314D01*
X48763589Y-99883589D01*
X48632314Y-100043551D01*
X48534769Y-100226043D01*
X48474699Y-100424067D01*
X48454417Y-100629999D01*
X28000500Y-100629999D01*
X28000500Y-98125000D01*
X38366870Y-98125000D01*
X38374096Y-98202992D01*
X38429885Y-98399068D01*
X38520751Y-98581553D01*
X38643607Y-98744241D01*
X38794259Y-98881578D01*
X38967588Y-98988899D01*
X39157679Y-99062540D01*
X39335000Y-99095687D01*
X39335000Y-98125000D01*
X39585000Y-98125000D01*
X39585000Y-99095687D01*
X39762320Y-99062540D01*
X39952411Y-98988899D01*
X40125740Y-98881578D01*
X40133312Y-98874675D01*
X40899500Y-98874675D01*
X40914033Y-98947738D01*
X40914033Y-98947739D01*
X40914034Y-98947740D01*
X40969399Y-99030601D01*
X41052260Y-99085966D01*
X41088792Y-99093232D01*
X41125325Y-99100500D01*
X41125326Y-99100500D01*
X42874674Y-99100500D01*
X42874675Y-99100500D01*
X42899029Y-99095655D01*
X42947740Y-99085966D01*
X43030601Y-99030601D01*
X43085966Y-98947740D01*
X43100500Y-98874674D01*
X43100500Y-98090000D01*
X48454417Y-98090000D01*
X48474699Y-98295932D01*
X48474700Y-98295934D01*
X48534768Y-98493954D01*
X48632315Y-98676450D01*
X48683609Y-98738952D01*
X48763589Y-98836410D01*
X48843569Y-98902047D01*
X48923550Y-98967685D01*
X49106046Y-99065232D01*
X49304066Y-99125300D01*
X49510000Y-99145583D01*
X49715934Y-99125300D01*
X49913954Y-99065232D01*
X50096450Y-98967685D01*
X50256410Y-98836410D01*
X50387685Y-98676450D01*
X50485232Y-98493954D01*
X50545300Y-98295934D01*
X50565583Y-98090000D01*
X51019417Y-98090000D01*
X51039699Y-98295932D01*
X51039700Y-98295934D01*
X51099768Y-98493954D01*
X51197315Y-98676450D01*
X51248609Y-98738952D01*
X51328589Y-98836410D01*
X51408569Y-98902047D01*
X51488550Y-98967685D01*
X51671046Y-99065232D01*
X51869066Y-99125300D01*
X52075000Y-99145583D01*
X52280934Y-99125300D01*
X52478954Y-99065232D01*
X52661450Y-98967685D01*
X52821410Y-98836410D01*
X52952685Y-98676450D01*
X53050232Y-98493954D01*
X53110300Y-98295934D01*
X53130583Y-98090000D01*
X63694417Y-98090000D01*
X63714699Y-98295932D01*
X63714700Y-98295934D01*
X63774768Y-98493954D01*
X63872315Y-98676450D01*
X63923609Y-98738952D01*
X64003589Y-98836410D01*
X64083569Y-98902047D01*
X64163550Y-98967685D01*
X64346046Y-99065232D01*
X64544066Y-99125300D01*
X64750000Y-99145583D01*
X64955934Y-99125300D01*
X65153954Y-99065232D01*
X65336450Y-98967685D01*
X65496410Y-98836410D01*
X65627685Y-98676450D01*
X65725232Y-98493954D01*
X65785300Y-98295934D01*
X65805583Y-98090000D01*
X66259417Y-98090000D01*
X66279699Y-98295932D01*
X66279700Y-98295934D01*
X66339768Y-98493954D01*
X66437315Y-98676450D01*
X66488609Y-98738952D01*
X66568589Y-98836410D01*
X66648569Y-98902047D01*
X66728550Y-98967685D01*
X66911046Y-99065232D01*
X67109066Y-99125300D01*
X67315000Y-99145583D01*
X67520934Y-99125300D01*
X67718954Y-99065232D01*
X67901450Y-98967685D01*
X68014784Y-98874675D01*
X83139500Y-98874675D01*
X83154033Y-98947738D01*
X83154033Y-98947739D01*
X83154034Y-98947740D01*
X83209399Y-99030601D01*
X83292260Y-99085966D01*
X83328792Y-99093232D01*
X83365325Y-99100500D01*
X83365326Y-99100500D01*
X85114674Y-99100500D01*
X85114675Y-99100500D01*
X85139029Y-99095655D01*
X85187740Y-99085966D01*
X85270601Y-99030601D01*
X85325966Y-98947740D01*
X85340500Y-98874674D01*
X85340500Y-98125000D01*
X85686870Y-98125000D01*
X85694096Y-98202992D01*
X85749885Y-98399068D01*
X85840751Y-98581553D01*
X85963607Y-98744241D01*
X86114259Y-98881578D01*
X86287588Y-98988899D01*
X86477679Y-99062540D01*
X86655000Y-99095687D01*
X86655000Y-98125000D01*
X86905000Y-98125000D01*
X86905000Y-99095687D01*
X87082320Y-99062540D01*
X87272411Y-98988899D01*
X87445740Y-98881578D01*
X87596392Y-98744241D01*
X87719248Y-98581553D01*
X87810114Y-98399068D01*
X87865903Y-98202992D01*
X87873130Y-98125000D01*
X86905000Y-98125000D01*
X86655000Y-98125000D01*
X85686870Y-98125000D01*
X85340500Y-98125000D01*
X85340500Y-97874999D01*
X85686869Y-97874999D01*
X85686870Y-97875000D01*
X86655000Y-97875000D01*
X86655000Y-96904313D01*
X86905000Y-96904313D01*
X86905000Y-97875000D01*
X87873130Y-97875000D01*
X87873130Y-97874999D01*
X87865903Y-97797007D01*
X87810114Y-97600931D01*
X87719248Y-97418446D01*
X87596392Y-97255758D01*
X87445740Y-97118421D01*
X87272411Y-97011100D01*
X87082320Y-96937459D01*
X86905000Y-96904313D01*
X86655000Y-96904313D01*
X86655000Y-96904312D01*
X86477679Y-96937459D01*
X86287588Y-97011100D01*
X86114259Y-97118421D01*
X85963607Y-97255758D01*
X85840751Y-97418446D01*
X85749885Y-97600931D01*
X85694096Y-97797007D01*
X85686869Y-97874999D01*
X85340500Y-97874999D01*
X85340500Y-97125326D01*
X85339126Y-97118421D01*
X85325966Y-97052261D01*
X85325966Y-97052260D01*
X85270601Y-96969399D01*
X85187740Y-96914034D01*
X85187739Y-96914033D01*
X85187738Y-96914033D01*
X85114675Y-96899500D01*
X85114674Y-96899500D01*
X83365326Y-96899500D01*
X83365325Y-96899500D01*
X83292261Y-96914033D01*
X83209399Y-96969399D01*
X83154033Y-97052261D01*
X83139500Y-97125325D01*
X83139500Y-98874675D01*
X68014784Y-98874675D01*
X68061410Y-98836410D01*
X68192685Y-98676450D01*
X68290232Y-98493954D01*
X68350300Y-98295934D01*
X68370583Y-98090000D01*
X68350300Y-97884066D01*
X68290232Y-97686046D01*
X68192685Y-97503550D01*
X68122842Y-97418446D01*
X68061410Y-97343589D01*
X67954386Y-97255758D01*
X67901450Y-97212315D01*
X67810201Y-97163541D01*
X67718956Y-97114769D01*
X67718955Y-97114768D01*
X67718954Y-97114768D01*
X67619944Y-97084734D01*
X67520932Y-97054699D01*
X67315000Y-97034417D01*
X67109067Y-97054699D01*
X66911043Y-97114769D01*
X66728551Y-97212314D01*
X66568589Y-97343589D01*
X66437314Y-97503551D01*
X66339769Y-97686043D01*
X66279699Y-97884067D01*
X66259417Y-98090000D01*
X65805583Y-98090000D01*
X65785300Y-97884066D01*
X65725232Y-97686046D01*
X65627685Y-97503550D01*
X65557842Y-97418446D01*
X65496410Y-97343589D01*
X65389386Y-97255758D01*
X65336450Y-97212315D01*
X65245201Y-97163541D01*
X65153956Y-97114769D01*
X65153955Y-97114768D01*
X65153954Y-97114768D01*
X65054944Y-97084734D01*
X64955932Y-97054699D01*
X64750000Y-97034417D01*
X64544067Y-97054699D01*
X64346043Y-97114769D01*
X64163551Y-97212314D01*
X64003589Y-97343589D01*
X63872314Y-97503551D01*
X63774769Y-97686043D01*
X63714699Y-97884067D01*
X63694417Y-98090000D01*
X53130583Y-98090000D01*
X53110300Y-97884066D01*
X53050232Y-97686046D01*
X52952685Y-97503550D01*
X52882842Y-97418446D01*
X52821410Y-97343589D01*
X52714386Y-97255758D01*
X52661450Y-97212315D01*
X52570201Y-97163541D01*
X52478956Y-97114769D01*
X52478955Y-97114768D01*
X52478954Y-97114768D01*
X52379944Y-97084734D01*
X52280932Y-97054699D01*
X52075000Y-97034417D01*
X51869067Y-97054699D01*
X51671043Y-97114769D01*
X51488551Y-97212314D01*
X51328589Y-97343589D01*
X51197314Y-97503551D01*
X51099769Y-97686043D01*
X51039699Y-97884067D01*
X51019417Y-98090000D01*
X50565583Y-98090000D01*
X50545300Y-97884066D01*
X50485232Y-97686046D01*
X50387685Y-97503550D01*
X50317842Y-97418446D01*
X50256410Y-97343589D01*
X50149386Y-97255758D01*
X50096450Y-97212315D01*
X50005201Y-97163541D01*
X49913956Y-97114769D01*
X49913955Y-97114768D01*
X49913954Y-97114768D01*
X49814944Y-97084734D01*
X49715932Y-97054699D01*
X49510000Y-97034417D01*
X49304067Y-97054699D01*
X49106043Y-97114769D01*
X48923551Y-97212314D01*
X48763589Y-97343589D01*
X48632314Y-97503551D01*
X48534769Y-97686043D01*
X48474699Y-97884067D01*
X48454417Y-98090000D01*
X43100500Y-98090000D01*
X43100500Y-97125326D01*
X43099126Y-97118421D01*
X43085966Y-97052261D01*
X43085966Y-97052260D01*
X43030601Y-96969399D01*
X42947740Y-96914034D01*
X42947739Y-96914033D01*
X42947738Y-96914033D01*
X42874675Y-96899500D01*
X42874674Y-96899500D01*
X41125326Y-96899500D01*
X41125325Y-96899500D01*
X41052261Y-96914033D01*
X40969399Y-96969399D01*
X40914033Y-97052261D01*
X40899500Y-97125325D01*
X40899500Y-98874675D01*
X40133312Y-98874675D01*
X40276392Y-98744241D01*
X40399248Y-98581553D01*
X40490114Y-98399068D01*
X40545903Y-98202992D01*
X40553130Y-98125000D01*
X39585000Y-98125000D01*
X39335000Y-98125000D01*
X38366870Y-98125000D01*
X28000500Y-98125000D01*
X28000500Y-97874999D01*
X38366869Y-97874999D01*
X38366870Y-97875000D01*
X39335000Y-97875000D01*
X39335000Y-96904312D01*
X39584999Y-96904312D01*
X39585000Y-96904313D01*
X39585000Y-97875000D01*
X40553130Y-97875000D01*
X40553130Y-97874999D01*
X40545903Y-97797007D01*
X40490114Y-97600931D01*
X40399248Y-97418446D01*
X40276392Y-97255758D01*
X40125740Y-97118421D01*
X39952411Y-97011100D01*
X39762320Y-96937459D01*
X39584999Y-96904312D01*
X39335000Y-96904312D01*
X39157679Y-96937459D01*
X38967588Y-97011100D01*
X38794259Y-97118421D01*
X38643607Y-97255758D01*
X38520751Y-97418446D01*
X38429885Y-97600931D01*
X38374096Y-97797007D01*
X38366869Y-97874999D01*
X28000500Y-97874999D01*
X28000500Y-95625000D01*
X31366870Y-95625000D01*
X31374096Y-95702992D01*
X31429885Y-95899068D01*
X31520751Y-96081553D01*
X31643607Y-96244241D01*
X31794259Y-96381578D01*
X31967588Y-96488899D01*
X32157679Y-96562540D01*
X32335000Y-96595687D01*
X32335000Y-95625000D01*
X32585000Y-95625000D01*
X32585000Y-96595687D01*
X32762320Y-96562540D01*
X32952411Y-96488899D01*
X33125740Y-96381578D01*
X33133312Y-96374675D01*
X33899500Y-96374675D01*
X33914033Y-96447738D01*
X33914033Y-96447739D01*
X33914034Y-96447740D01*
X33969399Y-96530601D01*
X34052260Y-96585966D01*
X34088793Y-96593233D01*
X34125325Y-96600500D01*
X34125326Y-96600500D01*
X35874674Y-96600500D01*
X35874675Y-96600500D01*
X35899029Y-96595655D01*
X35947740Y-96585966D01*
X36030601Y-96530601D01*
X36085966Y-96447740D01*
X36100500Y-96374674D01*
X36100500Y-95549999D01*
X48454417Y-95549999D01*
X48474699Y-95755932D01*
X48474700Y-95755934D01*
X48534768Y-95953954D01*
X48632315Y-96136450D01*
X48683608Y-96198952D01*
X48763589Y-96296410D01*
X48843570Y-96362047D01*
X48923550Y-96427685D01*
X49106046Y-96525232D01*
X49304066Y-96585300D01*
X49510000Y-96605583D01*
X49715934Y-96585300D01*
X49913954Y-96525232D01*
X50096450Y-96427685D01*
X50256410Y-96296410D01*
X50387685Y-96136450D01*
X50485232Y-95953954D01*
X50545300Y-95755934D01*
X50565583Y-95550000D01*
X50565583Y-95549999D01*
X51019417Y-95549999D01*
X51039699Y-95755932D01*
X51039700Y-95755934D01*
X51099768Y-95953954D01*
X51197315Y-96136450D01*
X51248608Y-96198952D01*
X51328589Y-96296410D01*
X51408570Y-96362047D01*
X51488550Y-96427685D01*
X51671046Y-96525232D01*
X51869066Y-96585300D01*
X52075000Y-96605583D01*
X52280934Y-96585300D01*
X52478954Y-96525232D01*
X52661450Y-96427685D01*
X52821410Y-96296410D01*
X52952685Y-96136450D01*
X53050232Y-95953954D01*
X53110300Y-95755934D01*
X53130583Y-95550000D01*
X53130583Y-95549999D01*
X63694417Y-95549999D01*
X63714699Y-95755932D01*
X63714700Y-95755934D01*
X63774768Y-95953954D01*
X63872315Y-96136450D01*
X63923608Y-96198952D01*
X64003589Y-96296410D01*
X64083570Y-96362047D01*
X64163550Y-96427685D01*
X64346046Y-96525232D01*
X64544066Y-96585300D01*
X64750000Y-96605583D01*
X64955934Y-96585300D01*
X65153954Y-96525232D01*
X65336450Y-96427685D01*
X65496410Y-96296410D01*
X65627685Y-96136450D01*
X65725232Y-95953954D01*
X65785300Y-95755934D01*
X65805583Y-95550000D01*
X65805583Y-95549999D01*
X66259417Y-95549999D01*
X66279699Y-95755932D01*
X66279700Y-95755934D01*
X66339768Y-95953954D01*
X66437315Y-96136450D01*
X66488608Y-96198952D01*
X66568589Y-96296410D01*
X66648570Y-96362047D01*
X66728550Y-96427685D01*
X66911046Y-96525232D01*
X67109066Y-96585300D01*
X67315000Y-96605583D01*
X67520934Y-96585300D01*
X67718954Y-96525232D01*
X67901450Y-96427685D01*
X68061410Y-96296410D01*
X68192685Y-96136450D01*
X68290232Y-95953954D01*
X68350300Y-95755934D01*
X68370583Y-95550000D01*
X68350300Y-95344066D01*
X68290232Y-95146046D01*
X68192685Y-94963550D01*
X68127047Y-94883569D01*
X68061410Y-94803589D01*
X67963952Y-94723608D01*
X67901450Y-94672315D01*
X67718954Y-94574768D01*
X67619944Y-94544734D01*
X67520932Y-94514699D01*
X67315000Y-94494417D01*
X67109067Y-94514699D01*
X66911043Y-94574769D01*
X66728551Y-94672314D01*
X66568589Y-94803589D01*
X66437314Y-94963551D01*
X66339769Y-95146043D01*
X66279699Y-95344067D01*
X66259417Y-95549999D01*
X65805583Y-95549999D01*
X65785300Y-95344066D01*
X65725232Y-95146046D01*
X65627685Y-94963550D01*
X65562047Y-94883569D01*
X65496410Y-94803589D01*
X65398952Y-94723608D01*
X65336450Y-94672315D01*
X65153954Y-94574768D01*
X65054944Y-94544734D01*
X64955932Y-94514699D01*
X64750000Y-94494417D01*
X64544067Y-94514699D01*
X64346043Y-94574769D01*
X64163551Y-94672314D01*
X64003589Y-94803589D01*
X63872314Y-94963551D01*
X63774769Y-95146043D01*
X63714699Y-95344067D01*
X63694417Y-95549999D01*
X53130583Y-95549999D01*
X53110300Y-95344066D01*
X53050232Y-95146046D01*
X52952685Y-94963550D01*
X52887047Y-94883569D01*
X52821410Y-94803589D01*
X52723952Y-94723608D01*
X52661450Y-94672315D01*
X52478954Y-94574768D01*
X52379944Y-94544734D01*
X52280932Y-94514699D01*
X52075000Y-94494417D01*
X51869067Y-94514699D01*
X51671043Y-94574769D01*
X51488551Y-94672314D01*
X51328589Y-94803589D01*
X51197314Y-94963551D01*
X51099769Y-95146043D01*
X51039699Y-95344067D01*
X51019417Y-95549999D01*
X50565583Y-95549999D01*
X50545300Y-95344066D01*
X50485232Y-95146046D01*
X50387685Y-94963550D01*
X50322047Y-94883569D01*
X50256410Y-94803589D01*
X50158952Y-94723608D01*
X50096450Y-94672315D01*
X49913954Y-94574768D01*
X49814944Y-94544734D01*
X49715932Y-94514699D01*
X49510000Y-94494417D01*
X49304067Y-94514699D01*
X49106043Y-94574769D01*
X48923551Y-94672314D01*
X48763589Y-94803589D01*
X48632314Y-94963551D01*
X48534769Y-95146043D01*
X48474699Y-95344067D01*
X48454417Y-95549999D01*
X36100500Y-95549999D01*
X36100500Y-94625326D01*
X36099126Y-94618421D01*
X36085966Y-94552261D01*
X36085966Y-94552260D01*
X36030601Y-94469399D01*
X35947740Y-94414034D01*
X35947739Y-94414033D01*
X35947738Y-94414033D01*
X35874675Y-94399500D01*
X35874674Y-94399500D01*
X34125326Y-94399500D01*
X34125325Y-94399500D01*
X34052261Y-94414033D01*
X33969399Y-94469399D01*
X33914033Y-94552261D01*
X33899500Y-94625325D01*
X33899500Y-96374675D01*
X33133312Y-96374675D01*
X33276392Y-96244241D01*
X33399248Y-96081553D01*
X33490114Y-95899068D01*
X33545903Y-95702992D01*
X33553130Y-95625000D01*
X32585000Y-95625000D01*
X32335000Y-95625000D01*
X31366870Y-95625000D01*
X28000500Y-95625000D01*
X28000500Y-95374999D01*
X31366869Y-95374999D01*
X31366870Y-95375000D01*
X32335000Y-95375000D01*
X32335000Y-94404312D01*
X32584999Y-94404312D01*
X32585000Y-94404313D01*
X32585000Y-95375000D01*
X33553130Y-95375000D01*
X33553130Y-95374999D01*
X33545903Y-95297007D01*
X33490114Y-95100931D01*
X33399248Y-94918446D01*
X33276392Y-94755758D01*
X33125740Y-94618421D01*
X32952411Y-94511100D01*
X32762320Y-94437459D01*
X32584999Y-94404312D01*
X32335000Y-94404312D01*
X32157679Y-94437459D01*
X31967588Y-94511100D01*
X31794259Y-94618421D01*
X31643607Y-94755758D01*
X31520751Y-94918446D01*
X31429885Y-95100931D01*
X31374096Y-95297007D01*
X31366869Y-95374999D01*
X28000500Y-95374999D01*
X28000500Y-93010000D01*
X48454417Y-93010000D01*
X48474699Y-93215932D01*
X48474700Y-93215934D01*
X48534768Y-93413954D01*
X48632315Y-93596450D01*
X48683608Y-93658952D01*
X48763589Y-93756410D01*
X48843569Y-93822047D01*
X48923550Y-93887685D01*
X49106046Y-93985232D01*
X49304066Y-94045300D01*
X49510000Y-94065583D01*
X49715934Y-94045300D01*
X49913954Y-93985232D01*
X50096450Y-93887685D01*
X50256410Y-93756410D01*
X50387685Y-93596450D01*
X50485232Y-93413954D01*
X50545300Y-93215934D01*
X50565583Y-93010000D01*
X51019417Y-93010000D01*
X51039699Y-93215932D01*
X51039700Y-93215934D01*
X51099768Y-93413954D01*
X51197315Y-93596450D01*
X51248608Y-93658952D01*
X51328589Y-93756410D01*
X51408569Y-93822047D01*
X51488550Y-93887685D01*
X51671046Y-93985232D01*
X51869066Y-94045300D01*
X52075000Y-94065583D01*
X52280934Y-94045300D01*
X52478954Y-93985232D01*
X52661450Y-93887685D01*
X52821410Y-93756410D01*
X52952685Y-93596450D01*
X53050232Y-93413954D01*
X53110300Y-93215934D01*
X53130583Y-93010000D01*
X53130583Y-93009999D01*
X63694417Y-93009999D01*
X63714699Y-93215932D01*
X63714700Y-93215934D01*
X63774768Y-93413954D01*
X63872315Y-93596450D01*
X63923608Y-93658952D01*
X64003589Y-93756410D01*
X64083569Y-93822047D01*
X64163550Y-93887685D01*
X64346046Y-93985232D01*
X64544066Y-94045300D01*
X64750000Y-94065583D01*
X64955934Y-94045300D01*
X65153954Y-93985232D01*
X65336450Y-93887685D01*
X65496410Y-93756410D01*
X65627685Y-93596450D01*
X65725232Y-93413954D01*
X65785300Y-93215934D01*
X65805583Y-93010000D01*
X65805583Y-93009999D01*
X66259417Y-93009999D01*
X66279699Y-93215932D01*
X66279700Y-93215934D01*
X66339768Y-93413954D01*
X66437315Y-93596450D01*
X66488608Y-93658952D01*
X66568589Y-93756410D01*
X66648569Y-93822047D01*
X66728550Y-93887685D01*
X66911046Y-93985232D01*
X67109066Y-94045300D01*
X67315000Y-94065583D01*
X67520934Y-94045300D01*
X67718954Y-93985232D01*
X67901450Y-93887685D01*
X68061410Y-93756410D01*
X68192685Y-93596450D01*
X68290232Y-93413954D01*
X68350300Y-93215934D01*
X68370583Y-93010000D01*
X68350300Y-92804066D01*
X68290232Y-92606046D01*
X68192685Y-92423550D01*
X68127047Y-92343569D01*
X68061410Y-92263589D01*
X67963952Y-92183608D01*
X67901450Y-92132315D01*
X67718954Y-92034768D01*
X67619943Y-92004733D01*
X67520932Y-91974699D01*
X67315000Y-91954417D01*
X67109067Y-91974699D01*
X66911043Y-92034769D01*
X66728551Y-92132314D01*
X66568589Y-92263589D01*
X66437314Y-92423551D01*
X66339769Y-92606043D01*
X66279699Y-92804067D01*
X66259417Y-93009999D01*
X65805583Y-93009999D01*
X65785300Y-92804066D01*
X65725232Y-92606046D01*
X65627685Y-92423550D01*
X65562047Y-92343569D01*
X65496410Y-92263589D01*
X65398952Y-92183608D01*
X65336450Y-92132315D01*
X65153954Y-92034768D01*
X65054943Y-92004733D01*
X64955932Y-91974699D01*
X64750000Y-91954417D01*
X64544067Y-91974699D01*
X64346043Y-92034769D01*
X64163551Y-92132314D01*
X64003589Y-92263589D01*
X63872314Y-92423551D01*
X63774769Y-92606043D01*
X63714699Y-92804067D01*
X63694417Y-93009999D01*
X53130583Y-93009999D01*
X53110300Y-92804066D01*
X53050232Y-92606046D01*
X52952685Y-92423550D01*
X52887047Y-92343569D01*
X52821410Y-92263589D01*
X52723952Y-92183608D01*
X52661450Y-92132315D01*
X52478954Y-92034768D01*
X52379943Y-92004733D01*
X52280932Y-91974699D01*
X52075000Y-91954417D01*
X51869067Y-91974699D01*
X51671043Y-92034769D01*
X51488551Y-92132314D01*
X51328589Y-92263589D01*
X51197314Y-92423551D01*
X51099769Y-92606043D01*
X51039699Y-92804067D01*
X51019417Y-93010000D01*
X50565583Y-93010000D01*
X50545300Y-92804066D01*
X50485232Y-92606046D01*
X50387685Y-92423550D01*
X50322047Y-92343569D01*
X50256410Y-92263589D01*
X50158952Y-92183608D01*
X50096450Y-92132315D01*
X49913954Y-92034768D01*
X49814943Y-92004733D01*
X49715932Y-91974699D01*
X49510000Y-91954417D01*
X49304067Y-91974699D01*
X49106043Y-92034769D01*
X48923551Y-92132314D01*
X48763589Y-92263589D01*
X48632314Y-92423551D01*
X48534769Y-92606043D01*
X48474699Y-92804067D01*
X48454417Y-93010000D01*
X28000500Y-93010000D01*
X28000500Y-90725000D01*
X31366870Y-90725000D01*
X31374096Y-90802992D01*
X31429885Y-90999068D01*
X31520751Y-91181553D01*
X31643607Y-91344241D01*
X31794259Y-91481578D01*
X31967588Y-91588899D01*
X32157679Y-91662540D01*
X32335000Y-91695687D01*
X32335000Y-90725000D01*
X32585000Y-90725000D01*
X32585000Y-91695687D01*
X32762320Y-91662540D01*
X32952411Y-91588899D01*
X33125740Y-91481578D01*
X33133312Y-91474675D01*
X33899500Y-91474675D01*
X33914033Y-91547738D01*
X33914033Y-91547739D01*
X33914034Y-91547740D01*
X33969399Y-91630601D01*
X34052260Y-91685966D01*
X34088792Y-91693232D01*
X34125325Y-91700500D01*
X34125326Y-91700500D01*
X35874674Y-91700500D01*
X35874675Y-91700500D01*
X35899029Y-91695655D01*
X35947740Y-91685966D01*
X36030601Y-91630601D01*
X36085966Y-91547740D01*
X36095655Y-91499029D01*
X36100500Y-91474675D01*
X36100500Y-90470000D01*
X48454417Y-90470000D01*
X48474699Y-90675932D01*
X48474700Y-90675934D01*
X48534768Y-90873954D01*
X48632315Y-91056450D01*
X48683609Y-91118952D01*
X48763589Y-91216410D01*
X48797502Y-91244241D01*
X48923550Y-91347685D01*
X49106046Y-91445232D01*
X49304066Y-91505300D01*
X49510000Y-91525583D01*
X49715934Y-91505300D01*
X49913954Y-91445232D01*
X50096450Y-91347685D01*
X50256410Y-91216410D01*
X50387685Y-91056450D01*
X50485232Y-90873954D01*
X50545300Y-90675934D01*
X50565583Y-90470000D01*
X51019417Y-90470000D01*
X51039699Y-90675932D01*
X51039700Y-90675934D01*
X51099768Y-90873954D01*
X51197315Y-91056450D01*
X51248609Y-91118952D01*
X51328589Y-91216410D01*
X51362502Y-91244241D01*
X51488550Y-91347685D01*
X51671046Y-91445232D01*
X51869066Y-91505300D01*
X52075000Y-91525583D01*
X52280934Y-91505300D01*
X52478954Y-91445232D01*
X52661450Y-91347685D01*
X52821410Y-91216410D01*
X52952685Y-91056450D01*
X53050232Y-90873954D01*
X53110300Y-90675934D01*
X53130583Y-90470000D01*
X63694417Y-90470000D01*
X63714699Y-90675932D01*
X63714700Y-90675934D01*
X63774768Y-90873954D01*
X63872315Y-91056450D01*
X63923609Y-91118952D01*
X64003589Y-91216410D01*
X64037502Y-91244241D01*
X64163550Y-91347685D01*
X64346046Y-91445232D01*
X64544066Y-91505300D01*
X64750000Y-91525583D01*
X64955934Y-91505300D01*
X65153954Y-91445232D01*
X65336450Y-91347685D01*
X65496410Y-91216410D01*
X65627685Y-91056450D01*
X65725232Y-90873954D01*
X65785300Y-90675934D01*
X65805583Y-90470000D01*
X66259417Y-90470000D01*
X66279699Y-90675932D01*
X66279700Y-90675934D01*
X66339768Y-90873954D01*
X66437315Y-91056450D01*
X66488609Y-91118952D01*
X66568589Y-91216410D01*
X66602502Y-91244241D01*
X66728550Y-91347685D01*
X66911046Y-91445232D01*
X67109066Y-91505300D01*
X67315000Y-91525583D01*
X67520934Y-91505300D01*
X67718954Y-91445232D01*
X67850956Y-91374675D01*
X75139500Y-91374675D01*
X75154033Y-91447738D01*
X75154033Y-91447739D01*
X75154034Y-91447740D01*
X75209399Y-91530601D01*
X75292260Y-91585966D01*
X75328792Y-91593232D01*
X75365325Y-91600500D01*
X75365326Y-91600500D01*
X77114674Y-91600500D01*
X77114675Y-91600500D01*
X77139029Y-91595655D01*
X77187740Y-91585966D01*
X77270601Y-91530601D01*
X77325966Y-91447740D01*
X77340500Y-91374674D01*
X77340500Y-90625000D01*
X77686870Y-90625000D01*
X77694096Y-90702992D01*
X77749885Y-90899068D01*
X77840751Y-91081553D01*
X77963607Y-91244241D01*
X78114259Y-91381578D01*
X78287588Y-91488899D01*
X78477679Y-91562540D01*
X78655000Y-91595687D01*
X78655000Y-90625000D01*
X78905000Y-90625000D01*
X78905000Y-91595687D01*
X79082320Y-91562540D01*
X79272411Y-91488899D01*
X79445740Y-91381578D01*
X79596392Y-91244241D01*
X79719248Y-91081553D01*
X79810114Y-90899068D01*
X79865903Y-90702992D01*
X79873130Y-90625000D01*
X78905000Y-90625000D01*
X78655000Y-90625000D01*
X77686870Y-90625000D01*
X77340500Y-90625000D01*
X77340500Y-90374999D01*
X77686869Y-90374999D01*
X77686870Y-90375000D01*
X78655000Y-90375000D01*
X78655000Y-89404312D01*
X78904999Y-89404312D01*
X78905000Y-89404313D01*
X78905000Y-90375000D01*
X79873130Y-90375000D01*
X79873130Y-90374999D01*
X79865903Y-90297007D01*
X79810114Y-90100931D01*
X79719248Y-89918446D01*
X79596392Y-89755758D01*
X79445740Y-89618421D01*
X79272411Y-89511100D01*
X79082320Y-89437459D01*
X78904999Y-89404312D01*
X78655000Y-89404312D01*
X78477679Y-89437459D01*
X78287588Y-89511100D01*
X78114259Y-89618421D01*
X77963607Y-89755758D01*
X77840751Y-89918446D01*
X77749885Y-90100931D01*
X77694096Y-90297007D01*
X77686869Y-90374999D01*
X77340500Y-90374999D01*
X77340500Y-89625326D01*
X77339126Y-89618421D01*
X77325966Y-89552261D01*
X77325966Y-89552260D01*
X77270601Y-89469399D01*
X77187740Y-89414034D01*
X77187739Y-89414033D01*
X77187738Y-89414033D01*
X77114675Y-89399500D01*
X77114674Y-89399500D01*
X75365326Y-89399500D01*
X75365325Y-89399500D01*
X75292261Y-89414033D01*
X75209399Y-89469399D01*
X75154033Y-89552261D01*
X75139500Y-89625325D01*
X75139500Y-91374675D01*
X67850956Y-91374675D01*
X67901450Y-91347685D01*
X68061410Y-91216410D01*
X68192685Y-91056450D01*
X68290232Y-90873954D01*
X68350300Y-90675934D01*
X68370583Y-90470000D01*
X68350300Y-90264066D01*
X68290232Y-90066046D01*
X68192685Y-89883550D01*
X68127047Y-89803570D01*
X68061410Y-89723589D01*
X67933260Y-89618421D01*
X67901450Y-89592315D01*
X67736811Y-89504313D01*
X67718956Y-89494769D01*
X67718955Y-89494768D01*
X67718954Y-89494768D01*
X67619944Y-89464734D01*
X67520932Y-89434699D01*
X67315000Y-89414417D01*
X67109067Y-89434699D01*
X66911043Y-89494769D01*
X66728551Y-89592314D01*
X66568589Y-89723589D01*
X66437314Y-89883551D01*
X66339769Y-90066043D01*
X66279699Y-90264067D01*
X66259417Y-90470000D01*
X65805583Y-90470000D01*
X65785300Y-90264066D01*
X65725232Y-90066046D01*
X65627685Y-89883550D01*
X65562047Y-89803570D01*
X65496410Y-89723589D01*
X65368260Y-89618421D01*
X65336450Y-89592315D01*
X65171811Y-89504313D01*
X65153956Y-89494769D01*
X65153955Y-89494768D01*
X65153954Y-89494768D01*
X65054944Y-89464734D01*
X64955932Y-89434699D01*
X64750000Y-89414417D01*
X64544067Y-89434699D01*
X64346043Y-89494769D01*
X64163551Y-89592314D01*
X64003589Y-89723589D01*
X63872314Y-89883551D01*
X63774769Y-90066043D01*
X63714699Y-90264067D01*
X63694417Y-90470000D01*
X53130583Y-90470000D01*
X53110300Y-90264066D01*
X53050232Y-90066046D01*
X52952685Y-89883550D01*
X52887047Y-89803570D01*
X52821410Y-89723589D01*
X52693260Y-89618421D01*
X52661450Y-89592315D01*
X52496811Y-89504313D01*
X52478956Y-89494769D01*
X52478955Y-89494768D01*
X52478954Y-89494768D01*
X52379944Y-89464734D01*
X52280932Y-89434699D01*
X52075000Y-89414417D01*
X51869067Y-89434699D01*
X51671043Y-89494769D01*
X51488551Y-89592314D01*
X51328589Y-89723589D01*
X51197314Y-89883551D01*
X51099769Y-90066043D01*
X51039699Y-90264067D01*
X51019417Y-90470000D01*
X50565583Y-90470000D01*
X50545300Y-90264066D01*
X50485232Y-90066046D01*
X50387685Y-89883550D01*
X50322047Y-89803570D01*
X50256410Y-89723589D01*
X50128260Y-89618421D01*
X50096450Y-89592315D01*
X49931811Y-89504313D01*
X49913956Y-89494769D01*
X49913955Y-89494768D01*
X49913954Y-89494768D01*
X49814944Y-89464734D01*
X49715932Y-89434699D01*
X49510000Y-89414417D01*
X49304067Y-89434699D01*
X49106043Y-89494769D01*
X48923551Y-89592314D01*
X48763589Y-89723589D01*
X48632314Y-89883551D01*
X48534769Y-90066043D01*
X48474699Y-90264067D01*
X48454417Y-90470000D01*
X36100500Y-90470000D01*
X36100500Y-89725325D01*
X36085966Y-89652261D01*
X36085966Y-89652260D01*
X36030601Y-89569399D01*
X35947740Y-89514034D01*
X35947739Y-89514033D01*
X35947738Y-89514033D01*
X35874675Y-89499500D01*
X35874674Y-89499500D01*
X34125326Y-89499500D01*
X34125325Y-89499500D01*
X34052261Y-89514033D01*
X33969399Y-89569399D01*
X33914033Y-89652261D01*
X33899500Y-89725325D01*
X33899500Y-91474675D01*
X33133312Y-91474675D01*
X33276392Y-91344241D01*
X33399248Y-91181553D01*
X33490114Y-90999068D01*
X33545903Y-90802992D01*
X33553130Y-90725000D01*
X32585000Y-90725000D01*
X32335000Y-90725000D01*
X31366870Y-90725000D01*
X28000500Y-90725000D01*
X28000500Y-90474999D01*
X31366869Y-90474999D01*
X31366870Y-90475000D01*
X32335000Y-90475000D01*
X32335000Y-89504312D01*
X32584999Y-89504312D01*
X32585000Y-89504313D01*
X32585000Y-90475000D01*
X33553130Y-90475000D01*
X33553130Y-90474999D01*
X33545903Y-90397007D01*
X33490114Y-90200931D01*
X33399248Y-90018446D01*
X33276392Y-89855758D01*
X33125740Y-89718421D01*
X32952411Y-89611100D01*
X32762320Y-89537459D01*
X32584999Y-89504312D01*
X32335000Y-89504312D01*
X32157679Y-89537459D01*
X31967588Y-89611100D01*
X31794259Y-89718421D01*
X31643607Y-89855758D01*
X31520751Y-90018446D01*
X31429885Y-90200931D01*
X31374096Y-90397007D01*
X31366869Y-90474999D01*
X28000500Y-90474999D01*
X28000500Y-88125000D01*
X38306870Y-88125000D01*
X38314096Y-88202992D01*
X38369885Y-88399068D01*
X38460751Y-88581553D01*
X38583607Y-88744241D01*
X38734259Y-88881578D01*
X38907588Y-88988899D01*
X39097679Y-89062540D01*
X39275000Y-89095687D01*
X39275000Y-88125000D01*
X39525000Y-88125000D01*
X39525000Y-89095687D01*
X39702320Y-89062540D01*
X39892411Y-88988899D01*
X40065740Y-88881578D01*
X40073312Y-88874675D01*
X40839500Y-88874675D01*
X40854033Y-88947738D01*
X40854033Y-88947739D01*
X40854034Y-88947740D01*
X40909399Y-89030601D01*
X40992260Y-89085966D01*
X41028793Y-89093233D01*
X41065325Y-89100500D01*
X41065326Y-89100500D01*
X42814674Y-89100500D01*
X42814675Y-89100500D01*
X42839029Y-89095655D01*
X42887740Y-89085966D01*
X42970601Y-89030601D01*
X43025966Y-88947740D01*
X43040500Y-88874674D01*
X43040500Y-87929999D01*
X48454417Y-87929999D01*
X48474699Y-88135932D01*
X48504734Y-88234944D01*
X48534768Y-88333954D01*
X48632315Y-88516450D01*
X48683609Y-88578952D01*
X48763589Y-88676410D01*
X48843569Y-88742047D01*
X48923550Y-88807685D01*
X49106046Y-88905232D01*
X49304066Y-88965300D01*
X49510000Y-88985583D01*
X49715934Y-88965300D01*
X49913954Y-88905232D01*
X50096450Y-88807685D01*
X50256410Y-88676410D01*
X50387685Y-88516450D01*
X50485232Y-88333954D01*
X50545300Y-88135934D01*
X50565583Y-87930000D01*
X50565583Y-87929999D01*
X51019417Y-87929999D01*
X51039699Y-88135932D01*
X51069734Y-88234944D01*
X51099768Y-88333954D01*
X51197315Y-88516450D01*
X51248609Y-88578952D01*
X51328589Y-88676410D01*
X51408569Y-88742047D01*
X51488550Y-88807685D01*
X51671046Y-88905232D01*
X51869066Y-88965300D01*
X52075000Y-88985583D01*
X52280934Y-88965300D01*
X52478954Y-88905232D01*
X52661450Y-88807685D01*
X52821410Y-88676410D01*
X52952685Y-88516450D01*
X53050232Y-88333954D01*
X53110300Y-88135934D01*
X53130583Y-87930000D01*
X53130583Y-87929999D01*
X63694417Y-87929999D01*
X63714699Y-88135932D01*
X63744734Y-88234944D01*
X63774768Y-88333954D01*
X63872315Y-88516450D01*
X63923609Y-88578952D01*
X64003589Y-88676410D01*
X64083569Y-88742047D01*
X64163550Y-88807685D01*
X64346046Y-88905232D01*
X64544066Y-88965300D01*
X64750000Y-88985583D01*
X64955934Y-88965300D01*
X65153954Y-88905232D01*
X65336450Y-88807685D01*
X65496410Y-88676410D01*
X65627685Y-88516450D01*
X65725232Y-88333954D01*
X65785300Y-88135934D01*
X65805583Y-87930000D01*
X65805583Y-87929999D01*
X66259417Y-87929999D01*
X66279699Y-88135932D01*
X66309734Y-88234944D01*
X66339768Y-88333954D01*
X66437315Y-88516450D01*
X66488609Y-88578952D01*
X66568589Y-88676410D01*
X66648569Y-88742047D01*
X66728550Y-88807685D01*
X66911046Y-88905232D01*
X67109066Y-88965300D01*
X67315000Y-88985583D01*
X67520934Y-88965300D01*
X67718954Y-88905232D01*
X67776122Y-88874675D01*
X82979500Y-88874675D01*
X82994033Y-88947738D01*
X82994033Y-88947739D01*
X82994034Y-88947740D01*
X83049399Y-89030601D01*
X83132260Y-89085966D01*
X83168793Y-89093233D01*
X83205325Y-89100500D01*
X83205326Y-89100500D01*
X84954674Y-89100500D01*
X84954675Y-89100500D01*
X84979029Y-89095655D01*
X85027740Y-89085966D01*
X85110601Y-89030601D01*
X85165966Y-88947740D01*
X85180500Y-88874674D01*
X85180500Y-88125000D01*
X85526870Y-88125000D01*
X85534096Y-88202992D01*
X85589885Y-88399068D01*
X85680751Y-88581553D01*
X85803607Y-88744241D01*
X85954259Y-88881578D01*
X86127588Y-88988899D01*
X86317679Y-89062540D01*
X86495000Y-89095687D01*
X86495000Y-88125000D01*
X86745000Y-88125000D01*
X86745000Y-89095687D01*
X86922320Y-89062540D01*
X87112411Y-88988899D01*
X87285740Y-88881578D01*
X87436392Y-88744241D01*
X87559248Y-88581553D01*
X87650114Y-88399068D01*
X87705903Y-88202992D01*
X87713130Y-88125000D01*
X86745000Y-88125000D01*
X86495000Y-88125000D01*
X85526870Y-88125000D01*
X85180500Y-88125000D01*
X85180500Y-87874999D01*
X85526869Y-87874999D01*
X85526870Y-87875000D01*
X86495000Y-87875000D01*
X86495000Y-86904312D01*
X86744999Y-86904312D01*
X86745000Y-86904313D01*
X86745000Y-87875000D01*
X87713130Y-87875000D01*
X87713130Y-87874999D01*
X87705903Y-87797007D01*
X87650114Y-87600931D01*
X87559248Y-87418446D01*
X87436392Y-87255758D01*
X87285740Y-87118421D01*
X87112411Y-87011100D01*
X86922320Y-86937459D01*
X86744999Y-86904312D01*
X86495000Y-86904312D01*
X86317679Y-86937459D01*
X86127588Y-87011100D01*
X85954259Y-87118421D01*
X85803607Y-87255758D01*
X85680751Y-87418446D01*
X85589885Y-87600931D01*
X85534096Y-87797007D01*
X85526869Y-87874999D01*
X85180500Y-87874999D01*
X85180500Y-87125326D01*
X85179126Y-87118421D01*
X85165966Y-87052261D01*
X85165966Y-87052260D01*
X85110601Y-86969399D01*
X85027740Y-86914034D01*
X85027739Y-86914033D01*
X85027738Y-86914033D01*
X84954675Y-86899500D01*
X84954674Y-86899500D01*
X83205326Y-86899500D01*
X83205325Y-86899500D01*
X83132261Y-86914033D01*
X83049399Y-86969399D01*
X82994033Y-87052261D01*
X82979500Y-87125325D01*
X82979500Y-88874675D01*
X67776122Y-88874675D01*
X67901450Y-88807685D01*
X68061410Y-88676410D01*
X68192685Y-88516450D01*
X68290232Y-88333954D01*
X68350300Y-88135934D01*
X68370583Y-87930000D01*
X68350300Y-87724066D01*
X68290232Y-87526046D01*
X68192685Y-87343550D01*
X68120636Y-87255758D01*
X68061410Y-87183589D01*
X67963952Y-87103608D01*
X67901450Y-87052315D01*
X67810201Y-87003541D01*
X67718956Y-86954769D01*
X67718955Y-86954768D01*
X67718954Y-86954768D01*
X67619943Y-86924733D01*
X67520932Y-86894699D01*
X67315000Y-86874417D01*
X67109067Y-86894699D01*
X66911043Y-86954769D01*
X66728551Y-87052314D01*
X66568589Y-87183589D01*
X66437314Y-87343551D01*
X66339769Y-87526043D01*
X66279699Y-87724067D01*
X66259417Y-87929999D01*
X65805583Y-87929999D01*
X65785300Y-87724066D01*
X65725232Y-87526046D01*
X65627685Y-87343550D01*
X65555636Y-87255758D01*
X65496410Y-87183589D01*
X65398952Y-87103608D01*
X65336450Y-87052315D01*
X65245201Y-87003541D01*
X65153956Y-86954769D01*
X65153955Y-86954768D01*
X65153954Y-86954768D01*
X65054943Y-86924733D01*
X64955932Y-86894699D01*
X64750000Y-86874417D01*
X64544067Y-86894699D01*
X64346043Y-86954769D01*
X64163551Y-87052314D01*
X64003589Y-87183589D01*
X63872314Y-87343551D01*
X63774769Y-87526043D01*
X63714699Y-87724067D01*
X63694417Y-87929999D01*
X53130583Y-87929999D01*
X53110300Y-87724066D01*
X53050232Y-87526046D01*
X52952685Y-87343550D01*
X52880636Y-87255758D01*
X52821410Y-87183589D01*
X52723952Y-87103608D01*
X52661450Y-87052315D01*
X52570201Y-87003541D01*
X52478956Y-86954769D01*
X52478955Y-86954768D01*
X52478954Y-86954768D01*
X52379943Y-86924733D01*
X52280932Y-86894699D01*
X52075000Y-86874417D01*
X51869067Y-86894699D01*
X51671043Y-86954769D01*
X51488551Y-87052314D01*
X51328589Y-87183589D01*
X51197314Y-87343551D01*
X51099769Y-87526043D01*
X51039699Y-87724067D01*
X51019417Y-87929999D01*
X50565583Y-87929999D01*
X50545300Y-87724066D01*
X50485232Y-87526046D01*
X50387685Y-87343550D01*
X50315636Y-87255758D01*
X50256410Y-87183589D01*
X50158952Y-87103608D01*
X50096450Y-87052315D01*
X50005201Y-87003541D01*
X49913956Y-86954769D01*
X49913955Y-86954768D01*
X49913954Y-86954768D01*
X49814943Y-86924733D01*
X49715932Y-86894699D01*
X49510000Y-86874417D01*
X49304067Y-86894699D01*
X49106043Y-86954769D01*
X48923551Y-87052314D01*
X48763589Y-87183589D01*
X48632314Y-87343551D01*
X48534769Y-87526043D01*
X48474699Y-87724067D01*
X48454417Y-87929999D01*
X43040500Y-87929999D01*
X43040500Y-87125326D01*
X43039126Y-87118421D01*
X43025966Y-87052261D01*
X43025966Y-87052260D01*
X42970601Y-86969399D01*
X42887740Y-86914034D01*
X42887739Y-86914033D01*
X42887738Y-86914033D01*
X42814675Y-86899500D01*
X42814674Y-86899500D01*
X41065326Y-86899500D01*
X41065325Y-86899500D01*
X40992261Y-86914033D01*
X40909399Y-86969399D01*
X40854033Y-87052261D01*
X40839500Y-87125325D01*
X40839500Y-88874675D01*
X40073312Y-88874675D01*
X40216392Y-88744241D01*
X40339248Y-88581553D01*
X40430114Y-88399068D01*
X40485903Y-88202992D01*
X40493130Y-88125000D01*
X39525000Y-88125000D01*
X39275000Y-88125000D01*
X38306870Y-88125000D01*
X28000500Y-88125000D01*
X28000500Y-87874999D01*
X38306869Y-87874999D01*
X38306870Y-87875000D01*
X39275000Y-87875000D01*
X39275000Y-86904312D01*
X39524999Y-86904312D01*
X39525000Y-86904313D01*
X39525000Y-87875000D01*
X40493130Y-87875000D01*
X40493130Y-87874999D01*
X40485903Y-87797007D01*
X40430114Y-87600931D01*
X40339248Y-87418446D01*
X40216392Y-87255758D01*
X40065740Y-87118421D01*
X39892411Y-87011100D01*
X39702320Y-86937459D01*
X39524999Y-86904312D01*
X39275000Y-86904312D01*
X39097679Y-86937459D01*
X38907588Y-87011100D01*
X38734259Y-87118421D01*
X38583607Y-87255758D01*
X38460751Y-87418446D01*
X38369885Y-87600931D01*
X38314096Y-87797007D01*
X38306869Y-87874999D01*
X28000500Y-87874999D01*
X28000500Y-85525000D01*
X31366870Y-85525000D01*
X31374096Y-85602992D01*
X31429885Y-85799068D01*
X31520751Y-85981553D01*
X31643607Y-86144241D01*
X31794259Y-86281578D01*
X31967588Y-86388899D01*
X32157679Y-86462540D01*
X32335000Y-86495687D01*
X32335000Y-85525000D01*
X32585000Y-85525000D01*
X32585000Y-86495687D01*
X32762320Y-86462540D01*
X32952411Y-86388899D01*
X33125740Y-86281578D01*
X33133312Y-86274675D01*
X33899500Y-86274675D01*
X33914033Y-86347738D01*
X33914033Y-86347739D01*
X33914034Y-86347740D01*
X33969399Y-86430601D01*
X34052260Y-86485966D01*
X34088792Y-86493232D01*
X34125325Y-86500500D01*
X34125326Y-86500500D01*
X35874674Y-86500500D01*
X35874675Y-86500500D01*
X35899029Y-86495655D01*
X35947740Y-86485966D01*
X36030601Y-86430601D01*
X36085966Y-86347740D01*
X36100500Y-86274674D01*
X36100500Y-85390000D01*
X48454417Y-85390000D01*
X48474699Y-85595932D01*
X48534769Y-85793956D01*
X48583541Y-85885202D01*
X48632315Y-85976450D01*
X48636503Y-85981553D01*
X48763589Y-86136410D01*
X48843570Y-86202047D01*
X48923550Y-86267685D01*
X49106046Y-86365232D01*
X49304066Y-86425300D01*
X49510000Y-86445583D01*
X49715934Y-86425300D01*
X49913954Y-86365232D01*
X50096450Y-86267685D01*
X50256410Y-86136410D01*
X50387685Y-85976450D01*
X50485232Y-85793954D01*
X50545300Y-85595934D01*
X50565583Y-85390000D01*
X51019417Y-85390000D01*
X51039699Y-85595932D01*
X51099769Y-85793956D01*
X51148541Y-85885202D01*
X51197315Y-85976450D01*
X51201503Y-85981553D01*
X51328589Y-86136410D01*
X51408570Y-86202047D01*
X51488550Y-86267685D01*
X51671046Y-86365232D01*
X51869066Y-86425300D01*
X52075000Y-86445583D01*
X52280934Y-86425300D01*
X52478954Y-86365232D01*
X52661450Y-86267685D01*
X52821410Y-86136410D01*
X52952685Y-85976450D01*
X53050232Y-85793954D01*
X53110300Y-85595934D01*
X53130583Y-85390000D01*
X63694417Y-85390000D01*
X63714699Y-85595932D01*
X63774769Y-85793956D01*
X63823541Y-85885202D01*
X63872315Y-85976450D01*
X63876503Y-85981553D01*
X64003589Y-86136410D01*
X64083570Y-86202047D01*
X64163550Y-86267685D01*
X64346046Y-86365232D01*
X64544066Y-86425300D01*
X64750000Y-86445583D01*
X64955934Y-86425300D01*
X65153954Y-86365232D01*
X65336450Y-86267685D01*
X65496410Y-86136410D01*
X65627685Y-85976450D01*
X65725232Y-85793954D01*
X65785300Y-85595934D01*
X65805583Y-85390000D01*
X66259417Y-85390000D01*
X66279699Y-85595932D01*
X66339769Y-85793956D01*
X66388541Y-85885202D01*
X66437315Y-85976450D01*
X66441503Y-85981553D01*
X66568589Y-86136410D01*
X66648570Y-86202047D01*
X66728550Y-86267685D01*
X66911046Y-86365232D01*
X67109066Y-86425300D01*
X67315000Y-86445583D01*
X67520934Y-86425300D01*
X67687824Y-86374675D01*
X75139500Y-86374675D01*
X75154033Y-86447738D01*
X75154033Y-86447739D01*
X75154034Y-86447740D01*
X75209399Y-86530601D01*
X75292260Y-86585966D01*
X75328793Y-86593233D01*
X75365325Y-86600500D01*
X75365326Y-86600500D01*
X77114674Y-86600500D01*
X77114675Y-86600500D01*
X77139029Y-86595655D01*
X77187740Y-86585966D01*
X77270601Y-86530601D01*
X77325966Y-86447740D01*
X77335655Y-86399029D01*
X77340500Y-86374675D01*
X77340500Y-85625000D01*
X77686870Y-85625000D01*
X77694096Y-85702992D01*
X77749885Y-85899068D01*
X77840751Y-86081553D01*
X77963607Y-86244241D01*
X78114259Y-86381578D01*
X78287588Y-86488899D01*
X78477679Y-86562540D01*
X78655000Y-86595687D01*
X78655000Y-85625000D01*
X78905000Y-85625000D01*
X78905000Y-86595687D01*
X79082320Y-86562540D01*
X79272411Y-86488899D01*
X79445740Y-86381578D01*
X79596392Y-86244241D01*
X79719248Y-86081553D01*
X79810114Y-85899068D01*
X79865903Y-85702992D01*
X79873130Y-85625000D01*
X78905000Y-85625000D01*
X78655000Y-85625000D01*
X77686870Y-85625000D01*
X77340500Y-85625000D01*
X77340500Y-85374999D01*
X77686869Y-85374999D01*
X77686870Y-85375000D01*
X78655000Y-85375000D01*
X78655000Y-84404312D01*
X78904999Y-84404312D01*
X78905000Y-84404313D01*
X78905000Y-85375000D01*
X79873130Y-85375000D01*
X79873130Y-85374999D01*
X79865903Y-85297007D01*
X79810114Y-85100931D01*
X79719248Y-84918446D01*
X79596392Y-84755758D01*
X79445740Y-84618421D01*
X79272411Y-84511100D01*
X79082320Y-84437459D01*
X78904999Y-84404312D01*
X78655000Y-84404312D01*
X78477679Y-84437459D01*
X78287588Y-84511100D01*
X78114259Y-84618421D01*
X77963607Y-84755758D01*
X77840751Y-84918446D01*
X77749885Y-85100931D01*
X77694096Y-85297007D01*
X77686869Y-85374999D01*
X77340500Y-85374999D01*
X77340500Y-84625325D01*
X77325966Y-84552261D01*
X77325966Y-84552260D01*
X77270601Y-84469399D01*
X77187740Y-84414034D01*
X77187739Y-84414033D01*
X77187738Y-84414033D01*
X77114675Y-84399500D01*
X77114674Y-84399500D01*
X75365326Y-84399500D01*
X75365325Y-84399500D01*
X75292261Y-84414033D01*
X75209399Y-84469399D01*
X75154033Y-84552261D01*
X75139500Y-84625325D01*
X75139500Y-86374675D01*
X67687824Y-86374675D01*
X67718954Y-86365232D01*
X67901450Y-86267685D01*
X68061410Y-86136410D01*
X68192685Y-85976450D01*
X68290232Y-85793954D01*
X68350300Y-85595934D01*
X68370583Y-85390000D01*
X68350300Y-85184066D01*
X68290232Y-84986046D01*
X68192685Y-84803550D01*
X68127047Y-84723570D01*
X68061410Y-84643589D01*
X67963952Y-84563609D01*
X67901450Y-84512315D01*
X67718954Y-84414768D01*
X67569391Y-84369399D01*
X67520932Y-84354699D01*
X67315000Y-84334417D01*
X67109067Y-84354699D01*
X66911043Y-84414769D01*
X66728551Y-84512314D01*
X66568589Y-84643589D01*
X66437314Y-84803551D01*
X66339769Y-84986043D01*
X66279699Y-85184067D01*
X66259417Y-85390000D01*
X65805583Y-85390000D01*
X65785300Y-85184066D01*
X65725232Y-84986046D01*
X65627685Y-84803550D01*
X65562047Y-84723570D01*
X65496410Y-84643589D01*
X65398952Y-84563609D01*
X65336450Y-84512315D01*
X65153954Y-84414768D01*
X65004391Y-84369399D01*
X64955932Y-84354699D01*
X64750000Y-84334417D01*
X64544067Y-84354699D01*
X64346043Y-84414769D01*
X64163551Y-84512314D01*
X64003589Y-84643589D01*
X63872314Y-84803551D01*
X63774769Y-84986043D01*
X63714699Y-85184067D01*
X63694417Y-85390000D01*
X53130583Y-85390000D01*
X53110300Y-85184066D01*
X53050232Y-84986046D01*
X52952685Y-84803550D01*
X52887047Y-84723570D01*
X52821410Y-84643589D01*
X52723952Y-84563609D01*
X52661450Y-84512315D01*
X52478954Y-84414768D01*
X52329391Y-84369399D01*
X52280932Y-84354699D01*
X52075000Y-84334417D01*
X51869067Y-84354699D01*
X51671043Y-84414769D01*
X51488551Y-84512314D01*
X51328589Y-84643589D01*
X51197314Y-84803551D01*
X51099769Y-84986043D01*
X51039699Y-85184067D01*
X51019417Y-85390000D01*
X50565583Y-85390000D01*
X50545300Y-85184066D01*
X50485232Y-84986046D01*
X50387685Y-84803550D01*
X50322047Y-84723570D01*
X50256410Y-84643589D01*
X50158952Y-84563609D01*
X50096450Y-84512315D01*
X49913954Y-84414768D01*
X49764391Y-84369399D01*
X49715932Y-84354699D01*
X49510000Y-84334417D01*
X49304067Y-84354699D01*
X49106043Y-84414769D01*
X48923551Y-84512314D01*
X48763589Y-84643589D01*
X48632314Y-84803551D01*
X48534769Y-84986043D01*
X48474699Y-85184067D01*
X48454417Y-85390000D01*
X36100500Y-85390000D01*
X36100500Y-84525326D01*
X36099126Y-84518421D01*
X36085966Y-84452261D01*
X36085966Y-84452260D01*
X36030601Y-84369399D01*
X35947740Y-84314034D01*
X35947739Y-84314033D01*
X35947738Y-84314033D01*
X35874675Y-84299500D01*
X35874674Y-84299500D01*
X34125326Y-84299500D01*
X34125325Y-84299500D01*
X34052261Y-84314033D01*
X33969399Y-84369399D01*
X33914033Y-84452261D01*
X33899500Y-84525325D01*
X33899500Y-86274675D01*
X33133312Y-86274675D01*
X33276392Y-86144241D01*
X33399248Y-85981553D01*
X33490114Y-85799068D01*
X33545903Y-85602992D01*
X33553130Y-85525000D01*
X32585000Y-85525000D01*
X32335000Y-85525000D01*
X31366870Y-85525000D01*
X28000500Y-85525000D01*
X28000500Y-85274999D01*
X31366869Y-85274999D01*
X31366870Y-85275000D01*
X32335000Y-85275000D01*
X32335000Y-84304312D01*
X32584999Y-84304312D01*
X32585000Y-84304313D01*
X32585000Y-85275000D01*
X33553130Y-85275000D01*
X33553130Y-85274999D01*
X33545903Y-85197007D01*
X33490114Y-85000931D01*
X33399248Y-84818446D01*
X33276392Y-84655758D01*
X33125740Y-84518421D01*
X32952411Y-84411100D01*
X32762320Y-84337459D01*
X32584999Y-84304312D01*
X32335000Y-84304312D01*
X32157679Y-84337459D01*
X31967588Y-84411100D01*
X31794259Y-84518421D01*
X31643607Y-84655758D01*
X31520751Y-84818446D01*
X31429885Y-85000931D01*
X31374096Y-85197007D01*
X31366869Y-85274999D01*
X28000500Y-85274999D01*
X28000500Y-83674675D01*
X48459500Y-83674675D01*
X48474033Y-83747738D01*
X48474033Y-83747739D01*
X48474034Y-83747740D01*
X48529399Y-83830601D01*
X48612260Y-83885966D01*
X48648793Y-83893233D01*
X48685325Y-83900500D01*
X48685326Y-83900500D01*
X50334674Y-83900500D01*
X50334675Y-83900500D01*
X50359029Y-83895655D01*
X50407740Y-83885966D01*
X50490601Y-83830601D01*
X50545966Y-83747740D01*
X50560500Y-83674675D01*
X51024500Y-83674675D01*
X51039033Y-83747738D01*
X51039033Y-83747739D01*
X51039034Y-83747740D01*
X51094399Y-83830601D01*
X51177260Y-83885966D01*
X51213793Y-83893233D01*
X51250325Y-83900500D01*
X51250326Y-83900500D01*
X52899674Y-83900500D01*
X52899675Y-83900500D01*
X52924029Y-83895655D01*
X52972740Y-83885966D01*
X53055601Y-83830601D01*
X53110966Y-83747740D01*
X53125500Y-83674674D01*
X53125500Y-82849999D01*
X63694417Y-82849999D01*
X63714699Y-83055932D01*
X63714700Y-83055934D01*
X63774768Y-83253954D01*
X63872315Y-83436450D01*
X63923608Y-83498952D01*
X64003589Y-83596410D01*
X64083569Y-83662047D01*
X64163550Y-83727685D01*
X64346046Y-83825232D01*
X64544066Y-83885300D01*
X64750000Y-83905583D01*
X64955934Y-83885300D01*
X65153954Y-83825232D01*
X65336450Y-83727685D01*
X65496410Y-83596410D01*
X65627685Y-83436450D01*
X65725232Y-83253954D01*
X65785300Y-83055934D01*
X65805583Y-82850000D01*
X65805583Y-82849999D01*
X66259417Y-82849999D01*
X66279699Y-83055932D01*
X66279700Y-83055934D01*
X66339768Y-83253954D01*
X66437315Y-83436450D01*
X66488608Y-83498952D01*
X66568589Y-83596410D01*
X66648569Y-83662047D01*
X66728550Y-83727685D01*
X66911046Y-83825232D01*
X67109066Y-83885300D01*
X67315000Y-83905583D01*
X67520934Y-83885300D01*
X67555960Y-83874675D01*
X83139500Y-83874675D01*
X83154033Y-83947738D01*
X83154033Y-83947739D01*
X83154034Y-83947740D01*
X83209399Y-84030601D01*
X83292260Y-84085966D01*
X83328792Y-84093232D01*
X83365325Y-84100500D01*
X83365326Y-84100500D01*
X85114674Y-84100500D01*
X85114675Y-84100500D01*
X85139029Y-84095655D01*
X85187740Y-84085966D01*
X85270601Y-84030601D01*
X85325966Y-83947740D01*
X85340500Y-83874674D01*
X85340500Y-83125000D01*
X85686870Y-83125000D01*
X85694096Y-83202992D01*
X85749885Y-83399068D01*
X85840751Y-83581553D01*
X85963607Y-83744241D01*
X86114259Y-83881578D01*
X86287588Y-83988899D01*
X86477679Y-84062540D01*
X86655000Y-84095687D01*
X86655000Y-83125000D01*
X86905000Y-83125000D01*
X86905000Y-84095687D01*
X87082320Y-84062540D01*
X87272411Y-83988899D01*
X87445740Y-83881578D01*
X87596392Y-83744241D01*
X87719248Y-83581553D01*
X87810114Y-83399068D01*
X87865903Y-83202992D01*
X87873130Y-83125000D01*
X86905000Y-83125000D01*
X86655000Y-83125000D01*
X85686870Y-83125000D01*
X85340500Y-83125000D01*
X85340500Y-82874999D01*
X85686869Y-82874999D01*
X85686870Y-82875000D01*
X86655000Y-82875000D01*
X86655000Y-81904313D01*
X86905000Y-81904313D01*
X86905000Y-82875000D01*
X87873130Y-82875000D01*
X87873130Y-82874999D01*
X87865903Y-82797007D01*
X87810114Y-82600931D01*
X87719248Y-82418446D01*
X87596392Y-82255758D01*
X87445740Y-82118421D01*
X87272411Y-82011100D01*
X87082320Y-81937459D01*
X86905000Y-81904313D01*
X86655000Y-81904313D01*
X86655000Y-81904312D01*
X86477679Y-81937459D01*
X86287588Y-82011100D01*
X86114259Y-82118421D01*
X85963607Y-82255758D01*
X85840751Y-82418446D01*
X85749885Y-82600931D01*
X85694096Y-82797007D01*
X85686869Y-82874999D01*
X85340500Y-82874999D01*
X85340500Y-82125326D01*
X85339126Y-82118421D01*
X85325966Y-82052261D01*
X85325966Y-82052260D01*
X85270601Y-81969399D01*
X85187740Y-81914034D01*
X85187739Y-81914033D01*
X85187738Y-81914033D01*
X85114675Y-81899500D01*
X85114674Y-81899500D01*
X83365326Y-81899500D01*
X83365325Y-81899500D01*
X83292261Y-81914033D01*
X83209399Y-81969399D01*
X83154033Y-82052261D01*
X83139500Y-82125325D01*
X83139500Y-83874675D01*
X67555960Y-83874675D01*
X67718954Y-83825232D01*
X67901450Y-83727685D01*
X68061410Y-83596410D01*
X68192685Y-83436450D01*
X68290232Y-83253954D01*
X68350300Y-83055934D01*
X68370583Y-82850000D01*
X68350300Y-82644066D01*
X68290232Y-82446046D01*
X68192685Y-82263550D01*
X68127047Y-82183569D01*
X68061410Y-82103589D01*
X67948710Y-82011100D01*
X67901450Y-81972315D01*
X67774228Y-81904313D01*
X67718956Y-81874769D01*
X67718955Y-81874768D01*
X67718954Y-81874768D01*
X67619944Y-81844734D01*
X67520932Y-81814699D01*
X67315000Y-81794417D01*
X67109067Y-81814699D01*
X66911043Y-81874769D01*
X66728551Y-81972314D01*
X66568589Y-82103589D01*
X66437314Y-82263551D01*
X66339769Y-82446043D01*
X66279699Y-82644067D01*
X66259417Y-82849999D01*
X65805583Y-82849999D01*
X65785300Y-82644066D01*
X65725232Y-82446046D01*
X65627685Y-82263550D01*
X65562047Y-82183569D01*
X65496410Y-82103589D01*
X65383710Y-82011100D01*
X65336450Y-81972315D01*
X65209228Y-81904313D01*
X65153956Y-81874769D01*
X65153955Y-81874768D01*
X65153954Y-81874768D01*
X65054944Y-81844734D01*
X64955932Y-81814699D01*
X64750000Y-81794417D01*
X64544067Y-81814699D01*
X64346043Y-81874769D01*
X64163551Y-81972314D01*
X64003589Y-82103589D01*
X63872314Y-82263551D01*
X63774769Y-82446043D01*
X63714699Y-82644067D01*
X63694417Y-82849999D01*
X53125500Y-82849999D01*
X53125500Y-82025326D01*
X53110966Y-81952260D01*
X53055601Y-81869399D01*
X52972740Y-81814034D01*
X52972739Y-81814033D01*
X52972738Y-81814033D01*
X52899675Y-81799500D01*
X52899674Y-81799500D01*
X51250326Y-81799500D01*
X51250325Y-81799500D01*
X51177261Y-81814033D01*
X51094399Y-81869399D01*
X51039033Y-81952261D01*
X51024500Y-82025325D01*
X51024500Y-83674675D01*
X50560500Y-83674675D01*
X50560500Y-83674674D01*
X50560500Y-82025326D01*
X50545966Y-81952260D01*
X50490601Y-81869399D01*
X50407740Y-81814034D01*
X50407739Y-81814033D01*
X50407738Y-81814033D01*
X50334675Y-81799500D01*
X50334674Y-81799500D01*
X48685326Y-81799500D01*
X48685325Y-81799500D01*
X48612261Y-81814033D01*
X48529399Y-81869399D01*
X48474033Y-81952261D01*
X48459500Y-82025325D01*
X48459500Y-83674675D01*
X28000500Y-83674675D01*
X28000500Y-78225738D01*
X48591037Y-78225738D01*
X48653829Y-78277268D01*
X48836235Y-78374766D01*
X49034165Y-78434808D01*
X49240000Y-78455080D01*
X49445834Y-78434808D01*
X49643764Y-78374766D01*
X49826171Y-78277268D01*
X49888960Y-78225738D01*
X49888961Y-78225737D01*
X49240001Y-77576777D01*
X49240000Y-77576777D01*
X48591037Y-78225737D01*
X48591037Y-78225738D01*
X28000500Y-78225738D01*
X28000500Y-77400000D01*
X48184919Y-77400000D01*
X48205191Y-77605834D01*
X48265233Y-77803764D01*
X48362731Y-77986170D01*
X48414260Y-78048960D01*
X48414262Y-78048960D01*
X49063223Y-77400001D01*
X49416777Y-77400001D01*
X50065737Y-78048961D01*
X50065738Y-78048960D01*
X50117268Y-77986171D01*
X50214766Y-77803764D01*
X50274808Y-77605834D01*
X50295080Y-77400000D01*
X50295080Y-77399999D01*
X58344417Y-77399999D01*
X58364699Y-77605932D01*
X58364700Y-77605934D01*
X58424768Y-77803954D01*
X58522315Y-77986450D01*
X58540210Y-78008255D01*
X58653589Y-78146410D01*
X58733570Y-78212047D01*
X58813550Y-78277685D01*
X58996046Y-78375232D01*
X59194066Y-78435300D01*
X59400000Y-78455583D01*
X59605934Y-78435300D01*
X59803954Y-78375232D01*
X59898539Y-78324675D01*
X61129500Y-78324675D01*
X61144033Y-78397738D01*
X61144033Y-78397739D01*
X61144034Y-78397740D01*
X61199399Y-78480601D01*
X61282260Y-78535966D01*
X61318793Y-78543233D01*
X61355325Y-78550500D01*
X61355326Y-78550500D01*
X63204674Y-78550500D01*
X63204675Y-78550500D01*
X63229029Y-78545655D01*
X63277740Y-78535966D01*
X63360601Y-78480601D01*
X63415966Y-78397740D01*
X63430500Y-78324674D01*
X63430500Y-77556054D01*
X63446171Y-77495715D01*
X63489223Y-77450627D01*
X63548773Y-77432186D01*
X63609772Y-77445054D01*
X63656800Y-77485977D01*
X63677971Y-77544613D01*
X63684243Y-77612310D01*
X63742595Y-77817390D01*
X63837631Y-78008252D01*
X63966126Y-78178405D01*
X63966128Y-78178407D01*
X64123698Y-78322052D01*
X64304981Y-78434298D01*
X64503802Y-78511321D01*
X64713390Y-78550500D01*
X64926608Y-78550500D01*
X64926610Y-78550500D01*
X65136198Y-78511321D01*
X65335019Y-78434298D01*
X65516302Y-78322052D01*
X65673872Y-78178407D01*
X65802366Y-78008255D01*
X65802366Y-78008253D01*
X65802368Y-78008252D01*
X65850080Y-77912430D01*
X65897405Y-77817389D01*
X65955756Y-77612310D01*
X65975429Y-77400000D01*
X65955756Y-77187690D01*
X65897405Y-76982611D01*
X65897014Y-76981827D01*
X65802368Y-76791747D01*
X65673873Y-76621594D01*
X65621950Y-76574260D01*
X65516302Y-76477948D01*
X65516301Y-76477947D01*
X65335017Y-76365701D01*
X65136198Y-76288679D01*
X65136197Y-76288678D01*
X64926610Y-76249500D01*
X64713390Y-76249500D01*
X64573664Y-76275619D01*
X64503801Y-76288679D01*
X64304982Y-76365701D01*
X64123698Y-76477947D01*
X63966126Y-76621594D01*
X63837631Y-76791747D01*
X63742595Y-76982609D01*
X63684243Y-77187689D01*
X63677971Y-77255387D01*
X63656800Y-77314023D01*
X63609772Y-77354946D01*
X63548773Y-77367814D01*
X63489223Y-77349373D01*
X63446171Y-77304285D01*
X63430500Y-77243946D01*
X63430500Y-76475325D01*
X63415966Y-76402261D01*
X63415966Y-76402260D01*
X63360601Y-76319399D01*
X63277740Y-76264034D01*
X63277739Y-76264033D01*
X63277738Y-76264033D01*
X63204675Y-76249500D01*
X63204674Y-76249500D01*
X61355326Y-76249500D01*
X61355325Y-76249500D01*
X61282261Y-76264033D01*
X61199399Y-76319399D01*
X61144033Y-76402261D01*
X61129500Y-76475325D01*
X61129500Y-78324675D01*
X59898539Y-78324675D01*
X59986450Y-78277685D01*
X60146410Y-78146410D01*
X60277685Y-77986450D01*
X60375232Y-77803954D01*
X60435300Y-77605934D01*
X60455583Y-77400000D01*
X60435300Y-77194066D01*
X60375232Y-76996046D01*
X60277685Y-76813550D01*
X60212047Y-76733569D01*
X60146410Y-76653589D01*
X60048952Y-76573608D01*
X59986450Y-76522315D01*
X59803954Y-76424768D01*
X59704943Y-76394733D01*
X59605932Y-76364699D01*
X59400000Y-76344417D01*
X59194067Y-76364699D01*
X58996043Y-76424769D01*
X58813551Y-76522314D01*
X58653589Y-76653589D01*
X58522314Y-76813551D01*
X58424769Y-76996043D01*
X58364699Y-77194067D01*
X58344417Y-77399999D01*
X50295080Y-77399999D01*
X50274808Y-77194165D01*
X50214766Y-76996235D01*
X50117268Y-76813829D01*
X50065737Y-76751037D01*
X49416777Y-77400000D01*
X49416777Y-77400001D01*
X49063223Y-77400001D01*
X49063223Y-77400000D01*
X48414261Y-76751038D01*
X48414260Y-76751038D01*
X48362730Y-76813829D01*
X48265233Y-76996235D01*
X48205191Y-77194165D01*
X48184919Y-77400000D01*
X28000500Y-77400000D01*
X28000500Y-76574261D01*
X48591038Y-76574261D01*
X49240000Y-77223223D01*
X49240001Y-77223223D01*
X49888960Y-76574262D01*
X49888960Y-76574260D01*
X49826170Y-76522731D01*
X49643764Y-76425233D01*
X49445834Y-76365191D01*
X49240000Y-76344919D01*
X49034165Y-76365191D01*
X48836235Y-76425233D01*
X48653829Y-76522730D01*
X48591038Y-76574260D01*
X48591038Y-76574261D01*
X28000500Y-76574261D01*
X28000500Y-73124500D01*
X28017113Y-73062500D01*
X28062500Y-73017113D01*
X28124500Y-73000500D01*
X91875500Y-73000500D01*
X91937500Y-73017113D01*
G37*
%TD.AperFunction*%
%TD*%
M02*
